<svg width="800" height="800" viewBox="0 0 800 800" fill="none" xmlns="http://www.w3.org/2000/svg">
<g clip-path="url(#clip0_2001_5851)">
<mask id="mask0_2001_5851" style="mask-type:luminance" maskUnits="userSpaceOnUse" x="40" y="90" width="716" height="613">
<path d="M755.295 90.77H40V702.034H755.295V90.77Z" fill="white"/>
</mask>
<g mask="url(#mask0_2001_5851)">
<path d="M547.325 403.047L544.279 410.247L539.848 419.478L536.063 424.924C534.217 427.694 533.386 430.463 531.817 433.324L527.94 440.247C527.386 440.617 525.909 441.724 525.632 442.37C524.709 444.401 522.402 447.447 520.648 449.478L516.586 454.371C513.632 456.124 511.971 458.062 509.848 460.923L506.525 465.539L501.632 471.817L495.355 479.109C492.955 481.971 491.755 485.109 490.648 488.801L489.078 493.877C488.063 497.201 488.525 501.725 489.078 505.14L490.278 511.602C490.555 512.801 491.294 515.478 491.94 516.586L495.817 523.509L499.14 528.309L509.94 544.463C510.863 545.848 511.786 547.878 512.248 549.447C515.755 553.231 517.232 557.663 519.448 562.279L524.063 571.971C525.448 574.925 527.756 577.971 526.832 581.294C526.556 582.494 527.848 584.709 528.125 585.725V599.385C528.125 599.939 526.648 601.14 526.925 601.509L528.125 603.448L526.463 607.971L524.986 614.062L523.786 619.786C522.956 623.386 520.74 627.263 519.079 630.679L516.863 635.294L513.54 642.679L511.417 647.571L508.925 653.756C509.755 661.602 506.248 667.97 508.002 676.37L509.386 682.833C509.755 684.771 511.509 688.279 512.617 690.033L518.525 699.171C517.971 700.464 516.494 702.125 515.479 702.125C514.094 702.125 512.709 701.11 511.879 699.541L506.802 698.894C505.879 696.771 504.863 694.464 503.663 692.987L497.571 685.325L493.417 679.787L490.463 675.448L486.032 668.156L482.525 661.233C480.863 658.002 479.848 654.402 478.925 650.525L478.74 642.587C476.802 638.71 477.355 635.386 478.463 631.233L479.755 626.525C480.494 623.848 480.863 621.448 482.155 619.048C483.448 616.648 484.094 613.971 484.925 611.386L487.602 603.079L489.725 597.448L490.74 590.709C491.848 583.509 491.478 576.401 487.325 570.216L480.955 560.525L466.74 544.831L456.678 534.309L451.232 526.094C446.34 518.802 443.755 510.955 443.294 502.094L443.017 495.909C442.648 488.617 446.986 485.109 448.832 480.771C450.401 477.171 452.063 474.494 454.094 471.355L459.54 463.231L463.232 457.232L469.602 449.385L474.309 441.631L479.478 431.017L483.54 421.232L484.555 416.709L485.94 411.17L487.325 405.724C487.786 403.878 487.971 402.031 488.248 400.092L489.355 392.247C489.725 389.293 489.909 384.77 489.355 381.816L487.971 374.709L486.955 369.263C486.678 367.509 486.032 366.124 484.186 365.755V386.986L482.617 389.847C485.386 397.324 476.34 399.169 473.571 406.369C472.648 408.769 472.648 409.97 470.248 412.001L472.555 415.786C470.155 418.463 467.017 419.847 463.417 419.201L457.694 418.278C453.909 417.632 451.786 415.231 448.74 413.293L440.709 408.217C439.14 407.201 435.909 405.817 433.971 405.632C420.494 404.247 415.324 406.185 404.894 413.108L398.709 417.17C396.032 418.924 394.463 420.863 392.524 423.54C391.232 424.832 388.278 427.232 386.524 428.063L369.817 436.278L365.478 437.755L359.94 439.232L353.57 439.786L351.632 440.894C351.632 440.894 350.063 439.601 349.509 439.509C346.186 439.232 340.001 440.063 336.586 439.14L331.601 437.755L326.801 436.37L321.816 435.078L317.755 434.062C311.478 432.493 306.216 434.893 300.401 436.37C296.432 437.293 293.109 439.694 289.509 441.447L277.047 447.263L265.97 452.155C262.278 453.817 258.678 456.217 255.539 458.432C252.955 455.571 246.955 454.371 246.585 449.94C246.216 445.509 248.985 442.832 250.555 439.509L258.77 422.523L264.124 407.386L265.509 401.201C266.155 398.432 264.955 395.478 268.462 394.093L268.278 376.186L266.801 371.755C265.785 368.524 264.862 364.647 263.385 361.786L261.078 357.17C259.601 355.416 258.124 353.201 257.108 350.893H255.355C254.801 350.893 254.708 352.832 254.893 353.386L256.462 360.124L257.755 368.339C258.401 372.493 256.001 376.186 255.078 380.247L253.97 385.14L249.816 394.093L247.324 398.616C245.939 401.2 243.632 404.709 242.985 407.478C242.247 410.893 241.878 414.216 239.939 417.077L241.047 418.924C241.047 418.924 240.493 420.308 240.308 420.862L237.355 428.155L236.062 433.509L233.662 438.309L231.262 443.755L236.339 453.817L237.724 456.678L241.693 466.924C244.647 470.063 246.678 473.848 246.955 478.186C247.878 479.663 247.508 480.493 246.955 482.339L246.401 488.524L245.201 492.955L242.247 502.278L236.339 514.186L233.293 518.525L229.508 523.694L226.647 527.847L221.385 533.848C219.447 536.063 218.524 537.54 216.031 539.202L212.062 544.463C210.493 546.586 209.108 548.709 207.078 550.555C203.939 553.417 201.354 556.74 200.708 561.448C199.785 567.448 199.97 574.371 200.708 580.556L202.462 586.279C203.57 589.786 204.77 592.74 207.354 595.233L211.231 598.925L218.893 605.663L221.57 607.785L228.955 612.217L232.462 614.709C237.724 618.493 241.508 623.386 244.001 629.202L248.432 639.171L253.601 649.694L253.878 656.247L255.355 663.356L256.647 667.971L258.124 673.417C258.493 674.617 259.97 676.925 260.893 677.94L268.555 686.064C269.847 687.356 268.37 689.756 266.616 689.848C262.832 690.125 263.016 685.51 259.324 689.848C252.124 684.217 246.401 676.925 242.062 668.894L237.908 661.14L235.231 657.078C233.939 655.047 232.001 653.201 231.17 650.986C230.155 648.309 228.308 647.663 226.37 646.002C220.924 641.202 215.939 636.679 208.554 634.371C207.262 634.002 205.416 631.971 204.308 631.417L195.17 626.802L190.462 624.586L184.647 621.448L174.216 614.156C169.785 611.017 166.37 607.417 163.508 602.802L155.477 590.155L152.893 584.432L151.324 580.093L150.77 573.17C149.293 568.462 150.216 564.125 150.862 559.602L152.154 551.017L153.631 545.202L157.416 534.678L161.385 524.617L163.877 518.986C166.831 512.525 169.97 506.801 172.277 499.971C173.293 497.017 175.877 493.694 176.524 490.74L177.908 484.555L179.57 478.554C180.124 476.431 179.201 473.109 178.462 470.894L176.524 464.801C175.508 461.571 173.385 457.971 171.447 455.017L163.416 443.108L157.97 436.185C154.37 431.57 152.524 426.124 150.216 420.493C149.57 418.924 149.662 416.617 149.754 414.586C149.847 412.555 149.016 410.617 148.647 408.586C146.708 397.601 149.939 390.863 149.57 385.878C149.2 380.247 153.908 370.37 156.585 364.37L162.4 350.986L165.724 345.447L176.708 328.278C176.708 328.278 177.077 326.247 176.708 326.062C176.154 325.785 174.401 325.509 173.754 325.693L160.924 329.662L155.2 330.77L128.339 331.693L122.062 332.986C119.569 333.539 118.369 334.462 115.785 332.986L111.077 332.247L106.738 331.139L97.7846 328.647C88.4615 326.062 80.1538 321.355 72.3076 315.724C69.4461 313.693 66.5845 311.016 64.8307 308.062L60.3999 300.678C58.4614 297.447 54.3075 294.77 52.0921 291.539L49.7844 288.124C46.4614 283.324 47.1998 278.893 44.246 277.047C42.6768 277.785 42.7691 277.785 44.4306 276.955L43.5998 273.262L42.1229 266.801L40.8306 259.97L39.5383 251.939C39.1691 249.447 39.5383 247.878 40.1844 245.293C40.7383 243.262 39.9998 239.016 40.646 237.077L43.6921 228.216L46.9229 220.831C47.6614 219.17 48.1229 218.062 49.046 216.677C50.7075 214.185 51.9075 210.77 53.6614 208.37L57.8152 202.831L61.6922 197.662C66.4922 191.293 72.6768 186.77 79.6922 183.077L83.7538 180.861C86.9846 179.108 90.3077 177.077 93.7231 175.877L101.846 173.108L108.215 172.092C115.969 170.892 124 171.446 131.939 172.092C134.616 172.277 137.477 173.477 140.339 173.108C141.447 172.923 143.57 173.938 144.585 174.308C148.739 174.585 153.724 174.769 157.877 174.123C159.908 173.846 161.939 173.015 164.154 173.108C174.677 173.477 187.324 164.984 191.662 155.292L193.416 151.323L197.108 143.107L199.139 138.584L201.908 132.215C204.124 127.231 207.631 121.969 212.154 119.015C214.647 117.354 217.047 113.846 219.539 112.461C223.047 110.984 225.631 109.692 228.678 107.661C231.078 106.092 233.939 104.892 236.432 103.692C241.416 101.107 246.216 99.5381 251.57 97.4151L256.555 95.3843L263.016 94.2766L268.555 92.892L274.555 91.5073C280.001 90.215 285.909 90.8612 291.447 91.5073L296.801 92.892L302.247 94.1843C306.032 95.1074 310.186 96.7689 313.047 98.9843L319.97 104.43L325.97 109.784C327.816 111.446 329.109 111.907 330.216 114.03L333.17 117.63L335.755 121.507C337.416 124 339.078 127.6 340.001 130.646L342.863 139.969L344.34 146.154L344.986 162.215L346.463 168.769C348.77 171.631 351.909 174.215 354.863 176.246L359.755 179.569L364.37 182.246C367.693 184.185 374.709 184.739 379.324 183.816L386.432 182.431L391.694 181.046C396.401 179.754 398.894 174.861 402.586 172.369C407.109 171.631 411.817 166.184 413.201 161.477L417.263 157.046C416.709 154.738 417.078 152.8 418.186 151.969C420.494 150.4 422.063 151.784 423.724 153.077C424.924 154 427.878 155.938 427.509 157.323L426.032 163.6C423.724 166.461 421.417 169.231 420.401 172.923L418.647 175.231L415.232 179.938C412.555 184.093 409.786 187.416 404.709 189.077C403.047 190.462 400.647 192.308 398.524 193.416L385.97 200.062C381.909 202.185 376.832 202.647 372.309 204.308C370.37 204.954 366.124 204.954 364.278 204.493L358.832 202.924L354.586 201.816L338.801 196.185L333.539 193.416L326.155 189.077C321.909 186.585 312.309 171.723 311.57 168.954L310.37 164.431L307.97 156.954L306.955 150.677C306.401 143.661 304.093 138.307 299.293 133.231C294.862 128.523 293.109 126.769 285.724 124.831C283.693 124.277 281.016 123.261 279.262 124.738C277.693 126.031 276.955 125.938 274.832 125.661C271.139 125.292 265.878 124.923 262.462 125.754C258.862 126.954 255.908 128.707 252.032 128.246C250.185 131.292 248.062 133.969 245.755 136.369L241.416 146.338L238.462 153.631C237.908 155.015 237.355 158.061 237.078 159.446L235.693 167.846L234.401 174.215L231.539 182.431C230.616 185.108 229.508 188.247 227.847 190.554L223.878 196.185L218.339 201.354C217.508 202.093 215.385 203.385 214.37 203.754L197.57 209.939L173.754 210.124C171.539 208.739 169.324 208.831 166.739 208.647L156.585 208H151.508C148.462 208 144.77 207.354 141.816 207.724C132.677 208.831 124.277 212.431 119.108 219.908L112.646 226.37L105.815 235.785C105.538 239.662 105.538 244.554 106 248.616C106.092 249.631 107.108 251.57 107.015 252.585C106.831 256.001 108.954 259.601 110.154 260.431C110.892 260.893 113.015 260.616 114.308 260.431C115.785 263.293 117.723 265.601 120.308 267.816L123.539 270.678C126.031 272.893 127.692 275.016 130.646 276.862L134.339 280.462L138.4 282.401C142.185 282.216 145.785 282.401 149.293 284.155L151.416 287.939H158.985L182.154 278.155C183.908 278.155 185.847 278.155 187.139 277.416L194.431 272.801L212.339 264.862L215.662 263.57L219.355 263.108L224.062 261.447L227.385 260.524L236.985 257.662L242.616 256.093C246.401 254.985 249.17 253.324 253.508 253.785C254.893 253.97 256.832 253.139 258.308 253.047L268.739 252.124C272.709 251.754 276.401 249.816 285.816 252.216L295.97 254.893L302.247 256.278L305.755 257.478L310.462 258.954L316.001 260.431L319.97 261.724L324.124 263.016L331.232 264.493L337.324 265.97C339.54 266.524 343.14 266.062 345.263 266.893C349.878 268.647 354.216 267.17 358.647 266.431C361.786 265.97 365.017 266.339 368.155 264.955L375.817 261.539L380.617 258.862L394.001 250.37L400.001 246.493L408.678 240.954L416.524 236.893L424.278 232.647C427.048 231.17 429.54 231.17 432.494 230.339L440.155 228.124C444.309 226.924 448.555 229.97 452.155 231.631L457.325 234.031C465.171 237.724 469.786 237.816 478.463 237.262L484.371 235.139L491.755 231.17C492.863 230.524 495.817 229.601 497.109 229.416C505.694 228.308 513.725 229.601 520.371 234.862C522.402 236.431 525.448 237.447 527.848 238.278L530.525 240.216L536.432 238.554C538.832 237.908 535.232 234.77 534.032 227.847L532.925 221.293L531.448 215.293L530.525 210.308L515.386 180.215L506.34 166.461L502.371 161.108L493.971 151.784C492.125 149.754 490.555 147.815 489.171 145.415L492.955 141.907H498.863L508.186 146.615L513.079 151.138L520.925 155.015C523.602 158.061 526.74 160.369 530.248 161.846L540.402 171.631L544.463 174.492L558.402 188.062L562.371 191.662L569.017 197.385C569.94 198.124 571.971 199.047 572.894 200.247C577.51 206.616 583.14 196.185 595.51 194.154L602.617 192.954L608.156 192.308C611.571 190.831 613.787 191.016 617.11 192.308L626.156 192.862L632.617 194.154C633.91 194.431 636.494 195.17 637.602 195.631L644.064 198.677L647.387 204.585C648.033 205.693 651.079 203.939 652.094 203.108L657.079 199.231L665.018 193.693C668.802 191.016 671.294 188.8 674.987 186.216L681.725 181.508L687.633 177.169L701.387 169.692L706.464 165.815L715.233 160.092C718.372 158.061 722.895 157.784 725.756 159.446H729.264C730.002 159.446 729.91 162.584 729.264 163.323C727.51 165.261 726.402 167.384 725.202 169.6L720.402 178.185C719.018 180.677 717.91 183.17 716.525 185.477L711.541 193.508C711.079 194.247 709.602 195.631 708.956 196.277L703.141 206.8L697.51 217.601L695.848 221.662V255.447C694.648 257.108 693.171 260.616 694.925 262.093L700.002 260.339L705.541 259.139L708.679 258.124L720.587 257.754C723.633 257.754 728.802 255.262 731.756 252.77C732.772 250.278 734.618 249.262 737.018 249.724C739.049 250.093 740.802 253.693 738.402 255.354C736.741 256.462 733.972 257.57 732.772 259.139C731.387 260.893 729.818 263.201 727.418 263.201L717.079 263.57C715.418 264.401 713.387 264.955 711.356 264.862C709.048 264.401 707.202 264.678 705.633 265.97C694.833 266.524 697.233 273.17 690.864 277.416L688.279 281.478C685.418 286.001 682.556 287.293 683.571 287.57L685.418 288.124L688.833 289.416L702.587 296.985L708.125 298.924L713.848 296.247C721.048 292.832 721.048 287.57 726.587 284.062L728.987 282.493C730.372 281.57 731.387 281.201 733.233 280.739C734.71 280.37 737.295 279.078 738.587 280.001C741.633 282.216 742.741 280.278 747.541 280.001L754.372 279.631L754.556 284.432C752.341 285.724 748.464 285.908 746.249 286.832L743.572 287.847C742.925 288.124 742.095 287.108 741.172 286.185L734.802 289.785C732.402 291.17 730.648 292.924 729.356 295.324C727.51 298.832 723.818 299.755 720.772 301.97L716.987 304.739C713.11 307.601 709.602 307.416 705.541 305.847C704.248 305.385 702.31 304.739 701.11 304.001L694.187 299.662C691.695 298.093 688.002 295.047 684.864 295.416L679.233 296.062L679.971 302.155L679.602 303.539L681.079 308.155C683.848 310.001 686.525 312.124 689.018 314.432L694.002 319.047C694.371 320.616 695.387 322.739 696.587 323.016L702.033 324.124C705.264 324.77 710.341 324.955 713.756 324.124L720.587 322.647C724.372 321.816 727.049 321.17 730.741 322.647L735.448 324.585L740.341 326.893L742.095 328.278C742.648 328.739 742.095 331.139 741.264 331.416C738.587 332.247 734.064 331.139 731.11 330.124C728.802 329.57 724.833 329.847 722.71 330.124L717.264 331.139C716.064 331.324 714.771 331.97 713.756 332.801C710.71 335.201 706.925 333.447 703.695 332.616C702.402 332.247 699.356 332.616 698.248 331.509L692.71 326.247L687.725 321.539C685.879 319.785 684.956 317.293 681.633 316.278C680.064 315.816 679.787 318.401 679.325 319.97L675.356 332.986L673.879 338.616L672.033 345.078L669.079 353.201C667.325 357.909 664.187 365.201 658.094 364.739C652.833 364.37 647.479 360.77 642.31 359.755C628.74 357.078 617.664 344.432 607.694 341.201L593.663 336.586L589.879 335.478C586.002 335.201 582.402 334.186 579.171 331.785L573.91 327.909L558.863 313.878L555.079 311.201C554.063 310.462 551.109 310.185 550.094 311.109C547.233 313.601 546.863 317.385 547.048 320.616C542.617 324.585 538.925 330.032 540.494 336.309C537.909 339.355 538.556 343.139 540.032 346.186L541.417 351.724C541.417 354.401 542.156 356.893 543.725 359.016L546.679 368.893L549.356 377.57C550.463 381.17 550.094 387.077 549.356 391.047L548.156 397.601C547.971 398.801 547.233 401.478 546.679 402.77L547.325 403.047ZM84.3999 201.354C86.6153 199.508 87.9076 198.493 89.3846 196.277C85.0461 197.2 82.5538 199.877 80.523 203.2L84.3999 201.354ZM74.3384 236.801C75.1691 235.139 75.5384 233.477 74.6153 231.539L72.123 236.708C72.123 236.708 72.4922 238.37 72.5845 238.647C72.6768 238.924 73.5076 238.647 73.5999 238.278L74.3384 236.801ZM653.11 267.724C655.787 265.97 657.448 264.216 659.664 261.447V252.954L656.987 248.985C653.571 246.862 649.233 248.985 648.771 252.678C648.587 253.878 648.217 254.893 647.848 256.001C646.187 260.524 649.233 265.231 653.202 267.724H653.11ZM52.1845 250.647C52.1845 250.647 50.6152 250.278 50.7075 250.647C50.5229 254.247 49.3229 255.908 51.8152 258.678L52.1845 250.554V250.647ZM580.279 271.508C583.51 270.955 586.094 268.462 587.756 266.062C589.417 263.662 589.417 260.893 586.648 259.324C585.91 256.185 583.14 253.601 579.263 253.785C576.956 253.785 574.74 257.478 574.833 259.785C573.263 262.001 573.263 264.031 574.833 266.062C574.833 268.739 576.679 272.062 580.186 271.508H580.279ZM644.341 319.601L644.71 312.955C647.387 309.078 646.094 304.462 642.679 301.601L638.156 301.416C635.848 300.308 633.356 299.847 631.325 300.308C629.94 304.739 631.325 308.155 633.079 311.57L635.94 317.016L640.094 324.678L641.294 326.155C641.294 326.155 643.233 325.97 643.048 325.878L644.433 319.693L644.341 319.601ZM164.062 414.955L165.354 414.678V407.755C165.447 406.093 164.524 404.247 163.139 403.047C161.847 405.447 162.493 406.924 163.324 409.14L164.062 414.863V414.955ZM207.17 608.248L200.801 604.556C200.431 607.417 206.708 610.74 209.108 609.909C209.385 609.817 208.739 608.986 208.462 608.802L207.17 608.248Z" fill="white"/>
<path d="M387.077 678.218C378.585 679.695 376.554 677.849 371.477 674.71L367.601 672.31L357.908 662.987L354.586 660.033C349.14 655.325 342.032 645.449 338.432 638.433C336.678 635.018 334 631.141 333.539 627.172C333.077 623.202 333.631 619.418 332.431 615.633L331.6 602.987L329.108 594.864L327.446 589.141L324.954 583.418L310.462 568.556C308.708 566.802 306.677 565.417 304.739 564.125L300.585 561.356L295.508 557.571L288.308 551.017C286.369 549.264 283.6 546.31 282.4 544.279L277.692 536.525L276.4 531.079L274.923 526.094L274.369 517.048C274.277 515.017 272.892 512.71 273.262 510.679L274.739 502.463C274.092 498.863 274.185 495.817 275.846 492.679L276.216 489.448L279.908 481.602L281.016 476.802L283.323 470.802L289.046 456.494C289.6 455.202 292.739 454.556 293.754 453.725L297.631 450.679C298.831 449.756 300.308 448.648 301.6 448.556C305.846 448.463 310.923 455.756 310.093 459.079C309.262 462.402 306.769 465.909 304.831 468.771C304.831 472.556 303.354 475.602 302.339 479.294L300.954 484.463L299.662 490.094C300.308 492.586 300.493 494.986 300.585 497.848L300.862 507.633L302.339 512.156L303.816 517.048C304.831 520.371 306.862 524.156 308.523 527.017L314.708 537.54L324.031 550.741C328.093 552.31 331.416 554.802 334.462 558.125C337.508 561.448 344.34 565.233 346.832 569.018L354.031 580.279L358.001 585.356L360.678 588.771C360.494 591.079 362.339 593.295 362.893 595.233L365.847 604.833C367.047 608.618 366.493 614.895 365.847 618.864C365.477 621.356 365.108 621.725 365.847 624.033C366.677 626.618 366.031 630.587 366.308 633.356C368.339 636.033 366.863 637.51 369.078 642.772L375.817 659.018C376.555 660.772 378.216 662.895 379.877 664.279C382.001 665.941 381.908 669.356 383.108 671.295L387.262 678.033L387.077 678.218Z" fill="white"/>
<path d="M645.633 619.511L641.848 619.788C641.017 619.788 640.463 617.85 640.002 617.111L635.571 616.742L631.602 611.019L628.833 607.05C628.187 605.019 627.54 602.896 626.248 601.234C620.34 593.85 616.094 586.096 613.786 576.588C612.586 571.881 613.417 566.157 613.325 560.896C616.648 556.096 615.725 551.85 619.694 546.68L622.74 542.711L631.51 529.603L636.125 522.034C638.156 518.711 639.079 514.373 640.279 510.68L641.663 506.434V493.788C641.663 491.942 638.802 489.357 637.787 487.88C636.31 485.573 635.017 484.465 632.987 482.896L626.617 478.28C622.925 475.603 618.956 474.126 614.617 473.203L609.356 472.096L603.91 470.803L595.233 467.942L583.233 462.219C582.217 461.757 580.094 460.28 579.263 459.542L570.309 451.419L566.248 447.265C562.74 443.019 559.879 437.757 557.202 432.957V411.08L559.786 407.572C560.063 405.172 560.156 403.326 560.894 401.295L562.74 396.034C563.848 392.803 564.771 390.126 562.925 387.357L564.125 385.418C564.125 385.418 562.832 383.664 562.832 383.111V372.864C562.832 370.649 563.386 369.08 562.925 367.141L561.725 361.511L560.34 356.618L558.863 351.911C558.494 350.895 558.586 348.403 559.417 347.757C560.248 347.111 562.002 346.741 563.294 346.28C567.817 344.711 570.586 346.372 574.463 349.326C577.971 352.003 581.479 354.68 583.971 358.464C587.571 364.187 588.771 366.957 588.679 373.788L588.402 395.48C588.402 397.88 586.833 399.265 588.771 401.48L589.048 407.203L590.433 412.188L591.817 417.634L595.971 429.265L599.94 433.972C601.879 436.372 603.817 438.311 606.125 440.157L609.171 442.649L618.956 447.726L627.725 451.326L634.925 454.28L640.464 455.572L646.094 456.957L650.987 458.249L657.356 460.834L663.725 463.88C667.879 465.819 670.187 468.219 672.679 471.819C674.71 474.68 676.833 476.896 677.756 480.588L681.541 489.449L682.556 495.819L681.633 503.48C680.894 509.48 677.202 512.803 677.387 517.788L673.879 524.896C670.371 531.819 666.31 537.634 661.233 543.265L652.094 553.327L648.033 558.034C644.433 562.28 641.756 566.896 639.171 571.88C636.956 576.219 639.356 578.527 636.956 582.127C636.679 587.481 636.402 593.019 637.14 598.188C638.34 607.234 648.125 612.311 646.002 619.604L645.633 619.511Z" fill="white"/>
</g>
</g>
<defs>
<clipPath id="clip0_2001_5851">
<rect width="720.002" height="618.464" fill="white" transform="translate(40 90.77)"/>
</clipPath>
</defs>
</svg>
