<svg width="800" height="800" viewBox="0 0 800 800" fill="none" xmlns="http://www.w3.org/2000/svg">
<g clip-path="url(#clip0_2001_5850)">
<mask id="mask0_2001_5850" style="mask-type:luminance" maskUnits="userSpaceOnUse" x="40" y="283" width="717" height="231">
<path d="M756.63 283.12H40V513.986H756.63V283.12Z" fill="white"/>
</mask>
<g mask="url(#mask0_2001_5850)">
<path d="M478.355 482.661L485.462 472.749C486.21 467.887 489.389 464.52 492.194 460.78C497.244 453.954 497.057 444.791 493.036 437.591C488.361 429.269 492.849 425.061 486.677 419.544C484.153 417.3 480.974 413.84 480.132 410.661C478.262 403.741 483.498 399.534 489.483 398.318C495.467 397.103 501.358 397.477 507.529 399.066C514.729 400.936 518.937 394.952 529.69 397.757C536.516 399.534 538.386 392.521 543.997 392.24L551.197 391.866C553.721 395.98 553.067 400.282 550.823 404.209C548.765 407.762 544.651 410.567 539.976 410.287C534.927 410.006 529.971 411.128 525.95 414.308C520.714 418.609 513.888 418.048 508.745 413.56C504.444 409.819 499.301 410.38 497.805 412.999C497.337 413.747 497.618 415.897 497.992 416.739L502.573 426.089C504.163 432.261 505.005 438.526 505.285 444.978C505.379 447.783 502.573 450.681 504.257 453.767C504.911 455.076 506.407 457.788 506.314 459.284C506.127 463.305 502.386 466.11 498.74 466.765C496.215 467.232 494.158 468.541 492.942 470.598C489.95 475.554 483.405 483.876 478.449 482.941L478.355 482.661Z" fill="white"/>
<path d="M530.532 506.879L515.103 508.188C511.27 508.469 507.623 508.001 504.163 505.851C508.09 504.074 511.831 504.729 515.571 503.513L527.633 499.586C531.28 498.37 534.272 501.456 536.984 498.183C537.919 496.968 537.545 494.63 536.516 493.321C533.804 489.861 533.337 485.841 531.654 482.1C530.345 479.108 528.007 476.677 527.446 473.217C526.231 465.363 521.275 462.184 522.864 455.264C524.36 448.812 518.283 446.007 517.908 439.929C517.628 434.506 521.929 430.766 526.511 428.615L539.789 422.35C552.599 416.366 559.051 405.799 557.087 391.587C555.217 378.683 557.275 366.059 565.316 355.587C567.747 352.501 568.495 349.041 565.784 345.394C566.064 349.041 564.942 351.005 562.791 353.249C556.713 359.607 552.88 357.737 549.233 361.197C549.42 365.872 546.989 369.519 543.342 372.044C540.256 374.194 535.862 374.849 533.43 371.576L526.418 361.945C524.921 359.888 522.21 358.018 521.088 355.68C518.75 350.818 516.506 346.142 512.672 342.496C510.147 340.065 506.501 339.13 504.444 335.296C510.708 338.007 517.067 341.28 522.303 346.049C528.288 351.379 530.812 365.592 539.041 362.787C546.241 360.355 544.464 349.041 553.16 350.724C554.563 349.696 555.685 347.452 556.807 346.049C559.145 343.057 562.23 341 565.41 338.475L567.28 341.654C568.495 338.849 571.02 337.353 574.293 337.353C583.643 329.779 587.57 339.971 597.202 339.036C601.316 344.085 606.178 347.919 612.724 349.883C621.513 352.594 628.339 361.664 626.843 371.296C626.095 375.877 622.822 380.927 619.643 383.919C616.744 386.631 613.846 388.594 612.911 392.802C612.443 394.672 613.939 397.571 615.529 399.067C620.578 403.836 622.635 412.251 618.521 418.329C613.565 425.716 596.547 426.277 600.755 439.555L602.251 444.23C599.633 443.856 598.698 442.454 597.576 440.49C595.612 436.937 594.49 433.571 595.612 429.176C597.95 420.573 611.414 421.041 610.012 408.792C609.357 403.088 601.503 399.722 600.1 394.392C595.799 378.589 619.83 372.605 603.747 362.974L592.9 356.428C594.583 361.103 593.181 363.535 591.311 366.901C589.628 369.893 589.16 374.288 586.916 377C584.485 379.992 580.464 382.236 579.622 386.163C578.126 392.896 582.708 406.08 575.041 412.999L568.869 418.516C566.345 420.76 563.352 422.443 561.669 425.249C557.929 431.42 551.851 434.225 544.932 435.16C541.565 436.002 539.602 440.397 537.638 442.828C531.467 450.402 542.501 452.646 538.293 462.277C536.61 466.298 537.638 470.412 540.069 473.591C546.895 482.474 540.724 489.207 546.334 494.443C548.485 496.5 551.571 499.492 551.851 502.578C552.319 507.44 546.615 510.059 542.594 508.563C538.573 507.066 534.74 506.879 530.158 507.253L530.532 506.879Z" fill="white"/>
<path d="M566.999 327.255C566.438 326.881 564.194 326.226 564.381 325.571L564.849 322.766L561.763 321.644C561.108 321.364 561.389 319.213 561.482 317.997L554.002 319.4C554.002 319.4 552.319 319.213 552.038 319.12C551.571 318.933 551.664 317.624 552.038 317.156L557.181 309.395C562.417 301.634 558.116 296.304 562.137 291.816C566.158 287.328 576.256 287.889 582.802 292.938C591.965 299.951 596.454 312.2 589.254 321.457V329.499C586.074 330.621 583.176 330.527 579.903 329.779L574.573 332.397C573.264 333.052 570.926 333.052 569.337 332.397C568.028 331.836 567.373 328.844 566.999 327.348V327.255Z" fill="white"/>
<path d="M379.896 497.249C377.838 498.558 375.968 500.708 373.444 500.802C371.387 495.752 382.701 494.443 379.615 482.849L384.571 477.519C384.571 475.836 384.103 472.75 383.542 470.786C382.607 467.42 383.355 463.119 387.657 462.558C389.901 462.277 392.799 464.989 394.763 466.392C396.446 467.607 398.971 466.766 400.934 466.392L410.846 464.428C413.558 463.867 416.176 461.436 419.075 460.968L428.706 459.566C431.417 456.854 434.316 455.264 438.056 454.236C442.545 452.927 446.191 448.812 444.882 443.95C444.041 440.771 440.581 438.34 437.402 437.685C430.669 436.283 424.872 433.384 419.729 428.896C412.997 422.911 407.667 426.277 400.654 420.948C394.67 416.366 390.649 408.231 392.425 400.937C395.231 388.782 403.272 378.963 414.025 372.698C418.981 369.8 422.534 365.311 423.469 359.421C419.729 356.335 414.399 359.982 405.423 359.421C401.682 359.234 399.251 357.27 396.353 354.932C392.238 351.66 384.851 357.924 375.314 351.847C372.228 349.883 370.171 347.265 370.358 343.618C370.451 340.813 372.883 337.26 376.155 336.231C383.075 333.987 389.433 332.771 388.498 326.413C388.031 323.421 389.246 320.429 390.929 318.558C394.857 314.351 398.316 317.623 406.358 315.753C410.472 314.818 413.184 312.481 414.68 308.647C417.953 300.138 429.267 305.842 434.503 293.592C435.812 290.507 434.784 286.766 434.503 282.933C437.121 285.551 439.085 289.572 438.617 293.312C438.15 296.491 435.906 300.792 433.662 303.13C428.425 308.366 421.693 308.46 419.168 315.099C417.765 318.839 414.96 321.738 410.94 322.86C407.386 323.795 401.776 324.917 400.467 328.751C399.625 330.995 400.841 334.735 398.223 336.418L390.742 341.374C390.836 342.589 391.49 344.273 392.332 344.834C395.979 347.452 397.942 342.028 405.516 344.179L414.773 346.891C418.42 347.919 421.88 346.049 425.526 344.834L433.1 344.273C434.597 342.122 436.654 340.065 438.524 339.41C443.947 337.447 446.939 343.712 454.794 345.114C458.16 345.675 460.498 348.761 461.246 351.473C463.396 359.234 456.851 365.218 449.277 369.519C445.537 371.67 441.329 374.381 439.272 378.122C439.833 384.854 438.056 389.81 433.194 394.766C430.669 397.384 435.251 404.117 431.417 408.698C430.295 410.007 427.397 411.41 425.246 411.317C421.132 411.13 418.327 408.137 416.363 404.865C414.119 410.475 422.067 415.898 429.454 415.15C432.446 414.87 434.129 417.581 435.625 419.732C437.402 422.257 440.674 423.192 443.48 424.407C446.752 425.81 449.464 428.802 452.176 430.766C455.822 433.29 457.973 435.535 459.656 439.368C464.331 449.935 459.75 460.781 448.622 464.895L435.906 468.636L420.384 473.966C414.493 476.023 409.256 476.864 402.898 475.929C399.251 475.368 395.885 479.202 392.332 480.885C390.929 487.804 386.721 493.228 380.27 497.249H379.896Z" fill="white"/>
<path d="M468.352 330.995L471.064 333.988L467.417 335.484C468.259 337.167 469.007 338.476 468.913 339.318C468.82 340.159 467.043 341.468 466.201 341.749C462.087 343.432 458.44 342.684 455.168 339.785C450.679 339.785 446.659 338.289 443.199 335.297C439.926 328.564 447.594 326.881 443.199 320.803C440.674 317.25 439.459 312.855 440.674 308.648C443.76 298.081 453.578 296.585 464.425 299.39C467.043 300.793 469.1 302.663 470.503 305.094C475.459 306.871 476.768 311.359 477.703 316.315C478.264 319.401 481.443 321.832 484.061 325.198L472.466 326.788L473.214 330.341L468.165 330.995H468.352ZM466.201 320.429C467.137 320.149 466.95 317.344 466.201 316.876C465.547 316.409 463.209 316.128 462.835 316.876C462.461 317.531 462.368 319.214 462.742 319.868C463.116 320.523 465.079 320.897 466.295 320.523L466.201 320.429Z" fill="white"/>
<path d="M450.119 377.001C457.693 367.93 465.361 366.434 465.267 355.12C465.267 350.538 463.491 349.603 464.987 348.107C467.231 345.863 472.561 354.933 472.467 359.328C472.28 371.11 458.348 376.814 458.722 381.956C459.002 386.725 459.376 389.717 456.291 393.271C455.543 394.206 455.169 396.637 455.73 398.039C466.576 393.925 463.023 379.058 479.013 373.447C495.002 367.837 501.828 355.962 507.064 340.159L510.337 343.993C506.223 351.38 505.849 359.702 503.324 364.471C499.864 370.923 493.787 374.85 487.241 377.468C482.005 379.525 478.171 382.891 475.366 387.754L466.483 403.182C463.678 407.951 456.197 409.728 450.774 408.232C447.688 407.39 444.883 402.154 445.818 399.161L449.932 387.193C448.156 383.639 447.501 380.273 450.213 377.001H450.119Z" fill="white"/>
<path d="M475.365 505.572L466.482 504.637C463.116 504.263 460.217 501.832 457.318 500.336L448.622 499.12C447.5 498.933 445.91 497.157 445.817 496.128C445.443 491.359 453.11 490.798 456.664 481.354C459.749 473.313 466.201 473.406 467.791 462.653C468.258 459.38 469.661 456.669 471.718 453.957C476.861 446.85 478.544 436.284 473.027 428.897C470.315 425.344 464.331 424.596 460.31 424.409C454.887 424.128 450.679 423.006 446.378 420.295C442.825 418.051 438.991 416.18 438.149 411.225C446.191 415.713 454.232 417.49 463.022 417.49C468.539 417.49 475.084 418.331 479.292 422.071C484.528 426.56 485.744 434.321 484.715 441.053C483.967 445.728 481.63 450.123 479.76 454.705C480.134 459.661 479.947 465.365 476.487 469.292C473.027 473.219 470.035 477.053 467.23 481.541C462.648 489.115 458.347 489.583 458.721 492.014C459.001 494.071 461.526 492.201 464.705 497.063C466.201 499.307 470.035 499.401 472.466 500.149L482.658 502.86C481.256 505.759 478.544 505.759 475.365 505.479V505.572Z" fill="white"/>
<path d="M141.827 380.458C149.121 372.51 156.508 376.437 164.362 378.214C168.57 379.149 173.526 377.84 177.546 379.242C181.567 380.645 186.242 381.019 188.206 376.531C189.048 374.66 187.458 371.294 186.336 369.705C183.437 365.497 184.185 360.354 188.767 357.736C195.313 353.996 203.541 356.614 208.964 348.853C209.806 347.637 210.554 345.393 210.367 343.991C210.18 342.681 208.403 340.905 207.001 340.063L200.455 336.043C199.333 330.058 195.219 327.72 190.731 323.513C194.565 325.009 199.614 327.066 202.326 329.778C205.411 332.863 207.281 335.481 211.583 336.884C214.762 337.913 217.661 341.092 218.222 343.71C219.063 347.357 218.783 351.377 216.164 353.902C209.806 359.98 200.923 357.736 199.333 364.001C198.772 366.245 199.894 368.489 201.671 370.172C205.131 373.538 207.001 380.084 202.98 383.73C197.37 388.967 188.767 388.78 181.848 386.442C175.863 386.068 170.533 385.32 164.643 384.104L152.861 379.897C149.495 378.681 145.567 380.177 141.734 380.364L141.827 380.458Z" fill="white"/>
<path d="M277.973 406.923C283.864 407.765 287.324 411.972 290.129 416.274L293.401 421.416C298.077 417.022 297.796 410.289 295.739 404.585C293.682 398.881 289.942 395.889 284.238 394.3C280.778 393.365 277.318 392.617 273.391 393.178C261.048 394.954 254.503 402.341 250.482 401.5C248.051 401.032 248.238 391.775 259.178 385.136C263.48 382.518 267.687 381.957 272.737 383.079L279.937 384.762C283.583 382.892 280.498 377.656 284.799 372.513C292.934 362.601 302.846 357.926 315.095 362.975L327.157 351.007C330.991 347.173 343.147 327.63 345.765 321.085L346.513 319.215C347.915 315.661 353.806 324.077 349.973 334.082L343.801 350.165C341.277 356.804 337.63 362.508 332.767 368.305C340.809 380.087 340.061 393.271 327.999 400.939C324.071 403.463 319.116 404.305 314.814 405.614C315.749 416.274 312.57 427.307 303.781 433.011C300.882 434.881 297.703 437.499 294.43 438.809C282.648 443.39 269.37 442.642 258.15 437.219C253.287 434.881 250.669 430.019 249.36 425.25L248.051 420.388C252.072 419.733 256.467 419.64 260.02 418.237C267.407 415.151 271.895 405.894 278.16 406.829L277.973 406.923ZM313.599 392.897C315.095 387.941 314.066 384.669 310.045 382.518C306.025 380.367 301.349 379.526 297.516 382.331C294.617 384.482 291.344 388.876 292.747 392.804L300.788 399.349C305.651 403.276 312.103 398.04 313.599 392.897Z" fill="white"/>
<path d="M257.308 500.71L248.612 498.092C245.059 496.97 237.485 499.775 234.68 494.726C231.875 489.677 238.887 486.217 233.184 480.7C231.033 478.549 227.854 474.903 228.041 471.724C228.228 467.142 233.371 466.581 236.737 466.113C251.137 464.243 258.804 471.817 263.667 469.479L270.025 466.394L284.705 466.768C289.007 466.861 293.214 465.926 297.516 463.776L286.108 460.596L277.786 462.653C273.672 463.682 269.464 462.934 266.285 460.222C261.422 455.921 255.812 454.051 249.267 455.828C241.506 457.885 232.81 456.108 227.947 449.376C225.516 446.009 225.423 441.054 226.264 436.939L229.724 419.828C229.817 419.36 231.22 418.145 231.594 418.519L232.997 420.108C237.204 428.43 243.282 434.789 251.417 439.09L260.581 444.607C265.163 447.319 270.867 448.254 276.009 446.477C280.778 444.887 284.892 445.729 289.568 447.693L301.63 446.383C306.96 445.822 312.477 447.131 315.749 451.713C319.022 456.295 311.635 471.443 305.464 473.968C300.975 475.838 296.3 478.175 291.344 478.362L278.721 479.017L259.739 479.672C257.308 479.672 254.129 478.362 251.604 477.614C247.022 476.212 242.628 476.399 242.441 477.988C242.441 478.643 242.628 479.952 243.002 480.607L247.958 491.266C249.454 494.539 254.035 496.596 257.028 498.373L258.337 499.121C258.337 499.121 257.495 500.804 257.121 500.71H257.308Z" fill="white"/>
<path d="M279.47 396.074C290.13 395.887 295.272 404.489 294.711 414.962C289.849 415.616 291.345 407.201 284.893 404.302C277.787 401.123 272.27 404.489 266.005 409.351C262.358 412.25 258.244 414.214 253.849 415.99C248.706 418.047 243.003 417.112 237.673 416.177C231.595 415.149 227.761 412.063 223.74 407.575C218.036 401.31 214.296 392.52 217.943 384.011C220.468 378.12 224.675 372.323 229.818 368.396C245.434 356.521 263.854 366.432 270.68 360.635C273.112 358.578 273.86 353.903 276.758 352.313L284.426 348.012C286.95 346.609 289.849 347.17 292.187 349.04C299.013 354.464 304.062 351.378 305.371 354.464C302.846 355.492 300.135 356.708 297.704 357.175L287.979 359.139C284.613 359.794 284.052 362.973 283.21 365.591C281.06 371.669 275.169 374.848 269.371 376.157L256.374 379.055L244.779 380.552C238.327 381.393 234.587 387.191 234.12 393.455C233.933 396.822 235.429 399.159 237.673 401.216C240.945 404.302 244.031 404.957 248.519 404.396C253.943 403.741 258.899 402.619 264.041 400.468C268.81 398.411 273.579 396.167 279.376 396.074H279.47Z" fill="white"/>
<path d="M332.206 506.037C328.186 504.261 324.726 503.793 320.705 505.196C318.461 506.037 313.879 505.944 313.412 502.765C312.664 497.715 325.848 493.975 327.531 472.469C327.999 467.045 329.775 462.276 330.71 457.04L333.141 443.388C333.796 439.929 333.983 437.31 333.141 433.57C329.869 434.131 327.438 435.253 324.819 437.03C317.619 441.986 305.931 444.884 297.142 441.518C298.544 438.245 305.09 440.116 310.232 436.375L325.006 425.529C329.401 422.256 335.479 421.227 340.154 423.191C345.297 425.342 349.411 430.204 349.692 435.721C349.879 439.18 349.972 442.547 349.224 445.539L344.923 461.528C344.082 464.708 341.089 467.606 340.715 470.973C340.154 475.461 339.126 479.669 337.162 483.409L330.43 496.313L336.788 496.874C343.147 499.305 349.598 500.988 356.331 501.549L355.863 503.606C355.863 503.606 356.611 504.822 357.079 505.009L362.783 508.468C360.632 508.749 358.388 508.842 356.518 508.468L344.269 506.131C340.528 505.196 336.601 505.289 332.393 506.131L332.206 506.037Z" fill="white"/>
<path d="M255.532 353.623L251.792 352.501C250.763 351.005 251.605 349.042 253.569 347.826L249.548 345.395L251.979 340.439C246.836 339.13 241.88 342.403 237.766 339.971C243.844 335.577 248.052 329.873 247.771 322.486C247.584 318.839 247.117 314.912 249.922 311.92C253.569 308.086 259.085 305.748 264.415 306.309C275.636 307.431 284.987 312.761 286.296 324.356C286.67 328.19 284.239 331.93 281.901 334.922C278.067 339.784 281.807 345.769 275.356 347.171C273.205 347.639 270.774 349.229 269.932 351.379C267.969 356.803 263.013 359.421 257.309 358.299L255.532 353.623ZM267.501 329.125C267.501 328.564 266.098 326.787 265.631 327.068L263.948 328.377C263.2 328.938 262.358 330.995 262.919 331.649C263.574 332.397 265.444 333.146 266.192 332.772C266.846 332.397 267.408 330.527 267.408 329.125H267.501Z" fill="white"/>
<path d="M360.166 346.516C357.454 352.033 350.534 357.55 350.16 356.989L349.038 355.399C353.433 347.358 355.397 338.942 355.21 330.059C354.836 325.665 353.34 321.831 350.721 318.465L346.888 313.509C353.153 314.818 360.54 319.119 362.69 324.355C366.804 334.361 364.467 337.914 360.166 346.61V346.516Z" fill="white"/>
<path d="M362.503 310.704C362.129 311.546 361.101 312.762 360.446 312.949C359.792 313.136 358.202 312.575 357.641 312.2L351.937 308.647C355.116 302.289 356.425 295.93 356.612 288.356L368.207 292.284C368.768 292.471 369.89 293.686 369.703 294.154L368.675 296.491L362.41 310.798L362.503 310.704Z" fill="white"/>
<path d="M651.437 369.054C638.346 381.209 633.297 395.328 641.151 411.972L645.733 415.058C650.502 418.331 657.328 418.237 662.096 415.058L672.008 408.232C677.151 404.773 684.444 402.622 690.335 405.147C696.974 408.045 702.585 413.656 705.764 420.388L694.73 412.534C691.27 410.102 685.286 409.074 681.639 411.505L666.678 421.604C657.234 427.962 644.798 434.788 635.541 428.71C630.304 425.25 627.219 418.985 626.751 412.721C625.442 396.357 627.967 385.791 636.569 372.046C640.59 365.687 645.639 360.732 652.559 357.459C660.039 353.906 663.312 352.877 662.844 343.526L657.702 337.168C655.644 334.55 654.242 330.249 655.27 326.882C656.019 324.358 658.263 322.488 660.039 320.524C668.081 311.454 682.013 308.929 691.925 316.971C694.075 318.654 695.852 323.423 696.226 325.947C697.161 332.212 698.844 336.326 703.333 341.469L690.709 342.591L689.12 346.706L692.486 348.389L689.213 351.1L689.494 353.251C689.494 353.719 687.998 354.28 687.343 354.467C687.063 358.113 684.818 360.171 681.172 360.638C677.525 361.106 674.159 360.545 670.605 358.487C672.476 362.415 674.907 366.342 672.756 370.363C671.821 372.046 670.886 374.009 672.476 375.599C677.525 380.461 670.044 384.856 670.979 387.848C671.447 389.157 673.224 390.84 674.252 391.962C680.05 398.508 666.585 409.354 656.954 412.721C650.502 414.965 644.517 408.887 643.489 401.874C641.806 390.092 646.294 378.684 654.803 370.269C657.795 367.277 660.507 364.472 661.161 359.89L651.437 368.96V369.054ZM681.92 334.55C681.92 333.428 681.078 332.586 679.956 332.586C678.834 332.586 677.992 333.428 677.992 334.55C677.992 335.672 678.834 336.514 679.956 336.514C681.078 336.514 681.92 335.672 681.92 334.55Z" fill="white"/>
<path d="M662.003 508.469L647.416 506.225C644.985 505.851 641.245 506.599 639.094 505.103C635.634 502.578 634.793 497.155 636.569 493.602C640.403 486.402 632.642 483.877 634.325 479.295C634.886 477.892 637.224 476.022 639 475.742C648.164 474.339 653.868 481.633 663.406 482.848C670.418 483.69 676.777 485.279 683.416 487.804C686.595 489.02 689.961 489.113 693.234 488.646L702.304 487.337C696.694 485.466 691.083 486.963 685.005 482.1L676.87 475.648C668.081 468.635 660.226 460.874 654.616 450.776C650.221 442.921 651.998 433.384 660.226 428.708C664.247 427.306 667.987 426.184 670.792 423.004C671.447 422.35 673.691 420.854 674.439 421.321C676.403 422.724 677.057 426.277 677.151 428.708L677.525 441.238C677.805 450.682 682.387 458.443 688.278 465.55C692.579 470.693 697.255 474.433 703.052 477.986L717.171 486.682C720.538 488.739 723.904 491.077 726.055 494.443C727.831 497.248 726.429 501.456 724.839 503.887C723.156 506.599 719.883 508.375 716.236 508.188L703.052 507.44L688.559 503.981L671.167 498.464C660.787 495.191 656.954 488.365 648.538 487.524L646.761 494.817C646.2 496.968 648.071 499.212 649.754 500.521L656.112 505.477L661.909 508.562L662.003 508.469Z" fill="white"/>
<path d="M702.49 470.789C693.7 466.02 688.464 457.23 685.846 447.786C683.695 439.932 680.89 432.077 682.293 423.942L683.976 413.937C694.168 409.168 703.612 422.259 704.921 433.667C705.295 437.127 707.82 441.708 711.934 441.334C717.919 434.415 711.934 428.056 712.308 420.95L719.041 418.238C721.191 411.132 716.235 408.233 718.293 400.566L719.508 396.171L729.233 408.701C732.786 413.376 737.274 417.49 738.677 423.475C739.331 426.186 738.677 430.394 740.64 432.638L749.337 442.643C752.329 446.103 754.853 449.189 755.601 453.864L756.724 460.877L747.84 452.649L739.986 447.132C739.144 446.477 736.62 445.916 735.591 446.103C734.376 446.384 732.599 448.254 732.225 449.469L729.233 460.41C726.334 464.991 722.874 469.106 718.947 472.939C713.15 473.968 708.474 472.752 702.584 470.695L702.49 470.789Z" fill="white"/>
<path d="M704.829 412.531C702.211 413.186 699.125 410.474 697.816 408.23C695.572 404.396 691.458 403.368 687.343 402.807L685.006 395.233C684.071 392.24 688.84 389.716 690.99 388.594L703.239 382.609L704.455 377.373C708.382 376.718 712.403 378.121 715.115 381.113C716.611 382.796 716.798 385.414 715.582 387.285C711.468 393.363 703.613 391.866 701.276 397.009C699.125 401.778 707.447 405.518 704.829 412.438V412.531Z" fill="white"/>
<path d="M709.69 371.019L712.589 366.344C714.739 362.884 713.898 359.05 711.934 356.339C706.511 348.765 697.628 355.684 692.111 351.85C697.628 351.383 702.023 351.57 706.324 348.952C710.999 346.053 716.703 346.894 720.35 351.196C724.37 355.871 726.241 362.416 724.37 368.401L723.061 372.609C720.069 374.292 718.293 368.775 709.69 371.019Z" fill="white"/>
<path d="M728.952 388.782C727.643 391.12 723.809 390.746 721.846 388.876C719.041 386.258 717.731 382.33 715.581 379.245C712.308 374.663 706.043 375.317 701.274 373.353L714.646 372.699C718.48 372.512 730.822 378.029 727.456 385.322C728.017 385.603 729.326 387.941 728.952 388.689V388.782Z" fill="white"/>
<path d="M188.954 454.796C188.58 444.51 182.128 437.965 174.087 433.85C165.391 429.362 156.975 427.679 147.344 427.585C139.49 427.585 131.822 426.744 123.781 427.959C117.235 428.894 110.877 428.146 105.734 423.658C101.339 419.824 102.461 403.274 104.705 394.204L107.324 383.638C102.087 385.134 98.2535 385.414 93.8587 382.983L88.1548 379.804C83.2925 377.092 78.8978 375.596 73.1004 375.877C66.1809 376.251 58.607 379.804 56.1758 385.414C51.968 394.765 51.968 401.217 60.6641 408.136C66.6485 412.905 69.6407 420.385 66.555 427.679C64.4978 432.541 59.916 434.598 55.5213 436.936C51.6875 438.993 51.3135 445.258 52.5291 448.905L56.1758 459.658C53.6511 458.255 52.4356 456.572 50.9395 454.515C45.0486 446.661 45.9837 436.188 53.9317 430.391C59.0745 426.65 59.8225 420.011 55.8953 415.617L48.9759 407.762C46.4512 404.863 42.4304 402.152 41.1214 398.412C37.8486 388.874 41.4019 378.588 48.7888 371.762C52.7161 368.209 58.1394 366.62 63.1887 364.749C73.3809 361.009 84.5081 360.916 94.2327 365.872C98.16 367.929 102.087 369.331 106.389 370.453C109.755 370.921 112.747 369.144 113.401 365.685C118.077 361.29 123.874 362.599 128.643 366.059C133.973 369.986 135.843 375.316 133.692 382.048L131.822 388.126C135.282 391.866 138.741 395.887 138.087 400.843C137.339 407.108 132.477 410.38 128.082 414.869C136.778 415.336 145.754 412.905 154.544 414.308C159.78 416.365 163.708 418.048 169.411 418.141C172.591 418.141 176.237 420.946 179.23 422.256C185.307 424.78 190.45 428.333 193.63 434.411C198.024 442.827 198.679 452.364 198.024 461.996C197.65 466.764 195.406 470.598 193.255 474.619C190.731 479.201 188.3 483.034 184.185 486.494C182.97 487.523 181.287 490.702 182.315 491.731C186.149 494.162 188.767 496.406 189.609 500.801C190.263 504.634 192.788 506.972 196.996 508.749C191.198 510.245 185.775 507.253 183.063 502.764C180.539 498.65 177.172 498.556 172.871 499.305C170.253 499.772 169.224 494.91 170.627 492.946L180.071 479.481C185.214 472.188 189.328 464.146 188.954 454.796Z" fill="white"/>
<path d="M140.613 508.934L132.478 512.113C124.249 515.293 115.647 513.703 107.605 511.739C100.312 509.963 95.8233 506.129 92.083 499.771C84.4155 486.773 83.2935 470.316 93.5791 458.721C99.283 452.27 106.763 448.155 115.366 445.724C123.033 443.667 132.01 445.35 139.49 448.436C144.54 450.493 147.719 455.075 151.272 458.908C154.358 462.368 155.48 466.202 156.415 470.597C157.818 477.236 158.285 483.314 155.76 489.765C152.862 497.339 149.028 505.849 140.706 509.028L140.613 508.934ZM127.335 478.732C127.335 476.675 125.745 475.085 123.688 475.085C121.631 475.085 120.041 476.675 120.041 478.732C120.041 480.789 121.631 482.378 123.688 482.378C125.745 482.378 127.335 480.789 127.335 478.732Z" fill="white"/>
<path d="M156.414 497.622C159.406 490.703 161.463 483.97 161.744 476.49C162.118 466.204 160.154 453.674 151.739 446.662C146.128 441.986 136.591 440.21 129.484 439.649C117.983 438.714 107.511 442.08 96.7574 445.259C95.4483 445.633 91.8016 445.446 91.334 444.137C89.7444 439.462 89.2769 435.067 88.9029 430.298L87.3133 408.511C87.1263 405.799 88.4353 401.966 84.7886 400.189C80.4873 398.038 70.3887 406.734 62.5342 398.038C68.9861 398.038 73.9419 395.981 78.3367 392.054C81.7964 388.968 86.0042 388.22 89.9314 391.306C93.8587 394.392 95.5418 399.347 96.0093 404.49C96.8509 413.747 98.908 422.537 102.742 431.42C113.495 430.017 123.5 429.924 134.066 431.607L147.251 433.664C152.861 434.506 157.162 436.843 161.089 440.677C165.017 444.511 168.476 448.999 169.224 454.89C169.972 461.435 170.908 467.887 169.785 474.339C167.822 485.373 164.456 496.22 157.069 504.542L150.149 512.303L156.508 497.435L156.414 497.622Z" fill="white"/>
<path d="M141.64 356.147C140.612 355.773 143.604 361.383 141.921 361.196L137.994 360.916C140.238 362.973 142.014 366.059 140.238 368.864C139.77 369.612 137.994 370.734 137.152 370.921C134.066 371.388 131.448 362.318 126.773 362.505C119.479 362.786 117.422 358.391 115.272 353.061C113.682 349.04 108.726 346.048 109.381 340.531C110.316 332.209 117.048 325.757 125.464 325.664C137.526 325.57 147.718 333.051 146.69 345.581C147.999 347.451 150.804 349.601 153.142 351.285C151.084 353.809 147.064 353.342 144.071 352.313L145.474 355.866C145.661 356.427 143.417 356.614 142.856 356.427L141.734 356.053L141.64 356.147Z" fill="white"/>
<path d="M212.798 500.987C208.03 501.174 204.663 498.369 201.858 494.909C199.24 491.73 194.845 493.132 191.292 490.514C187.552 487.709 194.565 483.127 196.341 479.855C203.915 466.203 205.224 457.32 202.232 442.546C201.484 438.992 199.334 435.72 197.089 433.195L186.617 421.507C198.118 422.535 200.549 428.052 205.598 434.972C209.9 440.956 211.676 446.94 211.583 454.327C211.583 459.844 211.583 465.735 209.9 471.065C207.375 479.294 202.232 483.782 202.045 485.839C201.858 488.177 206.346 489.299 207.843 492.852C209.152 495.938 210.274 497.621 212.798 500.893V500.987Z" fill="white"/>
</g>
</g>
<defs>
<clipPath id="clip0_2001_5850">
<rect width="719.996" height="233.765" fill="white" transform="translate(40 283.12)"/>
</clipPath>
</defs>
</svg>
