<svg width="800" height="800" viewBox="0 0 800 800" fill="none" xmlns="http://www.w3.org/2000/svg">
<mask id="mask0_2001_5840" style="mask-type:luminance" maskUnits="userSpaceOnUse" x="156" y="40" width="481" height="711">
<path d="M636.659 40H156.88V750.833H636.659V40Z" fill="white"/>
</mask>
<g mask="url(#mask0_2001_5840)">
<path d="M478.446 670.135L473.959 697.533L471.995 704.546L470.125 711.091L466.665 721.096L463.299 746.343C463.112 747.839 461.148 749.99 460.307 750.831C455.725 748.774 457.408 745.595 457.502 742.135L458.249 721.283L458.437 678.644L459.558 669.481L460.025 640.027V627.871L460.212 617.398L461.148 606.364V591.59C455.164 592.525 451.329 595.611 447.028 598.416C443.568 600.754 438.706 602.811 434.592 603.746C427.579 605.523 421.782 607.767 415.517 611.32L409.158 613.845L401.584 616.089L392.608 618.52L381.854 620.577L362.873 623.382C360.068 623.756 357.356 623.569 354.644 623.382L346.883 622.915L334.26 621.045C328.276 620.11 323.039 618.427 317.148 617.118L300.598 613.471L287.226 610.385L278.53 607.767L268.151 604.775C256.93 601.502 247.3 594.863 237.762 588.131C231.03 583.362 224.017 579.622 217.939 574.011C213.638 572.328 210.552 569.055 207.56 565.689L196.152 551.383L187.082 539.601L179.788 528.1L177.357 522.864L173.43 514.354C172.214 511.736 171.747 509.586 171.373 506.593C170.812 502.292 169.129 497.897 167.913 493.783L165.108 484.62L163.612 478.355L161.274 464.703L158.189 442.168C156.879 438.989 156.786 435.529 157.347 432.069V421.036L159.965 405.514L163.425 389.43L165.108 384.849L167.82 375.685L169.035 371.01C170.718 364.651 173.711 359.883 176.609 354.272L185.866 336.413C186.614 335.01 187.082 333.981 188.017 332.859C191.196 329.026 194.749 324.911 196.9 320.517C197.835 318.646 197.929 316.87 199.518 315.28L204.194 310.511C207.373 305.93 210.645 302.376 214.479 298.356L219.435 293.026L228.131 285.078C231.123 282.366 233.835 279.654 237.201 277.504L249.731 269.275L263.289 261.047L272.733 256.184L278.25 254.034C283.673 251.883 289.751 251.883 295.548 250.948C299.85 250.294 304.151 250.948 305.834 255.904C306.769 258.522 308.639 260.579 310.977 262.449C314.624 265.535 317.99 268.808 322.385 271.239C331.268 276.288 341.179 280.589 351.278 282.834C360.629 284.891 370.073 285.919 379.33 285.078L385.034 284.61C396.067 285.265 410.093 281.525 420.098 276.756L427.672 273.203C431.974 271.145 435.34 268.901 438.052 264.6C439.922 261.701 443.568 258.616 445.906 258.242C446.935 258.055 448.898 259.177 449.927 259.644L455.444 261.982L463.392 266.751C467.225 269.088 470.593 271.8 473.865 274.979L476.203 276.195L484.618 284.33L489.293 289.379L500.514 301.909L508.556 313.317L517.907 325.285C524.452 333.701 531.184 341.929 534.738 352.122L537.449 359.883C539.133 364.651 540.255 369.794 541.096 374.75L542.499 383.166L543.621 388.963L545.958 402.054L546.426 407.29L548.764 421.129L549.792 431.695V437.96L548.856 444.599L547.734 455.913L546.987 463.768L546.145 468.256L544.462 479.757L542.499 488.173L540.347 495.092L537.449 503.508L546.987 506.5L555.683 508.931L578.311 514.542L593.179 517.721C600.005 519.217 606.644 520.713 613.283 523.331L627.309 528.941L635.163 532.682C635.724 532.962 636.846 534.178 636.846 534.739C636.846 535.3 635.444 536.235 634.789 536.328L625.158 537.357L618.239 537.731L604.492 536.515L579.807 539.695C577.095 540.069 574.945 540.256 572.14 540.443L564.473 540.91L548.389 543.061L540.629 543.809L534.644 544.931L524.546 547.83L521.365 553.066L515.849 566.905L512.109 581.492L506.686 597.481L499.205 620.39L490.789 642.458L488.264 648.255L481.533 662.374C480.411 664.806 479.194 667.33 478.727 670.135H478.446ZM251.601 318.646L266.188 305.93C269.18 303.311 271.704 301.161 275.164 299.478L279.746 295.924L286.011 290.221L292.276 283.956C290.593 281.338 288.722 277.597 285.917 276.756C281.803 275.54 277.408 277.317 273.762 278.813C260.671 284.143 257.117 285.919 246.084 295.644L238.323 302.376C235.612 304.714 233.274 307.052 230.188 308.735C227.102 310.418 224.952 312.569 222.988 315.841L227.289 319.768C231.31 323.415 235.799 326.127 241.502 326.594C245.336 324.444 248.515 322.013 251.601 318.646ZM279.839 340.994C282.551 342.397 283.673 340.901 285.45 339.592C293.959 333.607 302.281 327.623 309.2 319.675L318.551 308.922L325.283 300.132L317.055 296.673C315.185 295.924 311.631 297.982 310.042 299.104L297.98 307.145L291.247 312.195C283.299 318.179 270.956 325.472 267.684 334.636L279.839 340.994ZM195.684 419.165C197.368 419.539 199.518 419.539 200.734 418.885C201.856 418.324 202.791 416.173 203.165 414.771L206.812 401.773L212.983 382.324L216.723 373.534L220.744 363.623L223.83 355.675C225.513 351.28 227.196 346.792 229.721 342.958L233.274 337.628L223.923 333.981C220.838 332.766 218.406 331.363 215.321 334.449L212.048 337.815C209.43 340.433 207.279 343.519 205.503 346.698L200.734 355.114L196.152 364.371C194.282 368.205 192.599 371.29 191.103 375.405L188.952 381.202L186.24 389.617L183.622 399.81L181.285 408.412C180.63 410.937 180.162 413.275 180.911 415.986L195.591 419.259L195.684 419.165ZM243.092 422.906L248.328 403.176C251.133 392.423 255.434 382.417 259.736 372.132L263.008 364.184C265.252 358.667 267.59 353.337 266.375 347.072C263.663 344.828 259.175 342.21 255.621 341.368C251.788 342.677 249.918 346.418 248.048 349.316L239.539 362.407C232.993 374.282 228.318 386.532 223.549 399.249C222.427 402.334 220.277 405.139 219.622 408.412L217.752 418.791C219.716 419.82 221.773 420.007 224.204 420.1C236.079 420.568 241.689 427.768 242.999 422.812L243.092 422.906ZM371.288 532.308L383.164 534.178L393.356 535.861L403.08 536.422L418.322 537.824L431.974 539.601L449.553 542.5C454.509 543.341 458.904 544.276 463.673 545.959L467.694 550.167L465.916 552.692C469.002 554.001 468.816 555.684 468.442 558.115C467.881 561.668 468.629 565.315 469.658 569.523L476.296 564.661L488.638 552.131L496.96 542.967L510.426 529.502L516.69 523.238C521.459 518.469 525.574 513.7 527.912 507.155L525.107 501.544C523.517 498.365 523.329 493.877 522.487 490.23C522.02 488.079 522.113 486.49 522.02 484.246L521.553 473.96L518.841 446.937L516.785 425.43L516.224 416.454L515.007 406.636L514.352 398.781L512.109 367.831L510.52 352.122C509.865 351.935 508.368 352.496 508.462 352.963C508.462 353.337 508.649 354.459 508.462 354.833L507.247 359.883C506.031 365.025 504.255 369.42 503.6 374.469L501.543 389.15L499.579 397.285L498.831 404.204L496.681 421.597C496.12 425.898 495.465 429.264 494.998 433.846L494.156 442.448L491.912 454.043L487.143 474.708L484.993 482.843L483.496 488.547C482.281 493.035 482.468 499.3 479.476 503.321C474.987 508.277 467.038 509.025 460.867 509.399L450.301 511.643L446.187 512.671L439.174 513.513L432.628 514.261L425.989 514.542L409.252 515.944L401.584 516.692L390.644 517.16L383.351 517.627L377.366 518.001L369.231 518.562L360.068 520.245C357.262 520.806 354.925 520.9 352.213 522.583C358.104 526.791 363.714 530.999 371.288 532.214V532.308ZM286.665 431.602L292.276 435.248L295.455 425.711L299.569 413.929L300.598 405.233L301.533 396.537L302.468 391.488C303.029 383.446 305.18 376.433 307.33 368.766C304.057 365.773 299.85 363.623 295.922 363.062L287.507 372.319L278.53 395.882C277.595 397.098 277.034 398.501 276.38 399.997L273.481 406.823L270.582 412.713C269.928 414.023 269.928 417.015 269.647 418.698L268.338 426.739L278.156 427.955C281.148 428.329 283.954 429.919 286.478 431.508L286.665 431.602ZM249.263 513.606L247.487 505.845C246.645 502.386 246.178 499.02 245.991 495.466L245.617 489.108L243.466 470.313C242.905 465.17 242.999 460.214 243.279 455.165L243.56 450.303C243.747 446.282 242.157 444.412 239.071 442.168L234.77 439.082L224.204 431.602L223.082 439.082L221.96 446.843C221.025 453.295 221.305 459.653 221.96 466.199L223.362 479.383L224.391 491.539L227.477 515.477C227.664 517.066 228.973 519.123 230.095 519.778C231.123 520.339 233.928 520.152 235.05 520.526C238.791 521.554 241.876 521.928 245.71 521.274L248.983 520.619C249.731 520.432 249.824 518.375 249.731 517.627L249.263 513.513V513.606ZM212.796 517.721V512.858L208.121 494.718L206.438 487.331C205.69 484.059 205.409 480.879 205.503 477.326C205.69 471.061 202.23 461.711 202.417 451.144C202.417 447.03 202.884 443.29 202.23 439.176L201.482 435.061C193.066 436.838 186.427 435.529 178.479 432.443C176.983 436.277 176.609 439.55 176.142 443.29L175.207 452.079L175.861 459.279L177.544 474.334L180.724 489.762C182.033 496.121 184.744 502.947 188.765 507.903L196.246 517.253L210.552 520.152C211.113 520.245 212.983 520.152 212.983 519.591V517.627L212.796 517.721ZM289.377 526.978L288.909 517.627L288.161 504.349L288.535 494.905L288.348 489.669L287.974 480.786L286.291 467.227V459.466L284.982 451.892L281.242 440.391L276.006 435.342C275.071 434.407 271.798 435.809 270.489 436.09C267.31 436.744 264.598 438.428 263.756 442.074L262.541 447.591L262.167 461.43C261.98 466.666 261.886 471.248 262.541 476.578L263.943 489.388L264.224 500.422L264.972 507.435C265.439 511.83 264.972 517.253 268.432 520.9L284.702 525.949C285.917 526.323 287.6 528.006 289.377 527.071V526.978ZM296.857 575.04L304.899 574.292C306.021 574.198 307.704 574.198 308.359 573.637C309.013 573.076 308.92 570.926 308.452 570.178L295.268 545.024C293.772 542.126 291.621 538.105 289.284 535.861C281.897 531.56 274.042 529.128 265.814 527.445C263.382 526.978 260.764 527.445 258.333 528.567L263.102 532.308C264.317 533.243 266.094 534.084 266.936 535.393L273.481 546.146L283.673 562.978L286.478 568.681L289.658 573.731C290.967 574.853 294.987 575.227 296.857 575.04ZM274.042 574.011C278.343 572.702 275.445 567.372 273.481 565.596C268.899 561.481 268.432 550.448 261.138 544.65C259.362 543.248 257.772 541.845 256.65 539.975L250.479 529.502C249.17 528.848 245.991 527.913 244.588 528.38L237.669 530.531C236.079 530.999 234.489 532.495 234.489 533.991C234.489 536.141 235.518 536.889 237.575 538.011C239.819 539.227 240.661 543.154 242.063 545.024L248.515 554.095C249.918 556.058 251.507 557.928 252.349 560.546C252.91 565.128 254.686 568.307 257.959 571.767C262.915 572.048 269.18 575.601 274.229 574.011H274.042ZM243.279 563.913L237.014 552.879L231.497 544.276L224.952 530.344L211.861 529.876L206.531 529.035C205.129 528.848 203.352 528.941 202.51 530.063C206.531 536.422 211.113 541.845 216.069 547.175L224.484 556.245L236.64 568.868C238.791 571.113 239.632 571.767 242.999 571.58L248.422 571.393L243.186 563.819L243.279 563.913ZM290.593 597.294L287.787 589.44C281.242 588.785 276.006 587.009 269.741 585.793L259.736 583.829C258.614 583.642 257.678 586.915 258.333 587.757C258.894 588.505 260.297 589.533 261.419 590.001L274.416 594.489L281.336 596.546C284.515 597.481 287.133 597.762 290.499 597.294H290.593ZM310.696 602.624C315.559 603.653 319.579 604.307 324.816 604.494C324.816 601.689 324.442 600.38 323.32 598.042L318.831 588.972C318.27 587.944 317.803 584.484 316.494 584.858L304.899 588.037C301.907 588.879 299.008 589.72 295.642 590.188C293.304 590.468 298.821 599.258 300.878 600.286C303.964 601.689 307.517 601.97 310.696 602.624Z" fill="white"/>
<path d="M400.836 278.066H390.738H383.631L376.057 277.225L368.483 276.57L358.665 275.916L351.652 274.7C348.66 274.139 345.948 273.204 343.237 271.895C335.195 268.155 327.154 264.976 319.767 259.833L313.595 253.848C313.595 253.848 312.473 251.511 312.941 251.23L314.998 250.015L318.832 247.677C325.657 243.469 333.418 241.506 341.273 239.636L350.717 237.391C358.011 235.615 362.873 237.578 367.361 236.363C363.808 231.594 359.694 227.947 358.291 222.337L356.982 216.82C356.14 213.454 356.234 209.34 356.982 205.973L358.759 197.277C361.19 185.776 378.114 177.922 380.265 152.955C380.732 147.439 379.517 141.454 377.179 136.405L372.223 125.372L366.426 114.338L363.901 109.382L360.629 102.369C359.32 99.6574 358.852 96.8523 358.478 94.0471C358.011 90.6809 358.665 87.9692 359.32 84.79C359.694 82.6393 359.32 78.6186 360.161 76.9355L362.218 71.8862L371.943 51.3148L376.992 44.4889C378.208 42.8058 378.675 40.0941 382.416 40.6552C383.818 42.1513 382.977 45.05 382.042 47.2941L376.618 60.7589L374.842 67.7719C373.813 71.6991 373.158 76.3744 373.626 80.2082L374.281 86.0056L375.216 90.4003L376.338 93.673C377.647 97.5068 379.797 100.499 382.322 103.772C384.379 106.483 385.969 109.85 388.774 111.813C393.543 115.273 397.283 119.481 399.621 124.717L402.145 130.327C403.828 134.161 404.483 136.685 404.296 140.893L404.015 147.719C403.828 153.704 403.828 160.81 399.247 165.766C398.312 166.981 398.312 170.067 398.499 171.75C395.132 174.742 393.823 178.202 392.234 182.503L386.436 189.984C386.343 192.696 385.408 194.285 383.631 195.875L382.696 206.721C382.509 208.498 382.416 210.836 382.696 212.425L383.631 218.69L386.904 225.329C388.119 227.76 389.429 229.163 390.925 231.033C393.169 233.838 394.291 237.672 398.218 239.075L417.2 246.274C421.314 247.864 424.4 250.295 427.86 253.007C429.262 254.129 430.852 254.597 431.6 256.654C432.161 258.15 430.758 260.394 429.169 261.422C427.298 263.947 425.241 265.817 422.53 267.313C420.753 270.867 417.667 272.737 414.021 274.139L409.065 276.103C406.634 277.038 404.202 278.441 401.21 278.441L400.836 278.066Z" fill="white"/>
</g>
</svg>
