<svg width="800" height="800" viewBox="0 0 800 800" fill="none" xmlns="http://www.w3.org/2000/svg">
<mask id="mask0_2001_5842" style="mask-type:luminance" maskUnits="userSpaceOnUse" x="40" y="80" width="716" height="628">
<path d="M755.198 80H40V707.865H755.198V80Z" fill="white"/>
</mask>
<g mask="url(#mask0_2001_5842)">
<path d="M269.998 107.468C270.398 109.202 269.998 111.468 268.665 112.135C266.531 113.335 264.531 111.868 263.598 109.602L260.131 106.268C259.065 105.335 259.598 101.068 260.665 100.268C264.531 99.6017 268.931 103.202 269.998 107.468Z" fill="white"/>
<path d="M420.8 448.667C416.667 457.867 412.667 454.933 405.067 459.733C401.6 461.867 395.334 460.667 391.734 459.067C387.734 461.733 376 459.467 372.134 457.2L354.934 446.667L341.6 439.2L338.667 434.4C334.8 431.733 332.267 428.4 329.067 425.067L321.734 417.6C318.4 414.267 316.667 411.467 315.334 407.067C313.6 401.6 312.134 396.4 312 390.667C309.6 385.867 309.334 380.534 312.667 376L315.467 365.334L318.934 354C321.734 344.667 332.934 328.934 340.267 323.6C344.4 320.667 348.4 318.534 353.2 316.8L370.4 310.667L380 307.467C382.4 306.667 384.667 305.734 387.6 305.467L401.867 304.134C405.2 305.334 407.734 306 411.334 306.8L425.467 310L430.4 314.934L439.067 317.334C443.2 318.4 446.4 321.2 448 325.334C450.667 332.267 457.2 329.867 466.267 341.6L471.733 348.667C470.8 350.134 470 351.734 470 352.4C474.533 357.067 477.2 363.734 476 369.734L474.133 379.867L473.6 395.067C465.733 400 472.8 405.867 466.8 410C463.733 412.133 463.2 414.667 464.933 418.4L459.2 422.533L449.333 435.467C447.467 439.867 444.267 441.467 439.467 441.333L420.8 448.533V448.667Z" fill="white"/>
<path d="M392.667 295.069C389.467 298.669 388.134 300.669 383.467 300.802C376.667 300.802 372 297.335 370.8 290.002C371.067 285.469 370.134 280.402 366 277.469C361.467 263.735 351.2 254.402 342 244.002C338.934 240.535 336.667 237.869 332.934 234.935C328.667 231.735 324.267 227.602 321.067 223.202L315.334 215.469L307.2 200.269L302.8 189.869C300.934 185.603 300.8 180.536 299.334 176.136L296.801 168.803C295.601 165.336 294.934 161.603 295.201 157.869L296.001 142.003C294.934 139.603 294.534 136.669 295.201 134.136C294.001 129.336 294.534 126.003 296.534 121.336C298.401 117.069 298.667 110.536 301.734 106.803C309.734 96.9362 318.134 92.6696 328.534 87.8696C331.334 86.5363 333.6 85.2029 336.534 84.8029L344.934 83.4696L353.2 79.8696L362.534 84.6696L378.4 88.9363C380 91.3363 381.467 93.8695 385.2 94.2695C386.534 94.4029 387.867 96.9362 388.8 98.2695L398.8 114.136C401.734 115.469 404.8 119.203 402.667 122.403L400.267 125.736C399.734 126.536 401.2 128.936 401.867 129.603L408.934 137.203L410.8 148.003C411.334 151.469 412 154.669 413.467 157.469C416.8 163.869 414.8 177.203 409.734 183.869C414.8 193.869 405.6 194.803 403.734 201.069L405.467 206.669C405.867 208.136 403.334 210.536 402.134 212.003C401.2 213.203 402.134 216.535 402.134 218.135L402.667 236.802C402.8 242.535 406.534 248.669 406.267 254.535L405.734 265.335C405.734 267.202 403.734 271.069 404.534 272.802C407.067 278.669 403.867 282.402 400.267 286.402L392.8 294.802L392.667 295.069Z" fill="white"/>
<path d="M552.533 359.07C545.466 356.136 536.533 357.603 529.733 360.803C528.133 363.736 526 366.67 522.666 367.603L514.933 369.87C499.733 374.136 496.267 381.47 488.4 376.27C487.333 375.603 485.467 374.136 484.933 373.203C484.267 372.136 484.933 369.47 485.333 368.003L489.467 356.136C490.933 351.87 492 347.87 497.867 348.27C499.067 343.203 502.4 339.736 507.6 338.536L520.533 325.603L525.733 320.936C530.133 316.936 535.2 314.536 541.733 315.336L543.733 311.603C548.933 311.603 553.733 310.936 558.533 309.87L567.333 311.336L589.066 322.003L598 324.003C610.4 328.936 633.6 324.803 644.666 316.536L653.333 310.003C657.199 307.07 663.199 306.936 667.599 305.47C670.533 304.536 672.933 303.336 676.133 303.47C684.933 303.87 686.933 297.07 698.799 297.07H706.799C718.266 297.07 720.399 303.736 730.533 306.403L735.866 310.803C741.866 315.736 749.866 320.67 750.933 328.403C752.399 339.47 757.999 344.003 753.466 356.803C750.666 364.803 745.466 360.003 740.666 368.936L737.333 375.336L732.666 381.736C729.733 385.87 724.133 390.136 720.399 388.67C717.999 394.67 712.133 398.403 705.199 396.67C699.199 398.936 692.666 398.136 686.133 398.003L677.999 397.736L665.066 396.003C660.266 395.336 656.533 394.27 652.533 391.203C646.533 386.67 638.266 385.603 631.733 382.27C622.133 377.336 610.533 378.003 599.733 381.07L592.4 379.203C585.866 377.47 581.6 370.936 575.866 368.67L552.666 359.07H552.533Z" fill="white"/>
<path d="M211.066 463.867C205.733 467.734 200.799 469.334 195.066 470.534L180.933 473.334L173.6 474.667C171.866 474.934 169.733 471.334 168.133 470.534L155.333 466.534L144.4 463.467C136.933 461.334 129.866 462 123.2 465.2L110.933 470.8L99.5998 477.334L83.0665 485.6L75.8666 488.934C73.8666 489.867 68.6666 490.134 66.3999 489.734C62.2666 488.934 55.4666 486 53.0666 483.067L46.6666 475.067L40.1333 462.4V448L43.2 443.734C42.8 435.2 44.4 427.334 47.4666 419.067C53.9999 418.267 57.8666 414.267 59.8666 408.001C61.0666 404.401 63.0666 401.467 66.7999 400.267C68.5332 395.334 72.7999 392.667 77.5999 392.134L82.7999 389.467L89.5998 385.067L92.9332 386.667C97.7332 385.334 103.733 381.601 108.533 381.601H118.266L123.2 384.134C126.533 381.334 128.8 382.001 132.133 383.067L140.666 385.734C142.4 386.267 144.8 388.401 146 390.134C154.533 393.201 162.266 396.801 170.266 401.467C174.533 404.001 180.799 403.467 185.333 404.534C188.533 405.201 189.999 405.867 192.933 404.534C199.199 401.334 204.666 398.267 209.333 392.934C211.866 392.401 216.666 390.801 219.066 391.201L229.066 392.534L235.733 394.534L249.466 398.534L254.799 401.867C265.333 396.401 284.399 404.801 285.599 412.401C285.866 414 283.466 417.067 281.866 418L267.999 424.934C265.599 426.134 260.799 426.4 259.066 428.534C256.799 431.067 254.799 432 252.533 434.267L237.733 448C230.799 452.4 223.466 455.734 216.666 460.667L211.199 464.667L211.066 463.867Z" fill="white"/>
<path d="M669.733 560.404L665.733 568.004L659.599 576.937C655.866 582.404 648.533 585.337 643.066 588.804C640.533 590.404 638.533 590.937 635.733 591.471C626.933 593.204 620.533 590.804 612.533 587.337L604.4 583.737C601.733 582.537 600 580.804 599.066 577.871C593.733 574.937 588.8 571.204 586.4 564.937C577.2 558.137 567.066 550.937 555.333 549.204C547.6 548.004 539.6 548.404 532.933 544.671C526.8 541.204 522 537.204 517.867 531.871L511.467 523.471C508.267 519.337 507.067 514.804 506.267 509.071L502.933 500.138C503.6 481.471 489.2 469.871 471.2 468.138C469.6 468.004 466 466.804 464.667 465.871L454.667 458.404C451.867 456.271 451.2 450.271 454.667 449.471L469.333 446.271L483.2 444.671C489.867 442.138 497.2 442.004 503.867 444.671C510 444.404 515.6 445.871 521.067 448.138L529.866 451.204C535.6 453.204 535.066 459.071 541.466 467.338L547.6 475.338C549.733 478.138 552.933 481.471 555.733 484.138C559.2 483.471 563.066 484.538 566.133 486.004L568.933 484.671C568.933 484.671 570.933 485.471 571.733 485.604L583.466 488.671C587.6 489.738 590.933 488.271 594.8 487.204L603.333 484.671C606 483.871 611.466 484.138 614.4 484.938C616.133 485.738 619.6 488.804 621.333 488.271C626.533 486.671 628.933 491.204 632.133 492.271L641.066 495.338C646.666 497.204 650.266 500.004 652 505.871L666.399 516.938L671.733 523.204C675.866 537.871 677.199 546.404 669.866 560.404H669.733Z" fill="white"/>
<path d="M269.599 661.868C264.666 663.068 261.332 664.001 257.066 666.801C253.466 667.601 246.666 667.601 242.533 666.801L230.133 664.134C224.666 657.734 217.333 656.134 212.266 648.934L208.133 639.868C206.666 636.668 207.199 629.068 207.999 625.468L210.666 613.468C210.933 612.135 213.466 610.668 213.999 609.735L220.666 599.068C223.466 596.535 224.266 594.668 226.399 591.335L235.066 577.868C238.533 572.401 241.866 567.601 247.199 563.868L249.866 560.801L258.266 552.268L268.132 543.468C270.932 540.935 273.999 539.601 277.199 537.468C284.932 532.135 293.332 526.401 299.332 519.868C304.399 514.535 305.599 506.935 307.599 500.935C310.666 491.468 309.599 484.002 314.132 472.668L319.332 459.602C320.532 456.402 323.732 451.068 325.999 448.135C330.132 442.535 342.532 447.068 346.932 459.068C349.599 466.002 348.799 476.668 344.399 482.535C347.466 487.068 347.466 491.868 344.266 496.135L342.399 506.535L341.732 514.002C335.066 520.535 341.999 526.268 341.732 530.401C341.732 531.468 339.199 532.668 337.999 533.601C337.732 536.801 337.332 542.668 338.266 545.468C339.466 549.201 339.999 550.668 339.332 554.135L337.732 562.268L335.199 570.935C335.466 576.268 336.132 581.468 335.199 586.668L333.332 596.801L332.532 606.801L320.399 613.068L319.332 620.401C314.266 620.401 313.466 624.001 312.666 627.735L306.266 634.135L297.999 642.935L291.066 650.268L276.399 657.468L269.732 662.134L269.599 661.868Z" fill="white"/>
<path d="M529.599 259.333L519.599 261.466C508.399 263.866 501.999 258.799 493.199 269.866C491.065 272.533 485.732 273.999 482.399 274.666L479.332 282.666C477.732 286.799 476.665 291.999 472.532 294.799L465.732 293.866C463.065 297.599 456.532 299.466 453.332 296.399C448.132 291.466 449.065 285.466 452.132 280.533C452.132 277.866 452.132 275.199 452.932 272.399L455.065 264.799L455.465 246.133C458.265 241.599 459.465 236.933 458.265 231.199L472.532 206.666L479.732 201.466L493.865 194.533L510.399 187.2C521.332 182.4 532.399 177.333 540.132 167.6L549.465 141.467C552.932 136.8 556.799 133.333 561.199 130.133C562.799 128.533 565.332 124.267 567.599 123.867L578.132 122C581.599 121.333 587.598 120.133 590.398 122.8C593.198 125.467 596.265 125.867 599.198 124.4C600.265 123.867 601.998 126.8 602.932 127.6C610.532 133.6 619.332 133.333 611.465 138.267L618.798 143.867C618.798 143.867 620.532 147.2 619.998 147.733L617.198 150.933C615.065 153.333 623.732 158.4 621.865 160.266L618.665 163.333L617.732 160.533C617.732 160.533 615.598 159.866 615.598 160.533C616.265 165.866 621.198 168.133 619.732 174.666L614.665 197.333L611.065 198.533C610.398 198.8 611.065 201.066 611.332 202L611.732 205.733C611.732 206.666 609.598 207.6 608.132 208.133C608.532 214.133 606.265 218.399 602.265 222.799L597.198 228.266L583.465 244.533L581.465 246.799C581.465 246.799 578.799 245.333 578.132 244.933L570.932 247.866L562.665 250.666L554.265 254.666C547.865 252.533 541.865 254.933 536.399 258.666C534.265 258.666 531.599 259.066 529.599 259.466V259.333Z" fill="white"/>
<path d="M456.131 691.465C455.331 695.332 453.597 698.532 450.397 699.732C446.264 701.332 444.131 703.465 441.997 707.865H425.331C421.597 703.465 418.931 701.598 413.331 700.532C409.731 699.865 406.931 694.398 404.264 692.398C398.264 687.732 394.531 682.665 393.731 674.665C393.464 671.998 388.664 669.065 387.597 666.798L384.397 660.132L381.997 650.532L380.131 639.465L379.731 619.998C377.331 615.065 377.464 609.998 379.731 605.198L380.131 577.599L381.731 569.732C381.197 564.265 384.797 561.332 387.064 557.065L392.131 547.199C393.864 543.865 397.597 540.665 398.264 536.932L400.131 527.999L400.531 498.399C397.197 492.665 395.331 485.599 397.064 479.065C402.131 473.599 399.864 467.732 412.131 466.932C420.931 469.999 426.397 477.999 429.731 486.132C431.864 487.465 436.264 489.599 436.664 491.732L438.664 501.732L441.731 511.865L444.664 522.265C445.464 524.932 447.331 530.132 446.931 532.799C445.597 536.532 445.064 539.065 445.997 543.065L440.797 551.865C443.597 557.465 441.731 562.665 436.531 566.665C440.397 571.465 440.131 577.065 437.464 581.999C435.997 584.932 436.931 587.332 438.397 589.998C440.131 593.065 441.731 595.732 444.264 598.132C448.664 602.132 451.731 606.532 455.064 611.332L460.797 619.465C463.197 622.932 465.597 627.598 466.131 631.732L467.331 639.332L468.264 650.532V660.132L465.597 667.732L463.997 683.332C463.597 687.732 461.464 690.665 456.664 691.732L456.131 691.465Z" fill="white"/>
<path d="M282.399 322.138L262.932 311.338C256.532 307.871 249.732 306.271 242.666 306.004L235.732 305.738L213.599 305.071C211.999 305.071 208.266 303.738 206.799 303.071L202.133 300.938C197.199 299.871 191.466 298.804 187.333 296.005L177.199 289.071L168.932 278.805L163.332 272.805L157.065 262.005L152.532 254.805L144.932 242.538C139.865 234.405 139.332 224.005 139.332 214.405C139.332 212.139 141.865 210.539 142.932 208.805L149.999 197.605L159.199 191.739L166.665 186.272C183.199 183.072 190.799 189.739 198.266 190.672L206.666 191.739L228.266 208.805C234.532 213.738 237.999 220.938 241.199 228.271L247.199 242.005L250.799 251.071C251.066 273.471 272.399 275.071 279.466 282.538C282.132 285.338 283.332 286.938 286.666 288.805C290.932 291.071 293.199 296.138 295.599 300.538C297.599 304.138 301.866 306.138 304.666 309.338L309.999 315.738C311.066 316.938 310.532 327.738 303.332 330.004L300.266 333.604C299.466 334.671 295.466 333.871 294.399 333.071C290.532 330.271 286.932 324.538 282.532 322.138H282.399Z" fill="white"/>
</g>
</svg>
