<svg width="800" height="800" viewBox="0 0 800 800" fill="none" xmlns="http://www.w3.org/2000/svg">
<mask id="mask0_2001_5852" style="mask-type:luminance" maskUnits="userSpaceOnUse" x="211" y="40" width="370" height="719">
<path d="M580.09 40H211V758.56H580.09V40Z" fill="white"/>
</mask>
<g mask="url(#mask0_2001_5852)">
<path d="M505.122 688.541L502.151 694.571L497.921 702.491L491.802 712.931C490.452 715.181 489.102 717.881 487.212 719.861L478.752 728.771L471.462 734.891C470.202 735.971 468.492 737.051 467.052 737.861L458.951 742.451L447.522 747.221L435.372 751.721L418.092 756.491C411.792 758.201 405.312 758.651 398.742 758.651H389.291L382.001 758.471L373.272 757.841L356.981 753.341L347.801 750.281L332.591 744.251L325.661 740.381L310.811 730.751L298.842 721.301C289.752 714.101 282.642 705.461 275.802 696.281L265.812 682.871C259.692 674.591 254.292 654.341 253.122 643.631C252.492 637.331 253.482 631.121 253.572 624.911C253.752 617.441 254.292 610.421 258.522 604.301L264.192 596.021L269.412 589.181C275.982 580.541 283.902 573.161 292.092 565.961L306.221 555.341L311.801 551.651L325.841 537.521C327.731 535.631 328.811 532.301 330.071 529.871C332.501 525.011 332.051 520.331 330.881 515.201C329.621 509.531 326.651 504.851 323.231 500.081L310.902 482.981L300.102 467.141L293.082 454.001C291.282 450.671 289.392 446.441 288.672 442.751L287.322 435.821L286.872 427.991C286.692 424.211 287.322 421.151 288.762 417.821C293.262 407.381 298.212 403.151 305.951 395.591L313.061 388.661L318.372 384.701C326.382 378.761 345.461 378.491 351.671 387.491L358.511 389.651C361.571 395.591 367.512 395.141 372.552 404.681L376.421 412.061L376.962 413.141C376.962 413.141 378.221 412.691 378.221 412.331L378.492 406.751L385.242 404.411L395.591 402.971L402.342 402.791L410.442 403.061L419.082 403.781L427.722 405.131C430.692 405.581 433.392 406.571 433.662 410.081L434.112 416.111C434.652 424.391 426.642 442.931 436.362 447.971C438.522 449.051 441.672 448.871 443.832 447.431L464.891 433.661C470.561 429.971 473.262 428.441 480.552 427.721C489.102 426.911 497.471 427.721 505.031 432.131L507.822 436.631C509.442 439.151 510.791 443.471 510.521 446.531L509.802 455.351C506.832 474.611 498.371 490.361 487.391 506.201L479.472 517.631C477.132 521.051 474.792 524.021 472.812 527.711C466.872 538.781 467.141 548.771 470.201 560.921C471.551 566.231 474.792 570.101 478.932 573.701L485.322 579.371C490.992 584.411 501.162 595.841 503.322 601.151L508.901 614.651C509.891 616.991 510.252 619.421 510.882 622.031C511.782 625.991 513.042 629.681 513.042 633.821C513.042 639.221 515.202 641.651 514.122 648.941L513.042 656.321L511.961 663.791C510.881 671.171 509.802 678.461 506.112 685.121L504.672 688.631L505.122 688.541ZM337.182 419.441C338.172 417.641 337.001 412.241 334.841 412.061L328.182 411.431C324.852 411.071 323.592 414.761 324.042 417.371C324.492 419.981 326.201 421.601 329.081 422.231C331.961 422.861 335.562 422.501 337.182 419.531V419.441ZM417.822 680.711C416.652 685.571 413.862 690.521 416.022 696.101C417.282 695.921 418.722 694.211 419.802 693.131C426.372 686.201 435.101 688.721 442.391 686.291C443.291 679.631 440.322 679.721 445.722 673.691C449.232 669.821 452.922 667.931 458.412 668.561C460.752 668.831 463.091 665.411 462.641 663.161C460.031 649.121 464.352 638.771 476.682 631.931C479.292 630.491 481.092 628.241 481.542 625.271C483.162 614.651 479.472 603.941 471.912 596.471L463.902 588.461L453.462 572.171C442.302 554.801 443.832 532.841 451.032 514.121C453.642 507.461 457.421 501.881 461.921 496.211L471.912 483.611C475.872 478.661 479.292 473.531 481.362 467.501C482.802 463.361 484.512 459.581 481.992 455.081C478.302 455.621 473.352 459.311 471.192 462.191C469.482 464.441 466.692 465.881 464.082 466.961L457.872 469.571C453.282 471.461 448.602 472.901 443.742 473.441C439.962 473.891 439.962 478.301 439.152 480.821C436.992 487.751 435.372 494.051 434.652 501.251C433.752 509.531 432.942 517.541 433.752 525.731L434.382 531.581L435.822 547.241L438.162 559.571L441.671 578.111L444.012 586.931C446.082 594.671 448.872 602.411 447.252 610.511L446.352 614.831L443.832 628.601C443.202 632.201 441.852 636.701 440.412 640.121L436.902 648.311L432.762 655.241L426.822 663.881C422.322 668.921 419.532 673.781 417.822 680.531V680.711ZM416.292 495.491C418.362 494.771 421.062 491.171 421.242 489.281C421.692 484.331 418.002 480.821 414.492 478.301L409.272 474.701C404.322 471.281 399.012 468.761 393.522 466.421L385.962 463.181L369.761 457.871C367.961 457.241 363.462 456.521 363.552 459.851C363.552 464.441 368.052 467.501 371.022 470.201C374.622 473.531 378.222 475.781 382.182 478.571L392.712 486.041C397.302 489.281 402.342 492.161 407.832 493.061C409.902 494.411 413.051 496.571 416.201 495.491H416.292ZM478.842 481.361C483.162 480.011 483.972 475.511 483.432 472.451L478.842 481.361ZM431.141 484.871C433.121 481.991 434.021 479.111 434.201 475.781C431.591 478.031 429.611 481.181 431.141 484.871ZM384.971 511.691C384.971 508.991 384.431 507.551 382.091 507.191V512.501C382.181 513.041 383.441 514.031 383.981 514.031C384.521 514.031 384.971 512.681 384.971 511.691ZM413.231 554.621C415.571 554.981 419.262 554.261 419.622 551.921C420.072 548.951 419.442 544.721 418.362 542.021C412.782 535.811 405.672 532.751 398.562 528.971C391.452 525.191 378.041 517.631 374.531 522.041C372.551 524.561 378.761 532.211 382.811 535.361L396.761 546.251C401.621 550.031 406.662 553.541 413.322 554.711L413.231 554.621ZM404.322 605.111C408.552 602.861 412.242 599.171 412.602 595.301L403.692 587.381L397.032 581.891C389.472 575.681 378.761 570.371 369.131 572.441C368.501 572.621 367.241 573.431 367.061 573.971C366.881 574.511 367.421 575.861 367.781 576.401L371.742 581.801L386.501 594.491L390.911 597.461L404.412 605.111H404.322ZM395.682 670.451C398.922 665.771 400.812 660.731 400.812 655.601L392.712 649.661L388.122 646.241L380.112 640.211L364.272 630.131L356.261 626.171L344.292 621.851C340.422 620.411 340.692 624.821 337.542 629.591L333.941 635.081C335.921 639.401 339.161 640.571 343.391 641.741L353.652 644.531C354.552 650.291 356.261 655.061 359.411 659.651L362.381 663.971C365.621 668.741 370.391 672.431 376.691 671.891L383.891 668.381C387.851 667.211 391.721 668.831 395.591 670.721L395.682 670.451ZM489.731 671.981C491.981 669.461 493.332 666.491 492.342 663.521L490.722 658.751C489.822 657.131 485.862 657.401 484.332 658.391C480.552 661.001 481.092 669.641 484.152 672.971C485.412 674.411 488.471 673.331 489.731 671.981ZM326.201 670.901L322.601 667.031C322.601 667.031 321.611 666.221 321.341 666.041C321.071 665.861 319.991 666.851 320.171 667.121L321.251 668.471L324.311 672.161C324.761 672.701 326.742 671.441 326.292 670.811L326.201 670.901ZM474.612 694.031C476.412 691.601 475.692 687.641 472.812 686.021C471.282 685.211 466.782 686.021 466.242 687.821C465.432 690.431 465.612 693.851 465.972 696.371C466.962 697.271 469.572 697.631 471.012 697.271C472.182 697.001 473.352 695.651 474.612 693.941V694.031ZM431.772 722.741C433.662 723.821 436.632 725.441 439.062 725.261C444.732 724.991 449.141 719.591 449.141 714.101C449.141 709.601 446.352 706.001 442.932 703.391C434.382 704.291 431.952 707.711 429.432 715.451C428.532 718.151 429.072 721.211 431.772 722.741Z" fill="white"/>
<path d="M517.27 534.37C510.43 532.39 490.9 540.49 486.13 546.61C485.5 547.42 483.7 548.14 482.71 547.96C477.4 546.88 484.42 532.66 492.79 529.24L501.34 528.61C508.36 528.07 515.83 529.69 522.58 526.09L529.51 522.4C534.1 518.17 537.88 513.4 541.3 508.09C542.11 501.7 540.58 495.67 537.34 490.18L533.02 479.83C532.03 477.49 532.48 475.15 533.38 472.99L540.58 456.07C541.66 453.46 544.36 451.57 546.25 449.77L549.94 446.17C552.82 443.38 554.98 440.68 558.94 439.51L565.69 437.53C567.67 436.99 570.37 437.53 571.81 438.61L564.61 445.36L561.73 449.14L556.24 457.15C554.08 460.3 551.83 469.21 551.56 472.9C551.47 474.97 550.93 476.86 552.01 478.57L556.78 486.67C559.57 491.35 562.54 496.75 562.72 502.33C562.99 509.53 560.83 516.64 556.69 521.95C548.05 532.75 530.86 537.97 517.18 534.1L517.27 534.37Z" fill="white"/>
<path d="M242.321 657.669L245.381 666.219L248.891 680.619C248.981 681.069 248.081 683.049 247.631 682.779C244.751 681.159 244.031 671.439 238.001 665.589C234.311 662.079 230.981 659.109 229.091 654.249C227.201 649.389 225.581 644.709 226.481 639.579L228.551 626.529C229.451 620.859 230.081 615.459 227.111 610.329C223.241 603.579 222.701 596.379 223.781 588.729C224.501 583.599 225.761 579.279 229.811 575.769L237.641 569.019L251.501 562.899L265.001 556.959C275.621 552.279 290.921 540.129 295.241 529.329C295.511 528.699 297.221 527.799 297.851 527.979C299.471 528.429 301.721 534.459 300.101 538.059C298.211 542.379 296.051 546.789 292.541 549.849L287.951 553.899C275.621 561.459 259.781 565.509 251.591 572.439L246.281 576.939C241.151 581.349 238.631 586.749 239.081 593.409L239.621 600.699C239.981 605.829 243.221 611.229 242.231 616.449L240.251 626.439C238.361 626.619 236.021 627.249 235.931 629.589L239.621 628.059C237.101 634.539 235.571 640.839 237.371 647.499L242.321 657.759V657.669Z" fill="white"/>
<path d="M300.009 483.34L307.84 495.49L309.91 501.43C310.18 502.33 309.91 504.31 309.19 504.76C308.47 505.21 306.67 505.21 305.95 504.94C302.8 499.18 299.649 494.59 295.599 489.73C291.189 484.24 286.239 479.29 279.669 476.32C272.649 473.17 265.809 470.2 259.149 466.15C250.869 461.11 240.519 442.39 244.299 431.32L248.709 418.63C250.599 413.14 250.329 407.92 248.889 402.34C248.349 400.09 247.899 397.84 246.549 395.95L243.849 391.9C239.799 385.87 234.669 381.1 229.179 376.6L225.129 373.18C219.729 368.68 231.969 367.06 243.939 378.58L251.409 385.78L256.809 391.9C259.149 394.6 262.389 397.66 263.109 401.35L264.189 406.93C264.459 408.19 264.279 411.25 264.009 412.6L258.429 439.42L260.499 447.52C262.659 452.47 266.529 456.07 270.129 460.03C271.479 461.47 273.099 462.37 274.719 463.54L279.489 466.78C285.339 470.83 290.829 469.03 300.099 483.52L300.009 483.34Z" fill="white"/>
<path d="M569.559 647.142C568.299 647.502 565.509 647.412 563.349 647.322L565.959 638.412L567.399 632.562C568.389 628.332 568.119 623.112 567.579 618.882C566.229 608.622 557.859 602.682 548.049 602.322C542.739 602.142 537.249 599.892 534.369 595.392C530.319 589.092 534.369 582.162 531.849 573.072C530.769 569.112 526.449 566.592 522.309 567.402C517.719 568.212 513.579 567.852 508.989 567.582C506.289 567.402 502.509 569.382 500.529 566.052C509.889 561.822 519.609 562.362 529.149 563.802L540.759 565.602C553.269 574.962 550.209 591.072 555.429 593.682C561.009 596.472 569.289 593.682 575.769 601.242L578.649 609.342C579.279 611.052 578.919 614.112 578.649 615.912C580.449 619.692 580.629 622.842 579.459 626.892L577.119 634.722L571.449 644.172C571.089 644.712 570.279 646.962 569.649 647.142H569.559Z" fill="white"/>
<path d="M310.99 525.46L304.06 517.27C299.74 512.14 289.57 507.01 285.16 512.32C281.02 515.2 276.43 516.73 271.39 517.36C262.21 514.84 254.74 509.17 248.89 501.7C246.37 498.46 243.13 496.21 239.8 494.05C225.85 485.14 210.91 493.78 211 486.85C211 485.41 214.15 484.15 215.86 484.06L227.92 483.43L236.83 484.06C239.17 484.24 243.49 485.14 245.65 486.13L261.4 496.57C276.25 506.38 280.48 492.7 296.95 505.75L301.72 509.53C305.05 512.14 307.57 514.57 310.09 518.08C312.25 521.05 314.77 522.94 313.24 525.82C312.97 526.27 311.26 526.09 310.81 525.55L310.99 525.46Z" fill="white"/>
<path d="M426.912 139.271L411.432 136.031C408.372 135.401 404.142 135.401 401.622 136.841C395.772 139.991 388.302 140.621 384.612 136.121C381.282 132.071 389.022 126.221 382.722 116.771L375.252 105.611C371.742 100.481 367.602 96.071 365.442 90.041C365.622 79.241 368.862 78.971 374.352 74.291L386.322 64.121C389.562 61.331 390.012 57.101 391.272 52.961L393.432 45.761C395.052 40.451 410.982 36.851 419.262 44.321L422.592 52.421C428.982 56.291 435.642 52.601 442.662 58.901C444.192 62.681 446.982 67.091 444.912 71.051C443.472 73.931 439.962 76.631 437.622 78.791L433.122 83.111C431.412 84.731 429.162 86.531 427.992 88.511L425.562 92.741C422.502 101.021 425.022 109.301 430.152 116.141C437.352 125.771 435.012 126.131 431.772 134.591C431.142 136.301 429.432 139.901 426.822 139.361L426.912 139.271ZM404.502 67.541C403.422 65.921 401.712 64.481 400.542 64.571C399.372 64.661 397.302 65.381 396.132 66.281C395.322 66.911 396.132 69.251 396.852 69.971C397.572 70.691 400.182 70.961 400.992 70.331L404.592 67.541H404.502ZM431.142 73.031C431.952 72.131 432.402 70.241 431.952 69.341C431.592 68.531 429.522 67.901 428.622 68.261L423.852 70.331C423.042 70.691 423.312 73.301 423.942 73.841C426.102 75.371 429.342 75.101 431.142 73.031ZM379.752 92.921C382.812 94.091 385.962 92.201 386.682 89.141C386.952 87.791 387.222 86.441 386.772 85.631C386.322 84.731 383.802 84.461 382.992 84.821L377.682 87.431C377.502 88.421 378.492 92.111 379.842 92.921H379.752ZM410.532 88.511C409.812 88.421 408.102 89.051 407.562 89.591C406.392 90.761 406.032 93.281 406.662 94.541C407.472 96.071 410.172 96.791 411.702 95.531C413.592 94.001 412.242 88.871 410.442 88.511H410.532ZM399.282 124.151C400.002 122.891 400.362 120.641 400.002 119.561C399.732 118.571 398.112 116.591 397.122 116.951L393.432 118.301C390.822 119.291 391.002 122.891 392.442 124.871C393.882 126.851 397.572 127.031 399.192 124.241L399.282 124.151ZM424.662 123.611C424.032 120.911 420.342 118.301 418.002 120.011C416.742 121.271 417.462 125.591 418.902 126.491C420.252 127.301 422.232 127.391 423.042 126.941C423.762 126.491 424.752 124.601 424.572 123.701L424.662 123.611Z" fill="white"/>
<path d="M398.11 368.503C396.67 370.393 393.34 373.002 390.91 370.032C389.47 368.412 390.19 363.733 389.83 361.483L386.41 338.712C386.05 336.372 387.22 332.683 388.66 330.883L395.77 330.253L400.99 330.073L410.62 330.342C414.58 330.432 418.18 330.073 422.41 328.993L428.62 334.842L431.59 347.353L433.21 355.813L433.39 358.513C433.39 359.233 431.41 360.492 430.6 360.402L420.79 360.133C412.6 359.863 403.15 362.202 398.2 368.592L398.11 368.503Z" fill="white"/>
<path d="M419.081 311.71C416.201 313.78 412.871 313.06 409.811 312.97L403.961 312.7C399.281 312.52 393.881 313.87 389.831 315.94C388.031 316.84 386.591 317.92 384.701 317.65C383.261 317.47 381.011 315.85 380.381 314.14L375.701 301.36C374.081 296.95 373.811 291.82 374.261 287.14H386.231C392.261 287.14 398.381 288.31 404.501 288.49L409.631 288.67C414.761 288.85 419.081 288.67 424.391 290.74C423.131 297.76 421.511 304.69 419.081 311.71Z" fill="white"/>
<path d="M443.739 241.511C443.739 242.231 443.019 243.761 442.479 244.211C441.939 244.661 440.679 244.661 439.869 244.571L430.869 243.581L412.959 241.871L401.979 239.171C401.169 238.991 399.639 237.731 399.549 236.921C399.459 236.111 400.089 234.671 400.449 233.771L406.929 219.011L405.129 215.771C409.179 215.051 412.419 215.051 416.289 215.411L428.979 216.491C433.569 216.851 438.429 216.761 442.839 215.771C443.919 216.671 445.719 217.841 446.799 218.201L445.809 225.401L444.999 231.611L443.829 241.601L443.739 241.511Z" fill="white"/>
<path d="M429.16 278.41L423.76 278.86C419.08 277.42 414.94 277.33 410.35 276.52L399.19 274.72C389.29 273.1 378.58 273.64 382.09 266.44L385.42 259.6L388.66 254.02C389.38 252.67 390.91 250.87 392.71 251.32L408.37 254.56L417.1 255.82L435.64 256.81C436.72 256.81 438.88 257.89 439.24 258.88C439.6 259.87 438.79 261.76 438.16 262.75L434.56 269.05L429.16 278.41Z" fill="white"/>
<path d="M427.361 203.98C419.261 204.61 407.831 206.77 403.421 201.1C404.501 193.9 405.851 185.98 403.421 179.32C406.751 178.78 411.251 177.61 414.671 177.7C422.591 177.7 429.701 177.7 437.531 176.89C438.251 176.89 440.231 176.89 440.501 177.43L441.491 180.22L444.731 189.67C445.991 193.36 446.801 197.32 445.991 201.01L436.721 203.26L427.271 203.98H427.361Z" fill="white"/>
<path d="M417.1 168.611L409.54 169.511C405.31 170.051 401.35 170.501 397.21 168.881C396.04 167.081 394.51 164.471 393.79 162.581L391.18 155.021C390.46 152.951 389.74 149.981 388.48 148.631C388.3 148.361 387.94 147.371 388.12 147.281C388.48 147.191 389.56 146.921 390.01 146.831L403.15 146.021C407.11 145.751 410.62 145.391 414.49 146.021C421.96 144.761 428.26 145.571 429.7 152.411L431.77 162.401L432.4 165.101C432.58 165.731 430.87 166.451 430.24 166.541L416.83 168.521L417.1 168.611Z" fill="white"/>
<path d="M395.501 394.509L389.021 396.399C386.861 394.509 387.581 392.349 388.391 390.099C388.841 388.929 388.661 386.679 388.751 384.879C388.751 383.259 391.631 382.629 393.251 382.359C398.201 381.549 402.611 379.569 407.201 377.769C411.791 375.969 415.841 374.349 419.711 371.469C423.041 369.039 428.261 369.579 431.231 372.639L431.591 381.099L431.231 387.759C431.051 390.999 429.071 392.439 425.921 392.349L418.991 392.169C411.071 391.989 403.061 392.439 395.321 394.599L395.501 394.509Z" fill="white"/>
<path d="M373.271 131.44C371.831 132.61 368.321 132.43 366.161 131.26C364.451 130.36 363.551 128.02 362.291 125.77L360.131 121.81C360.131 120.01 361.931 116.5 363.821 115.96C369.221 114.34 373.361 118.3 374.891 122.89C375.881 125.86 376.961 128.47 373.361 131.44H373.271Z" fill="white"/>
<path d="M361.481 97.8709C360.851 99.8509 357.521 101.921 355.631 101.831C349.241 101.741 345.461 96.7909 346.001 90.4909C346.091 89.0509 347.441 87.2509 348.611 86.6209C353.651 83.9209 360.131 90.2209 361.481 97.7809V97.8709Z" fill="white"/>
<path d="M375.97 62.4124C374.08 66.1924 370.3 66.6424 366.7 64.9324C363.55 63.4024 361.93 61.7824 361.84 58.3624C361.84 55.2124 363.73 53.4124 366.97 52.1524C369.94 50.9824 373.18 51.4324 375.43 53.6824C377.95 56.2024 377.5 59.2624 375.97 62.5024V62.4124Z" fill="white"/>
<path d="M448.149 123.071C452.379 123.971 454.989 126.851 454.359 131.171C453.909 134.231 449.859 137.561 446.349 136.211C441.939 134.501 440.499 130.631 441.759 126.491C442.659 123.611 444.819 122.351 448.059 123.071H448.149Z" fill="white"/>
<path d="M432.58 105.882C430.33 99.7622 429.43 94.3622 434.02 93.4622C439.42 93.2822 442.57 96.5222 443.74 101.472C441.67 105.702 437.44 107.952 432.49 105.882H432.58Z" fill="white"/>
<path d="M462.64 80.5004C459.13 83.5604 455.08 81.9404 452.83 78.7904C451.75 77.2604 451.48 75.2804 452.2 73.5704C453.46 70.4204 460.39 70.8704 462.64 74.0204C463.9 75.7304 464.17 79.0604 462.64 80.4104V80.5004Z" fill="white"/>
</g>
</svg>
