<svg width="800" height="800" viewBox="0 0 800 800" fill="none" xmlns="http://www.w3.org/2000/svg">
<g clip-path="url(#clip0_2001_5843)">
<mask id="mask0_2001_5843" style="mask-type:luminance" maskUnits="userSpaceOnUse" x="167" y="40" width="457" height="720">
<path d="M623.764 40H167.89V759.149H623.764V40Z" fill="white"/>
</mask>
<g mask="url(#mask0_2001_5843)">
<path d="M300.332 556.223L289.532 560.486C284.416 562.476 279.774 563.139 274.28 562.191C269.258 561.339 264.427 560.391 260.826 556.413C255.616 550.539 249.174 545.707 242.163 542.202C235.153 538.697 228.805 539.834 222.647 543.339L213.174 547.223C205.69 550.255 198.963 549.686 191.479 547.223C187.784 545.991 183.616 545.991 180.016 543.718C176.037 541.255 171.205 537.465 167.984 534.149C167.416 533.581 167.984 531.591 168.553 531.212C169.121 530.739 170.921 530.455 171.679 530.834L180.774 535.665C183.332 536.991 191.195 537.37 193.753 535.76L200.29 531.781C205.216 528.844 211.09 527.328 216.679 525.907C220.374 524.96 225.016 525.149 228.521 525.528L234.963 526.097C236.858 526.286 240.174 527.423 241.879 528.37L246.616 531.023L257.037 538.602L262.911 542.297L274.943 547.697C277.785 547.507 280.911 547.697 283.848 548.076C288.49 548.739 293.795 547.602 298.437 546.37L307.248 543.907L312.269 542.202H318.995C320.132 542.202 321.932 544.191 322.974 545.518C320.795 547.697 318.522 547.981 315.774 549.212L306.585 553.191L300.237 556.507L300.332 556.223Z" fill="white"/>
<path d="M306.11 526.662L313.594 527.325C313.594 527.325 314.637 529.409 314.068 529.694L311.51 531.02L306.394 533.767C296.447 531.115 287.258 527.325 278.352 522.02C272.384 518.515 267.079 513.209 265.752 506.009C265.089 502.315 265.752 497.578 266.794 493.978C269.068 484.978 268.784 476.262 260.637 472.283L247.942 466.03C245.005 464.609 238.184 458.451 236.858 455.42L231.268 442.725L229.942 437.988L228.71 432.778C227.952 429.462 226.626 425.957 223.689 423.588C218.1 418.946 211.657 415.535 204.931 411.841C208.342 408.241 212.131 410.041 215.636 410.893C224.731 413.262 229.468 417.241 236.668 423.209L239.605 432.304L241.5 438.272L244.152 443.672C245.479 446.23 249.079 450.114 251.352 452.009L263.289 457.125C266.226 458.357 268.31 460.914 270.584 463.283L274.752 467.357C278.826 472.662 278.163 479.104 278.163 485.262V497.672C278.163 501.272 278.921 504.209 280.436 507.336C283.847 514.725 286.784 517.283 293.226 521.546C297.205 524.199 300.994 526.188 306.205 526.662H306.11Z" fill="white"/>
<path d="M202.184 664.599L206.921 663.841C208.721 663.557 210.995 662.799 212.7 662.041C220.847 658.252 228.426 652.852 231.742 643.852C232.879 640.631 231.931 635.799 232.5 632.578L233.447 627.462L235.531 620.925L245.289 613.915L250.31 611.262L256.279 608.61L273.331 603.02C274.942 602.452 277.594 599.989 278.826 598.946L282.994 595.252L290.1 580.094C292.373 575.262 296.731 571.189 301.563 568.062L311.416 561.715L315.773 563.42C315.205 566.452 313.594 567.873 311.131 569.389L305.542 572.894C299.194 576.778 294.079 591.557 290.858 600.273C287.921 608.231 278.447 614.104 270.11 616.094C263.952 617.515 257.7 619.315 253.342 623.768C249.647 627.557 248.416 632.483 247.089 637.315L245.858 646.789L243.3 655.22C231.174 666.494 215.258 674.168 198.868 669.999L195.647 666.968C197.352 665.073 199.531 665.073 202.374 664.599H202.184Z" fill="white"/>
<path d="M379.913 336.621L375.176 336.906L369.492 333.495C368.355 327.527 366.271 320.99 366.84 314.832L367.882 304.127L376.692 303.937C380.861 302.137 385.408 299.484 389.861 300.148C398.387 301.474 406.25 301.758 414.113 298.348C422.924 304.411 417.713 313.885 422.64 319.758L415.061 325.442C414.019 326.011 411.555 327.242 410.324 327.337L404.734 327.811C401.324 328.095 396.587 326.579 393.555 328.663C389.197 331.695 385.597 336.148 379.818 336.527L379.913 336.621Z" fill="white"/>
<path d="M382.47 293.329C381.144 293.613 379.249 293.329 377.449 293.045C376.028 295.318 369.491 293.708 370.06 290.96L377.828 269.645C378.396 268.034 379.818 266.045 380.954 264.339H386.354C391.375 267.939 396.681 258.371 409.47 262.255L419.228 260.55C421.123 260.171 425.102 262.255 426.428 263.392C428.891 268.981 426.428 274.002 424.439 279.118C422.923 283.002 422.449 288.403 418.091 290.487L411.175 292.003C407.575 292.855 403.502 291.339 400.091 290.392C396.112 289.255 392.607 291.339 388.818 292.003L382.375 293.139L382.47 293.329Z" fill="white"/>
<path d="M404.26 216.404C388.533 216.878 388.439 227.962 385.123 226.351L380.765 224.267L375.365 217.257L367.502 200.014C368.354 199.162 369.87 198.309 371.007 197.741C375.46 195.467 379.439 192.814 384.46 192.436C386.449 192.246 390.049 191.204 391.565 192.057C394.786 193.857 397.344 195.372 400.849 193.762L408.428 190.351L412.975 188.267C417.049 190.351 419.986 193.193 422.165 196.983L425.291 202.288L428.891 208.541C429.27 209.204 429.554 210.909 429.46 211.667C429.365 212.52 427.281 212.709 426.049 212.425C423.775 211.857 419.891 215.836 416.765 215.93L404.165 216.309L404.26 216.404Z" fill="white"/>
<path d="M381.049 185.327L370.344 190.633C368.354 190.159 364.944 188.169 364.375 185.99C363.333 181.348 364.375 176.801 365.417 172.443L368.165 160.601C371.859 159.085 375.554 161.169 380.386 159.843L385.217 158.517L403.691 154.254C406.628 153.59 411.554 152.643 413.544 155.675C415.154 159.18 414.302 165.148 414.112 168.938C414.112 169.696 415.912 171.117 415.533 171.685L413.923 174.433C413.638 175.001 414.396 176.612 413.923 177.085C413.449 177.559 412.596 178.127 411.554 178.696L404.828 182.959C404.828 182.959 402.554 182.959 402.554 182.58L402.365 180.875C397.817 185.517 387.112 182.201 380.954 185.233L381.049 185.327Z" fill="white"/>
<path d="M418.09 251.169C411.838 248.327 409.469 252.495 405.774 254.295C403.88 255.148 401.132 256.569 399.143 256.758L387.016 257.611C386.259 257.611 384.648 256.853 384.269 256.19C383.89 255.527 383.795 253.727 383.89 252.969L385.88 238.19C386.164 236.106 384.837 234.116 387.964 232.79C390.238 231.843 394.027 230.137 396.68 230.232C400.753 230.232 404.448 230.516 408.427 228.811C413.353 226.727 418.28 222.937 423.774 223.032H430.595L434.29 226.537C435.617 230.516 436.185 236.39 435.238 239.8L433.059 247.474L428.227 253.443C424.817 253.632 421.027 252.685 417.995 251.264L418.09 251.169Z" fill="white"/>
<path d="M410.039 146.583C403.502 145.92 397.439 144.12 390.902 142.509C385.786 141.183 379.06 143.741 375.649 147.435C373.565 149.709 371.954 150.846 369.681 152.267C362.481 156.909 355.849 160.035 347.986 155.867C344.86 154.256 340.881 151.888 340.123 147.814C338.891 141.088 340.028 134.172 341.544 127.635L343.439 119.583C344.291 115.888 344.102 109.73 342.586 105.941C340.786 101.488 338.417 97.6037 337.186 93.151C335.386 86.7089 337.375 79.8878 341.923 75.7194C346.849 71.2668 353.481 70.4141 359.923 72.4984C364.47 74.0141 368.733 70.1299 369.396 65.4878C370.344 58.8562 372.144 52.4141 376.502 47.393C381.523 41.5193 388.912 39.2456 396.207 40.7614C401.039 41.8035 405.681 43.793 407.102 49.0036C410.039 51.4667 410.512 55.351 410.039 59.1404C412.312 62.172 412.691 65.6773 410.323 68.5194L405.207 85.8563C404.165 89.3615 404.639 95.1405 404.639 98.93C408.049 107.172 417.333 108.972 421.881 117.214L424.912 122.709L427.944 127.446C427.944 132.656 425.102 135.499 425.67 139.478C424.344 141.278 420.933 143.741 418.754 144.878C415.344 144.878 412.881 145.256 409.944 146.488L410.039 146.583ZM397.439 65.4878C398.67 61.6036 397.628 58.7615 396.207 55.7299L391.186 55.5404C388.818 58.7615 388.818 62.9299 391.754 65.9615C392.797 67.0036 396.965 66.9089 397.439 65.3931V65.4878ZM354.523 88.9826L351.586 84.2457C347.986 85.4773 347.228 86.5194 347.417 89.551C347.417 91.4458 349.028 93.151 351.586 93.3405L354.617 89.0773L354.523 88.9826ZM390.333 92.4879C389.102 91.8247 386.26 92.0142 385.028 92.9616C384.649 96.4668 384.649 100.635 386.639 103.004C387.681 104.33 390.428 104.519 391.47 103.856C394.218 102.246 393.744 94.1931 390.333 92.4879ZM358.786 115.13C361.533 114.467 362.291 111.719 362.196 109.825C362.196 108.214 360.491 105.751 358.596 105.277C356.702 104.804 355.091 106.13 354.617 107.551C353.954 109.446 353.765 111.151 354.333 112.477C354.902 113.709 357.175 115.509 358.691 115.035L358.786 115.13ZM406.912 130.856C408.049 131.235 409.849 130.856 410.418 129.814C411.839 127.351 411.365 124.509 410.133 122.425C409.186 120.909 406.439 119.583 404.26 119.488C401.228 119.488 400.849 122.804 401.228 124.983C401.891 128.488 403.123 129.72 406.912 130.951V130.856ZM357.27 144.214C361.344 141.941 360.396 134.362 356.702 133.225C352.439 131.898 350.165 135.878 350.26 139.383C350.354 142.225 353.765 146.109 357.27 144.214Z" fill="white"/>
<path d="M418.47 99.7797C415.154 100.632 413.449 99.9692 411.554 96.9376C409.66 93.906 407.954 88.506 411.554 85.6639C414.017 83.6744 419.986 85.1902 422.165 87.0849C424.438 89.1692 425.196 92.2007 424.628 94.8534C424.06 97.506 421.217 99.1166 418.47 99.7797Z" fill="white"/>
<path d="M415.153 47.3916L417.048 41.4231C419.606 40.0021 423.017 39.3389 425.29 40.8547C428.038 42.56 429.364 45.2126 428.796 48.4337C428.227 51.56 426.427 53.6442 422.638 54.3073C420.553 54.6863 418.09 54.6863 416.574 53.2652C415.248 52.0337 414.49 49.3811 415.153 47.3916Z" fill="white"/>
<path d="M331.217 147.526L326.48 150.084C322.69 150.084 319.848 147.242 319.374 144.211C318.806 140.516 320.795 137.295 323.732 136.063C327.332 134.548 330.648 135.779 332.638 139.095C334.438 142.032 334.722 145.726 331.122 147.526H331.217Z" fill="white"/>
<path d="M329.796 121.383C327.712 122.993 326.196 122.709 323.638 122.046C319.849 121.004 316.249 117.593 318.238 113.14L323.07 108.214C328.754 108.025 332.449 112.288 332.923 117.025C333.112 118.635 331.407 120.246 329.796 121.477V121.383Z" fill="white"/>
<path d="M438.364 114.748C441.869 116.074 442.722 118.348 443.006 121.095C443.196 123.653 441.301 125.642 438.743 127.063C435.332 128.958 432.301 127.064 430.027 124.221C428.038 121.663 428.227 117.495 430.785 114.748C432.775 114.274 436.564 114.084 438.364 114.748Z" fill="white"/>
<path d="M326.954 96.1812C324.586 97.4128 321.933 97.4128 319.47 96.1812C317.291 95.1391 315.775 92.7706 315.87 89.7391L319.659 85.0969L324.302 82.7285C328.091 83.1075 330.08 86.6127 329.986 90.4022C329.986 92.9601 329.228 94.8548 326.859 96.0864L326.954 96.1812Z" fill="white"/>
<path d="M414.774 757.728L408.332 756.781L386.069 751.76C376.88 749.676 359.922 742.002 352.343 735.56C348.932 732.718 346.09 729.591 343.627 725.897L336.995 715.76L330.838 703.539L328.374 696.434L326.385 689.707C326.006 687.528 327.237 683.265 327.616 680.802L329.416 666.402C331.595 649.16 324.206 648.402 314.069 641.107L309.048 637.507C306.016 635.328 304.027 631.254 301.185 628.602C295.69 623.297 296.637 606.339 300.995 597.812L305.827 588.433C307.627 585.023 310.185 580.949 313.122 578.391L324.111 569.012C325.248 568.065 326.385 567.023 327.237 565.791L333.49 557.265C336.143 553.665 338.416 545.517 338.795 540.212C337.185 537.844 334.153 535.002 331.69 533.486L317.101 524.675C311.89 521.549 304.216 513.212 303.553 507.054C302.132 504.97 301.185 502.507 300.522 499.665C299.48 497.486 299.859 496.254 300.237 493.886L301.374 485.644C301.753 482.991 303.174 479.296 304.595 477.117L310.374 467.928L313.122 463.002C315.964 457.886 316.911 452.391 314.922 446.896L312.08 439.223L309.237 432.78C306.49 426.433 306.206 418.759 307.722 411.749C309.522 403.317 316.153 398.296 322.88 393.938C324.869 392.612 326.48 391.57 328.564 391.001L338.227 388.065L345.332 387.496C355.09 386.644 367.974 384.465 374.038 377.833C377.259 374.328 380.006 364.286 379.532 363.149L375.838 354.433C375.364 353.201 375.648 350.454 376.406 349.507C377.164 348.559 379.153 347.422 380.669 346.949C388.817 344.391 396.396 348.749 403.217 345.243C406.438 338.517 412.027 335.296 419.227 334.254C421.122 333.97 423.964 333.401 425.48 333.97L431.259 336.243L433.248 340.507C435.522 342.875 438.08 345.243 439.311 348.37C441.017 352.633 442.911 358.128 446.89 360.401C451.627 359.549 455.89 359.359 460.248 359.833C467.069 360.496 473.89 360.97 480.522 362.77L491.511 367.222L498.143 370.538C501.933 372.433 505.911 379.349 507.617 384.844L508.848 395.549C510.269 400.001 511.975 405.023 514.911 408.338L520.596 414.686C527.985 422.928 530.733 432.402 524.764 442.159C523.722 447.749 521.733 453.054 518.606 457.98L511.975 465.275L506.575 471.623L498.711 481.475C495.775 485.17 495.111 490.191 493.311 494.454C492.269 497.107 490.943 499.191 490.754 501.938L489.806 514.917L491.796 522.402C492.269 524.296 495.017 527.139 496.154 528.844C499.375 533.77 504.206 535.665 508.564 539.075L520.69 548.739C522.112 549.875 524.669 552.717 525.333 554.328L530.164 565.791C531.206 568.254 529.785 574.507 530.638 581.991L531.585 589.949C532.154 594.591 532.912 597.528 536.417 601.033L541.912 606.528C545.227 609.844 548.638 612.97 548.827 617.897L549.112 625.76C549.206 629.265 547.691 635.897 545.701 639.212L541.343 646.791L535.375 659.676C531.49 667.918 537.459 676.918 536.512 684.686L534.806 698.044C533.954 704.581 531.869 711.307 528.364 717.181L520.312 730.539L513.68 735.844L507.996 740.581L498.901 744.939L486.68 750.434L475.406 754.413L457.88 757.918L447.553 758.77L414.68 757.349L414.774 757.728ZM427.848 385.507L431.353 384.37C434.101 382.665 436.185 382.096 440.069 382.57L439.406 373.286L438.269 366.086L430.975 365.517H419.132C413.732 365.422 408.427 366.086 404.353 369.401C400.28 372.717 395.259 374.328 389.101 372.717C389.101 375.465 389.669 377.928 389.859 380.675L390.522 389.959L399.996 387.496H403.88L414.111 388.349C418.943 388.728 422.922 387.022 427.848 385.412V385.507ZM436.469 435.054C437.417 431.549 437.606 429.18 437.89 425.959C438.175 423.023 439.311 419.612 438.459 416.675C437.89 414.686 434.48 414.78 433.059 414.591C424.817 413.17 417.143 414.212 409.469 417.338C403.217 419.896 396.49 418.57 390.806 416.391C388.532 423.591 387.301 430.791 389.48 437.612C399.427 433.254 420.838 432.307 430.406 433.917L436.469 434.959V435.054ZM373.753 553.854L389.29 562.949C402.174 569.107 417.048 569.865 430.785 566.075L437.796 564.086C441.775 562.949 444.806 561.907 448.311 559.444L454.09 556.981C460.532 552.907 463.564 546.465 466.69 539.928C470.764 531.402 473.227 522.496 472.469 512.738L471.427 499.096C470.669 489.528 466.406 481.381 461.575 473.233C456.743 465.086 449.543 458.359 439.406 456.559L427.564 454.475L408.522 455.802L394.027 458.17C390.143 458.833 382.28 464.328 378.68 468.307C373.469 473.991 369.111 479.581 364.753 486.117C362.385 489.623 358.88 493.223 358.216 497.581L357.174 504.402L355.943 520.696C355.564 526.286 358.216 531.402 360.585 536.139L365.511 546.086C367.217 549.591 370.438 552.149 373.659 554.044L373.753 553.854ZM375.743 618.654C378.017 615.054 375.174 609.654 372.048 607.76C371.195 607.191 369.017 606.528 368.543 607.191L366.838 609.465C364.753 612.212 364.753 615.812 367.027 618.086C368.922 619.981 373.848 621.781 375.743 618.654ZM468.869 619.318C472.659 616.665 471.143 610.791 468.017 608.423L463.754 611.17C462.522 611.928 463.185 615.528 463.943 616.854C464.606 618.086 466.975 620.549 468.869 619.223V619.318ZM396.49 622.728C399.617 618.844 398.859 614.012 395.164 610.981C394.122 610.128 390.711 610.223 389.764 611.265C387.585 613.728 386.069 617.707 387.774 620.644C389.48 623.581 393.553 623.865 396.396 622.823L396.49 622.728ZM452.006 623.012C456.364 619.697 454.659 613.633 450.869 611.265L447.364 616.381C446.701 617.328 447.364 620.17 447.838 621.307C448.311 622.444 451.059 623.77 451.911 623.107L452.006 623.012ZM415.343 625.002C418.375 623.012 418.469 620.17 417.901 617.233C417.522 615.149 415.438 612.212 413.732 612.97C408.617 615.339 409.185 622.16 411.174 624.339C411.838 625.097 414.49 625.57 415.343 625.002ZM438.838 618.56C438.743 615.907 437.417 613.823 435.522 613.349C433.059 612.686 431.638 613.728 430.122 615.907C428.606 618.086 427.848 620.549 429.08 622.633C430.311 624.718 433.153 625.475 435.143 624.812C437.606 624.054 438.932 621.591 438.838 618.56ZM406.627 660.623C408.048 665.833 410.038 670.286 414.111 673.791L417.427 676.634C420.743 679.476 423.964 678.718 427.659 677.676C431.353 676.633 435.048 675.781 436.185 671.518C437.132 667.918 437.796 663.181 439.596 659.96C442.343 655.318 447.838 652.381 452.575 650.676L459.585 648.212L469.059 643.476C471.143 642.433 472.185 637.602 471.901 635.233L465.743 636.086L449.543 639.591L436.375 640.539C432.301 640.823 428.796 640.918 424.627 641.012L416.859 641.297L407.006 640.539L399.238 640.16L375.364 637.318C372.901 637.033 370.817 634.286 367.88 636.654L376.69 646.602L381.901 651.907C387.206 657.402 403.69 650.297 406.532 660.623H406.627ZM514.722 696.907C517.848 695.96 518.417 693.97 518.417 691.318L518.606 685.539L512.733 683.928C506.859 685.444 503.733 692.833 506.859 697.381C508.09 699.181 510.743 700.128 512.922 699.844L514.722 697.002V696.907ZM502.69 719.644C505.533 715.476 506.385 710.455 503.733 706.191C502.88 704.96 499.28 705.434 497.669 705.623C491.227 706.57 488.196 712.444 489.238 717.276C489.522 718.791 491.227 720.97 492.554 721.349C494.733 722.012 501.743 720.97 502.69 719.549V719.644ZM486.775 733.76C487.627 731.96 487.154 727.886 485.732 726.749C482.89 725.707 479.48 724.665 476.638 724.76C473.511 724.76 469.343 727.223 467.543 729.876C465.743 732.528 466.785 738.213 469.532 739.728C473.796 742.097 484.406 739.16 486.775 733.76Z" fill="white"/>
<path d="M531.585 523.159C512.638 520.98 507.901 532.065 502.975 528.749C501.648 527.896 501.08 524.012 501.743 522.496C507.996 516.907 511.975 514.159 520.69 513.496C525.996 513.117 530.922 515.675 535.943 516.907L546.838 519.559C550.248 520.412 555.743 518.233 558.68 516.149C563.511 512.549 562.943 498.149 566.164 494.833L571.659 489.149C579.143 481.475 597.048 491.138 606.901 470.201L611.922 459.591C614.196 454.759 616.659 450.022 616.28 444.243L616.469 440.549C616.469 439.886 617.227 438.18 617.796 438.086C618.364 437.991 619.217 438.559 620.164 439.317C621.585 442.254 622.154 445.665 621.68 448.98L620.448 457.886C619.88 462.338 619.217 467.549 617.133 471.433C615.427 474.654 614.006 477.307 613.154 480.717C612.301 483.938 610.217 485.643 608.133 487.633C602.259 493.222 595.912 496.065 587.859 497.865L583.88 498.717L580.848 504.212C578.575 508.475 579.617 512.265 576.68 516.717C574.69 519.749 573.648 525.433 569.954 526.949C554.701 533.296 552.143 531.401 540.301 525.338C537.554 523.917 534.711 523.633 531.585 523.254V523.159Z" fill="white"/>
<path d="M528.175 491.898C522.017 493.793 518.038 495.119 513.585 499.288C511.122 501.561 508.375 503.835 506.575 506.867L500.227 517.098L495.017 515.298C497.385 499.572 508.659 484.793 524.669 483.182C530.448 482.614 534.996 479.393 537.459 475.319C540.869 469.73 540.869 464.14 537.743 458.646C537.743 453.625 538.217 448.698 539.543 443.772L544.28 436.477C548.164 430.509 559.533 419.614 556.88 407.393L553.564 392.33C552.617 387.782 549.301 383.898 546.364 380.677L545.322 378.972C545.322 378.972 546.838 377.266 547.406 377.361C556.975 379.824 565.027 392.235 567.964 402.751C568.722 405.498 568.248 409.382 568.343 412.698C568.343 414.403 567.68 418.003 566.827 419.519L559.722 432.119L555.269 440.172C553.754 442.825 551.669 446.14 552.427 449.172L554.133 456.656C554.701 459.025 555.743 461.109 555.743 463.572V472.193C555.743 482.425 549.301 486.877 539.448 488.393L528.269 491.898H528.175Z" fill="white"/>
<path d="M623.765 638.456C620.07 641.866 611.734 636.278 606.523 632.299C601.312 628.32 596.67 627.467 594.018 617.709L591.365 608.235C590.702 605.772 589.186 603.404 587.86 601.225C585.491 597.341 582.555 595.825 578.102 595.256L563.986 593.362C562.66 592.604 560.102 590.898 559.155 589.856C552.239 581.804 551.955 578.772 550.628 568.541C549.87 562.856 546.839 557.646 543.333 552.814C540.207 548.551 535.091 547.319 530.165 545.519L522.491 542.677C521.923 540.593 524.007 538.13 526.47 537.751C529.691 537.277 533.481 538.604 536.797 539.551L547.028 542.583C552.902 544.288 557.165 547.225 560.576 552.814C562.281 555.656 564.27 559.825 564.839 563.425L565.786 569.583L569.481 578.204C570.334 580.288 574.881 582.751 577.155 582.751C583.407 582.846 589.376 584.172 594.302 588.625C597.428 591.467 598.755 596.204 599.702 600.467L602.923 615.151C603.776 619.035 607.186 623.299 610.218 625.762L618.081 632.204C620.07 633.909 622.534 635.993 623.955 638.362L623.765 638.456Z" fill="white"/>
<path d="M421.502 560.011C416.007 561.148 412.312 561.527 407.007 560.959C402.933 560.485 399.333 559.916 395.354 558.59L389.575 556.601L383.228 553.664C380.007 552.148 377.828 549.874 375.46 547.222C374.038 545.611 372.144 543.906 371.102 541.822L364.66 528.843C361.344 519.843 361.533 509.895 364.281 500.99C366.649 493.032 369.491 485.548 374.702 479.011L381.144 473.706C385.123 470.39 390.617 466.979 395.07 465.653L402.081 463.664L415.06 461.39L421.028 460.253C431.07 458.264 443.481 463.474 450.965 470.769C453.997 473.8 456.933 476.643 458.733 480.621C461.291 486.306 464.607 491.895 465.649 498.053L467.165 507.527C467.449 509.043 467.544 511.885 467.354 513.59L466.786 522.401C466.691 524.295 467.733 525.527 466.218 527.137C462.712 530.832 461.86 540.022 457.312 543.622L443.67 554.611C441.775 555.843 437.607 556.601 435.333 557.169L429.081 558.685L421.502 560.295V560.011ZM442.249 544.569C447.744 544.569 446.986 538.885 445.66 532.064C444.712 526.853 442.628 522.59 438.839 519.085C432.112 512.927 430.691 502.79 432.681 494.264C434.102 488.295 433.723 482.516 430.881 477.116C430.596 473.137 427.849 470.674 424.912 468.306C423.207 466.979 421.975 466.506 419.702 466.979L412.881 468.211L419.512 473.895L422.828 478.253C429.933 487.727 427.66 495.022 425.102 504.874C424.154 508.664 425.765 515.011 427.47 518.422C436.47 525.622 444.712 532.822 442.249 544.664V544.569ZM429.365 549.401C429.365 550.064 430.881 551.769 431.354 551.39C431.828 551.011 432.87 549.59 432.87 548.927L433.154 537.653C433.344 531.874 429.933 528.274 425.67 525.243C419.512 520.885 416.007 513.874 417.333 506.39L419.418 494.358C420.554 487.916 417.807 480.432 412.786 476.358L405.017 470.106C404.26 469.537 401.417 468.969 400.754 469.632L398.291 471.811L395.923 473.99C394.502 475.222 407.481 480.243 410.323 489.432C416.291 508.948 401.323 511.979 415.344 526.474L424.723 536.043C427.47 538.885 429.175 545.043 429.365 549.495V549.401ZM454.47 531.211C456.744 529.032 457.881 526.095 458.07 523.537L452.196 514.064L448.407 506.579C446.418 502.695 445.186 498.716 445.47 494.169L446.512 479.011C444.996 474.843 439.975 471.337 436.186 469.348C433.344 472.19 441.396 474.464 440.449 483.274C442.344 491.232 438.649 496.443 440.165 504.211L441.302 510.085C441.965 513.495 443.291 515.485 446.039 517.474C450.491 520.695 452.575 525.811 454.375 531.306L454.47 531.211ZM413.544 547.411C412.502 549.685 412.691 552.432 414.112 553.664C414.965 554.422 417.712 553.948 418.754 553.38C423.965 536.232 407.007 531.306 403.028 520.506L401.133 515.485C401.133 511.6 401.891 507.243 403.217 503.548C406.249 494.643 402.933 486.211 395.354 480.906L389.67 476.927L383.796 479.769C378.491 482.327 390.144 486.495 393.46 492.558C395.165 495.685 395.923 500.327 396.017 503.737C396.112 507.432 393.839 511.411 394.028 515.106L394.502 522.022C394.786 525.716 398.765 528.179 401.228 530.453L406.344 535.285C409.47 538.222 411.27 543.337 413.354 547.316L413.544 547.411ZM404.639 553.853C407.196 546.843 401.039 538.601 395.26 533.106L391.47 529.506C383.891 522.401 387.302 513.874 389.196 503.737C389.86 500.232 388.533 497.39 387.112 494.264C383.702 486.969 378.681 486.022 378.207 486.779L377.165 488.864C375.27 492.464 376.691 494.169 378.775 497.011C380.86 499.853 382.375 505.443 382.091 509.043L381.238 514.727C380.575 519.558 380.196 525.053 383.891 529.032L391.281 536.99C392.323 538.127 393.933 540.969 394.312 542.295L396.87 552.432L404.639 553.758V553.853ZM458.354 502.695C458.354 500.516 457.312 498.527 456.46 496.537L452.765 487.348C451.912 488.106 451.533 489.053 451.723 489.906L453.618 500.232C454.375 504.116 455.891 507.527 458.544 511.316L458.354 502.695ZM387.586 543.432L383.417 537.274C381.333 534.243 378.017 532.348 376.407 528.748C374.986 525.716 373.754 520.506 374.228 517.285L375.838 507.243C376.217 505.064 375.649 502.506 374.512 500.706C370.06 506.674 370.438 522.401 372.428 528.179L374.607 534.337C377.07 541.443 381.523 547.411 388.912 549.59C388.723 547.885 388.439 544.758 387.681 543.622L387.586 543.432Z" fill="white"/>
</g>
</g>
<defs>
<clipPath id="clip0_2001_5843">
<rect width="464.211" height="720.001" fill="white" transform="translate(167.89 40)"/>
</clipPath>
</defs>
</svg>
