<svg width="800" height="800" viewBox="0 0 800 800" fill="none" xmlns="http://www.w3.org/2000/svg">
<g clip-path="url(#clip0_2001_5849)">
<mask id="mask0_2001_5849" style="mask-type:luminance" maskUnits="userSpaceOnUse" x="179" y="40" width="433" height="711">
<path d="M611.872 40H179.2V750.976H611.872V40Z" fill="white"/>
</mask>
<g mask="url(#mask0_2001_5849)">
<path d="M289.024 750.785L250.912 738.017L226.24 726.017C226.24 724.769 227.008 723.137 227.68 721.505C228.736 718.721 229.312 715.361 229.792 712.193C230.56 707.009 234.016 702.689 236.032 697.985L239.392 690.017L242.176 684.257L245.632 678.305L248.608 673.409L252.256 667.649L256.096 663.137C258.016 660.929 259.36 658.817 260.704 656.417L263.296 651.617L267.328 646.145C268.48 642.977 270.88 640.481 272.704 638.081C273.184 635.297 273.376 631.169 274.432 628.385L277.6 619.745C278.848 616.193 279.232 612.641 278.272 608.993C279.04 606.209 279.04 603.521 277.888 600.929L275.776 592.961L267.712 574.721C266.368 571.553 264.928 568.865 263.008 565.889L256.576 555.809L248.704 542.369L240.064 530.273C238.72 528.449 236.8 516.737 235.552 518.273L236.704 516.929L234.976 513.761C235.648 511.745 234.4 510.401 234.016 508.769C232.192 501.761 233.536 493.889 235.744 487.073L239.968 474.305L241.984 465.569L243.424 458.657C243.712 457.217 243.712 455.585 244.192 454.337L246.688 448.769L250.72 441.665L258.784 425.249C259.84 423.137 260.128 419.585 260.512 417.089L262.912 414.497C263.2 408.257 263.872 402.305 265.12 396.257L264.736 393.281C264.064 388.193 263.68 383.009 262.048 378.209C259.456 370.433 256.864 362.849 251.488 356.513C250.624 355.553 250.048 354.113 249.952 353.057C247.072 350.081 244.48 347.009 242.944 343.073L240.16 340.769C238.912 338.561 237.568 335.489 235.84 333.857L231.808 329.825L225.472 324.353C222.4 321.665 218.752 320.225 216.256 317.057L212.512 312.257L209.248 308.129L203.872 303.233L201.856 298.817C200.992 296.801 202.048 294.305 199.936 292.673C196.768 290.177 196.096 285.473 195.424 282.209C192.736 280.097 190.048 277.217 187.936 274.049L184.576 269.057L181.12 261.761C180.256 259.937 179.68 255.905 179.392 253.697C178.816 248.705 179.104 243.809 179.2 238.913V233.633C179.2 228.833 180.736 223.937 183.04 219.905L182.08 218.465C182.08 218.465 182.944 216.833 183.04 216.449L183.328 210.497C187.552 203.873 191.104 194.753 191.296 187.073L192.736 182.657C193.984 178.817 193.408 175.169 192.928 170.945L191.296 155.681C190.912 152.609 195.232 149.153 197.632 150.689C201.856 153.377 204.544 161.729 203.872 167.489C205.6 169.697 206.176 172.673 203.68 174.977C206.752 179.105 204.928 183.905 204.16 188.225L202.912 195.329L201.376 200.129C200.896 201.761 200.992 205.409 200.608 207.137L199.072 212.801L197.728 220.961L197.44 229.121C197.44 231.425 196.864 232.577 197.44 234.689L199.168 241.985C200.896 241.217 202.144 240.161 202.528 239.009C204.16 234.689 206.944 231.809 209.632 228.449C212.704 224.609 213.952 220.193 215.776 215.873C217.024 212.897 218.656 210.113 219.52 206.753L221.056 200.897C221.824 193.793 221.44 186.785 221.248 179.777C220.96 169.889 217.984 161.345 214.72 152.321C211.84 144.257 209.632 136.577 204.448 129.377C202.432 126.497 202.432 120.641 201.856 117.185L199.36 115.649C198.784 115.265 199.936 113.153 199.648 112.481C196.384 104.705 199.072 101.153 196.48 97.6969C196.96 87.2329 193.888 74.5609 200.704 72.4489C202.336 71.9689 206.176 73.0249 206.176 74.9449C206.176 80.8969 207.04 85.5049 208.864 90.9769C209.44 92.7049 210.016 95.1049 211.36 96.2569C215.584 99.7129 211.36 102.689 215.2 106.529L214.432 108.737C214.24 109.313 216.16 110.273 216.448 110.753L220.576 117.089C220.192 119.873 221.248 121.601 223.264 122.945C224.416 126.881 226.048 130.721 228.16 134.273C228.64 138.113 229.792 141.761 232.096 144.545C233.44 149.249 235.552 153.281 238.432 156.929L239.776 162.017C240.16 163.457 240.352 165.377 240.256 166.913C245.056 174.401 241.312 183.137 243.52 192.929C244.384 190.817 245.344 188.417 245.728 186.593L247.168 179.681L248.032 175.745C248.608 172.865 248.032 169.505 247.744 166.241C247.168 160.097 248.416 153.281 246.4 147.425L239.872 128.225C238.336 124.961 234.304 122.081 232.48 118.913L226.72 108.737L223.552 101.153C222.208 98.0809 220.768 94.1449 220.768 90.5929V58.5289C220.768 56.8969 223.456 54.1129 224.992 53.9209C227.584 53.6329 231.904 55.0729 232.96 57.1849C233.248 62.6569 234.016 67.7449 234.976 73.0249L235.264 78.4969L235.84 86.5609C236.704 88.8649 237.184 90.6889 237.568 92.8009L238.72 98.7529C239.2 100.961 240.448 102.785 242.176 103.841C243.04 106.529 243.616 109.121 245.344 111.329L249.952 117.281L254.272 124.481L258.976 131.201L259.84 134.465L263.296 144.449C263.68 145.505 264.064 147.713 264.736 148.577C265.216 149.249 266.08 149.825 265.888 150.209L264.928 152.225C267.52 154.817 266.56 161.921 265.024 167.009C268.672 175.073 262.432 176.321 263.968 182.177L268.096 178.913C274.624 173.825 270.592 171.233 273.856 167.489C275.008 164.609 274.912 160.481 275.872 157.601C277.12 153.761 276.448 150.497 275.584 146.657L273.184 136.385C272.704 134.177 270.4 130.529 269.056 128.897L262.912 121.889C258.784 117.089 253.6 111.809 251.872 105.569L249.088 95.4889C248.128 92.0329 248.896 87.4249 248.8 83.6809L253.408 78.3049L259.168 79.6489C262.816 86.9449 263.968 97.2169 267.52 101.537C269.728 104.225 270.784 105.953 271.648 109.217C272.608 113.057 275.776 115.937 278.08 118.913C279.808 121.217 280.768 124.577 282.208 127.073L286.528 134.849L290.08 142.721C291.04 144.833 291.808 146.177 290.176 148.673L292.192 153.281C292.192 158.177 292.864 163.265 291.904 167.969C290.176 176.129 284.8 181.217 285.76 188.897L286.048 191.585C286.048 192.161 288.832 191.393 289.024 190.913L293.632 181.121C295.744 176.705 298.336 172.577 299.392 167.969C300.448 163.361 301.12 158.081 301.024 153.473C300.928 148.865 298.144 137.825 296.608 135.137L290.464 124.673C289.696 123.425 289.12 121.601 289.12 120.065C289.12 118.721 291.712 117.473 293.44 117.473C295.648 117.473 297.568 117.953 298.72 119.393L303.712 125.345C305.152 127.073 305.152 129.761 305.92 131.777L310.912 145.217C311.488 146.849 311.776 148.001 311.776 149.825L311.584 157.121C311.584 161.057 311.872 165.665 311.104 169.409C309.472 176.801 307.456 183.905 304.672 190.625C303.328 193.793 300.16 196.769 299.008 199.937C296.896 206.081 293.248 203.105 292.48 209.249C288.928 213.089 285.664 218.081 284.416 223.073C282.496 225.281 281.248 227.489 280 230.177L277.6 239.297C277.12 241.217 276.544 243.137 276.832 245.057L277.504 250.145L278.176 257.249L278.848 262.337C279.328 265.601 280.48 267.809 282.208 270.497C283.264 272.321 283.072 277.025 284.8 278.273L287.776 280.385C288.544 280.961 288.064 283.169 287.584 284.417C291.808 288.161 292.288 292.481 293.248 297.665L294.592 305.345C295.168 308.321 295.456 309.377 294.592 312.257C293.344 316.385 294.88 321.377 295.36 325.601C296.416 333.761 300.448 338.753 299.872 349.025C299.488 356.321 301.504 362.945 304.192 369.569L309.184 381.953L312.064 388.769L314.944 398.753C316.768 405.089 314.944 410.849 313.408 417.089L310.624 428.513L305.248 442.337C304.48 444.449 303.616 446.177 302.08 447.905L298.432 451.937L290.464 466.241C288.16 470.369 286.336 475.937 285.472 480.833L283.936 489.281L282.784 497.537C281.728 504.833 283.744 512.321 286.144 519.329L292 526.913L294.976 531.137L299.776 536.993C303.328 538.625 304.384 542.081 305.248 545.729C308.704 547.169 311.392 549.569 313.12 552.833L317.728 558.209L321.568 563.393C323.488 571.553 329.536 577.121 330.592 583.169L331.648 589.025C332.032 591.041 332.416 592.097 334.816 592.769L334.336 599.105C334.048 602.657 334.528 605.825 334.72 609.473L335.104 616.577C335.296 620.513 335.872 624.065 334.72 627.905L330.688 640.865C329.536 644.705 330.208 648.449 325.408 649.889C327.04 652.865 327.232 657.377 324.832 659.201C322.432 661.025 322.24 662.945 321.952 665.345L319.936 670.625L317.824 670.241C317.248 670.145 317.056 671.777 317.248 672.737C317.44 673.985 316.768 675.041 316.192 676.289L312.832 683.585L305.92 703.073C304.768 706.337 306.112 711.041 305.344 714.689C304 721.793 303.52 728.993 304.864 736.001C305.632 739.745 303.52 740.225 301.312 741.953L292.96 748.577C292 749.345 290.08 751.265 287.968 750.497L289.024 750.785Z" fill="white"/>
<path d="M438.401 738.689H404.417C401.537 737.441 398.465 736.481 395.585 735.809L379.169 731.585C373.217 730.049 367.073 729.953 361.025 729.953C359.489 721.985 362.369 714.881 365.345 707.777C366.305 705.377 366.689 702.113 367.169 699.425C368.033 693.953 371.585 689.729 373.601 684.833L376.385 678.209L381.185 668.705L384.545 662.849L388.193 657.377C389.345 655.649 390.305 654.209 391.553 652.769L396.161 647.201L401.153 638.273C402.401 636.065 404.417 634.721 405.281 632.321C406.241 629.729 407.969 627.425 410.177 625.601C410.561 619.457 412.289 613.601 414.785 607.745C416.609 603.617 416.129 599.681 416.033 595.649C416.033 592.961 416.321 590.369 415.457 587.873L411.905 576.929L402.977 557.249L398.369 549.953L385.985 529.025C383.585 524.993 378.881 521.825 377.729 517.505L372.929 500.801L371.297 494.945C369.185 487.553 371.297 479.777 373.601 472.769L377.249 461.633L379.457 452.321L380.897 445.313C381.185 443.873 380.993 442.049 381.569 440.993L384.353 435.521L388.385 428.321L395.777 413.345C397.121 410.561 397.409 406.145 398.561 403.553C399.809 402.017 400.385 400.961 400.673 399.137L402.401 385.697C402.689 383.777 402.785 383.201 402.497 381.185C402.017 376.193 401.633 371.681 400.193 366.881C397.793 359.201 395.105 351.713 390.401 345.185L387.329 340.097C386.273 338.465 383.393 336.065 382.529 334.145C381.185 331.265 379.745 329.537 378.017 327.137L371.105 318.305C369.953 316.769 368.513 315.809 366.689 314.753L363.713 311.489C357.857 308.513 353.633 304.193 349.793 298.913L346.817 294.881L341.345 289.985L339.713 286.817C339.041 285.473 339.425 281.729 338.177 280.385C335.681 277.601 332.417 273.377 333.281 268.769C329.729 267.617 327.905 264.737 325.793 261.473L321.761 255.233L318.401 248.033C315.809 242.561 316.769 232.289 316.769 225.569V220.193C316.769 215.777 318.401 211.745 320.321 207.809L320.801 201.569C321.089 198.305 320.897 196.385 323.585 193.793L326.081 187.169C327.713 182.849 328.577 178.817 328.961 174.209L330.401 169.409C331.745 164.897 331.073 162.017 330.497 157.505L329.249 146.465C328.961 144.065 328.673 142.049 329.825 140.129C330.593 138.785 333.089 137.345 334.913 136.961C339.809 141.665 342.401 148.001 341.729 154.625C343.361 157.121 343.169 159.809 341.729 162.209C342.401 163.553 343.265 166.049 343.073 167.489L342.113 174.977L340.385 183.905L338.177 194.465L335.969 204.833L335.489 212.417L335.105 218.753C335.009 221.057 335.969 228.065 337.697 229.025C339.425 229.985 341.153 222.689 346.241 217.313C350.465 212.897 351.809 207.233 354.305 201.665C356.033 197.729 358.241 193.793 358.817 189.089C360.257 177.185 359.777 164.705 357.281 152.801L354.017 143.105L350.081 131.009L346.625 123.425L342.497 116.033C340.769 112.865 340.577 107.777 339.713 104.225L337.601 102.881C337.025 102.497 337.793 100.577 337.889 99.8087C334.433 93.1847 337.121 88.5767 334.529 85.0247V64.6727C334.625 60.8327 340.289 57.6647 343.073 60.2567C345.665 62.6567 344.417 67.6487 345.185 70.7207L347.105 78.1127C347.873 80.9927 348.449 83.1047 351.329 85.0247L351.713 91.4567L353.441 93.1847C353.441 93.1847 352.961 94.9127 352.481 95.4887L356.513 100.385C357.665 101.729 358.529 103.937 358.721 105.953C358.913 107.201 361.025 108.929 361.409 110.081L363.329 115.457L365.633 120.257C366.977 123.137 366.977 127.073 368.897 129.953C371.393 133.697 372.353 138.689 375.137 142.241C376.481 143.969 376.961 144.737 377.441 147.329L378.785 155.009C379.169 156.065 380.609 158.465 380.609 159.713L380.897 177.761C385.121 176.321 383.873 172.193 384.449 169.601L385.601 164.801C386.369 161.441 386.465 158.081 385.889 154.433C384.929 148.673 386.849 141.857 385.217 136.289C383.105 129.281 379.745 122.945 378.401 115.649C372.161 109.409 367.457 102.305 364.193 94.2407L361.601 88.0967C360.353 85.1207 358.913 81.3767 358.913 78.1127L358.721 45.7607L363.617 40.5767L371.201 43.9367L371.681 52.5767L373.217 60.5447L373.409 66.4007C373.409 68.5127 373.505 71.8727 373.985 73.6967L375.905 80.5127L376.961 86.3687C377.345 88.3847 379.169 90.0167 379.841 91.2647L383.681 98.8487C384.449 100.385 385.505 101.825 386.849 102.881C388.577 104.225 388.673 106.145 389.825 108.065L393.665 113.825C395.201 116.129 396.545 118.145 398.465 119.489C398.177 119.681 396.737 120.545 397.025 120.737L398.561 121.889C399.137 125.153 400.193 128.321 401.345 131.681L403.553 137.729C403.937 138.881 404.225 141.377 404.321 142.625L404.705 148.385C404.705 149.921 403.265 153.185 403.553 154.625L404.705 161.633C403.073 164.321 401.249 166.241 402.401 170.081L407.009 165.953C409.985 164.513 411.329 161.633 410.561 158.081C412.577 154.721 413.633 150.881 413.537 146.753C415.841 142.529 414.881 138.305 413.825 133.697L412.673 128.513C411.233 122.081 408.353 117.761 404.513 112.961L393.377 99.2327C390.977 96.3527 390.209 92.6087 389.153 89.1527L387.425 83.2967L387.137 71.2967L392.033 65.4407L397.985 67.6487L402.401 81.0887C405.281 89.7287 408.545 90.7847 410.081 96.7367C411.041 100.577 414.305 103.361 416.513 106.433C418.529 109.217 419.585 112.961 421.313 115.937L424.193 121.025L428.225 129.953C428.609 130.721 429.761 132.065 429.761 132.833C429.761 133.601 429.089 135.233 428.705 136.097C432.449 143.873 432.065 152.705 428.513 160.961L424.577 170.081C423.713 172.097 424.001 176.033 424.097 178.529C424.865 178.721 427.169 179.009 427.457 178.337L428.897 175.745L432.641 167.297C434.369 163.457 437.345 159.233 437.825 155.105L439.361 143.393C440.225 136.577 437.921 128.033 434.561 121.889L428.897 111.713C428.321 110.657 427.553 108.929 427.457 107.873C427.361 106.817 429.473 105.281 430.625 104.993C433.505 104.225 435.617 104.993 437.249 107.009L442.049 112.961C443.489 114.689 443.585 117.185 444.353 119.297L447.233 126.977L449.249 132.161C449.825 133.697 450.209 135.329 450.113 136.865L449.825 144.833C449.729 148.673 450.497 153.473 449.345 157.217L443.393 177.761L440.609 181.793C438.689 184.577 437.249 187.457 435.905 190.721C433.217 191.489 430.625 193.121 431.009 196.385C427.937 199.361 425.729 202.913 424.001 207.137C423.137 209.153 422.177 210.785 420.929 212.609C417.953 217.121 414.593 229.025 415.073 232.577L415.553 236.609L416.801 247.361C416.897 248.417 418.241 250.721 418.145 251.873C417.857 254.177 419.201 255.809 420.353 257.633C421.409 259.361 421.697 263.681 423.041 265.409C423.521 266.081 425.729 266.465 426.113 267.233C426.497 268.097 426.401 269.825 426.401 271.265C426.401 272.417 428.129 274.049 429.089 275.297C431.009 277.889 430.817 281.921 431.489 285.089L433.025 292.865C433.505 295.553 434.273 296.993 432.641 299.777C432.833 305.057 433.217 311.585 434.657 316.769C436.673 324.065 439.265 330.113 438.209 338.081C437.825 340.673 439.937 350.945 442.049 355.457L444.545 360.833L447.809 369.665L450.305 375.233L452.129 381.857C454.817 391.553 454.337 394.433 452.033 403.649C450.017 411.617 448.097 419.393 444.737 426.977L442.049 432.929C438.497 436.961 435.521 441.185 432.929 445.889L428.897 453.281C426.785 457.121 424.961 462.209 424.193 466.721L421.505 482.753C420.833 486.497 420.833 491.009 421.697 494.753L424.001 505.793L434.561 519.809L442.145 528.257C443.201 530.849 443.489 533.057 446.273 534.305C448.481 535.361 450.017 537.665 451.553 539.585L457.793 547.745C459.713 550.337 460.769 552.641 461.921 555.713C463.649 560.609 467.969 565.025 469.025 570.209L471.041 579.521C472.385 579.905 473.441 580.289 473.345 580.865L473.057 583.937L472.769 589.697L473.537 599.969L474.113 610.049C474.497 616.097 469.697 622.145 469.217 628.289C468.929 631.937 468.449 635.585 464.321 636.833C465.377 640.097 465.089 643.169 464.321 646.337C461.249 647.393 460.481 650.081 460.769 652.673C459.617 654.401 459.041 656.129 458.657 658.145L456.353 657.665C454.817 657.377 456.737 659.585 454.913 663.329C450.593 672.161 447.041 681.089 444.449 690.689L443.873 701.537C442.433 709.025 442.241 716.033 443.297 723.617C444.065 729.089 442.433 734.945 438.401 738.689Z" fill="white"/>
<path d="M516.641 742.819L499.265 743.011C502.337 736.195 504.065 730.339 505.313 723.619C506.177 719.107 509.441 715.075 511.073 711.139L513.857 704.419L518.561 695.011L522.209 688.579L525.665 683.683C527.009 681.763 527.681 680.515 528.929 678.979L533.921 673.027L538.625 664.483C540.065 661.891 541.985 660.355 543.233 657.571C544.289 655.171 546.017 653.059 547.841 651.523C548.129 646.051 549.473 640.483 551.585 635.395L554.369 625.603C552.737 623.203 552.833 621.091 554.273 618.979L551.873 609.187L545.921 595.363L542.561 587.299C541.505 584.707 540.161 582.691 538.817 580.483L530.561 567.139L523.841 555.523L515.297 543.811C513.665 541.507 513.089 536.899 512.321 534.115L510.977 529.411L509.825 524.227C508.961 520.291 507.521 516.355 508.097 512.035C509.153 503.299 512.705 495.427 514.817 486.979L516.929 478.243L518.369 471.139C518.657 469.507 518.657 468.355 519.233 467.107L521.441 462.019L525.665 454.339L532.769 439.843C534.209 436.867 534.785 432.451 535.745 429.475C537.473 427.747 537.665 426.787 537.953 424.195L539.489 411.235C539.489 410.563 540.737 409.603 540.545 409.123C540.353 408.643 539.489 407.395 539.489 406.819C539.585 394.915 534.593 381.187 527.873 370.915L524.609 366.115L519.041 358.435C517.793 356.707 516.929 355.555 515.681 353.731L510.209 345.955L506.465 342.307L500.129 336.739C497.441 334.435 494.273 333.283 491.969 330.499L487.457 324.931L484.385 320.803L479.201 316.099L476.705 312.163C476.801 308.707 476.129 305.827 473.153 303.523L470.465 296.803C470.465 296.803 471.041 294.691 470.561 294.499L468.257 293.443C467.105 292.867 465.473 290.467 464.801 289.411L459.521 281.443L455.777 274.147L454.817 268.579L454.241 262.531V251.395V245.347C454.241 241.315 456.449 237.571 457.601 233.539L458.273 227.011C458.657 223.843 458.561 222.595 460.385 219.811C462.401 216.739 463.649 212.515 464.993 208.771L466.433 200.131L467.873 195.235C469.121 190.819 468.545 187.171 467.873 182.755L466.529 172.291C466.241 169.891 465.953 167.875 467.105 166.051C467.969 164.515 470.945 162.787 472.577 163.075L475.841 166.627L479.009 174.115L479.681 180.643L479.873 187.363C480.065 191.875 479.969 196.003 479.489 200.707L479.009 205.411L477.185 210.787C476.033 214.051 476.417 217.123 475.649 220.195L473.057 230.467L472.673 237.475L472.097 244.291L473.057 251.779C473.153 252.547 473.921 254.083 474.593 254.179C475.265 254.275 476.801 253.219 477.089 252.451C478.817 248.323 481.793 244.579 484.577 241.027C487.649 236.995 488.993 232.291 491.009 227.875C497.729 213.283 497.537 203.971 495.809 188.323C495.137 182.563 494.465 177.187 492.257 171.811L489.953 166.147L487.073 156.739L482.849 147.715C480.065 141.859 477.473 136.867 476.801 130.243C475.169 129.091 474.881 127.171 474.497 125.155C473.825 121.987 472.481 119.395 472.865 115.651L471.905 110.467V90.4027C471.713 88.7707 473.633 86.5627 474.785 85.7948C476.033 84.9307 479.585 84.9308 480.545 86.0828C482.753 88.7708 481.505 92.9947 482.273 95.9707L485.249 107.971C487.457 109.123 489.089 111.139 488.513 113.827C488.225 115.939 489.089 117.667 490.721 118.819C490.625 119.491 489.953 121.219 490.337 121.699L491.969 123.907L494.945 127.651L496.193 133.123C498.017 134.851 498.881 136.291 499.745 138.403L501.761 143.491L503.969 149.731L512.129 167.875C514.049 168.643 514.433 170.563 514.433 172.675C515.201 175.171 515.585 177.475 515.489 179.875C515.969 180.931 517.697 183.523 517.793 184.963L517.985 203.299C522.209 201.763 521.057 197.923 521.729 195.235L522.785 190.243C523.553 186.691 523.553 183.043 522.977 179.203C522.113 173.347 524.129 166.627 522.209 161.251L517.025 146.563L514.721 139.843C508.385 133.411 500.993 121.411 498.785 113.443C497.921 110.275 495.905 106.531 495.905 102.979L495.713 71.3947C496.481 70.1467 498.305 67.7468 499.553 67.2668C502.433 66.1148 506.369 67.8428 508.289 69.8588L508.769 77.2508L510.113 83.2988L510.305 88.2908L510.593 95.4908C510.593 97.8908 511.745 100.387 512.225 102.691L513.665 108.739C513.857 111.907 515.009 114.979 517.313 117.091L521.153 124.675C521.633 125.731 522.689 127.363 523.457 127.939C525.569 129.475 525.857 131.395 527.009 133.219L532.097 140.995C533.057 142.435 533.633 144.163 533.825 145.507C535.361 147.235 535.745 148.483 536.513 150.787L539.777 160.291C540.353 162.019 540.929 163.459 541.121 165.187L541.697 170.275C542.081 173.251 541.313 175.747 540.737 179.107L541.601 187.267L539.969 186.595C539.969 186.595 539.585 187.267 539.681 187.555C541.121 191.011 537.377 191.779 539.681 194.851L543.713 191.395C546.977 189.571 548.129 186.787 547.553 183.043C549.473 179.491 550.433 175.363 550.817 171.331C552.353 167.203 551.873 163.171 550.817 158.851L548.513 149.635C547.361 145.027 543.809 141.667 541.025 138.211L533.249 128.707C530.273 125.059 527.393 120.547 526.337 115.939L524.609 108.835C523.745 105.187 524.129 100.003 524.609 96.1627L528.161 91.7467C531.713 90.2107 535.553 93.3788 536.609 96.9308L539.393 106.723C541.505 114.307 545.633 116.323 546.977 121.699C547.745 124.963 550.145 127.939 552.449 130.435C554.465 132.643 555.425 136.099 556.961 138.691L561.281 146.467C563.009 149.347 564.257 152.227 564.929 155.491C567.137 156.739 566.753 158.851 566.081 161.155C565.697 162.499 567.809 165.379 567.809 166.819L568.001 178.723C568.001 181.507 566.081 184.867 565.025 187.459L561.473 196.195C560.705 198.019 561.089 201.763 561.185 204.163H564.161C564.929 204.163 565.505 202.723 565.889 201.859L568.961 194.851L572.513 187.075C573.857 184.099 575.297 181.315 575.585 178.051L576.449 170.947C576.737 168.739 577.025 166.915 576.545 164.803C575.297 158.563 574.529 152.227 571.649 146.947L564.449 133.699C564.833 131.779 567.617 130.147 569.345 130.051C574.721 130.051 581.249 139.171 581.921 145.123C582.593 150.307 587.201 155.011 587.009 160.291L586.433 184.099C586.433 187.651 583.841 191.491 583.265 194.947C582.881 197.155 582.017 198.787 580.577 200.323L581.633 201.955C581.633 201.955 580.673 203.203 580.481 203.683L574.529 212.707C573.953 213.667 573.569 216.451 572.321 216.739C569.345 217.411 568.289 219.811 568.001 222.595C566.753 223.747 564.449 225.859 563.777 227.299L560.609 234.403C560.129 235.459 558.785 236.995 557.921 238.051L553.601 250.147C552.065 254.371 552.065 258.499 552.833 262.819L555.137 276.835C555.521 279.331 556.769 280.291 557.537 282.787L560.417 291.427C562.817 292.099 563.873 293.155 563.873 295.459C563.873 298.051 565.025 299.299 566.657 301.507C568.097 303.331 568.097 307.651 568.577 310.147L570.209 318.019C570.881 321.091 570.881 322.531 570.209 325.603C569.921 327.715 569.729 332.035 570.497 334.531L571.553 338.275C570.497 343.747 575.009 348.643 575.201 354.595L575.681 367.171L577.121 375.139L581.249 385.699L585.761 396.931L589.025 405.859C591.809 413.539 591.809 420.835 589.601 428.611C587.393 436.387 585.665 444.835 582.113 452.611L579.233 458.947C575.681 463.075 572.705 467.203 570.113 472.003L565.409 480.643L561.665 491.299L559.169 506.083C558.305 511.459 557.537 516.451 559.169 521.827C560.033 524.803 559.457 529.315 561.377 531.811L567.233 539.491L570.401 544.099C572.801 547.555 575.297 550.339 578.849 553.027L580.865 558.691C584.801 560.419 587.393 563.299 589.601 567.043L593.345 571.555L596.897 576.259L599.297 582.115L606.785 596.227C606.209 600.163 607.457 604.291 610.337 607.075C609.473 613.699 610.337 619.939 610.817 626.755L611.585 636.547L606.305 654.691L605.249 659.779C604.673 662.467 601.601 662.179 601.793 663.427L602.273 666.211L601.697 672.067C598.337 673.603 598.145 676.099 597.377 678.691L595.649 684.355C595.649 684.355 593.153 683.587 593.153 684.067V686.467C593.153 687.427 592.289 688.963 591.809 690.115L588.257 697.987C585.569 704.035 582.881 710.755 581.921 717.091C581.249 721.411 580.961 722.947 576.929 724.675L561.857 730.819L546.401 736.675L538.433 739.939L531.329 741.283L516.353 742.819H516.641Z" fill="white"/>
<path d="M285.951 257.247L281.247 252.927C283.455 252.543 284.895 252.543 286.719 252.927L285.951 257.247Z" fill="white"/>
</g>
</g>
<defs>
<clipPath id="clip0_2001_5849">
<rect width="441.6" height="720" fill="white" transform="translate(179.2 40)"/>
</clipPath>
</defs>
</svg>
