<svg width="800" height="800" viewBox="0 0 800 800" fill="none" xmlns="http://www.w3.org/2000/svg">
<mask id="mask0_2001_5855" style="mask-type:luminance" maskUnits="userSpaceOnUse" x="40" y="40" width="716" height="706">
<path d="M755.95 40H40V745.6H755.95V40Z" fill="white"/>
</mask>
<g mask="url(#mask0_2001_5855)">
<path d="M729.548 501.251L734.948 493.751L742.299 481.152L744.099 478.001C744.099 478.001 750.699 480.102 754.449 486.102C756.849 490.002 755.648 492.701 754.449 496.451L749.198 510.852C747.998 514.152 747.849 516.551 746.648 519.102L740.648 531.551L730.148 548.651C724.148 558.251 718.448 567.102 711.998 576.401L707.499 582.852L702.398 589.002C699.099 591.252 697.598 594.102 694.748 597.102L672.099 621.102C669.849 623.502 668.499 625.151 665.948 627.401L654.249 637.602C651.699 639.852 648.998 641.051 646.599 643.451L635.948 653.802C633.698 656.052 630.849 656.802 628.749 659.052C626.198 661.901 623.198 663.701 619.898 665.951L611.949 671.502L601.298 679.451L595.148 683.651L581.349 691.901L572.198 697.151L560.798 703.751C555.848 706.602 548.798 708.252 544.298 711.702C540.398 714.702 537.548 716.352 532.748 715.602L525.548 718.751C519.548 721.302 514.898 723.251 508.449 723.251L500.949 726.251C489.099 731.052 485.198 730.151 479.349 732.252L471.548 734.952L461.648 737.651C456.848 739.002 453.699 741.102 451.299 745.901H442.449C441.549 743.352 439.599 740.502 437.499 740.502H406.448L402.848 738.102H364.148L359.648 735.551C353.949 735.701 347.648 736.151 342.549 735.102L329.499 732.252L319.448 730.602C315.849 730.002 313.599 729.252 309.999 728.802L300.248 727.602L288.848 724.901L279.398 722.501L269.198 720.102L260.799 717.552L252.398 715.602L242.199 711.102C238.599 709.452 233.349 708.701 230.949 705.701C228.849 703.151 227.498 704.052 224.798 702.701L201.098 691.602L187.449 684.102L180.099 679.301L171.999 674.052L164.199 668.651L152.199 658.151C139.749 647.352 127.899 635.802 117.699 622.901L110.349 613.451L105.999 606.702L98.9489 597.102C92.9489 588.852 89.049 579.401 84.8489 570.102L79.449 557.952L63.6989 517.152L61.4489 509.802L58.899 501.401L56.499 492.551L53.9489 483.852L51.249 473.801L48.849 464.352C47.799 460.452 47.049 457.301 47.049 452.952C47.049 450.551 45.549 448.452 45.399 445.751L44.349 429.251C42.549 425.651 41.3489 422.802 41.949 418.602C42.399 415.002 41.4989 411.852 41.0489 408.251C39.8489 396.852 40.5989 385.302 41.1989 373.452C41.4989 368.802 42.999 365.051 41.1989 359.951C40.4489 358.001 41.799 353.801 41.949 351.551C42.399 345.852 41.1989 338.951 42.699 333.701L45.399 323.801L47.7989 315.251L50.499 306.551C51.249 304.001 52.449 301.602 52.149 299.051C51.849 295.751 52.8989 293.801 53.9489 291.251L60.549 273.702L62.799 267.402L65.1989 260.652L71.9489 246.402L77.949 234.552L93.549 208.751L98.3489 201.701L103.899 194.051L113.949 180.701L124.449 169.151C132.849 157.601 143.349 148.751 153.999 139.601L168.999 126.851L179.799 118.751L188.649 111.851C196.898 105.401 205.898 100.901 214.898 96.1012L239.198 83.3512L253.299 77.3512L268.299 70.3012L275.648 67.6012C280.449 65.3512 285.098 63.7012 290.198 63.1012C294.698 59.9512 299.648 57.8512 304.749 57.8512C309.999 55.6012 314.948 53.9512 320.198 52.7512C323.648 51.1012 327.548 50.5012 331.749 50.3512L342.698 47.6512L356.348 45.4012C360.548 44.6512 364.898 43.3012 369.699 43.6012C376.298 44.0512 382.598 43.3012 387.848 40.4512L390.548 43.7512C391.749 45.2512 395.948 38.8012 396.999 40.3012L399.249 43.3012L441.849 43.7512C447.999 48.5512 455.349 43.3012 462.549 47.9512L471.999 48.4012C474.099 50.2012 476.348 51.4012 478.898 50.8012C484.898 49.3012 489.398 52.0012 494.349 52.9012L506.948 55.1512L518.948 57.5512L529.898 60.1012L548.949 66.1012L565.299 73.7512L578.948 80.6512L584.049 83.9512L595.599 92.3512C596.949 93.4012 599.198 94.9012 600.849 96.2512L609.099 102.401L654.698 148.001L663.248 158.651C665.648 161.651 668.349 167.201 670.148 170.051C678.398 172.601 678.398 183.701 684.849 192.551L689.948 199.452L694.898 208.152C696.249 210.551 698.498 212.951 700.898 214.001L698.199 221.202C695.799 227.501 682.449 216.251 675.699 211.602L669.249 207.101L652.299 198.551C651.099 197.951 647.799 197.501 646.898 196.602C644.049 193.451 637.299 191.652 633.248 189.551L611.049 178.451C604.749 175.301 598.748 171.101 591.998 168.551L570.099 160.151L558.849 155.951L550.299 153.701L539.499 150.851C536.048 149.951 529.299 150.851 526.148 149.801C523.449 148.901 521.348 148.001 518.948 148.001H442.299C439.749 149.201 435.398 150.851 432.249 150.551C427.148 149.951 423.099 151.451 418.749 152.201L400.749 155.051L386.648 158.351L377.048 161.201L354.249 169.451L346.598 170.801L342.398 173.501C337.599 172.151 335.648 173.201 332.048 176.501C329.349 178.901 323.199 180.101 319.749 181.751L308.198 187.001L290.049 196.751L283.449 201.251L274.898 206.801L262.598 216.852C254.199 223.602 246.848 231.551 239.949 239.651L232.749 250.451C226.148 260.352 219.999 269.051 215.648 280.301L210.548 288.252L205.898 298.151L196.599 325.301C195.398 328.602 194.199 331.301 194.348 335.352C194.499 339.401 192.848 342.852 192.548 346.751L191.348 363.701C191.199 366.701 190.749 367.151 191.348 370.001L192.398 380.802L194.798 391.602L203.048 415.301L204.398 420.852L212.199 439.752L224.949 466.152L235.148 483.701L244.149 498.852L257.199 521.051L265.148 533.951L281.049 551.051L285.098 556.901L303.848 574.901L322.898 591.702C324.548 593.052 328.148 595.452 329.949 596.502L339.548 601.901C344.798 604.901 350.199 607.302 356.049 608.802L364.599 611.202C372.548 613.302 379.598 615.252 387.848 616.002L396.698 620.352C407.348 620.052 416.949 620.652 427.449 621.702L440.198 623.051H480.098C485.348 620.201 490.898 619.602 497.048 620.352C500.798 620.052 503.799 619.302 507.398 618.401L516.849 616.002L530.348 613.602L538.598 611.052L545.499 608.651L558.549 603.852L568.298 600.701L576.099 598.302L583.599 595.901C589.748 595.602 594.248 594.552 599.498 591.702L605.948 590.651C611.198 589.751 615.698 587.052 619.898 584.052C621.549 582.852 625.749 581.352 627.698 580.751L633.099 578.802L640.748 576.251L651.698 571.602L672.099 559.752C675.248 557.952 677.198 555.852 680.198 552.852L690.699 547.301C695.199 544.901 697.749 539.951 701.049 536.352L716.198 519.102C717.248 517.452 719.198 514.001 720.549 512.501L730.148 501.251H729.548ZM142.149 619.151C135.249 613.002 135.099 606.102 127.299 601.002L126.249 597.701C126.249 597.701 123.549 597.701 123.399 598.302C123.399 598.752 123.399 600.701 123.699 601.151L128.349 608.201L134.799 616.752L143.649 626.202C145.599 623.202 144.249 621.102 142.149 619.151Z" fill="white"/>
</g>
</svg>
