<svg width="800" height="800" viewBox="0 0 800 800" fill="none" xmlns="http://www.w3.org/2000/svg">
<g clip-path="url(#clip0_2001_5846)">
<mask id="mask0_2001_5846" style="mask-type:luminance" maskUnits="userSpaceOnUse" x="222" y="40" width="354" height="711">
<path d="M575.862 40H222.47V750.925H575.862V40Z" fill="white"/>
</mask>
<g mask="url(#mask0_2001_5846)">
<path d="M391.128 603.574C389.648 602.884 390.437 606.631 387.084 610.083L381.659 615.804C379.785 617.777 379.193 621.327 375.248 621.031L373.078 625.667L375.741 632.177C377.517 636.516 378.799 640.659 376.728 645.294C374.952 649.437 372.585 652.79 368.739 655.946L369.823 661.174C370.119 662.555 370.711 664.922 371.697 665.514C374.952 667.585 379.292 664.034 384.026 669.755C384.223 670.445 383.237 672.911 382.448 673.108C380.771 673.404 377.812 673.108 375.939 672.911C366.667 671.727 365.78 669.064 362.525 660.582L353.056 663.048C351.38 663.442 348.815 665.711 346.152 665.612C343.785 670.149 344.771 676.856 347.533 681.492C348.618 683.267 348.815 684.746 348.815 686.719C349.21 688.297 349.703 689.875 349.506 691.552C349.308 693.13 346.645 694.412 345.856 695.497C344.18 697.963 342.996 699.146 340.53 700.724L336.585 706.05C345.166 709.798 346.843 719.563 342.602 728.045C342.108 738.302 351.676 740.768 357.791 749.448C353.648 752.801 349.9 750.335 346.744 747.376L341.024 742.149C338.656 739.979 337.374 736.527 336.289 733.667C333.429 725.776 337.867 722.127 336.487 713.744C332.837 709.404 326.624 709.798 322.876 713.744C318.634 715.716 315.872 719.76 316.76 724.198C314.294 726.664 313.998 729.919 314.196 733.075C313.604 735.738 312.223 738.796 308.771 738.302C306.601 737.908 303.642 735.442 302.36 733.272C303.051 731.102 305.22 728.637 306.7 726.96L307.686 720.944C308.968 712.757 313.308 706.248 321.495 704.472C324.848 701.711 328.399 699.442 332.443 697.766L338.854 691.256C341.813 688.297 339.248 685.338 338.656 682.577L336.388 672.714L334.514 666.105L324.947 665.612C322.185 665.809 318.437 668.768 315.774 665.514L313.998 663.344C313.505 662.752 314.492 660.483 315.379 659.99C323.763 655.848 329.977 662.555 336.191 660.286L358.185 652.494L364.3 648.352C365.878 647.267 367.16 645.294 367.456 643.618L358.678 642.336C356.903 642.04 354.832 640.856 353.155 639.672C350.196 641.152 345.955 642.434 342.602 641.645C341.418 641.349 340.136 638.292 340.629 637.207C344.673 633.656 350.985 633.557 356.015 635.629C360.256 637.404 364.497 637.207 368.344 634.84L365.78 628.527C364.991 626.653 363.413 623.99 363.61 621.82C363.906 618.763 370.415 611.859 375.248 609.393C376.333 608.505 377.714 606.73 379.391 604.659H359.171C357.1 604.659 355.818 608.703 354.536 609.985L351.182 613.536C347.829 617.086 339.15 617.678 332.443 616.001C325.243 614.127 315.577 617.481 314.097 620.538C313.505 621.82 313.505 624.089 313.604 625.568L307.883 629.415C302.459 633.064 308.278 641.842 300.979 647.76L298.514 653.185L303.051 661.568C304.037 663.442 304.037 664.823 303.544 666.993C301.67 673.996 298.119 681.492 292.694 685.535L290.426 688.297C290.031 688.79 283.522 688.297 283.127 685.24C282.437 680.407 291.314 680.505 295.555 669.952C299.796 659.398 293.977 660.385 291.018 650.719L297.034 637.897C300.486 630.599 289.637 638.489 281.155 630.105L276.322 635.53C274.152 637.897 273.264 639.574 272.475 642.927C272.081 644.505 271.489 646.675 271.982 648.155C273.462 652.988 270.996 656.538 266.36 657.623C263.697 658.314 261.429 659.694 258.963 661.075C256.99 662.16 254.13 662.456 253.538 665.316L251.566 676.264C251.27 677.744 248.015 679.223 246.93 679.914C245.648 682.971 243.182 683.464 240.421 684.648C238.053 685.634 236.377 687.903 233.023 686.916C230.755 686.325 229.078 683.859 228.289 680.604L235.785 678.138C240.421 676.56 243.971 671.333 244.267 666.5C244.366 663.541 244.662 659.793 246.634 658.018L252.355 656.144C256.596 654.763 263.007 653.185 264.289 647.661C265.177 643.815 264.683 639.377 264.782 634.938C261.725 634.938 259.16 635.629 256.3 636.714C249.494 639.475 242.689 641.152 235.588 642.434C227.697 643.914 221.484 637.7 222.47 634.741C223.16 632.67 231.051 635.53 238.349 633.952L245.648 632.374L255.511 628.527C259.062 627.146 262.514 625.766 265.177 622.807C267.346 620.44 269.615 619.453 272.87 620.144L278.985 621.426C280.662 621.82 284.311 622.018 285.889 621.525L294.371 619.256C299.5 617.875 303.938 617.086 308.377 613.831C312.223 610.971 317.155 607.223 322.185 607.519L331.456 608.012C333.33 608.111 336.585 609.59 338.163 608.703L344.87 604.856C346.35 602.39 348.421 598.445 351.478 597.853L357.791 596.768L375.544 596.473C377.911 596.473 382.448 595.388 384.223 593.81C387.774 590.555 389.155 585.13 388.465 580.692L387.38 573.393C386.886 570.04 386.689 567.081 386.689 563.629V552.089C386.689 549.919 386.985 548.045 387.38 545.875L389.352 535.223L391.917 524.867L393.791 518.752C394.58 516.286 395.665 513.623 396.749 511.355L399.018 506.917L407.007 491.53C409.473 486.895 410.558 482.16 411.741 477.032C412.234 474.664 412.136 473.185 411.643 470.621C411.051 467.465 411.643 463.223 410.064 460.363L404.048 449.218L399.412 442.413C396.651 438.27 393.1 435.41 391.029 430.873L387.873 423.771C386.591 420.812 385.111 417.163 383.336 414.599C378.503 407.399 370.317 405.13 362.229 403.947L355.522 402.961C348.717 401.876 342.996 398.818 337.867 394.182C333.626 390.336 331.358 384.813 329.089 379.487C328.695 378.5 327.018 376.429 327.018 375.245L326.821 358.38L325.736 351.278C324.947 345.952 319.127 339.048 313.111 337.273L294.174 331.75C290.525 330.665 285.988 329.185 283.62 326.325L278.985 320.802C276.026 317.251 276.322 311.826 275.336 307.487L273.955 301.47C271.686 291.509 263.204 287.07 253.44 284.802L244.859 282.829L248.804 276.813L254.13 275.037C257.483 277.01 260.64 276.911 264.19 275.333C265.966 274.544 268.826 275.432 270.897 275.826L280.267 277.799C282.733 278.292 285.889 280.758 288.157 282.04C290.13 286.478 292.3 290.226 294.963 294.27C296.344 296.341 296.935 298.61 297.922 300.977L300.388 306.993L309.363 315.673C312.618 318.829 317.155 319.421 321.298 320.21L328.202 321.393C331.456 321.985 335.303 324.55 338.558 325.93C342.207 327.509 342.602 330.566 344.081 333.919C344.673 335.3 348.322 336.484 346.941 339.443L349.9 342.895C348.914 346.15 347.139 350.391 347.434 353.744L348.125 361.24L350.393 366.665C352.267 371.103 353.549 376.33 359.171 379.388C363.511 381.755 367.456 383.234 372.486 383.629C376.826 383.925 382.448 385.503 386.788 386.884C388.169 387.377 391.621 389.941 392.607 387.87L398.13 375.64L404.541 363.804L410.755 353.251C415.982 344.374 419.73 334.413 420.914 324.056L421.308 311.333L420.717 301.076C420.519 297.229 419.04 293.678 417.955 290.029L415.884 283.322L411.051 269.12L406.218 258.468L405.034 255.114L402.273 246.829L396.651 231.936C394.974 227.399 391.522 223.75 388.267 219.706C388.465 222.961 388.958 225.525 389.648 228.287L391.522 235.191C392.706 239.531 394.284 243.969 394.284 248.407V255.903C394.284 262.314 391.621 268.824 386.788 272.868L379.193 276.32C375.149 275.531 369.922 272.374 369.33 267.64C368.541 261.624 369.725 254.818 371.993 249.394L374.459 243.574C375.643 240.813 378.01 237.657 378.404 234.5C379.193 227.202 378.503 220.396 377.615 213.098C376.53 213.098 375.149 213.196 374.558 213.492C373.769 213.887 373.67 216.155 373.276 216.944L370.021 224.539L364.399 235.98C363.117 238.544 359.467 241.405 357.692 243.476C355.917 248.309 353.648 250.972 349.703 254.128C348.322 255.213 346.645 257.087 344.87 257.876L335.796 261.92L327.807 265.174L318.24 263.498C311.631 262.314 305.319 252.747 309.067 243.476L318.634 236.177C322.382 233.317 327.511 230.95 332.147 229.47L340.629 226.709C347.237 224.637 352.662 220.594 357.297 215.563L363.708 208.659L356.607 200.473L347.139 204.122C341.418 206.292 337.374 205.898 332.048 204.024C317.056 198.698 305.615 208.659 290.919 206.884C287.763 208.955 284.508 207.969 281.648 205.799C273.067 200.079 265.571 187.355 267.741 177.196L270.207 173.054C276.815 161.81 297.922 159.936 302.557 163.783C304.037 164.966 306.601 165.558 307.883 166.347L319.62 174.533L323.961 180.944L331.555 185.876L337.177 188.342C338.36 188.835 341.319 189.229 342.7 189.131L349.21 188.736C349.703 188.736 351.182 188.44 351.182 188.046L350.788 185.679L350.591 170.391C344.278 162.205 334.711 162.994 328.596 159.64L322.087 156.09C319.522 154.709 315.182 150.665 314.196 147.903L309.56 134.589C307.883 129.854 304.727 125.81 300.092 123.542C296.344 121.668 293.483 118.413 290.327 115.947C284.607 111.608 281.648 105.986 283.127 98.49C283.719 95.7283 285.001 94.0516 287.566 92.5722C293.385 89.1201 298.711 89.0215 305.714 90.7968C308.377 91.4873 310.349 93.4599 312.618 94.8407C315.379 96.5174 318.042 97.5037 319.916 99.9694L326.624 108.254L330.174 114.172C334.415 121.076 333.33 128.671 337.571 134.391L344.081 143.268C347.336 147.706 351.38 150.073 356.114 152.638L360.454 155.991L367.654 152.342C369.528 151.355 370.613 148.988 369.922 147.016L367.851 141.492C366.569 138.041 364.497 133.504 361.243 131.433C356.114 128.079 351.873 124.726 349.407 118.906L345.067 108.649C343.687 105.394 346.645 99.4763 342.306 92.4736L328.793 78.8626C327.708 77.7777 327.117 75.4106 326.426 73.9311L323.665 68.0133V56.1777C327.314 49.7668 331.062 43.6517 337.769 40.5942L349.013 39.9038C359.96 43.5531 362.328 48.7805 366.963 58.6435C366.963 63.2791 367.851 67.2243 368.64 71.7613L367.851 77.4818L367.16 86.2599C366.766 91.1914 365.385 95.3338 365.188 100.463C364.892 107.367 374.558 115.06 376.53 119.301L379.884 126.6C380.673 128.868 380.87 132.616 381.067 135.378L382.349 148.594C382.349 149.481 385.012 150.073 385.703 149.679C390.043 147.213 389.845 134.983 388.76 127.191L387.38 118.216C385.012 112.101 384.914 105.591 387.084 99.3777C386.196 90.4023 389.155 81.8215 395.171 75.3119C397.243 71.4654 400.793 69.2955 405.232 70.1832C409.177 67.8161 413.615 68.4078 417.166 70.6763C420.519 71.4654 422.689 73.1421 424.662 75.6078C431.467 83.7941 429.79 87.7393 432.947 95.2352L432.158 103.915L430.58 109.438L427.621 112.89C427.029 115.947 426.338 118.413 424.662 120.879L421.703 125.317L415.982 131.433C412.826 134.786 409.177 138.435 406.81 142.38L399.412 154.216C399.906 155.794 401.286 157.668 402.47 157.964C403.752 158.259 406.317 157.668 407.303 156.977L418.349 148.791L422.985 144.846L426.437 141.591L439.16 129.263L446.064 120.484C451.292 115.454 457.407 114.172 464.114 117.131C472.497 120.879 471.412 137.054 464.607 144.944C464.903 147.312 464.114 148.594 462.733 150.665C460.662 153.525 458.985 156.09 456.322 158.358C453.659 160.627 450.897 163.29 447.445 163.98L436.004 166.446L423.774 168.024C419.533 168.616 415.193 168.221 412.136 172.265L411.643 178.084C411.248 182.128 410.064 185.481 411.445 189.229L420.815 189.722C425.155 189.92 434.13 185.383 443.796 194.161C445.867 196.035 447.051 196.922 449.517 198.501C453.363 200.966 456.223 206.884 457.407 211.421C457.703 212.407 456.914 214.873 456.914 216.057C456.716 219.607 454.448 222.566 451.292 224.342C439.949 230.753 430.777 227.695 421.999 218.325L416.081 212.013C411.445 208.364 404.936 210.237 399.708 209.153L397.736 208.758C397.736 208.758 396.355 210.04 396.355 210.632C396.355 212.9 399.215 214.577 400.596 216.353L405.133 222.073L412.333 230.457C412.728 233.021 413.812 235.191 415.982 236.868L419.73 243.969L423.675 251.859L431.96 271.289L436.399 282.928L438.864 294.369L440.936 301.273C441.922 304.725 441.922 311.629 439.555 314.489L442.514 321.196C443.796 324.056 446.952 320.9 448.53 320.506L455.73 318.928C465.396 316.758 477.429 312.418 479.5 302.95C479.895 301.076 479.993 296.933 479.5 295.158L476.837 285.098C476.245 282.829 476.344 281.35 476.64 279.278C477.725 271.783 480.782 266.555 485.714 261.032L492.519 253.339L498.93 250.774L520.234 242.884L525.955 238.347C535.325 231.048 535.62 224.933 537.494 224.736C538.579 224.637 540.651 225.525 541.538 226.61C542.229 227.399 541.538 233.12 539.96 236.868L537.396 243.081C535.916 246.632 533.648 249.295 530.985 252.254C524.771 259.059 521.714 257.974 516.289 262.413L508.99 268.331C506.13 270.698 503.664 272.769 501.889 276.024L498.437 282.336C496.563 290.226 495.675 297.821 496.366 306.303L494.097 309.755C492.716 312.911 491.336 316.363 488.574 318.336L480.486 324.254L472.596 328.791L463.916 331.848C458.295 333.821 453.264 336.583 448.136 339.344C446.163 340.429 445.275 341.514 443.796 343.191L439.16 348.517L429.001 367.848C426.043 373.47 426.338 378.895 423.774 383.826L420.125 390.73C414.996 394.774 417.856 398.424 413.122 405.426C412.234 406.708 413.517 409.766 413.319 411.048L411.938 420.418C411.643 422.489 412.925 424.166 413.812 425.744L417.166 431.366C418.349 433.339 420.519 435.508 422.985 435.903L428.114 430.676C430.777 427.914 434.623 425.349 438.174 424.166L450.404 420.122L457.012 416.966C458.59 416.177 461.648 414.402 462.832 412.824L469.933 403.947C472.103 401.185 473.385 399.213 474.667 395.958C476.245 391.717 478.119 388.166 477.034 383.037C476.738 381.558 477.232 378.204 477.922 376.725C478.415 375.64 481.768 375.344 482.656 376.133C484.136 377.613 485.418 380.769 486.305 382.643C487.884 385.898 488.081 387.87 487.686 391.618C486.897 398.818 491.829 406.215 486.503 409.963C486.108 412.922 484.629 415.782 482.656 418.643C481.078 421.108 479.303 422.982 477.034 424.856L472.695 428.506C470.13 430.676 467.566 431.563 464.311 432.845C459.478 434.719 454.843 442.314 445.769 445.47L442.612 450.204C440.936 452.769 438.371 455.037 435.906 456.911L433.144 470.917L431.467 485.514L425.549 495.87L418.843 508.495L415.982 513.821L413.812 519.64L411.248 528.221C410.459 530.686 409.473 533.053 408.782 535.815L407.401 542.127L404.837 557.316C404.147 561.262 404.245 566.588 404.541 570.533C404.837 574.478 406.81 577.93 405.33 581.579C405.922 582.27 407.007 583.355 406.81 583.848L405.33 586.511L403.062 594.401C404.837 597.557 408.289 599.53 411.741 600.418L418.645 602.193C422.886 603.278 428.508 601.7 432.552 603.081L438.864 605.251C442.021 606.336 446.459 610.182 449.812 611.168C450.897 611.464 453.462 609.985 454.547 609.985L468.256 609.59L470.032 612.549C479.993 616.494 487.785 608.407 494.393 612.253C495.281 612.747 496.267 615.114 496.168 616.1C495.577 619.453 479.401 623.793 470.623 618.368L467.171 615.114C463.029 614.62 458.492 615.409 454.843 617.875C452.673 619.256 455.829 625.864 460.267 629.02C462.043 630.303 464.706 633.36 466.678 633.853L479.599 637.207C481.177 632.078 486.7 630.599 491.927 631.486L500.212 633.064C501.692 633.36 504.256 635.234 505.933 636.122C515.105 632.966 523.686 633.952 520.727 637.897C518.459 640.856 513.823 641.842 509.878 641.744C506.426 641.744 504.256 640.659 501.396 639.278C497.747 637.503 492.322 637.897 488.771 639.475C486.7 640.363 485.221 640.659 482.459 641.053C490.842 648.944 505.341 649.042 505.736 650.325L506.623 653.579C510.766 654.664 514.711 656.44 518.262 658.511L523.686 661.568C526.053 654.664 528.618 648.944 533.747 644.209L542.229 641.645C549.725 642.434 557.516 643.125 564.322 639.574C567.281 637.996 569.155 635.826 573.396 637.601V643.618C565.407 647.76 556.826 648.746 547.949 648.155C543.018 647.76 539.763 650.522 536.804 653.875C535.916 654.96 534.634 656.045 534.733 657.031C534.93 658.314 536.212 659.99 537.297 660.188L548.64 661.568C555.642 662.653 558.404 666.796 561.166 666.697L573.593 666.204C573.593 666.204 575.072 667.486 574.875 667.683L573.988 668.67L571.029 672.122L564.42 672.911C560.672 673.305 556.826 670.051 553.473 668.966L546.864 667.585C545.385 667.289 542.623 666.697 541.341 666.796L534.733 667.19C530.59 671.135 525.067 670.149 521.221 666.796C518.656 664.626 513.429 662.555 513.429 663.935V665.612C516.782 668.966 515.796 672.911 513.133 676.067L507.018 685.634C503.27 691.453 514.514 694.215 515.007 702.204C515.007 702.993 513.034 703.19 512.442 702.894C511.752 702.894 511.358 702.796 511.358 702.796L510.864 704.67C510.864 704.67 509.286 704.571 509.188 704.275L506.13 698.653L499.522 691.552C498.733 690.763 497.944 688.198 497.451 686.916C498.338 682.379 501.297 678.927 504.848 676.264C511.851 671.135 503.664 665.514 501.495 656.834L490.547 654.171C481.67 652.001 478.415 639.179 465.297 642.73L461.845 648.845C460.366 651.508 459.084 654.27 458.196 657.623C457.21 658.708 453.264 658.807 451.884 657.82C450.108 653.481 452.969 649.141 455.632 646.083C458.295 643.026 457.604 638.686 455.434 635.727L445.769 622.807C434.821 602.588 428.212 614.423 410.262 607.223L405.133 605.152L402.667 604.264C401.977 603.968 401.385 606.434 401.484 607.223L402.47 613.437C405.725 617.974 410.656 619.946 415.292 622.708C416.969 624.286 418.349 625.766 421.012 626.949V632.275C415.884 634.741 417.264 641.251 419.237 647.859C420.815 652.889 424.169 654.072 426.536 657.919L428.212 664.429C428.706 666.105 429.1 667.979 429.889 669.262C431.763 672.418 437.484 668.67 439.16 673.601L446.952 678.138C450.306 680.111 452.574 680.9 456.618 679.815C459.577 679.026 463.916 679.618 465.79 681.886C465.692 682.872 465.199 684.451 464.508 684.549L460.859 685.24C455.927 688.889 448.727 688.198 443.993 684.253L437.681 679.026L428.804 675.771C425.648 675.771 425.549 680.209 426.634 682.478C429.791 688.987 435.61 692.637 442.119 694.807C448.234 696.878 450.601 702.894 448.629 708.516L450.207 714.04L459.084 719.76C460.464 720.648 462.141 724.593 460.267 724.987C457.801 725.481 455.237 725.382 453.067 725.283L444.98 716.9C438.864 710.588 444.98 701.02 436.596 698.949C429.988 697.272 424.662 693.031 421.407 686.818C417.363 685.24 415.785 689.185 412.234 691.749C408.388 693.82 404.936 696.187 402.075 699.344C400.892 707.53 403.456 710.588 398.032 718.675C396.749 720.648 393.593 723.804 391.128 721.042L387.577 716.998C387.577 714.237 389.549 712.067 391.226 710.193C391.719 705.36 391.226 699.442 393.495 694.905L405.528 686.522L417.166 677.448C420.125 675.081 421.111 668.571 421.111 664.626C421.111 659.103 411.445 652.001 409.67 639.475C409.275 636.714 410.656 632.867 411.051 629.81C411.248 628.429 408.585 626.456 407.204 625.766C398.13 622.412 392.508 614.62 391.621 604.955L390.141 604.264L391.128 603.574Z" fill="white"/>
<path d="M559.096 701.514L554.657 697.864C552.685 696.286 548.443 693.525 548.443 690.664L548.148 680.21C546.175 678.434 543.019 676.56 540.257 675.081L536.213 670.248C536.213 669.558 537.791 668.078 538.482 668.078C539.37 668.078 540.652 668.769 541.835 669.558L551.797 675.969C552.783 676.56 554.361 678.829 554.953 679.815C556.334 682.478 555.545 686.818 554.065 689.974L568.268 699.344C568.959 699.738 569.748 700.33 570.142 700.823C570.537 701.415 569.452 703.289 568.663 703.585C566.098 704.67 561.759 703.684 559.096 701.612V701.514Z" fill="white"/>
</g>
</g>
<defs>
<clipPath id="clip0_2001_5846">
<rect width="355.068" height="719.999" fill="white" transform="translate(222.47 40)"/>
</clipPath>
</defs>
</svg>
