<svg width="800" height="800" viewBox="0 0 800 800" fill="none" xmlns="http://www.w3.org/2000/svg">
<mask id="mask0_2001_5854" style="mask-type:luminance" maskUnits="userSpaceOnUse" x="65" y="40" width="666" height="711">
<path d="M730.5 40H65V750.7H730.5V40Z" fill="white"/>
</mask>
<g mask="url(#mask0_2001_5854)">
<path d="M310 509.5L288.4 518L282.2 519.6L276.2 520.5L262 521.5H256.6L240.9 520.3L230.1 519.6C215.1 517.1 201.7 510 189.2 501.7C187.3 500.4 184.6 498.7 183.6 497V486.1L182.8 471L182.2 454.2L180.5 441.7L179.1 432.1L174.7 404.4L171.5 383.2L166.3 350.1L162.7 332L156.9 316.3C158.6 312 163.9 310.4 168.1 309.5L174.4 308.2L192.8 304.6L200.3 303.5C211.2 301.9 221.9 299.8 232.9 298.6L234.3 293.7L232.9 286.3C232.1 282.2 230.8 277.3 228.6 273.7C225.9 269.4 219 262.4 215.1 261.3C207.4 259 196 257 189.1 258.9L181.7 261C177.9 262 175.6 264 172.5 265.9C168.4 268.5 163.4 269.8 159.6 273.2C158.4 274.3 156.1 275.6 154.9 276.4L148.9 283.3C146.4 286.2 146.8 292.1 147.2 296.1L149 311L147.1 317.5C145.5 322.8 142.8 326.4 138.7 329.9C132.7 335 127.7 342.9 130.5 349.9C131.7 356 135.3 361.3 140.9 364L154.3 378.2C156.7 380.8 158 383.9 157.3 387.3C158.9 391.4 157.9 395.2 157 399.3L155.4 406.7L151.7 416.3C149.2 422.9 147.2 428.5 140.7 432.4C140 432.8 138.3 433.6 137.5 433.7C136.7 433.8 135.4 431.7 135.9 430.9C138.4 426.3 141.1 419.9 142.3 414.6C143.2 410.6 142.4 407.2 142.1 403.1C141.6 396.1 140.7 387.8 134.5 383.2C128.3 378.6 122.2 374 117.7 367.3C111.2 357.5 104.7 348.9 108.7 337.2C110.1 333.1 111.7 328.6 114.7 325.2C130.6 307.7 121.2 297.1 121.3 283.5C121.3 280.2 122.2 275.3 123.5 272.5L128.1 263C133.7 254.2 142 248.6 150.4 243.1C160.8 236.4 174.7 231.9 186.9 231.1C190.7 230.5 194.5 230.5 198.3 231.6C202.6 231.1 206.7 231.6 210.6 233.2L224 238.5L226.4 239.4C223.7 226.7 213.6 211.2 201.2 209.5L180.5 209C175.2 208.9 169.9 205.6 165.5 202.8C155.9 196.6 161.8 182.8 158 176.5C154.6 170.9 149.3 168.6 143.4 169.5L133.2 171.1C124.6 172.4 115.9 173 107.8 170.1C99.7002 167.2 96.0002 159.9 96.3002 151.5C96.3002 149.2 96.0002 146.6 96.4002 144C97.5002 137.5 98.0002 130.1 93.9002 124.4C87.1002 117.4 75.7002 113.9 65.2002 112.2C65.9002 108 69.5002 107.9 73.2002 108L86.9002 108.7L94.9002 110.2C98.2002 110.8 100.8 113.2 103.4 114.9C107.1 117.3 110.4 119.7 113.6 122.6C116.1 124.9 116.9 126.6 117.8 129.8C118.7 133 119.6 135.8 119.3 139.7C119.1 142.5 121.4 145.6 123.4 146.7C126.3 148.3 129.4 147.7 132.4 147.4L147.9 145.8C155.3 145 161.9 146.2 168.8 149.2C170.6 150 172.3 152 174.1 153.4C177.2 155.8 181.5 158 181.5 162.7C181.7 172.8 186.5 179.8 196.8 179.6C199.5 179.6 202.4 180 205.1 180.8L211.4 182.6L219 185.5C221.7 186.5 223.4 187.5 225.4 190C227.2 188.7 228.4 186.1 228.7 183.3C229.9 169.1 232 161.7 218.4 152C213.6 148.6 208.2 145.2 206 139.2C204.9 136.2 206.2 130.1 207.3 127.3L209.8 120.8C212.3 114.2 213.8 107.6 213.3 100.5L212.6 90.8998L210 86.0998C207.5 81.4998 202.4 77.8998 197.4 76.5998L189.2 74.4998C182.4 72.6998 173.7 71.3998 166.8 67.9998C159.3 51.2998 144.3 47.4998 127.9 44.7998C127 44.6998 124.8 42.5998 125.5 42.0998L128.3 39.7998L153.1 40.4998L172.3 40.6998C175.5 40.6998 178 42.6998 180.7 44.2998C182.8 45.4998 184.9 46.3998 186.5 48.1998C189.2 50.9998 192.3 52.6998 196 53.5998L203.8 55.4998C211.8 57.3998 219.7 55.8998 229.7 58.9998C235 60.6998 238.4 62.8998 241.4 67.7998C242.8 69.9998 246.2 71.7998 246 74.9998L245.4 84.8998L245.1 93.0998C245.1 94.4998 243.9 96.3998 242.8 97.6998C242.8 102.1 243.1 107.6 244.1 112.2C248.9 117.5 253.9 122.3 259.6 126.4C265.3 130.5 268.5 133.4 270.1 140.2C269.9 142.8 269.9 144.2 270.4 146.5C270.9 149 267.2 152 266.5 154.1L263.4 163.8C267.3 163.3 273 162.5 275.5 159C280 153 285.5 147.1 293.9 147.4L302.4 149.5C305.6 152.3 309 155.3 313.8 153.9C315.9 153.3 317.4 149.2 318.2 147L320.5 140.9C322.9 134.7 325.5 128.7 329.5 123.3C330.8 121.5 334 120.2 335.6 119C339.7 115.9 343.6 115.3 348.4 114.4C359 112.4 369.4 110.7 377.9 120.3L390.6 134.9L396.5 141L401 143.8C405.5 143.9 410.4 144.6 414.8 143.8C418.9 143 422.8 141.1 427.1 139.7C427.9 140.4 429 142.6 429.2 143.8C429.4 145 427.3 146.8 426.1 147.9C423.2 150.7 420.6 152.3 416.5 152.6L409.8 153L406 153.3C402.4 153.6 398.6 154.5 394.9 153.8C386 152.3 379.4 146.6 373.1 140.6L364.7 134.1C356.4 133.3 347.9 134.9 340.8 140C337.9 142.1 337.4 147.8 337.1 151.3L336.6 158.8C336.4 161.3 333.3 165.5 333.6 169.7C331.2 170.5 328.4 172.9 326.5 175.1C318.7 176.9 311 176.7 302.9 176C292.3 175.2 276 180.4 269.6 189.1L264.8 195.6L261.7 200.7C263.8 206.6 266.3 213.4 265.3 219.9C264.8 223 264.1 226.3 265.3 228.7C275.6 226.2 288.7 226.7 297.1 230.8L302 233.2C308.3 237.7 315.6 242.1 321 237.7L325.9 233.7C326.9 232.9 328.5 230.4 329.3 229.2L333.6 223C337.6 217.2 346 215.2 353.5 216.4L362.7 217.9C378.4 220.4 387.7 225 401.5 213.8C403.3 212.4 405.3 211.2 406.3 209L413 195.2C413.5 194.2 416.3 193.5 417.2 193.8C420.2 194.9 420.1 201.7 418.7 206.6L417.1 212L415.7 216.6L410.9 222.5L406.6 227.3C402.8 231.6 397.2 235.2 391.7 236.3C386.2 237.4 380.7 235.4 375.6 233.9L365.1 231C360.3 229.6 356.5 230.2 352.4 232.2C341.8 237.5 345 244.6 341.2 251.9C339 256 335.7 257 332.1 258.2C329.2 259.2 326.5 260.2 323.2 260.2C318.3 260.2 313.5 260.2 308.6 258.9L297.4 255.9C291.9 254.4 286.4 251.9 280.4 252.4C276.1 252.7 270.9 254.8 267.9 257.1C263.1 260.9 262 265.5 263.2 271L263 276.7L263.8 289.5L264.7 297.8L284.7 298.3L288 299.4C292.8 298.5 296.9 300.2 301.4 301.8L315.1 306.6L322.1 309.5L329.9 313.5L333.3 317.4C332.6 324.9 335.9 333.9 335.2 339.7L333.7 353.2L330.5 369.3L327.4 384.1L323.1 407.7C325.3 412.3 321.8 416 322.8 424.4C323.3 428.5 321.7 433.5 321.6 437.9L321.4 445.9C321.4 450.2 321.9 454.4 319.2 458.2C322.1 463.6 320.1 469.4 319.5 475L317.1 499.9V506.4C315.8 507.9 312.5 508.3 310.1 509.2L310 509.5ZM170 316.9L178 322.4C187.8 324.8 197.4 327.7 207.4 328.4C217.4 329.1 226.4 329.7 236.9 331.2C237.4 323.1 237.3 315.2 236.4 306.3L223.4 307.2L217.1 308.5L202.7 310.5L185.5 313.4L170 317V316.9ZM324.8 316.8L315 312.9L301.1 308L293.2 306.5C285 305.6 267.2 304.9 264.6 306.3C264.3 306.5 264.6 307.8 264.7 308.1C266 311.7 266.3 315.4 267.3 319.1L269.6 327.5L269.9 331.8C282.6 332.6 294.5 331.3 306.9 329C315.7 327.3 322.4 325.4 324.7 316.9L324.8 316.8ZM271 459.9C268 455.7 260 458.5 256 448.8C258.2 442.4 264.1 438.7 264 432.4L240.3 432.8C238.6 431.7 236.5 428.4 236.9 426.7C238.1 421.2 244.5 419.7 250.4 411.1L257.4 400.9L259.9 396C261.3 393.1 261.3 390.2 261.6 387C262.4 376.1 273.8 358.8 283.9 352.5L293.6 346.5L297.7 343.3C300.7 342.3 303.9 340.5 306.1 338L291.6 339.5L288.1 339.7H278.9L267 340.5L251.7 339.8L242 338.7L225.7 337.6L214.5 336.7L203.3 335.4L191.4 333.2L183.7 331L175 327.6L166.9 323.6L173.5 345L175.2 352L177.5 362.2C176.5 367.8 177 372.2 178.6 377.4L179.2 382.5L180.2 391.3L181.3 399.5L183.6 410.4L186.6 426.1L189 440.1L189.6 447L190.5 456.5L191.1 461.9V472.6L192.1 478.8L192.4 495.5L197 499.2C205.7 503.9 214.8 507.8 224.2 511.3L229.7 512.2L254.6 514.3C257.4 514.5 260.1 514.2 262.8 513.8C270.9 512.8 278.7 512.5 286.7 510.7L292.5 508.6L306.6 502.3C293.4 492.7 281.9 501.9 275 493.3C272.5 490.2 272.4 487 273.7 482.4C268.2 483.2 263.8 480.1 261.7 475.7C261.2 474.5 262.7 471.9 263.7 470.9L268.4 466.3C269.7 465 272.6 461.8 271.1 459.7L271 459.9ZM291.6 413C294.1 412.6 295 409.1 295 407.2C295 405.5 293.2 401.9 291.6 401.9C288.3 401.9 286.7 405.4 287 407.9C287.2 409.8 288.5 413.5 291.6 413.1V413Z" fill="white"/>
<path d="M500.4 543.501C499.8 542.501 499.2 541.401 499 540.801C498.8 540.201 500.8 539.901 501.7 540.201C509.2 537.401 517.4 536.001 525.6 535.101L543 533.101L561.9 531.001L568.3 530.501H570.4C572.8 530.301 569.7 518.401 562.8 513.901C554.3 508.301 539.1 513.801 526 510.401L517 508.101C514.5 507.501 510.2 503.901 509.5 501.401C506.8 491.501 509.2 486.401 497.5 483.501L486.7 480.801C483.8 480.101 476 482.701 471.4 481.001L466.2 482.301L456.2 485.401L445.9 489.501C442.5 490.801 435.3 490.801 432.5 488.601C428.4 485.301 424.9 483.001 419.9 485.801L411 490.801C402.4 495.701 395.4 501.901 391.1 511.001C389.9 512.101 388.2 512.801 387.1 512.201C385.9 511.501 385.1 509.501 385.7 508.101L390.1 498.101C393.3 490.901 398.4 484.301 403.9 478.801C408 474.601 412.6 472.101 417.5 469.301L428.4 463.101C431.5 461.301 434.7 460.701 437.9 459.001L445.1 455.301C449.2 453.101 454.5 452.201 459.2 452.701L464.5 455.601C468.6 457.801 472.5 459.101 477.5 457.201L483.9 454.801C488 453.301 492.2 452.401 496.7 452.001L509.9 450.901C515.5 450.401 520.9 452.901 525.8 455.501C529.6 457.501 531.7 460.001 531.9 464.501L533.4 471.501C534 474.201 534.4 477.601 536.8 479.701C538.5 481.201 543 480.901 545.4 481.201L565.1 483.601L561.5 479.701C559.6 477.601 556.7 474.201 556.1 471.501L553.9 460.801C552.7 455.301 557.4 446.401 552.6 435.101C550.3 429.701 544 424.801 538.1 424.101L524.1 422.501C512.9 421.201 502.3 418.601 492.8 413.001C485.9 408.901 482.4 399.001 483.5 390.901L485.3 377.601C486.6 367.601 485.7 359.801 476.2 356.101C462.3 350.801 447 344.701 443.7 330.101C443.3 326.101 444.5 321.401 444.4 317.401V303.901C444.2 297.101 441.4 291.801 436.2 287.801L430.7 283.601L424.1 279.101C422.3 277.901 420.5 275.901 421.9 274.201L426.4 274.401C436.6 276.301 455.4 281.801 460.7 288.301L465.5 294.101C468.8 298.101 470.1 304.901 469.7 310.201L469.1 317.801C468.4 326.701 478.7 333.001 488.3 336.001L498.8 339.301L509.4 348.301C510.3 350.801 511.7 355.001 511.8 357.401C511.9 359.801 511.8 361.101 512.9 363.401L511.1 366.201C511.6 366.801 513 368.301 513.2 369.301C513.4 370.301 512.4 372.501 512 373.501L513.5 380.901C514.4 385.301 515.9 387.901 519.6 389.901C523.7 392.101 528 394.101 532.6 395.201L550.1 399.201L553 392.201C556.9 382.801 570.7 390.601 574.8 377.501C576.3 372.701 576 366.701 573.4 361.601C569.7 354.301 567.4 345.501 572.2 337.601C574.5 333.701 580.1 332.101 584.1 329.701C586.7 328.101 589.6 324.301 589.5 321.301L588.8 307.501C588.5 301.901 593.9 298.101 598.7 296.101C607.2 292.701 615.2 288.401 620.5 280.801L624 270.201L621.9 255.501C621.6 253.101 620.9 251.501 621.3 248.701C625.1 250.601 626 252.901 627.8 255.901C631.5 262.201 635.3 269.701 636 276.901C636.7 284.101 634.6 292.101 629.8 296.601C628 297.701 626.9 298.501 625.5 300.001C622.8 302.901 618.6 305.301 616.2 308.301C612.4 313.001 614.6 319.301 615.5 324.601C616.1 327.901 614.8 333.601 612.5 335.401L604 342.301L600.8 346.801C597.3 351.701 597.6 356.001 600 361.201L603.1 372.001C604 374.901 604.8 377.601 602.7 380.101C605 382.801 604.5 386.601 601.7 388.901C601.1 392.501 600 396.201 597.3 398.301L591.4 403.001L584.4 408.601C579.5 412.501 579.5 414.601 578.9 418.801C578.1 423.801 577.9 432.101 578.7 434.001C581.8 441.901 578.4 450.301 580.9 459.601L586.7 453.901C593.4 447.301 603.9 448.901 613.3 444.201C620.8 440.401 620.5 430.001 618.1 421.401C615.8 413.301 618.3 405.001 626.1 400.501C636.1 394.601 648.6 394.001 659.9 397.601C665.1 399.201 669.5 400.201 674.9 398.401C677.4 397.601 679.7 396.701 680.8 393.901C682 390.601 684.3 388.901 687.7 388.101L693.7 386.701C705.1 385.201 726.3 388.701 730.7 399.601L721.8 397.701C709.5 395.101 699.9 399.701 694 411.201C693.6 417.601 689.3 422.601 682.5 423.701C679.9 424.401 676.8 424.901 674.2 424.101L660.3 420.001C658.6 419.501 655.5 418.601 653.7 418.701C648.3 419.101 644.2 423.001 642 427.801C640.1 432.001 640.5 437.401 639.8 442.001L638.8 448.901L638.5 455.001C638.2 460.701 635.4 467.701 630.3 470.801C623.8 474.801 611.8 470.401 604.1 474.501C600.6 478.601 599.9 484.601 598.6 489.701C596.9 496.501 596.4 502.801 596.3 509.801V520.901L596 529.001L611.4 531.701L623.1 533.601C631.9 536.501 640.9 538.701 649.2 542.901L657 546.901C658.3 548.601 659.7 550.001 661.4 551.001C660.8 553.301 660.3 556.701 660.2 559.401L659.3 572.301C659.3 573.601 659.5 576.201 658.8 577.301C658 578.601 657.9 579.501 657.8 581.001L656.9 588.601L655.7 599.701L655.9 608.401L655.5 617.201L654.5 629.601L653.4 648.001L652.6 667.001L652.3 676.701C652.3 679.801 652.3 683.201 651.9 686.101L650.3 697.801C649.6 703.201 649.2 708.301 648.3 713.801L646.2 725.301L644.7 730.801C643.7 734.401 643.5 737.501 642 740.801L641 743.201C640.7 743.801 639 743.801 638.3 743.701C634.9 743.301 632.6 744.201 629.4 745.301C619.7 748.501 609.4 750.901 599.1 750.401L579.4 747.701L561.7 743.701C549.9 741.101 539.1 735.001 530.2 727.301C525.6 723.401 523.9 719.001 522.4 713.501L519.9 704.601L518.1 695.101L514.8 674.701L513.5 664.801L512.5 658.701L507.9 622.501L507.1 613.501L505.4 596.601L503.9 581.101L503 569.701L500.4 543.201V543.501ZM625.4 559.201L643.1 555.301C646.5 554.501 649.3 552.901 652.4 551.001C651.3 549.801 650.1 548.601 649.2 548.201L633.9 542.101C621.7 538.601 610 537.201 596.9 535.801L596.5 542.101V549.601L596.3 557.001C596.3 558.001 596.8 560.701 597.8 561.101L608.5 560.801L625.4 559.201ZM511.5 543.201L534.3 553.201L543.4 556.001C552.1 558.701 561 559.801 570.2 560.701C572.8 552.401 573.6 545.301 572.9 536.801L562.7 537.101L551.8 538.201L522.6 540.901C518.5 541.301 514.8 541.401 511.3 543.301L511.5 543.201ZM626.1 740.701L634.3 738.501L637 729.401C638 725.801 638.7 723.001 638.5 718.901C631 720.301 623.6 721.101 616.3 723.801C605.8 727.701 595.9 730.101 584.4 729.501L564.2 728.401L560 726.301C559.3 726.001 558.1 724.801 558.2 724.001C558.4 722.601 562.6 720.301 566.4 720.701L573.2 721.501H582.9C587.4 721.501 591.6 720.901 595.7 719.501L580.6 717.901L559.3 715.101L542.7 711.201C542 710.401 542 708.001 542.7 707.401C543.4 706.801 545.1 706.601 546.3 706.701L567.7 708.401L586.9 708.701C582.6 706.501 578.8 707.601 574 705.801C561.7 701.001 551 702.101 544.6 698.201L531.2 690.001C529.6 689.001 529.1 686.401 530.2 685.501C531.3 684.601 533.4 684.101 534.8 684.801C545.7 689.801 556.7 692.201 568.5 693.101C575.4 693.601 581.8 696.501 589.1 695.301L568.3 689.001L560.9 685.601C557.8 686.401 556 685.801 553.4 685.101C547.2 683.401 542.3 681.101 536.9 677.601C534.5 676.101 530.2 674.301 528.4 672.401C528.2 666.201 539 671.501 546.5 673.901L564.5 679.701L584.4 682.801L592.8 685.201L605.1 686.101C601.8 681.501 597.5 681.101 593 680.401L595.7 679.301C592.9 679.301 590.5 679.201 588.7 678.001L578.7 671.401C575.4 669.201 570.6 670.001 566.2 668.801C571.2 667.401 575.8 666.101 580.7 665.901C584.9 665.801 595.5 668.701 600.6 671.001L610.4 675.501C613.8 677.101 618.5 679.601 622.3 679.301L634.1 678.401C636.9 678.201 640.5 678.401 642.2 676.301L644.8 673.001L645 662.101L645.5 651.901L646.8 632.101L647.1 625.501L647.9 615.401L647.7 607.201V601.701L650.3 581.801L652.9 566.201L654 558.701C642.3 562.301 630.7 564.701 618.5 565.501L604.3 566.301L574.2 566.001L559.7 564.701L544.3 561.801C532.3 558.601 521.2 554.401 510.1 548.601L505.9 547.201L508.4 571.501L509.1 576.101L521.8 582.901C527.3 585.801 532.1 588.801 538.5 590.601L547.9 585.701C554.6 582.201 560.7 581.201 567.8 583.501C570.6 584.401 574.5 583.501 577.6 583.501C588.7 583.501 592.8 579.001 594.3 581.001C594.6 581.401 594.2 582.901 593.7 583.301L582.7 591.401C578.6 594.401 574.4 596.101 570.1 597.801C575.1 600.201 579.4 600.101 583.6 597.501C593.4 591.701 606.6 598.001 619.9 591.701L625 589.301C626.2 588.701 629.1 588.401 630.8 588.301C627.1 593.101 622.5 595.101 617.9 597.801L610.3 602.201C607.6 603.801 604 606.201 600.8 606.201C595.6 606.201 590.9 606.101 586.2 607.501L574.3 611.201C580.1 613.701 587.1 608.101 595.8 609.801C604.5 611.501 612 608.201 619.8 604.901L634.9 598.601C635.6 598.301 636.9 598.701 637.9 599.401L625.6 609.301C616.8 616.401 607.4 621.501 596.3 620.801C592 620.501 588.5 621.101 584.5 622.101C577.1 624.001 569.8 622.101 561.4 621.301C565.8 623.701 570.8 624.001 576.1 624.601L585 625.601L592.9 624.301C601.1 625.601 609.2 625.001 616.7 622.701L629.5 618.801C629.9 622.801 626.5 623.301 624.3 625.001C619 629.101 613.1 630.201 607.1 631.801C601.5 633.201 596.6 633.601 590.7 633.001C585.3 632.501 579.2 636.101 568.4 633.201C566.1 632.601 564.2 630.201 561.5 631.801C564.7 634.401 568.8 635.801 572.8 635.901L584.9 636.201L598.5 636.501C598.1 642.601 585.5 642.701 577.4 643.201L565.6 643.901L553.7 643.001L544.5 641.201C539.9 640.301 536.4 637.701 532.6 635.201L520.9 627.601C518.8 626.201 517.5 623.801 515.2 622.401L516.9 633.801L518.8 649.501L520 657.501L521.4 665.001L523.2 677.101L525 689.501L527.2 700.001L531.5 717.501C534.7 730.701 566.2 741.001 582.1 743.001L600.6 745.301C609.3 745.501 617.8 743.101 626 740.901L626.1 740.701Z" fill="white"/>
</g>
</svg>
