<svg width="800" height="800" viewBox="0 0 800 800" fill="none" xmlns="http://www.w3.org/2000/svg">
<g clip-path="url(#clip0_2001_5845)">
<mask id="mask0_2001_5845" style="mask-type:luminance" maskUnits="userSpaceOnUse" x="40" y="139" width="717" height="520">
<path d="M756.212 139.47H40V658.44H756.212V139.47Z" fill="white"/>
</mask>
<g mask="url(#mask0_2001_5845)">
<path d="M302.706 604.251L297.874 602.735L274.663 596.577L268.884 595.345L262.727 594.682L256.19 594.209L249.084 593.261L243.305 592.409L229.948 591.461L222.937 590.988H218.484L212.895 591.082C206.169 591.272 200.958 592.977 194.611 594.682L179.263 598.945L171.59 601.409L165.053 604.156C163.442 604.819 161.547 605.103 159.842 605.198L156.242 606.809L150.463 608.893L143.453 612.588C140.421 614.198 137.105 615.335 133.695 616.282L118.063 623.861C118.063 623.861 117.305 625.661 116.832 625.661H114.463C112.947 625.851 111.716 624.998 109.916 624.335L105.653 622.63C102.716 621.493 105.937 616.282 103.663 615.24C103 614.956 101.863 616.093 101.105 617.23C99.4948 616.945 97.979 614.103 98.1685 611.924L99.1159 600.651C98.5475 597.809 98.358 594.966 98.9264 592.219C97.7896 589.566 97.5053 586.63 98.4527 583.693C99.779 581.324 98.5475 579.051 98.5475 576.588L98.2632 495.303C98.2632 492.745 96.4632 489.619 97.0317 486.777C97.6948 483.556 96.2738 480.524 95.9896 477.682L95.1369 467.735L94.8527 450.966L93.5264 447.935V433.345L92.2001 430.977L91.8211 419.893L90.5896 410.703L89.9264 402.177L89.0738 396.398L88.2211 386.261L87.2738 381.145L86.2316 375.935L85.758 367.882L84.6211 359.45L83.6737 352.345C83.2948 349.503 83.2001 347.04 82.7264 344.387L81.4001 336.619C81.0211 334.25 81.5895 330.461 81.2106 327.998L79.7895 319.945L78.7474 311.419C78.5579 309.903 78.179 307.819 77.8001 306.492L75.5264 291.145L74.2948 283.945L72.1158 275.892L71.3579 270.303L69.2737 260.924C67.9474 254.861 66.0527 248.892 64.1579 242.924L59.3263 227.292L56.3895 219.145L50.6105 204.461L47.7684 199.724C45.4947 195.934 42.3684 192.429 40.0947 188.355C44.5474 186.84 45.7789 185.324 48.4316 182.387L52.3158 178.124C54.9684 175.187 58.2842 173.387 61.5053 170.924C64.7263 168.461 68.2316 166.661 72.3053 166.092L78.8422 165.05C86.9895 163.724 93.4317 161.545 101.674 161.261L114.179 160.692C116.642 160.598 119.39 160.882 121.853 161.355L132.748 163.155C140.895 164.482 148.19 167.134 156.242 169.219L199.632 180.777C204.842 182.198 209.863 182.861 215.074 183.903C227.105 186.271 238.663 187.598 250.695 185.892L257.895 184.85L265.19 183.619C275.516 181.819 285.274 178.598 294.463 173.576L302.232 168.65L308.106 164.766L316.253 160.029C318.716 158.608 322.695 156.808 325.348 156.334L333.59 154.819L338.421 153.871C341.358 153.303 343.821 153.776 346.758 153.871C350.737 154.155 354.716 153.303 358.79 155.008C360.779 155.861 363.243 155.292 365.232 155.766L377.264 158.419C382.095 159.461 386.832 160.219 391.853 161.071C394.222 161.45 396.779 161.261 399.337 162.113C401.611 162.871 403.885 162.871 406.064 162.966L411.843 163.345L418.001 162.966L426.337 162.113C432.685 161.45 438.464 159.745 444.527 157.755C450.211 155.955 456.369 155.198 461.39 152.166C464.801 150.082 468.685 149.134 472.19 147.524L489.527 139.661C493.885 137.671 499.948 139.566 501.369 144.303C503.927 153.019 497.674 163.44 495.969 170.64L494.169 178.219L493.695 183.903L492.085 195.082C491.516 198.966 490.095 202.471 491.801 206.734L499.001 200.861C502.506 198.019 507.053 196.408 511.316 194.419L521.359 189.682C527.138 186.934 533.106 184.755 539.359 184.092L550.538 182.955H555.748L563.517 183.524C565.98 183.619 568.443 183.998 571.096 184.092L578.106 184.471L599.896 188.355L610.032 191.008L620.548 193.566C624.243 194.419 627.654 194.987 631.159 196.124L637.601 198.208L644.99 201.429C656.738 207.492 668.201 213.65 678.148 222.461L682.885 226.724C686.011 229.471 688.759 231.934 691.506 235.061C696.527 240.84 702.022 246.05 706.38 252.397L719.359 271.155L724.19 278.924L739.633 309.808L744.085 320.703L749.485 339.461L752.043 351.777C752.991 356.324 753.559 360.682 753.18 365.229C754.317 368.545 754.506 371.861 753.748 375.177C754.885 379.913 755.075 384.461 755.359 389.292L756.022 400.566C756.117 402.461 755.548 404.829 755.643 406.535L755.833 411.082L752.706 428.703L752.422 436.282C752.422 438.745 751.001 440.45 749.959 442.345L747.401 447.082L744.938 452.577L742.191 461.198L739.822 467.261L737.169 473.987C735.654 477.872 733.096 481.472 730.727 484.977L725.801 492.082C721.727 497.293 717.464 501.84 712.538 506.008C709.127 512.072 703.727 516.051 698.517 520.124L691.506 525.998C688.569 528.461 685.064 531.114 681.654 532.724L675.496 535.756L665.832 540.208L660.054 543.619C653.611 547.409 652.285 546.745 649.822 547.977L641.959 552.145C633.054 556.882 623.011 556.882 612.969 558.303L597.811 560.387C593.359 560.956 590.422 560.293 585.685 559.819L578.201 559.061L570.622 556.124L562.948 553.093L557.074 550.44C555.085 549.587 552.622 548.83 551.295 547.124C546.938 541.251 542.769 535.566 535.38 532.724L540.306 548.83C542.201 554.987 546.085 559.819 549.401 565.124L554.517 573.461L562.664 586.251L569.011 596.861C570.053 598.567 572.99 601.219 572.706 603.209C571.948 609.461 574.222 610.409 573.18 612.019C572.801 612.588 571.001 612.588 570.148 612.493L561.717 611.356C559.253 610.977 556.506 610.882 553.853 611.356L544.759 613.061C540.401 613.914 536.043 616.851 531.78 617.893C529.506 618.461 527.895 618.935 526.001 619.882L519.748 622.914L513.59 626.988C511.222 628.503 509.232 629.072 506.769 630.209L497.39 634.093C493.506 635.703 490.474 637.124 486.78 636.177C485.169 637.598 483.085 637.977 480.811 638.167L464.706 639.682H458.927L452.579 639.303L446.99 638.924L438.464 638.261L429.937 638.924L422.643 638.072L416.011 637.503L407.674 636.082L403.032 635.703C395.453 635.04 388.348 634.567 380.864 634.756C377.074 634.756 373.095 633.998 369.685 632.388L344.579 620.924L327.432 612.777L322.979 610.314L309.242 606.335L302.137 603.682L302.706 604.251ZM643.664 331.787C643.285 325.156 651.054 334.724 659.485 332.545C660.717 326.008 653.99 319.566 656.738 318.429C661.569 316.44 667.254 328.566 673.222 321.556L669.906 306.777L682.032 308.671C684.59 309.05 686.769 309.998 689.517 309.145L683.264 295.503L696.717 299.008C697.38 299.198 698.99 298.724 699.464 298.345C699.938 297.966 699.938 296.261 699.748 295.692L695.201 284.798C694.822 284.04 694.917 282.05 695.011 280.629C699.18 280.724 702.59 282.24 706.096 284.229C709.696 282.334 706.096 277.598 706.475 274.471C706.569 273.619 708.18 272.482 709.222 271.534C708.748 269.071 707.043 266.798 705.433 264.713L700.411 257.987C697.759 254.482 695.39 251.45 692.454 248.229C687.433 242.829 682.79 237.334 677.011 232.787L670.285 227.482L655.601 218.482C653.327 222.271 656.264 224.829 657.117 227.861C658.254 231.745 659.201 235.155 661.38 238.566C661.759 239.134 662.138 240.84 661.759 241.408C659.106 244.724 652.19 242.071 647.169 240.176C643.096 238.661 639.117 238.187 634.19 237.713L636.748 244.913C638.075 248.513 639.496 251.071 638.359 255.429C635.327 255.619 632.296 255.619 629.453 255.05L616.759 252.682C617.611 256.85 619.127 259.503 620.548 263.103L623.011 269.355C623.485 270.398 622.727 272.955 622.159 273.903C620.453 276.84 614.296 273.713 605.39 274.566C604.822 274.566 603.685 275.703 603.78 276.176L604.253 277.787L609.275 291.24C610.317 293.987 611.453 297.871 608.327 299.861L598.474 300.524C596.58 304.882 598.474 308.671 601.411 312.366L604.159 315.777C607.001 319.377 610.127 320.892 613.917 323.166L621.401 327.524L632.58 336.05L636.559 340.503C638.453 342.682 640.727 344.671 644.327 342.966L643.664 331.692V331.787ZM254.106 326.292C264.716 324.492 273.716 312.84 275.99 303.65C276.937 300.05 279.684 296.166 281.484 292.661L287.263 281.576L294.369 268.408L299.011 260.45C303.085 254.766 306.211 249.271 306.779 242.261C306.969 239.229 307.916 236.103 308.863 233.071L307.348 228.713C301.663 224.64 289.348 219.713 283.853 220.566C278.832 221.324 274.19 223.787 270.021 226.25C260.642 231.934 261.495 240.555 258.274 246.903L251.548 259.976L241.979 281.576C239.8 286.503 238 291.145 236.769 296.545L234.021 303.271L232.316 313.598L234.305 321.271C237.905 325.629 242.642 328.471 248.137 327.524L254.2 326.482L254.106 326.292ZM365.421 535.566L371.579 540.966L378.211 547.693L386.074 555.935L397.537 567.019C400.379 569.766 404.074 571.472 407.864 569.103L398.201 551.198L389.106 531.209L385.127 519.082L383.895 513.493V491.324L384.937 483.272L386.169 479.008L391.095 460.25C392.422 455.324 393.464 449.735 396.116 445.282L401.611 436.187C399.053 434.672 397.158 435.903 395.264 437.419L386.737 444.335L379.443 449.166C376.127 451.345 367.127 452.672 362.39 451.25L356.421 452.387L354.906 451.819C354.906 451.819 354.716 449.924 354.811 450.114L374.611 446.324L380.958 442.25C385.79 439.219 390.148 435.714 394.316 431.829C397.443 429.745 400.19 427.282 402.369 424.345C406.064 422.735 409.095 420.65 411.748 417.619C419.895 411.556 426.527 403.787 429.369 393.745C427.001 392.324 422.927 391.092 420.937 392.04L411.274 396.777L405.685 399.714C402.843 401.229 399.716 402.556 396.495 403.219L389.769 404.545C385.979 405.303 383.516 408.903 377.264 409.282C367.032 409.85 367.506 403.029 363.148 397.156C359.548 392.324 352.348 386.261 348.653 386.829L342.116 387.777C339.653 388.156 335.39 390.429 332.927 387.966L321.842 376.598C317.958 372.619 314.927 368.261 310.19 364.945C307.348 364.85 303.558 364.661 300.811 365.135C298.063 365.608 295.695 367.219 293.042 365.324L283 358.313L276.558 352.156C271.821 347.608 264.716 340.977 260.548 343.25C259.221 344.008 259.695 352.724 255.053 351.113C252.495 350.166 250.127 346.756 247.948 345.145L242.548 341.166L236.958 337.661L231.937 334.345L227.011 330.65C223.127 327.713 218.39 323.734 217.916 318.334C217.348 312.082 217.158 305.355 218.011 299.387C218.769 294.082 221.8 289.629 224.169 285.176L225.211 281.387L229.948 273.998L233.263 268.976C235.632 265.376 237.432 261.682 238.853 257.703C243.59 252.966 245.105 244.061 239.232 239.419L220.758 238.282C216.874 237.997 213.084 237.713 209.39 238.092L202.379 238.85C202.19 239.703 201.621 242.261 200.958 242.924L196.032 248.324C193.095 251.545 191.958 253.819 191.295 258.176L189.969 265.85L188.548 270.587C184.853 283.376 167.137 282.24 166.474 291.998C166.19 296.071 165.432 300.619 166.474 304.598L169.695 316.44L170.642 323.924L172.347 332.64L173.484 338.513C173.958 341.166 175.758 344.008 177.463 346.187L179.926 349.408C183.148 352.44 184.853 355.756 186.463 359.829L188.169 364.282C189.684 368.166 191.769 371.198 195.274 373.471L200.769 377.071L213.937 384.935C217.348 387.019 220 389.577 222.463 392.608L227.105 398.482C230.516 402.745 232.032 407.766 234.116 412.693C236.105 417.335 236.958 421.219 237.527 426.24L238.379 433.156L239.705 442.44L242.074 456.272L242.832 460.724L243.874 467.924C244.727 473.608 244.348 480.051 243.969 485.924C243.969 487.535 241.127 490.756 243.874 492.082C247.379 491.893 251.548 493.219 254.958 494.072C267.937 494.451 281.106 497.103 290.863 506.198L298.158 512.924L304.6 519.935L308.106 525.809H315.685C316.348 525.809 317.864 524.103 317.485 523.535L316.348 521.451C315.116 519.272 314.548 516.998 314.927 514.819L311.706 504.114L308.106 493.124L306.211 486.303L304.979 480.145L298.063 465.366L291.148 451.345L284.327 435.05L282.148 428.608C281.2 425.861 279.59 422.071 279.306 419.419C278.737 415.44 278.358 412.882 277.221 409.092C276.463 406.629 276.653 402.745 276.842 399.714C282.432 396.682 291.053 392.987 296.169 394.314C298.348 396.777 296.927 400.756 296.263 403.314C294.463 410.703 291.337 413.166 292.569 415.061C293.895 417.24 298.727 416.861 301.569 420.461C302.421 424.819 302.232 429.366 303.463 433.345L307.537 446.229L310.285 452.861C310.664 456.177 311.137 458.261 312.179 461.103L314.453 467.356L322.032 485.072C324.874 491.798 328.474 497.387 332.548 503.545L340.221 514.914C346.474 524.198 357.085 528.745 365.516 536.23L365.421 535.566ZM308.769 352.913C310.19 352.44 312.748 350.45 313.6 349.313L317.579 344.198L327.337 328.756C331.127 322.882 333.685 316.629 338.137 311.134C342.59 305.64 346.569 300.429 349.979 294.176C352.064 290.387 353.2 285.84 356.232 282.24L367.506 268.882C370.158 265.755 373.379 260.829 369.59 256.471C365.137 251.45 357.369 249.176 350.643 247.092C347.327 246.05 342.779 246.524 339.748 245.292C334.916 243.397 331.6 244.25 327.906 247.85C324.685 251.071 320.99 254.292 318.432 258.461L305.453 279.303C300.527 287.261 296.169 295.219 292 303.555L288.4 310.661L284.706 317.671C282.242 322.313 279.969 330.84 280.537 333.966L281.769 341.356L284.327 350.45C288.4 355.661 294.748 357.271 300.716 355.377L308.769 352.819V352.913ZM358.885 379.156L368.264 371.577L372.337 366.745L378.022 361.156C381.337 357.84 383.99 354.713 387.116 351.113L391.285 346.282L400.853 332.734C402.937 329.798 403.506 326.671 407.39 325.44C413.548 323.45 416.485 316.724 418.095 311.04C419.801 304.882 419.801 299.577 415.822 294.176C413.737 291.429 410.801 288.208 407.769 286.313C402.558 283.092 397.348 280.44 391.474 278.734C390.148 278.355 387.495 279.303 386.264 279.871C383.706 280.913 382.379 282.713 380.485 284.798L373.853 292.092L366.748 300.429C364.853 304.219 362.39 307.819 358.979 310.187L351.779 321.366L348.464 327.619L344.39 335.008L338.895 345.713L334.537 355.471C331.79 361.629 330.085 368.545 334.537 374.419C336.811 375.935 340.979 378.777 343.632 379.44L351.306 381.24C353.106 380.956 357.369 380.198 358.79 379.061L358.885 379.156ZM582.559 426.145H592.222C596.769 426.05 605.769 424.25 608.232 422.924C614.959 419.324 619.696 414.208 624.053 408.335C626.517 404.924 629.359 401.04 630.969 397.156L634.096 389.577C636.18 384.65 637.696 379.156 638.359 373.661L637.885 365.987C637.506 360.113 634.475 355.566 631.159 350.924C630.211 346.945 627.938 343.724 624.527 341.545C620.264 337.85 616.096 335.103 611.169 332.261C610.032 331.598 608.043 329.608 606.906 329.134L601.696 327.24L578.485 322.787H573.085C568.064 322.692 562.853 323.071 558.59 326.198L547.127 334.44C544.285 336.524 542.769 340.787 541.538 344.103L543.527 349.029C540.969 352.819 540.401 356.608 539.832 360.966C539.169 365.608 537.274 370.25 538.506 374.892C538.695 375.84 538.885 378.303 537.938 378.398C535.19 378.587 532.538 375.461 532.253 372.619C528.653 374.703 531.401 377.356 531.495 379.535C531.78 384.177 530.359 389.387 531.211 393.84C535.853 401.892 542.769 407.577 549.59 413.45C552.906 416.293 555.843 417.998 559.822 419.987L567.401 423.682L578.864 426.429L582.464 426.145H582.559ZM409.095 389.103L413.074 386.356L424.064 378.966L431.358 372.998C435.716 369.492 438.653 366.461 441.401 361.629C442.253 360.113 443.201 358.598 443.674 356.987L445.948 349.503C446.611 347.324 446.422 342.587 445.758 340.503L443.011 331.787C442.632 330.556 441.116 327.998 440.453 327.145L432.022 323.64L426.906 323.924L420.653 330.461L401.327 344.956L394.316 353.387L385.127 366.556L374.706 382.282C373.664 383.892 372.053 387.208 372.811 389.008C375.464 395.356 386.453 398.956 393.274 395.735C396.685 395.735 399.716 394.408 402.937 392.798L409.379 389.103H409.095ZM516.622 363.713C516.622 362.103 515.58 360.303 513.306 360.208L514.822 368.829H516.337L516.622 363.619V363.713ZM550.632 506.577C551.201 506.672 553.001 505.914 553.001 505.345C553.001 504.966 552.716 503.64 552.432 503.261L545.99 494.072C545.611 493.503 545.801 491.514 546.18 491.04C546.559 490.566 548.074 490.187 548.738 490.282L554.517 491.703C555.464 491.893 557.074 491.798 557.548 491.229C557.927 490.756 558.117 488.766 557.832 488.198L551.39 473.514C551.011 472.661 551.674 470.103 552.622 470.008C553.569 469.914 554.99 470.577 555.938 471.145L560.58 474.177C561.338 474.651 564.369 473.987 563.99 473.229L562.948 470.577C559.822 462.714 555.369 461.956 555.464 457.693L564.18 456.461C565.317 456.272 564.464 453.145 563.801 452.293L559.822 446.893C558.874 445.566 557.359 441.493 559.253 441.114L566.927 439.787C567.685 436.945 561.527 428.703 560.201 427.756L550.727 421.693L544.569 417.24C537.843 412.314 534.622 404.166 530.264 404.829L529.411 413.261C528.843 418.756 527.327 423.114 527.422 428.893C527.422 431.735 525.716 435.808 525.053 438.65C524.864 439.598 525.243 441.966 524.769 442.914C522.969 446.419 523.159 450.872 523.632 454.85C524.959 466.314 522.211 473.893 523.064 478.629L524.295 485.735L525.338 494.829L526.38 501.272L527.706 507.714L529.601 514.819C531.022 520.03 533.39 523.44 538.695 525.051C540.116 527.135 542.295 529.598 544.759 530.83C545.801 527.987 544.095 527.324 542.769 525.809L533.106 515.008C533.769 513.303 536.138 512.451 537.843 513.114L545.043 515.766C545.706 516.051 547.885 515.482 547.885 514.819C547.695 512.451 541.538 510.366 544.38 505.345L550.443 506.766L550.632 506.577ZM582.653 463.187L575.832 458.829C575.359 461.103 576.117 462.998 577.348 464.135C578.769 465.366 581.801 466.029 582.653 463.093V463.187Z" fill="white"/>
<path d="M470.675 653.796C469.539 655.407 467.36 657.302 464.802 658.438C463.665 658.912 461.675 656.259 461.675 655.028C461.486 651.807 466.697 650.007 468.118 650.575C468.875 650.859 469.539 652.091 470.675 653.796Z" fill="white"/>
<path d="M266.043 373.089L263.201 377.541C259.791 375.078 262.159 370.341 260.833 363.425C260.454 361.531 259.506 358.31 260.359 356.699C260.738 355.941 263.485 356.131 263.485 356.699C263.012 360.583 263.864 363.994 265.854 367.215L266.138 373.089H266.043Z" fill="white"/>
<path d="M383.329 433.436C383.329 433.436 381.529 434.099 381.055 434.194C380.581 434.289 380.771 432.205 381.245 432.015L387.971 428.32L388.729 429.931L383.424 433.436H383.329Z" fill="white"/>
<path d="M295.696 240.932C294.275 245.29 293.327 248.038 288.117 249.174C287.549 248.795 287.17 246.238 287.643 245.101C288.022 244.059 289.917 243.206 291.527 242.638L294.464 233.922C294.654 233.448 295.601 232.5 296.075 232.311C296.738 232.122 297.97 233.827 297.78 234.49L295.696 240.932Z" fill="white"/>
<path d="M595.917 379.724C596.391 386.545 584.17 393.271 578.486 389.766C570.528 384.65 568.444 378.587 572.423 369.966C574.412 368.829 578.581 367.787 580.665 368.261L588.623 369.966C592.223 370.724 595.728 375.934 595.917 379.819V379.724Z" fill="white"/>
</g>
</g>
<defs>
<clipPath id="clip0_2001_5845">
<rect width="720.001" height="521.054" fill="white" transform="translate(40 139.47)"/>
</clipPath>
</defs>
</svg>
