<svg width="800" height="800" viewBox="0 0 800 800" fill="none" xmlns="http://www.w3.org/2000/svg">
<g clip-path="url(#clip0_2001_5847)">
<mask id="mask0_2001_5847" style="mask-type:luminance" maskUnits="userSpaceOnUse" x="40" y="105" width="720" height="583">
<path d="M759.435 105.45H40V687.712H759.435V105.45Z" fill="white"/>
</mask>
<g mask="url(#mask0_2001_5847)">
<path d="M240.664 354.549L231.874 358.477C229.443 356.42 226.638 358.477 223.085 356.513C213.547 355.391 206.347 348.378 204.851 338.934L203.916 336.97C203.916 336.97 205.038 335.381 205.038 334.82L205.225 324.627C205.225 323.131 206.347 320.326 206.908 318.924L213.547 315.838L217.942 314.529H232.903L240.196 318.456L243.469 321.074L248.892 323.318C252.072 324.627 253.942 328.555 255.438 331.266C258.617 336.877 254.69 345.105 248.799 347.443L245.152 350.809L240.757 354.549H240.664Z" fill="white"/>
<path d="M326.971 619.173C324.633 619.641 322.481 618.238 320.985 618.145L304.061 617.864C303.219 617.864 301.723 616.181 301.162 616.555L298.45 618.051L296.3 616.742H271.427C270.96 617.116 269.838 618.238 269.371 617.958L267.406 616.836L261.422 618.238L254.316 619.454L248.239 620.202C245.807 620.482 244.123 621.137 241.879 621.23L235.24 621.698C231.407 623.007 228.041 623.474 224.208 624.316L219.344 625.345L214.575 626.654L207.002 629.178L200.831 631.703L195.408 635.163L181.661 642.456L177.267 644.887L171.189 648.44L164.082 653.209L159.5 655.453L153.049 659.381L145.475 664.804L140.706 668.451L136.591 671.256C133.693 673.22 131.543 674.622 128.737 676.679L124.062 680.233L120.041 683.131C115.179 686.685 117.33 688.461 108.447 687.339C106.577 687.152 104.987 687.152 104.052 685.843C103.397 684.908 103.958 683.225 104.8 681.542C104.239 681.074 102.649 680.139 101.714 679.578L101.06 683.505C93.5792 679.297 100.499 669.292 98.4415 664.711C97.5064 662.653 97.6935 660.69 98.8155 658.726C95.4493 651.713 101.247 648.16 97.787 642.83V561.947L96.5714 558.955L96.1974 548.296L95.3558 543.059L94.5142 536.046L94.2337 518.841L93.1117 515.943V502.01L91.8961 499.298L91.5221 488.452L90.774 483.402L89.8389 476.296L89.2779 468.348L88.7169 464.047L88.1558 457.127L86.8468 450.114L85.6312 439.735L84.4156 430.759L83.574 423.091L82.826 416.733L81.6104 409.813L80.9559 400.556L79.7403 392.702L78.8052 385.782L78.0572 380.078L76.4676 370.541L74.9715 361.377L73.4754 355.58C72.5403 352.12 72.3533 349.502 71.4183 346.136L69.5481 339.123L68.2391 332.297L58.5144 303.403L56.0833 297.512C53.4651 291.154 50.9405 284.702 45.9846 279.84C43.5535 277.502 41.5898 275.258 40.4678 272.079L46.5457 268.245L48.6963 264.037L51.969 259.643L66.3689 245.149L70.0157 243.186L74.2234 241.035L80.8624 238.604L97.6935 230.656L102.275 229.347C107.979 227.757 113.589 225.326 119.574 224.765C121.818 224.578 123.408 224.391 125.371 223.456H207.656C209.339 223.456 210.742 222.708 212.331 222.614L222.804 222.053L229.069 220.838L234.773 219.716L241.413 217.845C242.909 217.471 244.405 217.004 245.994 216.443L251.23 214.76L260.393 210.739C267.032 207.84 273.671 204.942 279.656 201.014L289.941 194.282L294.337 190.635L300.788 184.557L304.809 180.817L309.391 177.17C314.066 173.524 316.685 169.596 325.381 165.763L331.925 162.864C333.515 162.209 334.638 161.368 336.321 160.9C339.033 159.311 341.838 158.376 345.111 158.843C349.225 156.973 353.058 156.038 357.733 156.412C359.51 156.599 361.661 155.664 363.344 155.57L375.873 154.729C380.081 154.448 384.57 153.887 388.872 153.981L392.705 153.046C395.417 152.391 399.156 153.046 401.681 152.578L406.918 151.456L412.621 149.96L419.541 147.622L427.395 144.443L439.177 138.459L453.297 130.978L457.785 127.986L463.676 123.404L469.286 119.945L474.523 116.111L479.011 112.838L482.565 110.126C486.585 107.134 492.382 103.02 497.525 106.48C500.984 108.911 499.488 114.989 498.647 118.355L497.338 124.152L493.411 136.495L492.008 143.321C491.54 145.752 492.009 147.435 491.541 149.773L490.138 157.815L489.017 165.014C488.642 167.82 488.642 171.466 488.829 174.365L493.037 169.222L497.713 164.079C498.554 163.144 500.705 161.461 501.733 160.807L505.941 158.002L510.429 154.822L514.263 151.737L525.951 143.882L535.021 139.394L546.522 135.56L551.571 134.532L558.491 133.316C560.736 132.942 562.979 132.661 565.41 132.381L572.423 131.539H592.34L598.606 132.474C600.756 132.755 602.346 133.222 604.403 133.409L616.465 134.064L620.859 134.812L626.002 135.654L631.613 137.524L650.874 146.033L657.887 150.054L664.62 154.355C668.36 156.786 671.259 159.685 674.625 162.583L679.113 166.511L682.105 169.035C684.537 171.092 687.342 173.711 689.118 176.329C692.952 182.033 697.814 186.053 702.116 191.29L706.791 197.087L718.386 214.479L723.716 221.025C725.492 224.578 727.736 227.944 730.167 231.03C731.851 236.64 734.282 241.689 737.555 246.645L741.762 256.37L744.1 261.7L745.503 267.591C747.373 271.144 747.653 273.762 748.308 277.689L751.3 285.263L754.386 296.11L755.788 302.001L757.191 309.668C758.219 315.092 756.723 321.17 758.126 326.406C759.528 331.642 760.463 334.541 758.593 341.18L757.097 346.51L755.601 352.12L754.947 359.413L753.544 365.865L752.141 372.598L750.926 377.647L747.373 387.091L745.129 392.608L737.087 407.195L730.635 416.078L728.391 420.099L723.435 427.018L719.508 431.507L711.279 440.577L701.555 450.208L693.981 455.912L686.968 460.587L682.199 464.14L674.812 470.031L669.856 472.649L663.498 476.763L658.355 480.504C649.752 486.769 639.373 489.667 629.181 492.847L619.55 495.839C617.399 496.493 615.249 497.709 613.005 498.176C608.984 498.924 604.776 501.075 600.849 501.543L590.189 502.758C587.384 503.039 583.364 503.132 580.746 502.758L574.293 501.823L568.029 500.982L562.325 499.766C559.801 499.205 556.901 499.298 554.937 497.241C550.262 492.379 545.214 488.545 538.294 486.862L541.286 497.802C542.782 503.132 546.149 508.556 549.515 512.95L557.742 523.61L562.418 529.875L567.561 536.514C569.711 539.319 570.74 542.498 573.826 545.023C574.948 545.958 573.826 549.231 573.546 550.633C573.452 551.381 575.603 556.337 572.517 556.524L564.755 557.085L558.865 557.927C554.751 558.488 550.73 561.106 546.896 562.322C544.839 562.976 543.53 563.163 541.753 564.379L529.691 571.766L524.735 574.571L511.925 584.763L504.258 590.186L494.907 596.545C491.728 599.817 488.549 601.22 484.341 601.22C482.939 603.371 480.04 605.241 477.328 604.773C476.206 605.521 474.429 606.83 473.307 607.111L463.208 610.29L456.569 612.067L451.052 613.189L444.788 614.404L437.4 615.526C432.725 617.584 428.799 618.519 423.936 619.267L417.11 620.295C415.053 620.576 412.995 621.23 410.845 621.23C408.133 621.23 406.169 621.604 403.645 622.072C397.567 623.194 393.639 621.511 391.115 622.072C389.245 622.446 386.814 622.539 385.13 621.885C383.541 621.324 383.073 621.698 381.297 621.978C377.93 622.539 373.629 622.82 370.076 621.978L365.868 621.043H349.786L344.829 620.015L332.581 619.547C331.178 619.547 329.307 618.332 327.344 618.706L326.971 619.173ZM629.555 270.209C629.368 269.461 629.555 267.871 629.742 266.281L635.539 267.591C639.186 268.432 643.955 268.245 644.703 266.469C644.984 265.814 644.89 264.131 644.516 263.476L641.898 258.24C640.869 257.492 639.093 254.78 640.495 253.845C645.545 250.76 651.622 260.858 656.765 253.004C656.485 250.666 654.708 247.019 653.773 244.588L651.81 239.539L660.599 239.071C663.217 238.23 665.555 238.136 668.454 237.949L671.259 237.762C671.726 237.762 671.259 235.518 671.072 235.05L664.62 225.326C672.474 223.456 680.142 227.196 682.386 222.521L677.056 212.516C676.215 210.926 675.654 208.214 676.776 206.812C683.882 205.69 687.996 208.962 688.744 207.653C689.866 205.596 689.305 203.165 688.557 201.295C687.155 198.209 688.37 195.684 691.924 194.188L685.472 186.801L681.731 183.061C680.048 179.975 677.524 177.357 674.251 175.861C664.246 165.014 653.586 158.75 639.654 153.046C636.942 156.505 639.841 159.685 640.869 163.238C641.711 165.95 641.524 169.69 643.3 172.027C644.048 172.963 644.89 174.178 645.077 175.02C645.451 176.609 641.431 179.695 636.662 179.134L630.21 178.386L618.054 178.012L621.327 187.362C622.168 189.794 622.168 193.066 621.888 195.684L617.025 196.9L601.503 197.181L603.654 204.194L605.899 209.804C606.928 212.422 608.33 216.443 605.618 218.687C603.374 220.464 599.073 219.528 596.548 219.996L589.628 221.399C590.563 224.952 591.311 229.534 592.994 232.993C594.771 236.64 597.109 241.222 595.239 244.962C594.585 245.71 592.153 246.271 591.124 246.458L585.514 247.487C584.485 249.731 584.766 254.687 587.01 256.931L593.93 264.037C595.52 265.72 598.792 266.001 600.849 266.749L607.862 269.554C612.069 271.237 616.559 273.201 620.112 275.819L624.225 278.905C626.282 280.494 628.153 281.242 631.613 280.775C632.081 278.998 631.425 276.661 630.864 274.417L629.555 269.928V270.209ZM459.843 159.591L457.973 155.29L454.513 156.038C453.671 156.225 453.483 158.75 453.857 158.843L459.843 159.591ZM239.075 609.823L246.648 609.262L252.445 608.326L257.589 607.578L277.225 606.737C279.376 606.737 280.217 606.082 282.18 606.363C286.388 607.111 290.596 607.485 294.523 606.924C295.178 606.456 296.394 605.521 296.675 606.082L297.796 608.7C301.63 606.269 305.37 607.111 309.671 608.139L319.676 608.42C320.144 608.42 321.734 609.262 322.295 609.542L332.861 609.916C335.946 610.01 338.284 610.851 341.37 610.851C343.801 610.851 346.139 611.038 348.29 611.506C349.693 610.664 351.656 610.664 353.152 611.973H370.638C367.085 608.139 363.344 606.83 359.042 601.22L353.899 594.581C352.216 592.337 351.656 592.15 348.945 591.308L339.594 588.597C336.134 587.568 333.141 587.007 330.803 584.295L328.654 585.511L323.885 581.49C322.669 579.807 320.237 575.88 320.144 573.823L319.676 562.602C319.676 561.667 320.332 559.797 320.799 559.049C318.555 554.748 313.972 553.812 309.297 553.251C305.276 552.784 300.601 550.072 298.357 546.612C297.609 545.397 299.48 542.592 295.927 541.844L298.919 533.802C299.76 531.558 300.882 530.062 302.471 528.005C303.593 526.509 303.219 522.488 303.126 520.524L304.902 520.711C305.557 520.711 304.997 517.813 306.025 517.813H307.988C309.204 517.906 309.484 514.166 308.736 513.231L303.5 510.987L298.919 508.275C296.114 500.701 292.934 505.002 287.979 501.449C286.108 500.047 284.799 498.644 283.303 496.867C282.181 495.558 280.03 493.688 280.591 491.911C282.835 485.086 285.453 479.008 289.006 473.21C289.754 473.865 291.25 474.8 291.811 474.706C293.027 473.023 294.431 470.218 294.992 468.348C291.906 466.758 290.877 464.701 289.568 462.083C288.446 461.335 285.079 459.465 285.079 457.875V443.475C285.079 442.447 286.67 440.296 287.324 439.548C286.108 435.808 283.676 431.694 280.778 429.075H260.862L256.466 430.291L234.4 436.275C231.407 437.117 228.602 438.239 225.704 439.548C218.504 440.67 215.978 440.296 212.705 433.938L209.994 430.946L214.575 422.904L217.849 418.416L222.711 411.403L226.918 405.231L235.334 393.543L239.261 387.839L245.901 379.143L250.295 373.813L253.755 369.606C256.654 366.052 260.767 362.967 263.292 359.133C265.536 355.58 267.593 352.775 270.773 349.876C270.773 347.538 272.362 345.668 274.326 344.64L279.001 336.224C279.375 333.232 280.592 330.24 282.649 328.089L285.079 317.616L285.641 308.359L286.856 299.663C287.417 295.829 288.633 292.37 286.483 288.536C286.483 286.666 286.482 282.926 286.762 281.149L287.884 274.604C288.165 273.201 288.632 270.115 289.193 268.806L293.682 258.24L297.889 250.292C298.824 248.609 299.573 247.487 300.508 245.804L304.996 238.417L307.146 233.648C310.419 230.282 313.131 226.822 315.749 222.895L318.368 219.996L329.12 209.336L332.581 206.344L338.097 201.575C343.894 196.526 350.066 192.131 356.705 188.297L360.165 184.744C362.035 182.781 363.905 181.472 366.429 179.788C369.328 177.825 371.573 174.178 375.687 174.646C375.968 173.617 376.247 172.682 376.715 172.495L379.052 171.653L382.606 169.503L391.115 164.547C389.245 163.238 387.001 164.453 385.224 165.389C381.577 162.957 377.557 164.173 373.817 164.734C369.048 165.482 363.718 165.014 358.762 165.108C354.367 167.165 349.785 167.82 345.016 167.446L336.694 171.934L328.466 176.796L319.583 185.025C316.404 187.923 312.197 189.981 309.204 193.066C306.773 195.591 304.715 197.181 301.536 199.238C297.515 201.762 294.43 206.438 290.596 209.243L286.483 211.019C281.994 212.89 277.599 214.199 273.484 216.91C269.37 219.622 264.695 222.427 260.206 223.549L255.345 224.765C253.007 225.326 250.856 225.606 248.612 226.541L241.692 229.44L232.903 230.749L226.077 231.31L221.87 231.871L211.583 232.432C208.404 232.619 204.758 235.144 201.673 231.871C200.738 232.806 200.176 233.461 199.802 233.18L198.212 232.339H193.256C192.695 232.245 191.573 233.741 191.199 233.461L189.235 232.152H148.56L144.726 231.217C138.275 229.721 131.636 232.245 128.55 232.152C125.278 232.058 122.473 232.339 119.48 233.274C113.309 235.144 107.044 236.64 101.34 239.539L95.3558 242.531L90.1195 244.588L83.7611 247.206C82.1715 247.861 79.3663 249.637 77.8702 250.76L72.5403 254.687C69.6417 256.837 65.8079 260.11 63.8443 263.102L62.1612 265.814L58.795 270.302C57.2989 272.266 54.3067 276.006 56.4573 278.624C58.6079 281.242 60.0105 283.3 61.2261 286.572C62.4417 289.845 64.3118 293.585 66.1819 296.577C68.0521 299.57 68.5196 302.001 69.7352 304.993L72.0728 310.603L75.7195 318.177L77.7767 324.629L78.8052 329.118C81.0494 332.203 81.8909 335.569 82.639 339.497L83.6676 345.014L86.5662 355.393L88.7169 365.024L90.4935 373.626L91.4286 379.424L92.0831 390.083L93.0182 395.881L93.8597 402.333L95.0753 409.626C94.8883 410.281 93.9532 412.618 94.2337 413.366L96.3844 420.753L97.4129 429.169L98.6285 435.621L99.2831 443.569L100.125 450.021L101.06 455.818L101.714 466.478L102.556 471.527L103.491 477.886L104.145 490.509L104.893 494.53L105.922 498.644L106.483 511.548L107.325 519.309L108.166 526.322L108.821 539.132C108.914 541.657 109.475 543.62 109.756 546.332L110.597 553.532C111.065 557.366 110.784 561.76 110.597 565.594V569.896L111.906 579.527L112.093 645.822C112.654 647.038 113.309 649.002 113.309 650.217V668.918C112.748 669.573 111.719 670.882 112.187 671.349C112.654 671.817 114.712 672.191 115.179 671.817L118.826 669.012L124.623 664.056L134.815 657.23L139.864 653.303L154.638 643.765L161.184 639.277L168.758 634.976L177.641 630.02L198.493 619.547C200.644 618.425 203.822 617.677 206.066 617.21L211.209 616.181L216.072 615.059L219.812 614.311L224.956 613.282L232.435 611.225L239.261 610.103L239.075 609.823ZM728.017 252.349C726.614 247.58 725.212 244.121 721.752 241.783C722.781 246.271 725.399 250.011 728.017 252.349ZM583.738 371.476L590.657 370.26L600.943 367.829L608.142 364.93L613.473 363.247C622.543 356.047 629.93 343.33 631.613 331.829L632.642 325.284C633.39 320.421 633.39 314.718 632.642 309.762L629.65 301.159C627.405 294.707 622.73 292.837 620.766 289.471C618.335 285.357 615.716 283.674 611.508 281.616L604.682 278.344L595.612 274.323C594.21 273.762 590.844 273.014 589.347 272.92C577.192 272.453 558.678 271.144 551.011 278.905L540.07 289.845C538.106 292.183 537.452 296.203 536.049 298.915L538.481 303.497C537.733 305.461 536.424 308.64 536.144 310.51L535.208 318.925C534.927 321.824 534.553 326.125 535.208 329.024L536.144 333.232C532.777 334.354 529.691 332.203 528.662 328.089C525.763 330.894 528.662 333.699 528.662 335.756L529.036 349.969L536.611 357.076L549.515 364.93C553.068 367.174 556.808 369.699 561.671 369.419L568.029 371.476C573.172 371.85 578.501 372.317 583.644 371.382L583.738 371.476ZM419.448 355.112L416.269 349.876L413.931 352.027C415.614 353.616 416.082 354.645 419.448 355.112ZM394.294 387.652C399.53 386.717 404.955 385.128 408.882 381.481C412.529 378.208 414.024 372.691 412.154 368.297C411.686 364.743 409.91 362.219 407.76 359.413C402.71 352.868 397.848 354.271 396.072 353.616L394.014 352.775C394.014 352.775 392.799 353.149 392.051 353.429L387.001 355.393C384.009 356.515 382.699 358.852 380.923 361.097C378.772 363.902 377.743 366.707 376.715 369.512L375.125 374.094C374.845 374.935 374.284 376.619 374.751 377.273L376.434 379.424C380.081 384.099 382.981 385.969 388.498 387.839C390.555 388.494 392.331 388.868 394.201 387.746L394.294 387.652ZM558.958 454.883L551.758 447.683C551.104 446.935 550.356 445.345 550.356 444.504C550.356 443.849 551.665 442.26 552.413 442.26H562.792C563.633 442.26 565.224 439.829 564.85 438.987L561.671 433.19L557.275 426.177C556.34 424.681 556.059 422.437 557.462 421.221C560.08 419.07 564.288 424.026 570.272 422.998C571.768 420.847 568.216 415.237 564.008 412.899C562.419 411.964 561.016 410.374 559.333 408.037L569.058 405.418C569.619 405.231 570.647 404.483 570.834 403.922C571.021 403.548 570.646 401.865 570.272 401.491L562.605 393.73C561.95 393.076 562.418 390.364 563.259 390.083L567 389.148L571.488 387.933C572.703 387.652 571.489 384.567 570.554 383.632L563.727 377.086L552.039 372.878L544.653 369.699C543.437 369.232 541.472 367.548 540.35 366.707L536.331 363.715C534.273 362.125 532.402 360.629 529.878 359.694C528.849 361.751 528.85 363.995 528.944 366.146C529.131 369.232 528.101 371.663 528.008 374.561L527.353 388.868L525.857 395.413L525.576 400.93C523.426 404.577 523.427 408.598 525.297 412.151L524.923 430.946C524.923 432.909 524.549 434.125 524.923 435.995L526.231 443.195L527.447 451.517L528.569 457.969L529.691 463.673L532.028 470.499C533.805 475.641 536.611 478.634 542.128 478.166C543.25 480.036 545.68 481.906 548.111 483.028C548.766 483.215 549.794 480.971 549.42 480.41C549.046 479.849 548.206 479.288 547.177 478.634L543.156 475.922L536.331 470.405C535.395 469.564 537.919 467.039 539.415 467.132L547.177 467.6C548.112 467.6 549.888 468.348 550.73 468.161C551.665 467.88 553.067 466.478 553.067 465.73L548.859 462.738C548.018 462.083 548.205 459.371 548.392 457.875H556.808C557.65 457.875 559.332 455.631 559.052 454.883H558.958ZM679.394 395.694C679.394 395.694 678.178 393.637 677.898 394.104L676.495 396.068C675.466 397.47 675.092 399.154 676.869 400.089L679.394 395.787V395.694ZM589.815 409.907C590.563 409.626 591.779 408.785 592.153 408.317C592.433 407.943 590.845 407.102 590.377 406.915L584.018 404.203L582.802 405.605C582.802 405.605 583.458 406.728 583.551 407.102C584.112 409.533 586.636 411.029 589.815 410V409.907ZM577.005 460.774L573.077 459.091C571.394 460.867 572.517 462.083 574.013 462.551C575.323 462.925 576.444 462.457 577.005 460.774ZM297.702 494.436C297.702 494.436 298.263 492.753 297.889 492.566L296.113 491.818L294.43 491.163C294.43 491.163 292.28 493.875 292.841 494.623L293.869 495.932L297.796 494.436H297.702Z" fill="white"/>
<path d="M586.075 334.539L582.241 336.409C579.903 337.531 577.659 337.344 575.415 336.035C568.122 331.734 566.252 329.022 567.28 319.952C567.467 319.017 569.337 317.241 570.179 316.867L574.293 315.931C577.285 315.277 581.306 315.464 584.392 315.744C588.132 317.521 591.685 321.355 593.088 324.347C592.153 329.303 589.909 332.576 586.075 334.539Z" fill="white"/>
<path d="M189.891 597.572C186.992 596.731 184.093 594.393 181.382 592.71L177.641 587.473L168.478 571.11C166.514 567.65 163.709 565.219 160.53 563.068C157.631 561.105 155.294 560.731 151.834 560.263L143.979 559.235C141.829 558.674 140.8 553.157 142.296 551.1C144.727 547.827 150.151 547.359 153.61 547.359C154.171 547.359 155.387 546.144 155.761 546.331L157.631 547.079C160.717 545.489 166.701 547.079 170.629 549.136L179.792 553.998C180.914 554.559 182.691 556.71 183.532 557.645C182.878 561.759 185.215 563.816 187.366 566.528L191.854 572.326C195.501 577.094 199.054 581.77 205.506 580.554C213.174 579.151 219.906 576.066 224.956 569.801L234.493 555.962L248.332 542.123L252.82 538.383L264.415 535.391C267.407 536.887 270.212 538.102 272.831 538.57L277.038 539.224C281.059 538.476 285.173 540.814 284.799 545.489C281.34 547.079 277.506 545.676 271.241 547.92C266.005 549.884 265.257 559.048 260.114 566.435L254.971 573.822C253.568 575.785 252.259 576.814 250.296 578.31L246.088 581.583C244.685 582.705 243.75 584.201 242.441 585.042L235.709 589.437L230.566 592.336L223.179 596.076C221.87 596.731 218.878 597.292 217.382 597.479C214.763 597.853 213.08 597.292 211.584 600.097L209.901 598.975C209.901 598.975 208.498 599.442 208.031 599.629L204.01 600.938C202.14 600.097 200.176 600.19 197.745 600.097L189.517 597.666L189.891 597.572ZM250.857 550.071C249.174 549.697 248.519 550.071 247.771 550.913L243.376 555.214L244.124 556.429L250.857 550.071ZM192.883 586.258L189.236 582.237C182.971 582.611 183.719 574.85 180.166 576.346C179.325 578.59 181.288 580.461 182.41 581.863C184.561 584.575 185.776 586.445 189.049 588.035C190.078 588.596 192.976 587.38 192.883 586.258Z" fill="white"/>
<path d="M285.079 521.27C282.835 521.644 282.741 518.372 279.562 518.652L265.349 504.626L256.279 502.382L243.095 501.728L235.053 500.512L229.443 499.39L222.43 496.865L214.95 493.125L211.303 490.787L205.973 484.149L201.578 476.855L197.651 471.058C189.703 459.369 171.563 460.679 160.997 445.905L155.76 438.611C153.984 436.18 151.459 431.598 151.646 428.887C152.581 426.081 152.114 424.772 151.646 422.061C150.43 414.767 150.337 402.237 154.732 397.936L158.378 394.383C158.378 394.383 160.062 395.505 160.81 396.066C158.285 399.432 159.875 402.611 160.436 405.978L161.745 413.739C163.054 421.593 168.01 427.297 173.152 433.094C174.742 434.871 175.864 437.209 178.295 438.331L183.064 440.575C185.682 441.79 187.552 442.164 190.358 442.725L195.968 443.754C204.009 445.157 210.087 451.047 215.978 456.097C217.474 457.312 219.438 458.621 220.092 460.024L221.963 463.951C223.365 466.943 224.113 470.777 225.983 473.863C228.134 475.265 232.155 476.575 234.679 476.949L241.131 477.884C243.562 478.258 245.713 479.193 248.051 479.941C252.633 481.437 257.308 482.278 261.329 485.551C264.695 488.263 268.342 491.536 271.053 495.276L273.952 499.297L278.814 506.122C282.274 510.985 291.063 520.335 284.705 521.457L285.079 521.27ZM201.859 453.011L195.874 450.767C194.939 450.393 193.256 450.58 191.48 450.954C194.378 453.666 200.176 455.816 201.391 455.162C202.046 454.788 202.42 453.105 201.859 453.011ZM217.194 473.395L214.576 466.569C211.583 467.13 212.705 463.951 211.957 463.11L206.441 457.499C206.067 459.463 207.282 460.398 208.03 461.894C209.9 465.915 213.641 471.993 217.194 473.489V473.395ZM223.085 484.616C218.503 481.904 215.417 478.445 212.331 474.33L209.059 469.936L205.225 466.008C204.664 469.468 206.628 471.245 208.03 473.863C212.425 481.998 220.653 487.141 221.308 486.486L223.085 484.616Z" fill="white"/>
<path d="M244.03 523.236C244.684 523.984 244.591 526.321 244.123 527.163C243.562 528.285 241.131 528.005 239.822 528.285L224.581 532.119L218.409 533.428L212.051 534.269L206.16 535.205C198.586 536.42 193.069 534.83 193.63 534.55L191.76 535.392C190.357 536.046 186.804 535.766 185.402 535.205L179.417 532.68C175.958 531.277 171.937 529.407 169.132 527.257L163.147 522.675C160.623 520.805 157.63 518.841 155.76 516.41L151.927 511.267L148.186 503.974C145.849 499.392 145.662 493.781 143.043 489.48L137.433 480.036L133.693 475.454C132.104 474.613 129.672 473.397 129.111 471.994C127.896 469.189 126.026 468.722 124.062 466.758L116.021 458.997C114.524 457.501 114.524 454.322 114.057 452.545C112.841 448.337 112.654 445.158 113.963 440.95L114.712 427.766C114.899 424.867 115.834 422.436 114.712 419.912C116.301 418.696 116.956 416.639 116.862 414.301L119.854 412.244L122.66 415.143L123.034 429.262L124.062 434.125L125.558 440.576C126.4 444.41 128.363 447.496 131.262 450.021L133.039 451.61C133.506 452.078 135.002 450.956 135.656 450.301L146.129 455.631L151.459 460.306C153.984 462.55 156.134 464.14 158.285 466.852C160.716 469.937 162.306 473.491 164.176 477.044C165.765 480.13 166.981 482.561 167.449 486.02L168.664 493.688L171.376 500.701C173.339 505.75 175.022 510.612 179.511 513.418L187.552 518.373L194.472 522.301L197.09 520.618C199.147 522.768 202.046 522.675 204.009 520.805L206.815 522.207H222.524L224.02 520.898C224.394 520.618 225.609 521.459 225.983 521.74L231.126 520.524C233.37 520.057 235.24 519.683 237.578 519.589L240.477 518.186L244.31 522.955L244.03 523.236ZM147.438 474.613C148.934 468.815 144.54 465.262 139.677 463.111C137.994 462.363 136.498 459.745 134.067 462.176L140.519 465.636C140.145 470.966 145.849 468.535 147.438 474.706V474.613ZM156.976 494.997L152.581 482.467C149.495 484.337 152.488 486.768 153.049 488.358L156.041 497.428L156.321 504.628C161.464 500.701 157.069 495.184 156.976 494.903V494.997Z" fill="white"/>
</g>
</g>
<defs>
<clipPath id="clip0_2001_5847">
<rect width="719.996" height="589.088" fill="white" transform="translate(40 105.45)"/>
</clipPath>
</defs>
</svg>
