<svg width="800" height="800" viewBox="0 0 800 800" fill="none" xmlns="http://www.w3.org/2000/svg">
<g clip-path="url(#clip0_2001_5837)">
<mask id="mask0_2001_5837" style="mask-type:luminance" maskUnits="userSpaceOnUse" x="40" y="142" width="713" height="511">
<path d="M752.89 142.86H40V652.187H752.89V142.86Z" fill="white"/>
</mask>
<g mask="url(#mask0_2001_5837)">
<path d="M332.767 627.597C330.71 627.41 328.653 625.633 327.344 625.259L309.11 620.49C306.96 616.844 303.967 621.425 302.378 617.872L277.225 611.888C276.383 612.168 274.981 612.729 274.42 612.355L272.269 610.953H266.752L259.739 610.485L249.734 609.363L240.944 608.241H231.968C228.321 608.241 225.235 607.68 221.682 607.961L213.641 608.615L207.002 609.457L202.326 610.579L198.493 612.262L184.747 616.096L179.885 617.592L174.275 619.462L167.075 622.641L161.745 624.231L150.992 628.251L145.381 631.524L134.067 636.48L127.428 640.033L118.826 644.147C118.826 644.147 118.078 645.831 117.703 645.924L115.553 646.111C114.057 646.205 112.748 645.55 110.971 644.802C109.007 643.96 104.426 643.212 104.8 640.22C104.893 639.379 106.109 637.321 105.454 636.947C104.519 636.386 102.743 635.264 102.836 635.264L101.714 638.911L98.9088 635.171L99.1893 626.381C99.2828 623.296 99.9373 620.116 99.0958 617.218C98.8153 616.096 99.4698 613.571 99.5633 612.449C98.9088 609.644 98.5348 606.09 99.5633 603.285C100.405 600.948 98.9088 598.61 98.9088 596.366V514.081L97.5997 511.088L97.1322 499.681C97.1322 497.436 96.0101 495.566 96.1971 493.229C96.3841 490.985 95.262 488.927 95.1685 486.777L94.7945 469.291L93.953 465.925V451.899L92.5504 448.907L92.2699 438.06L91.2413 430.86L90.3062 425.156L89.6517 415.806L88.6231 404.211L87.4075 396.918C86.94 394.393 86.2855 392.055 86.4725 389.25C86.6595 386.445 85.7244 384.107 85.4439 381.676L84.5089 372.606L83.1998 361.572L81.9842 355.027L81.2361 344.461L80.3011 339.318L79.366 332.959L78.244 322.019L77.1219 314.819L75.7193 308.928L74.5037 300.326L72.2596 292.004L71.8855 287.328C71.605 284.336 69.9219 281.251 69.4544 278.352C68.4258 271.713 66.4622 265.822 64.5921 259.464C61.5064 249.365 58.2337 239.734 54.5869 229.822C52.2493 223.464 49.3506 217.386 45.0493 212.243C42.8052 209.625 40.9351 206.726 40 203.827L46.3584 201.303C46.8259 200.274 47.761 198.404 48.4155 197.749L52.1558 193.822C55.9895 189.801 61.2259 186.622 65.7142 183.162C66.5557 182.508 69.0804 181.666 70.1089 181.479L74.5972 180.544L85.8179 178.394C91.1478 177.365 96.3841 175.775 101.62 175.401L113.122 174.653H118.919C121.911 174.56 124.062 175.775 126.867 175.027L210.648 195.038C212.519 195.505 213.921 195.038 215.791 195.412L226.731 197.375L232.342 197.562L238.513 197.749L245.994 197.469L251.978 197.001L260.674 195.786L271.521 193.448C279.562 191.671 286.949 189.147 294.243 185.594L299.012 182.788C301.817 181.666 303.406 179.983 305.931 178.207L310.793 174.84C312.102 173.905 313.318 173.625 314.627 172.783L321.079 168.575C323.417 167.079 326.876 165.49 329.121 165.116L334.637 164.181L340.341 162.778C342.211 162.311 345.578 161.843 347.541 161.937L354.367 162.124C357.453 162.217 360.165 162.124 363.25 162.872C365.681 163.526 367.926 163.152 370.357 163.62L381.951 165.957L390.835 166.986L396.912 168.295C399.531 168.856 401.681 168.295 404.206 169.043C406.918 169.791 409.162 169.885 411.873 169.978L418.232 170.165L424.59 169.324L430.107 168.856C437.681 168.201 444.413 165.677 451.613 163.339C457.504 161.469 463.395 160.721 468.538 157.168C470.689 155.672 473.587 154.83 476.112 153.708L481.348 151.37L485.463 149.313L495.655 144.357C499.488 142.487 502.948 143.048 505.847 145.199C508.746 147.35 509.681 151.464 508.839 155.485L507.437 161.563L502.948 174.84L501.826 179.142L500.985 185.22C500.517 188.96 500.424 192.045 499.769 195.692L498.273 203.921C497.805 206.726 497.992 210.373 498.086 213.178L502.855 208.783L507.156 205.23C508.185 204.295 510.616 203.079 511.925 202.425L518.938 199.058L533.525 192.233C537.732 190.269 542.034 189.147 546.709 188.679L556.808 187.651L562.699 187.931L570.273 188.679C571.021 188.492 572.797 188.118 573.639 188.305L579.997 189.988C580.839 190.175 581.961 189.988 582.896 189.427L603.935 194.57L610.574 197.188C612.631 198.03 614.127 198.778 616.091 199.339L628.994 203.079L635.446 205.791L641.057 208.316L652.558 215.609L668.641 227.297L672.662 230.85L677.43 235.152C682.573 239.734 686.5 244.783 691.176 249.926L694.074 253.105L698.376 257.874L704.36 266.477L707.352 271.245L715.581 282.186L720.163 289.479L729.887 308.18L733.534 314.352L736.526 320.43L740.266 328.658L746.157 347.92L749.43 363.91C749.898 366.061 748.869 368.305 750.085 370.642C750.833 372.045 750.085 375.318 750.085 376.907L752.235 390.653L752.983 399.629V405.614L753.077 410.289C753.264 415.432 750.085 420.949 750.833 425.811C751.955 432.637 749.337 438.154 745.316 443.39C744.755 444.512 744.1 446.85 742.885 447.785L740.921 454.237L738.209 460.034L735.965 464.803L733.908 469.759L727.269 480.044C726.054 482.008 725.305 483.411 723.903 485.094L716.516 493.79L709.316 500.803L706.885 504.823C705.482 507.161 703.332 508.564 701.087 510.247L694.074 515.577L687.436 521.28L681.077 528.293C680.049 529.416 677.617 531.473 676.308 532.221L667.612 536.802L662.469 540.917L657.888 544.283C656.111 544.938 654.241 545.779 652.745 546.808L646.386 551.109C638.999 556.065 629.929 557.841 621.327 559.898L612.911 561.956L598.979 565.041L590.096 564.667C582.896 564.387 581.026 562.984 575.976 561.301L569.898 559.244L564.756 557.28C562.231 556.252 559.519 555.504 557.743 553.166C553.628 547.743 549.047 543.628 543.249 539.701H541.753L543.156 544.751C545.774 553.821 549.421 562.236 554.564 570.091L558.21 574.672L566.719 587.67L574.48 599.452C576.163 602.07 577.566 605.155 579.717 607.4C582.241 609.924 582.241 613.01 581.4 616.096C582.148 617.498 583.083 620.023 582.054 621.612C581.119 622.08 578.782 621.706 577.566 621.425C575.509 620.864 573.452 621.051 571.395 620.958C566.532 620.677 561.857 620.677 557.275 623.296C554.938 622.454 552.787 622.828 550.917 624.231L540.164 628.625C538.106 629.467 536.891 629.654 535.021 630.589L527.26 634.516C523.707 637.415 520.621 638.163 516.694 640.314L511.925 642.932L505.379 645.176C502.107 647.981 498.46 649.851 494.159 647.701C490.699 652.75 487.239 648.075 484.621 651.067L470.782 652.189C469.099 652.376 467.883 652.282 465.92 652.189L459.748 652.002L453.11 651.628L445.91 651.16C441.047 651.908 436.652 652.469 431.884 651.534L427.489 651.347L422.627 651.16L414.585 649.851C411.312 649.29 408.414 649.851 405.234 648.636L399.718 646.672C396.725 646.859 393.453 646.018 390.648 644.334C389.151 644.334 386.533 644.428 385.131 643.96L375.313 640.781C368.954 638.724 361.941 637.789 355.489 635.171L351.094 633.394L339.126 629.934C337.069 629.373 335.479 627.877 332.861 627.597H332.767ZM637.223 339.692C639.093 338.85 641.057 339.692 642.833 341.001L649.753 342.965C650.501 343.152 652.371 342.497 652.464 341.749C652.558 341.188 652.464 339.598 652.277 338.944L649.192 329.406C652.558 328.658 655.083 330.248 657.607 332.398C659.571 334.081 663.779 335.017 665.462 332.211C666.584 330.248 664.807 326.508 664.34 324.544L662.844 317.998L670.979 319.495L679.675 320.617C680.329 320.617 682.293 321.084 682.293 320.523C682.293 319.962 682.012 318.466 681.732 317.905L676.869 307.526C684.163 307.432 690.054 312.295 694.355 308.835L689.399 296.305C689.119 295.557 689.212 293.593 689.212 292.191C695.851 292.191 700.246 296.305 701.742 294.996C703.799 293.126 700.713 288.451 701.929 283.962L704.454 282.84C704.921 282.653 704.454 280.69 704.08 280.222L696.132 269.469C693.607 266.009 691.269 263.204 688.371 259.838L680.61 251.048L676.028 246.56L671.54 242.072L659.758 233.095L651.997 228.232C651.249 232.253 651.81 234.871 653.773 237.864C653.773 242.913 655.55 247.588 658.449 251.983C656.205 255.162 652.558 255.162 649.472 253.947L643.394 251.609L630.958 248.43C631.145 250.3 631.425 251.796 631.893 253.105L634.231 259.464C634.885 261.24 634.605 265.074 634.511 267.131H628.901L613.472 263.765L617.4 275.453L619.27 283.214C619.55 284.243 618.054 286.767 617.026 286.954C614.407 287.422 611.789 285.645 604.309 285.552C603.28 285.552 601.317 285.739 601.504 286.487L603 292.752L604.589 297.988C605.805 301.915 607.581 306.03 606.553 310.144C605.711 310.611 603.561 310.892 602.626 310.798L596.174 310.611C595.239 313.043 595.426 317.25 597.202 319.775L602.439 327.069C604.683 330.154 606.927 331.557 610.667 333.053L615.903 336.513L627.685 345.583L630.771 349.323C632.735 351.661 635.072 352.876 638.064 352.128L637.223 339.692ZM277.412 507.161L280.03 514.642L284.986 531.099L286.949 537.551L288.165 543.348L289.568 548.584C290.503 551.951 291.344 554.569 291.718 557.935C292.092 561.301 294.523 564.387 296.113 567.472C296.954 569.156 298.077 572.428 300.975 571.493C304.902 570.278 305.464 565.228 306.399 561.582L308.456 553.166L309.484 548.771L310.793 542.132L311.915 533.81C312.57 528.574 313.505 524.179 314.534 519.13L315.656 513.426L316.871 507.161L318.928 497.53L322.575 486.964L327.811 475.276L329.869 469.852C331.832 464.803 334.918 460.782 338.097 456.481L340.996 452.554C343.52 449.187 344.643 444.138 347.354 440.865L357.172 428.897L361.006 424.689C362.315 422.071 364.372 420.481 366.803 419.359C368.393 417.115 370.357 415.151 372.694 413.281C374.097 411.037 376.154 409.541 378.305 407.951L382.512 402.621L392.144 392.055L398.409 385.136C401.775 381.396 403.645 377.468 405.889 372.98L410.751 363.536L413.182 357.645C414.211 355.307 414.866 352.97 415.146 350.258L415.707 345.022L418.98 333.053C419.26 331.837 418.98 329.874 418.98 328.845L419.728 320.149L421.972 310.705L422.907 305.282C423.655 300.793 423.749 295.276 422.907 290.695L421.691 283.775L420.569 277.978L418.606 270.31C416.268 260.96 411.219 250.394 403.738 245.718L396.819 241.417C392.237 238.612 387.468 237.209 382.325 235.993L376.154 234.591C373.255 233.936 368.58 234.123 365.868 234.684L361.848 235.526L357.453 236.368L350.066 238.425L333.609 244.783L328.653 246.747C324.819 248.243 321.453 250.487 318.087 252.825C315.188 254.882 313.225 257.5 310.513 259.931L306.118 263.858C301.817 267.786 296.58 272.087 294.336 277.884C294.056 278.632 292.84 279.942 292.092 280.035C287.51 280.316 282.835 250.581 245.059 238.612C240.757 237.209 236.83 236.274 232.061 237.022C228.602 235.245 224.487 235.152 221.308 237.022C218.222 235.713 211.397 236.742 207.095 237.957L204.29 236.929C198.119 238.799 191.48 240.014 185.495 242.539C180.353 244.69 175.116 246.653 170.721 250.113L165.018 254.601C158.659 259.557 149.589 277.323 147.251 286.954L145.942 292.471L144.633 298.175C144.166 300.419 143.792 302.663 143.885 305.001C144.166 310.611 141.267 316.409 142.857 322.954L145.101 332.305C146.503 338.102 148.093 344.18 150.524 349.603L156.041 362.04L160.342 369.427L166.794 378.123L175.303 388.502L181.942 395.795L188.955 403.463L197.277 411.785L205.973 419.078L212.145 423.941L217.755 428.803L224.113 434.32C228.134 437.78 231.594 442.174 235.802 445.167C239.168 447.598 241.786 450.216 244.404 453.489L249.64 460.034L261.142 476.959L266.846 487.244L272.736 497.343L275.261 502.299L277.599 507.629L277.412 507.161ZM79.4595 272.181C81.6102 269.375 80.0206 266.944 79.2725 264.607L77.6829 259.183L75.9063 254.695C74.5037 257.687 77.2154 259.37 78.244 265.074L79.4595 272.181ZM581.213 427.681L586.356 427.494L596.08 426.559C609.171 425.25 615.436 418.517 622.449 408.138C624.319 405.427 626.189 402.247 627.311 399.255L629.929 392.055C632.922 383.92 634.324 372.699 630.303 365.874L623.01 353.437C620.859 349.79 615.716 346.892 612.257 344.461L604.122 338.757C603 338.009 600.101 336.513 598.792 336.232L575.041 331.089C563.353 328.565 544.465 341.749 545.213 351.193C545.4 353.344 546.709 355.307 545.4 357.645C543.81 360.544 543.623 364.003 542.969 367.183L541.753 372.886C541.005 376.253 541.66 379.806 542.127 383.172C539.042 384.575 536.517 381.115 536.049 379.245C535.956 378.777 534.179 378.403 534.273 378.777L534.46 380.741C534.74 384.201 535.301 388.221 534.74 391.868C534.46 393.738 534.366 396.73 534.647 398.32C539.042 406.081 545.4 411.13 551.945 416.554C555.031 419.078 557.182 421.977 561.67 422.538C563.634 422.819 566.626 425.624 568.683 425.904L581.213 427.775V427.681ZM519.873 366.341C519.873 366.341 518.751 366.341 517.816 366.622L520.06 376.066C522.21 373.167 521.836 367.65 519.873 366.435V366.341ZM99.8438 393.645L101.059 393.271C101.059 390.279 101.34 386.351 100.685 383.453L99.2828 377.468C98.0672 379.151 98.2542 381.021 99.3763 382.798L99.7503 393.551L99.8438 393.645ZM103.21 416.834L103.023 406.829L101.994 393.738C99.1893 399.442 102.462 404.772 102.462 408.045V417.208L103.21 416.834ZM548.766 509.312L554.657 510.247C555.405 510.34 557.088 509.499 557.182 508.844C557.275 508.283 556.995 507.068 556.621 506.6L550.075 497.904C549.234 496.782 550.356 493.509 551.571 493.696L558.865 494.912C559.706 495.005 561.576 494.164 561.763 493.416C561.951 492.761 561.857 491.359 561.576 490.704L555.125 476.959C554.844 476.304 554.657 474.715 554.844 474.06C555.031 473.405 556.714 472.47 557.369 472.751L564.101 476.211C564.662 476.491 567.093 476.398 567.093 475.743C567.093 475.276 567 473.873 566.813 473.499L563.914 468.169L557.649 460.595C562.231 458.444 567.093 459.567 567.561 457.509C567.654 457.042 567.561 455.639 567.187 455.172L561.296 446.663C560.828 446.008 560.828 444.045 561.389 443.671C563.821 442.081 567.187 443.203 570.366 440.959L562.792 430.206C561.389 428.242 557.088 427.213 555.031 425.811L548.766 421.51C546.054 419.639 543.623 417.021 541.286 414.497L537.265 410.102C536.704 409.541 534.927 408.606 534.366 409.073C532.216 410.569 533.618 414.59 532.683 419.639L531.468 426.091L530.719 435.255L528.569 442.829C530.72 446.943 525.39 448.065 527.727 459.005C528.662 463.4 528.008 468.543 527.727 473.218L527.166 480.886L528.008 486.122L529.317 495.379L530.719 503.514L532.029 510.527L533.525 516.418L535.769 523.057C537.171 527.358 540.07 528.854 544.091 530.257C545.493 532.034 547.457 534.371 549.888 535.867C550.543 535.213 550.543 533.249 549.888 532.595L541.099 523.431L538.668 521.093C538.107 520.532 538.855 518.195 539.416 517.634L547.925 519.317L551.197 520.158C551.852 520.345 552.974 518.101 552.319 517.727C549.795 515.951 546.709 512.771 548.673 509.125L548.766 509.312ZM103.771 417.115L102.93 417.489L104.332 428.897C104.8 432.824 104.332 437.312 104.987 441.052L106.015 446.382L107.137 450.59L107.418 464.335L107.979 463.961L107.698 449.935L106.67 442.922C106.389 441.146 105.735 439.182 105.735 437.312C105.735 433.852 106.015 430.112 105.361 427.12C104.052 420.855 104.613 418.517 103.584 417.208L103.771 417.115ZM585.14 463.681L578.501 459.193C577.753 461.156 578.314 463.681 579.81 464.99C581.306 466.299 584.953 466.392 585.047 463.681H585.14ZM471.25 563.452C473.026 564.013 474.616 562.61 474.429 561.021C474.242 560.085 472.559 558.776 471.717 559.431C470.595 560.179 470.315 563.171 471.343 563.452H471.25Z" fill="white"/>
<path d="M379.144 350.164L376.433 351.66L373.066 345.021L372.131 343.338C372.131 343.338 372.879 341.935 373.347 341.561L377.835 344.273L380.173 339.597C381.108 337.727 382.324 335.296 381.669 333.519C380.827 331.182 379.612 330.247 376.994 328.751C378.396 327.629 381.014 328.096 382.885 329.592L383.446 326.039C383.539 325.197 385.783 324.449 386.625 324.636C386.625 326.694 386.812 329.779 386.344 331.275L385.035 336.044C384.287 338.662 381.949 341.654 383.165 344.834L386.718 348.574C386.718 348.574 386.718 350.257 386.531 350.257H384.848H379.238L379.144 350.164Z" fill="white"/>
<path d="M365.025 317.902C364.744 319.398 363.716 322.577 362.126 322.203C359.695 320.053 359.415 316.406 360.163 313.601L362.313 313.414V306.868C362.22 304.624 362.874 302.473 364.277 301.258L366.428 304.437C367.737 306.401 373.814 300.977 371.851 306.214L370.448 309.86C368.765 309.767 366.615 310.515 366.428 311.543L365.212 317.902H365.025Z" fill="white"/>
<path d="M355.583 338.661C352.778 336.324 357.732 332.77 359.509 327.534L362.502 329.591L362.688 324.822C365.119 325.851 365.494 329.498 364.279 331.368C363.811 331.835 362.221 332.677 362.221 333.238V335.949C360.631 337.352 359.696 339.409 359.509 341.747L355.583 338.568V338.661Z" fill="white"/>
<path d="M325.939 339.222L323.134 333.798C324.35 332.115 324.724 331.274 325.098 330.058C328.464 326.692 327.81 323.98 330.241 321.83C330.615 321.455 332.017 322.765 331.83 323.232L330.895 325.196L330.334 330.713C325.752 332.489 330.334 337.164 325.939 339.128V339.222Z" fill="white"/>
<path d="M379.801 319.308L380.268 320.897C380.268 320.897 378.118 321.365 378.118 320.897V314.632L376.809 315.474C376.528 315.661 375.593 315.567 375.5 315.193C375.406 314.071 375.967 311.079 376.528 311.079L379.52 312.388C380.268 312.669 381.858 311.453 382.232 311.079L384.476 313.978C384.944 314.632 385.505 316.596 384.944 317.063C384.383 317.531 382.887 317.438 381.671 317.344H379.707C379.24 317.344 379.52 318.653 379.707 319.121L379.801 319.308Z" fill="white"/>
<path d="M389.338 339.505L387.188 340.253C387.188 340.253 386.627 338.383 386.72 337.915L389.993 334.082L395.416 334.736C394.575 337.822 392.424 338.57 389.432 339.598L389.338 339.505Z" fill="white"/>
<path d="M314.813 409.63C315.374 411.314 315.748 412.249 315.748 412.997C315.748 413.838 313.598 415.147 312.85 414.773C311.073 413.838 308.642 409.724 310.231 407.947C311.447 406.545 314.346 408.134 314.813 409.724V409.63Z" fill="white"/>
<path d="M355.021 308.364C355.021 308.364 354.366 309.673 354.086 309.953C353.805 310.234 352.87 310.327 352.777 309.953L352.216 307.709C351.842 306.213 351.935 304.904 352.216 303.314L353.057 299.761L353.805 304.811L356.517 303.875L355.021 308.27V308.364Z" fill="white"/>
<path d="M355.489 346.609C356.883 346.609 358.014 345.479 358.014 344.085C358.014 342.691 356.883 341.56 355.489 341.56C354.095 341.56 352.965 342.691 352.965 344.085C352.965 345.479 354.095 346.609 355.489 346.609Z" fill="white"/>
<path d="M393.918 331.837C392.89 331.276 391.581 330.435 391.394 330.809L389.617 333.52C389.149 331.65 389.149 329.219 389.43 326.694C390.646 327.068 391.768 328.284 392.516 329.032L394.199 329.967C394.199 329.967 394.199 332.024 393.918 331.931V331.837Z" fill="white"/>
<path d="M206.159 383.918C205.318 384.573 202.325 384.386 201.951 383.451L200.268 379.149C203.635 379.336 205.411 380.739 206.159 383.918Z" fill="white"/>
<path d="M376.434 332.959L373.535 336.325C372.88 335.67 371.852 333.894 371.945 333.052C372.039 332.211 373.442 330.808 374.283 330.621L376.527 330.154C377.088 330.06 376.808 332.491 376.434 332.959Z" fill="white"/>
<path d="M351.28 325.196C351.56 325.757 350.625 328.468 350.157 328.188L348.1 326.879C346.698 325.944 346.043 324.073 346.791 321.923C348.381 322.484 350.625 323.98 351.373 325.196H351.28Z" fill="white"/>
<path d="M307.708 432.824L303.593 433.198C303.406 430.112 303.967 428.149 305.651 425.437L307.708 432.824Z" fill="white"/>
<path d="M344.454 273.768L342.864 276.48C342.49 277.135 340.62 276.667 340.059 275.919C339.591 275.264 340.059 273.301 340.713 272.833C341.461 272.272 343.332 271.618 344.173 271.618C344.36 271.618 345.202 272.459 345.108 272.646L344.36 273.862L344.454 273.768Z" fill="white"/>
<path d="M399.531 296.769C399.531 296.769 398.315 298.078 398.128 297.798L397.38 296.114C397.006 295.179 396.538 293.683 396.912 292.935C397.473 291.907 399.344 291.346 401.307 291.533L399.531 296.769Z" fill="white"/>
<path d="M371.759 358.954C371.198 359.048 369.515 358.3 369.422 357.739C369.422 357.084 370.357 356.055 371.011 355.681L373.442 354.559C373.91 354.372 374.564 356.055 374.564 356.616C374.564 356.991 374.564 358.3 374.377 358.393L371.759 358.861V358.954Z" fill="white"/>
<path d="M391.676 345.771L391.489 350.072C388.497 350.072 388.497 346.799 389.525 345.584L390.741 343.994C390.741 343.994 391.769 345.303 391.676 345.771Z" fill="white"/>
<path d="M404.018 287.418C403.363 287.792 402.054 288.541 401.867 288.167C401.493 287.792 400.839 286.764 400.652 286.296L398.875 281.621C401.026 282.93 402.709 284.987 404.018 287.325V287.418Z" fill="white"/>
<path d="M379.052 279.005L378.771 283.961C377.462 283.213 376.621 281.156 376.901 279.192L377.182 277.416C377.182 277.416 378.771 276.574 378.958 277.042C379.145 277.509 379.145 278.351 379.145 278.912L379.052 279.005Z" fill="white"/>
<path d="M398.875 321.644L394.2 323.608V319.307L398.875 321.644Z" fill="white"/>
<path d="M585.609 394.109C579.063 397.288 570.835 387.657 571.489 382.514L572.331 375.969C575.977 373.257 579.998 373.537 584.206 374.379C587.853 375.127 590.751 376.53 592.808 379.989C593.463 381.018 594.866 383.449 594.866 384.665C594.772 387.096 592.902 390.649 590.938 391.584L585.609 394.202V394.109Z" fill="white"/>
</g>
</g>
<defs>
<clipPath id="clip0_2001_5837">
<rect width="800" height="800" fill="white"/>
</clipPath>
</defs>
</svg>
