<svg width="800" height="800" viewBox="0 0 800 800" fill="none" xmlns="http://www.w3.org/2000/svg">
<g clip-path="url(#clip0_2001_5853)">
<mask id="mask0_2001_5853" style="mask-type:luminance" maskUnits="userSpaceOnUse" x="79" y="40" width="632" height="720">
<path d="M710.781 40H79.45V759.604H710.781V40Z" fill="white"/>
</mask>
<g mask="url(#mask0_2001_5853)">
<path d="M335.789 95.8237C334.31 96.81 332.929 97.5991 332.239 97.3032C330.069 96.5141 326.617 91.0895 330.069 87.2429C327.899 84.5799 324.743 81.2265 321.883 79.1553L314.584 74.0265L308.666 79.2539C307.187 80.5361 302.354 82.5087 302.255 79.4511L302.058 73.5333L304.82 68.2073C300.578 66.5306 296.337 65.3471 291.8 64.3608L286.77 63.3745L279.866 62.3882C274.146 61.5005 268.721 61.9936 263.099 62.3882C257.477 62.7827 252.348 63.1772 246.924 64.6566L233.707 68.2073C230.847 64.2621 237.159 60.2183 242.88 57.7525C255.505 52.1306 265.466 50.0594 279.176 49.2703L290.124 48.6785C294.168 48.4813 297.62 50.2567 301.269 51.243L309.652 53.6101C311.132 54.0046 312.71 54.3991 313.992 54.2019C315.274 54.0046 315.768 51.4402 316.557 50.3553C318.924 47.0018 322.376 43.0566 325.335 40.1964C326.222 39.7032 328.688 40.9854 329.083 41.8731C329.477 42.7607 329.477 44.9306 329.28 46.1142L328.294 51.4402L326.715 59.9224L338.65 67.5169L343.187 71.0676L344.863 72.6457C344.863 72.6457 346.935 72.1525 347.329 71.6594L356.206 61.3032C358.277 60.8101 360.25 63.0786 361.137 64.7553L364.392 70.5744C361.828 72.2512 360.841 73.1388 359.165 74.8155L353.346 81.1279L358.77 89.7087C360.94 93.0621 361.335 97.7963 363.702 100.952C368.337 107.166 369.521 113.873 369.521 121.27V140.898C369.521 144.35 370.606 149.084 369.324 152.24C367.154 157.763 368.041 161.216 364.688 158.947C363.8 158.355 363.406 157.073 363.209 155.791L361.63 144.744C360.25 134.783 357.883 125.413 352.162 116.931L339.044 97.1059C338.354 96.1196 336.578 95.4292 335.691 95.9224L335.789 95.8237Z" fill="white"/>
<path d="M257.873 489.556C256.886 491.529 253.04 493.205 251.955 491.627C249.588 488.175 252.941 484.921 254.223 481.962L257.774 473.677L263.1 453.458L265.566 437.677L260.043 435.803C256.886 434.718 253.73 432.745 254.026 429.096C258.464 429.786 262.015 429.984 266.355 429.786C267.834 423.573 261.522 420.614 259.747 410.455L259.155 397.83C258.958 393.885 258.563 390.63 259.155 386.685L260.536 377.217L265.369 361.929C266.552 358.181 269.906 352.855 272.667 353.447C273.16 353.545 272.667 354.63 272.371 355.222L270.399 367.255L269.116 375.737L268.327 382.345C267.834 386.586 267.933 390.532 269.906 394.378L278.388 410.849C281.051 415.978 282.432 421.501 280.459 427.222L286.081 425.249C287.363 423.77 290.421 422.389 291.505 423.671C293.675 426.137 290.519 427.814 289.336 428.997L280.163 437.677C279.177 438.663 277.401 439.748 277.204 441.03L275.725 447.441L273.358 456.416L263.692 478.115L257.971 489.655L257.873 489.556Z" fill="white"/>
<path d="M294.661 323.265C293.576 327.112 291.603 328.098 287.756 328.296C281.543 328.69 274.343 324.153 275.132 317.446C275.921 310.739 281.05 303.737 286.869 302.356C287.855 302.159 289.433 303.638 290.321 304.23C295.45 307.287 297.718 312.613 296.436 317.249L294.661 323.167V323.265Z" fill="white"/>
<path d="M169.697 102.039C165.358 103.222 161.906 103.222 158.651 101.151C156.284 99.5731 153.818 95.332 154.508 92.2745C155.889 86.2581 159.637 83.2005 165.654 82.2142C171.374 81.2279 176.404 86.5539 177.292 92.3731C175.418 96.4169 173.051 99.4745 169.697 102.137V102.039Z" fill="white"/>
<path d="M371.396 350.979C367.549 352.261 363.801 352.656 359.757 352.36C357.588 349.993 355.22 346.639 355.812 343.878C357.193 338.157 359.757 333.719 364.886 331.056L372.974 333.916C374.157 335.691 376.031 340.327 375.144 342.299L371.297 350.979H371.396Z" fill="white"/>
<path d="M371.494 397.04C366.661 399.209 359.955 395.955 358.475 391.122C357.094 386.585 359.067 382.048 362.618 379.286L369.127 381.456C372.481 382.541 374.749 385.105 375.439 388.163C376.228 391.615 375.439 395.363 371.396 397.138L371.494 397.04Z" fill="white"/>
<path d="M272.37 587.001L268.228 595.286C264.381 598.245 257.379 597.259 255.406 592.623C253.926 589.171 255.11 583.549 257.181 581.083C258.957 578.913 261.422 579.209 263 580.196C264.283 579.998 266.946 579.505 268.031 579.9C269.115 580.294 270.496 582.168 270.989 583.352L272.37 587.001Z" fill="white"/>
<path d="M290.815 287.958C287.067 285.492 284.503 280.265 285.982 275.531C286.672 273.262 290.618 270.106 292.985 269.81C298.015 269.218 304.919 280.166 300.382 285.394C298.409 287.662 294.07 289.931 290.815 287.859V287.958Z" fill="white"/>
<path d="M259.942 561.262C257.871 561.953 254.419 559.092 253.432 557.416C250.079 551.991 254.32 549.131 255.306 543.706C258.956 541.635 264.183 543.706 266.649 546.665C269.509 550.216 269.312 555.344 266.156 558.994L259.942 561.262Z" fill="white"/>
<path d="M679.811 265.962C680.501 267.442 681.192 269.71 681.192 270.894L678.726 276.614C676.95 280.757 674.781 284.603 674.386 289.14L673.794 296.044C673.794 305.217 669.849 313.403 663.044 319.321C661.564 323.464 658.901 326.62 655.351 329.184C649.235 334.707 641.74 337.765 634.244 341.118L620.534 347.233C617.477 348.614 609.685 356.011 608.6 358.576L604.359 369.031C603.372 371.398 604.063 374.159 604.26 376.724L601.992 384.121C600.315 389.546 596.764 393.294 592.819 396.943L587.099 402.269L583.055 406.313C580.885 408.483 579.11 410.061 576.644 411.639L566.485 418.346C561.159 421.896 554.847 424.559 550.507 429.392L543.8 440.241L538.375 450.696L548.238 453.557C553.466 452.373 557.115 448.033 561.849 446.061L571.022 442.115L576.94 440.439C582.759 438.861 587.69 440.833 592.425 444.187C594.792 445.863 596.567 447.244 597.553 450.203C598.54 453.162 601.203 455.332 603.668 457.206C606.627 459.474 609.389 460.263 613.235 460.263C617.575 460.263 621.422 459.967 624.578 456.811L633.948 447.244L640.556 441.425L648.249 436.592C654.167 432.943 661.86 431.463 668.666 434.028L675.767 436.691C677.74 437.48 682.276 443.496 693.915 440.735L705.455 437.973C706.638 437.677 709.202 438.367 709.893 439.255C710.583 440.143 710.781 442.806 710.287 443.891C708.019 448.625 697.466 451.584 690.857 451.288L681.981 450.795C676.063 450.499 669.849 450.499 666.2 456.22L663.142 460.954C661.86 465.096 659.394 468.154 655.745 470.521L648.644 475.255C647.361 476.143 644.6 476.833 642.825 477.425C638.879 478.904 634.441 480.976 630.2 480.581L620.534 479.792L612.644 478.806L604.359 476.34L593.214 470.718C589.564 468.844 586.803 466.477 582.562 466.477C576.841 466.477 572.008 467.661 566.978 470.324L559.186 470.817C554.057 471.113 549.422 467.266 545.082 464.8L535.121 459.277C529.992 458.291 522.693 457.995 518.353 460.954C521.115 462.828 523.285 462.729 525.948 463.617C530.879 465.293 535.022 469.239 540.348 470.126C549.323 471.704 558.989 474.072 565.4 481.074L573.784 492.614L582.66 501.885C583.942 503.266 584.436 504.154 585.718 505.535L590.748 510.663L595.679 514.313L608.403 522.302C613.827 525.754 617.871 524.965 620.14 527.726L618.463 530.093C618.068 530.685 619.844 531.671 620.435 532.066L622.901 533.644C623.592 534.039 620.929 536.208 620.041 536.011L604.063 531.474C600.808 530.587 598.441 529.304 595.088 528.614C579.899 525.261 573.192 529.896 566.09 529.008L558.496 528.022L548.041 528.713L538.77 529.896L524.962 534.926C523.877 537.491 522.003 538.871 518.945 538.477L510.562 545.48C504.249 550.806 500.6 557.315 498.529 565.403C497.049 571.222 496.556 576.055 498.332 582.466L500.403 589.863C501.488 593.907 502.77 597.162 503.263 601.206L505.236 619.649C505.63 623.397 505.63 626.849 505.038 630.597L503.46 640.46L501.488 653.282C501.192 655.156 500.107 658.904 499.022 660.68L494.485 667.88L487.581 677.743L473.97 694.115C472.786 695.496 471.406 696.877 470.123 698.258L462.923 705.655C460.458 708.219 458.485 710.586 455.132 711.967L449.51 714.334C440.041 718.378 430.77 721.041 420.71 722.718L407 724.986L386.288 727.649C382.639 728.833 378.891 728.537 375.439 727.156L359.263 726.564C356.206 726.466 353.543 725.085 350.781 724.099L339.636 719.759L330.167 714.433C323.461 710.586 318.135 704.767 311.822 700.033C303.537 693.721 297.422 685.83 291.307 677.348L285.981 667.485L283.614 662.356L279.176 650.028L274.737 634.937L274.047 627.54L273.554 609.293L273.948 594.006L274.836 586.806C275.724 579.211 277.894 572.504 277.894 564.91V557.808C277.894 552.285 275.724 547.452 274.639 542.028L272.173 528.91C271.384 524.471 271.285 519.639 271.877 515.003L272.469 510.17C274.244 495.967 277.302 482.751 281.839 469.14L286.08 456.515L291.406 439.847L293.872 430.674C294.365 428.702 294.562 425.25 294.365 423.08L293.97 416.274L291.899 408.483C288.743 405.524 287.066 401.48 288.151 397.535C286.376 392.702 285.488 387.968 285.192 382.839C282.332 361.535 297.521 340.428 304.721 319.913L310.244 304.231L312.315 294.072L313.006 287.266V281.644L312.315 272.077C312.118 270.302 311.428 267.047 310.737 265.37L305.313 250.971C303.143 245.25 299 239.825 299 233.414V213.886L300.085 209.645L301.072 203.529C302.452 194.554 302.847 185.973 302.255 176.899C301.663 167.825 300.677 160.625 295.943 152.834C293.674 149.086 291.209 144.45 287.954 141.195C281.74 134.883 274.244 130.543 266.748 125.809C260.436 121.864 253.236 119.694 246.233 116.932C242.781 115.65 239.428 115.058 236.469 116.932C232.425 114.565 228.579 114.96 224.14 115.058C218.321 115.255 218.716 118.017 215.263 116.044L206.387 119.102C202.146 120.581 198.2 123.047 194.255 125.217L183.702 130.839L177.488 134.094C162.496 142.083 152.732 145.141 135.472 146.127C127.088 146.62 118.705 146.916 110.321 146.127L103.516 145.436L94.8362 144.549C91.3842 144.154 88.0308 143.661 84.4801 143.76C81.9157 143.76 79.9431 142.675 79.45 140.209C82.902 139.716 84.776 138.138 86.2554 135.376C87.1431 135.179 89.5102 136.165 90.5951 136.855C95.8225 136.362 101.74 136.264 106.869 134.883L116.535 132.121C122.749 130.346 128.568 127.288 134.288 124.527L153.028 115.354C156.677 113.579 160.524 111.705 163.779 109.338L170.19 104.801L176.502 100.165L185.477 93.7541L191.494 90.302L201.653 85.6664L207.866 83.1021C211.121 81.8199 214.573 80.9322 218.124 80.1432L229.466 77.6774C237.258 76.0007 244.754 74.8171 252.644 75.7048C255.406 74.2254 258.562 74.6199 261.521 75.6062L273.948 77.4801C278.288 78.1706 282.628 78.6637 286.672 80.2418C296.732 84.187 310.737 91.387 316.359 99.4746L319.417 103.913C327.307 111.507 334.507 119.595 338.847 129.754L343.187 142.379L345.356 149.086L347.23 156.68C348.513 162.204 348.513 167.825 348.315 173.645L347.921 184.79L347.526 192.582L346.737 202.839V213.787C346.737 217.634 347.428 220.79 348.808 224.34L351.373 230.653L357.291 241.699L360.841 249.886C366.463 262.905 363.406 267.146 364.293 273.458C365.082 279.277 364.688 284.307 363.702 290.028C362.913 294.861 362.222 299.891 360.447 304.428C360.447 308.176 359.855 311.628 358.671 314.981L355.121 326.718L350.88 339.54L350.189 343.485L349.499 347.529L347.428 359.858L346.836 365.085C346.145 371.496 347.23 380.669 349.893 386.291L352.754 392.505L354.726 399.211L357.981 406.313L361.729 415.189C363.11 418.444 363.997 421.896 364.392 425.447L365.773 436.888L366.858 447.935C367.154 450.894 366.167 455.135 365.477 457.995L362.814 469.337L357.882 486.4L356.304 494.587C354.924 502.082 353.148 508.888 353.641 516.68C353.839 519.047 353.247 521.808 352.852 524.176C353.345 527.134 354.726 531.967 352.852 534.729C348.513 541.14 348.414 552.581 348.71 561.162L349.203 573.688C349.499 581.282 352.655 587.891 356.107 594.696L363.208 608.997L369.324 615.803C372.085 618.86 374.945 622.312 378.496 623.891C382.343 625.567 384.611 623.2 386.584 620.734C390.134 616.395 392.008 612.351 392.008 606.729V598.543C392.008 595.682 391.121 592.822 389.839 590.356L386.485 584.044L382.639 577.633C380.074 573.392 378.299 568.362 378.891 563.332C379.285 559.781 379.482 555.244 381.159 552.384C382.441 550.115 383.329 548.34 384.217 545.874L386.88 538.378L390.726 528.713C391.515 526.641 391.219 523.485 391.219 521.217C391.219 515.792 390.529 511.452 389.247 506.422C387.57 499.419 390.923 492.219 395.855 487.091C402.562 480.187 407.789 471.902 408.085 461.94C408.282 455.233 407.789 448.724 405.126 442.806C402.66 437.381 400.293 432.45 396.447 427.913L391.515 422.094C389.444 419.628 387.274 418.148 384.907 415.978L379.187 410.85C379.187 410.85 379.68 408.581 379.976 408.581L402.167 412.526L415.581 414.894L423.471 415.88L431.46 416.866L454.737 417.557C458.584 417.655 462.825 419.628 466.474 420.91C470.123 422.192 472.885 424.165 475.647 426.236C483.438 431.759 481.762 434.62 484.425 438.762L488.764 445.37C490.934 448.724 492.512 451.683 495.964 453.754C499.91 456.121 503.658 459.573 508.392 460.263L514.112 461.052C514.112 461.052 515.592 460.757 515.986 460.658C517.762 459.967 510.463 457.403 507.603 452.373L502.277 442.905C499.121 437.283 495.077 430.773 489.455 427.617L482.847 423.968L476.14 420.318C473.871 419.135 471.899 417.063 470.518 414.795C466.77 414.499 462.43 414.203 458.88 412.822L452.764 410.455C445.564 407.694 443 412.625 440.732 409.962C438.167 406.905 442.507 405.721 445.269 398.62C449.017 389.25 445.959 381.261 439.154 374.554C433.334 368.833 428.502 361.929 426.134 354.039C423.767 346.148 426.529 337.469 430.573 330.269C433.828 324.647 439.449 321.096 444.677 317.348L450.299 310.543C451.877 308.669 453.159 306.795 453.849 304.428L456.611 294.664C459.669 283.814 450.102 264.976 442.704 254.718L433.433 241.995C429.882 237.064 426.43 232.724 421.203 229.173C420.315 228.581 419.625 226.609 420.118 225.82C420.611 225.031 422.682 224.143 423.471 224.636L436.786 233.414C444.48 238.543 450.792 244.658 457.301 251.168C462.43 256.395 467.362 261.228 471.603 267.442C475.252 272.866 478.014 277.601 479.395 284.11C480.48 288.943 480.775 293.48 479.69 298.609C478.606 303.738 478.112 309.951 475.055 314.488L464.896 329.381C461.838 333.918 459.57 339.244 458.781 345.162C457.893 351.77 459.471 359.858 464.206 364.888L468.545 369.524L471.701 372.187L476.238 361.732C477.817 358.083 480.874 355.124 483.932 352.658C490.244 347.628 497.247 347.727 507.208 341.513L513.126 337.864C516.479 335.792 519.734 332.439 521.707 328.987C523.679 325.535 525.455 319.518 524.863 315.869L523.186 304.724L521.214 295.058V289.239C521.214 282.236 523.679 277.305 528.414 272.669L535.515 265.864L546.562 257.184C551.789 253.042 555.636 247.913 558.496 242.094L560.863 237.261L562.54 232.428C566.781 219.803 551.986 207.672 553.86 193.864C554.452 189.623 554.255 184.888 557.214 181.634L561.06 177.393L563.033 182.028C559.186 190.412 561.553 199.091 568.359 204.812C577.63 212.603 577.729 216.845 577.926 227.595V233.612L578.123 239.825C579.701 245.546 578.419 254.916 576.052 258.96L565.992 276.812L558.299 289.535C555.241 294.565 553.071 299.891 554.353 305.809C556.03 313.601 556.819 322.083 553.663 329.677L550.507 336.976L547.055 344.176L539.362 355.025C537.093 358.181 533.345 362.324 530.09 364.296L518.748 371.299C513.323 374.653 511.055 378.598 508.885 384.614C507.504 388.658 506.222 392.702 505.532 397.14L503.855 407.398L501.784 419.036L501.389 421.206C501.29 421.798 502.474 422.587 503.066 422.784L510.759 424.954C511.844 425.25 514.408 424.461 515.493 424.066C523.877 425.743 526.836 413.217 527.329 403.453C527.625 396.351 535.219 385.107 542.518 384.516C548.929 384.022 555.833 385.502 561.553 381.951C565.794 379.387 570.726 374.948 573.192 370.609C576.545 364.691 577.63 358.083 580.589 352.165L583.646 346.247L589.071 339.442C594.101 333.129 599.625 327.409 607.614 325.042C613.433 325.239 618.956 325.239 624.479 323.562L630.298 323.069C636.216 321.688 641.542 319.025 646.572 315.77C653.772 311.135 657.52 303.836 660.381 295.847C661.071 293.973 661.071 292.099 661.367 290.225C663.142 279.77 670.441 271.979 679.811 266.554V265.962ZM230.847 107.661C234.003 101.349 234.102 91.4856 233.411 84.5815C228.381 84.2856 224.633 85.7651 221.379 88.1322L221.083 95.4308L220.392 107.957L230.847 107.562V107.661ZM319.811 164.768L323.165 163.584C323.756 163.387 323.559 161.513 323.461 160.921L322.573 156.779L317.148 151.551L310.935 156.68L313.795 163.288C314.88 165.754 317.543 165.557 319.811 164.669V164.768ZM322.474 215.365C326.025 214.872 327.307 208.954 326.222 206.686C324.841 203.727 322.376 201.458 319.713 201.656C317.346 201.853 313.795 203.234 313.598 206.291C313.4 210.335 317.74 216.055 322.474 215.365ZM331.351 266.16L336.578 265.568C339.143 260.34 337.663 251.661 331.252 249.787C326.124 249.59 322.277 257.283 323.954 262.214C324.94 265.173 327.899 266.554 331.351 266.16ZM329.378 315.968C333.028 311.529 326.222 301.173 323.855 302.554C320.798 304.329 318.726 307.979 317.839 311.431C317.247 313.896 319.91 316.559 321.685 317.546C323.559 318.532 327.8 317.842 329.378 315.968ZM325.039 347.628C329.181 341.513 325.729 332.636 318.726 329.973L313.4 333.327C311.822 334.313 310.639 335.299 309.751 336.976C307.187 341.907 307.778 347.332 312.315 350.094C316.458 352.559 321.784 352.264 324.94 347.628H325.039ZM495.373 353.053L494.485 352.362C494.978 352.559 489.948 354.039 488.469 357.195C492.019 358.773 495.767 353.348 495.373 353.053ZM308.863 379.387L313.598 374.653C313.4 371.003 313.104 365.677 310.047 363.211L305.313 359.365L300.184 363.803C297.521 366.072 296.337 368.833 296.929 372.187C297.324 374.751 299 378.499 302.354 378.795L308.962 379.387H308.863ZM311.822 479.2C315.472 472.592 316.556 464.899 311.526 461.151C309.751 459.77 305.411 458.784 303.537 460.362C301.269 462.236 299.592 466.674 299.395 469.732C299 476.241 305.51 481.173 311.822 479.2ZM309.554 601.797C311.23 598.641 310.737 595.584 309.356 592.921C307.482 589.469 305.313 588.384 301.17 589.567C299.395 590.06 296.633 591.343 296.041 592.822C294.463 596.669 295.746 604.954 301.565 606.137C304.82 606.828 307.778 605.151 309.554 601.797ZM425.247 700.329L431.756 698.06C433.334 696.877 435.011 695.89 436.688 695.003L445.86 690.268L454.638 683.66C460.951 678.827 465.981 673.206 470.617 666.597L476.633 658.016C482.748 649.238 486.595 639.77 488.567 629.019C489.751 622.608 488.567 616.395 488.074 609.589C487.778 604.954 486.891 598.543 485.115 594.499C484.721 593.611 481.269 593.513 481.367 594.499L481.564 597.852C482.255 607.222 482.452 616.789 479.986 626.06L475.844 641.249C475.154 643.912 473.28 646.082 472.096 648.351L469.433 653.48C467.756 656.734 466.869 657.918 464.206 660.581C461.937 662.849 460.26 667.978 454.343 673.896L438.858 689.184L433.63 693.425L425.247 700.427V700.329ZM323.756 664.822C325.236 663.441 326.222 660.186 327.011 658.51C329.378 653.775 329.28 649.83 327.209 644.997C326.124 642.433 325.039 639.08 322.573 637.206C317.937 633.754 310.244 634.543 307.088 639.178L305.313 646.28C304.326 650.323 306.989 654.17 308.863 657.425C312.907 664.526 319.811 668.471 323.756 664.822ZM422.485 656.34C424.655 653.677 425.345 651.31 425.444 648.548C422.781 650.126 420.808 653.282 422.485 656.34ZM363.603 701.216C368.239 701.611 372.184 698.751 372.381 694.608C375.932 690.959 375.636 685.929 373.367 681.786L370.704 676.263C368.633 671.923 361.926 669.852 361.039 670.74L358.573 673.304C357.981 673.008 355.417 671.825 354.332 672.121C347.724 674.093 348.414 682.477 344.567 685.83C344.666 691.353 347.724 696.285 352.063 700.132C355.121 702.795 359.362 702.992 363.603 701.216Z" fill="white"/>
<path d="M400.984 750.63C405.126 750.038 409.269 750.235 413.115 751.419C413.411 752.997 413.608 754.871 413.017 755.66C412.228 756.646 410.058 757.436 408.776 757.534L399.11 758.422L387.373 759.507H370.704L361.039 758.52L353.05 757.435L343.384 755.364L337.269 753.589L328.984 751.715L316.754 747.868C303.044 743.529 290.124 737.019 279.077 727.649L264.085 712.658L256.491 702.005C252.053 695.89 248.601 688.69 246.628 681.392L243.077 668.175L240.414 653.874L237.948 644.011L236.962 638.981V621.326C239.329 620.932 240.71 619.945 241.894 618.367C242.485 617.48 244.951 618.367 245.346 619.354C245.642 620.241 244.951 622.115 244.359 623.299L245.346 633.359L248.798 650.718C248.995 651.704 248.995 654.071 249.39 654.86L252.94 661.764L256.491 670.148L260.436 677.545L267.636 687.408C269.116 689.479 271.68 692.636 273.554 694.214L285.488 703.978L296.831 712.164L302.255 716.011L317.839 725.479L323.263 728.931L329.28 731.496L335.198 733.764L349.302 739.879L365.773 745.699L373.269 747.868C381.455 750.236 393.192 751.814 401.082 750.63H400.984Z" fill="white"/>
<path d="M379.088 289.239C376.524 296.242 380.173 305.217 377.411 309.162C373.86 309.557 372.381 305.907 371.888 303.343L369.126 287.858C368.239 282.631 369.915 277.403 371.099 272.472L374.945 255.705C376.228 250.182 376.425 243.672 373.466 239.036L364.787 225.425C360.841 219.212 356.995 208.461 359.165 202.839L363.702 190.412C366.365 183.31 373.959 172.067 377.806 174.039C378.693 174.532 379.778 177.097 379.482 178.083L374.551 192.582L371.197 203.234C369.817 207.573 372.282 215.562 374.945 219.705C384.71 234.795 395.066 238.445 392.008 254.324C391.417 257.283 391.318 260.439 389.839 263.201L385.104 272.275L379.088 289.14V289.239Z" fill="white"/>
<path d="M459.077 749.153C451.482 750.928 442.112 749.054 439.548 742.643C436.984 736.232 439.943 726.764 445.762 723.706C451.975 720.353 458.189 721.043 463.219 725.087C467.855 728.835 471.11 735.147 470.419 741.459C470.222 743.629 466.869 747.377 464.896 747.87L459.077 749.251V749.153Z" fill="white"/>
<path d="M489.257 723.407C485.311 723.604 480.577 723.407 477.914 720.448C473.278 715.221 473.574 708.514 476.435 702.497C478.604 697.96 482.057 693.128 488.172 692.93C497.147 692.634 504.15 702.497 503.065 711.276C502.769 714.136 501.881 715.122 500.402 716.897C497.344 720.547 494.977 723.012 489.158 723.308L489.257 723.407Z" fill="white"/>
</g>
</g>
<defs>
<clipPath id="clip0_2001_5853">
<rect width="641.095" height="719.999" fill="white" transform="translate(79.45 40)"/>
</clipPath>
</defs>
</svg>
