<svg width="800" height="800" viewBox="0 0 800 800" fill="none" xmlns="http://www.w3.org/2000/svg">
<g clip-path="url(#clip0_2001_5848)">
<mask id="mask0_2001_5848" style="mask-type:luminance" maskUnits="userSpaceOnUse" x="40" y="164" width="717" height="470">
<path d="M756.956 164.62H40V633.083H756.956V164.62Z" fill="white"/>
</mask>
<g mask="url(#mask0_2001_5848)">
<path d="M190.924 449.573L187.324 442.373C186.585 440.988 184.739 438.588 183.631 437.481L173.477 426.958L172.093 423.634C169.97 418.557 167.847 413.85 167.477 408.311L166.462 393.173C166.185 389.573 160.554 388.188 157.785 387.45C152.8 386.065 149.754 388.557 146.616 392.896L141.908 399.265L132.216 413.111C131.57 414.034 130.001 415.327 129.354 415.973C127.97 418.281 126.031 420.034 123.354 421.05L104.062 428.25L96.2158 430.65L90.3081 432.311C86.8004 433.327 83.7542 435.265 80.6157 436.927L70.4618 442.465L61.4157 445.788C59.5695 446.435 57.5387 447.358 55.5079 447.727L48.4925 448.835C45.631 449.296 42.9541 449.573 40.1848 447.45L48.6772 442.835C53.0156 440.527 56.708 437.85 60.5849 434.896C63.3541 432.773 66.2157 431.204 68.5234 428.342L74.5234 423.081C79.8773 415.788 85.4157 409.788 92.985 404.896L101.754 399.265C104.616 397.419 107.477 395.573 109.6 392.619L116.062 383.573C119.293 379.05 122.985 374.619 125.662 369.819C129.539 362.896 133.6 356.619 138.677 350.527C140.339 345.911 136.277 341.48 133.139 338.988C127.877 334.834 124.831 328.742 123.17 322.28C122.431 319.326 122.708 315.173 123.17 312.126L124.185 303.634C124.739 302.157 125.016 300.865 124 299.48C124 279.08 113.57 278.157 103.416 271.603C98.5235 268.465 95.4773 262.742 95.0158 257.295L94.0927 248.249L93.4465 244.003L91.5081 238.465C87.5388 227.018 80.8927 225.818 74.8003 218.526C74.1542 217.788 76.3696 216.311 77.2003 216.034L80.6157 215.111C84.1234 216.403 87.8158 218.065 91.1388 220.003L98.1542 224.065C100.647 225.541 102.4 227.48 104.431 229.511L108.493 233.665C112.924 238.188 113.939 244.28 116.524 249.726L120.493 258.126C121.231 259.603 123.17 262.649 124.462 263.388L130.093 266.711C142.093 273.819 150.862 281.665 151.877 296.249C152.247 301.696 156.954 306.403 160.647 310.003L166.647 315.819C167.2 316.373 169.231 316.834 169.877 316.465C170.524 316.096 171.354 314.988 172.093 313.973C172.093 305.48 177.077 298.742 184.554 295.419C189.354 291.172 194.985 287.572 197.201 281.572C199.047 276.403 199.601 270.219 203.385 265.972C210.77 257.757 216.124 256.834 220.37 252.403C224.339 248.342 228.124 244.465 230.708 239.48L233.016 234.957C235.508 230.065 237.539 224.803 238.278 219.172L239.478 210.034C239.847 206.895 239.478 204.311 242.431 202.464L244.278 196.372C245.201 193.234 246.493 190.649 249.17 188.157C251.478 191.48 250.185 198.126 249.17 202.557C247.878 208.28 250.832 213.541 250.924 218.065L251.108 225.357L254.616 226.188C255.447 226.372 255.447 228.772 254.893 229.603C251.201 235.049 254.062 242.526 245.108 257.111L242.801 260.895C238.831 267.357 234.124 273.449 228.031 277.603C223.785 280.465 222.678 284.711 221.939 289.326L221.016 295.696C220.647 298.096 218.339 302.619 216.401 304.28L205.693 313.696C201.908 317.019 198.401 321.726 197.847 326.988L196.924 335.85L198.216 340.742C198.677 342.496 202.554 343.788 204.308 344.619C208.647 346.742 212.893 346.742 217.231 345.08L224.708 342.126L237.724 337.88C243.816 335.85 251.939 336.588 258.308 338.803L262.924 340.373C266.524 341.665 270.216 343.142 274.001 343.88L277.97 344.619C282.678 345.542 288.216 345.634 293.109 344.619L298.924 342.68L309.632 338.434L322.832 333.819C326.155 332.619 328.555 330.957 332.247 328.742L334.37 334.373L326.524 341.665L319.324 347.019C311.478 352.834 301.601 357.173 292.093 359.296L279.17 362.25C275.293 363.173 270.308 362.25 266.155 362.896C262.001 363.542 259.416 362.619 255.355 361.88L248.801 360.68C246.216 360.219 242.708 360.403 240.216 360.68L235.139 361.327C233.385 361.603 232.185 361.88 230.616 362.711C227.662 364.465 224.247 365.85 221.939 368.342C218.154 372.496 214.001 376.742 208.001 377.019C205.139 377.204 201.816 377.757 199.97 379.511C199.047 387.173 196.831 393.819 193.877 400.834C192.401 404.342 195.262 411.265 198.124 415.881L201.447 421.327C202.647 423.265 203.57 424.834 205.047 426.681L208.278 430.927C211.324 436.834 212.247 443.204 213.724 449.665C215.385 451.881 215.478 454.742 215.293 457.604C217.416 462.311 215.108 470.25 212.616 475.604C211.601 477.635 211.139 479.942 211.231 482.25C211.231 484.742 210.124 486.404 209.662 488.804L208.37 494.619C207.631 497.85 207.724 502.373 208.37 505.142L211.231 515.665C211.601 517.142 212.893 519.081 213.908 520.558C214.462 521.758 214.37 524.619 214.093 526.373C208.924 522.496 206.154 517.789 203.201 512.619L200.431 507.819L197.477 499.604C196.093 495.819 194.524 491.665 193.877 487.696L193.139 482.896C192.585 478.927 193.508 475.05 193.508 471.081L193.693 456.681C193.693 454.742 192.401 451.419 191.477 449.388L190.924 449.573ZM288.678 354.034L288.401 352.926L281.201 353.111L282.401 355.327C282.401 355.327 283.693 354.773 284.062 354.403L288.678 354.034Z" fill="white"/>
<path d="M464.802 519.731C461.663 514.839 460.832 508.562 459.355 503.024L455.94 490.747L453.171 484.285L446.248 481.423L438.494 487.516L432.217 492.224L426.678 495.547C423.263 497.577 420.124 501.177 417.909 504.408L413.755 510.5C409.971 516.039 407.201 520.839 405.724 527.208C405.171 529.793 402.863 532.47 401.663 534.501L394.463 546.87C390.955 552.87 390.678 560.347 387.54 566.716C385.324 569.578 382.278 572.531 379.417 574.839C377.017 576.778 376.463 578.255 374.894 581.116L369.17 587.947C364.463 593.578 364.278 597.639 360.401 601.147C351.817 608.901 354.309 617.116 347.201 618.593C346.37 614.347 347.017 610.47 349.047 606.685C348.77 602.162 349.417 597.916 351.263 593.762L354.955 577.239L355.786 571.424L357.54 563.301C358.37 559.331 360.309 555.916 362.34 552.224L367.97 542.162C374.894 533.485 379.324 524.254 381.909 513.547L385.694 498.408C386.247 496.008 386.34 494.624 387.263 492.593L390.032 486.777L395.571 475.331C397.601 471.27 403.786 466.377 405.078 457.054L406.094 449.946C406.278 448.47 403.14 446.993 401.94 445.977L396.401 441.085C394.094 439.054 391.786 436.654 388.647 435.731L373.601 431.023C367.14 428.993 353.755 434.9 343.417 421.608L338.34 415.054L332.709 408.869L328.278 405.177C324.216 401.762 320.986 398.346 316.001 396.131L298.278 388.377L288.678 383.669C286.739 382.746 284.893 379.423 287.109 377.669C288.586 376.654 292.647 377.669 294.493 377.854C303.447 378.685 311.201 381.639 318.863 386.439L334.74 396.5L342.493 402.039C347.386 405.454 358.832 410.716 363.724 410.992C367.878 411.177 372.032 409.608 376.001 409.146C382.278 408.316 387.632 410.531 391.232 415.516L410.155 426.316L409.694 422.346L411.171 421.054C411.171 421.054 410.986 419.116 411.171 418.469C412.278 412.931 414.863 408.223 417.355 403.423C417.355 401.669 417.817 399.546 418.371 397.885L421.232 390.223C422.155 387.915 420.863 384.039 420.586 381.454L419.571 372.408L418.74 366.777L417.54 359.115C417.263 357.362 416.709 354.315 416.801 352.746L417.355 347.023L421.232 326.992C422.248 321.915 423.817 317.484 425.386 312.592L428.617 301.977V266.438L427.232 261.454L425.109 253.607L423.817 248.161C423.817 247.515 426.217 246.868 426.678 247.238C427.14 247.607 427.878 248.438 428.34 249.268L432.032 255.361C433.509 257.854 435.817 259.238 439.048 260.254C436.278 263.484 438.032 266.992 438.494 270.407L439.417 276.684L442.555 290.623L445.14 298.377C446.063 304.469 446.34 310.284 444.863 316.192C447.263 321.084 443.848 323.577 445.417 327.361C443.755 329.577 442.463 332.254 442.74 335.485C442.925 337.977 440.525 344.069 442.001 352.1C447.448 359.946 449.109 370.654 446.986 379.977C447.355 385.331 450.863 390.777 452.063 396.223L455.848 412.931C456.771 417.269 456.586 421.054 460.002 424.654L467.294 432.223C470.248 430.285 472.74 427.239 475.417 424.654L484.002 416.069C486.402 413.669 490.74 413.577 493.786 412.839L505.232 410.254L519.817 407.854L527.294 405.546C533.479 405.269 536.248 401.854 540.402 398.716L558.863 384.592C564.956 379.977 571.879 372.5 577.325 379.239C577.602 379.977 575.479 381.362 574.74 381.454L559.971 396.039L555.817 399.454L550.279 405.546L540.309 416.254C537.909 418.839 534.309 421.146 531.079 422.716L521.848 427.239C510.863 432.593 501.725 431.393 496.555 434.716L488.894 439.608C485.479 441.823 483.725 446.993 481.14 450.039L477.632 454.193C476.617 455.485 473.571 457.146 473.017 458.623C471.909 461.67 473.294 464.254 474.586 466.839L475.048 473.762L477.355 480.685C477.909 482.347 479.755 485.485 479.755 487.147L480.032 503.024C480.032 505.239 482.709 507.731 484.094 509.208C488.802 514.47 494.156 517.701 499.971 521.577L508.556 527.301C512.617 530.07 517.417 538.101 519.079 543.178L522.771 554.347C520.648 558.131 523.602 559.516 522.956 563.301C524.34 566.716 524.34 570.224 523.14 573.731C523.509 575.024 523.417 576.501 523.325 578.255L522.679 586.562L520.002 599.393L519.171 605.855L518.156 613.793L517.14 618.87L516.217 623.578C515.294 628.285 513.448 633.27 509.848 632.347C509.663 630.224 510.217 628.193 510.494 625.793L511.325 619.055C511.971 614.255 508.279 610.008 508.648 604.839C508.832 601.793 508.002 599.393 507.909 596.532L507.448 581.67L506.432 574.747L505.417 569.301C503.479 559.147 498.309 549.824 492.125 541.793C487.786 536.162 472.74 531.362 464.709 518.993L464.802 519.731Z" fill="white"/>
<path d="M648.587 335.021C643.141 329.851 634.463 329.205 628.74 322.836C624.678 318.313 622.463 311.205 620.986 305.759L619.324 303.821C619.324 303.821 617.755 304.836 617.201 304.928L611.293 305.205C603.355 305.482 600.493 302.528 594.309 314.805L591.079 321.267C588.679 326.067 580.37 334.098 575.662 335.944L558.31 342.867L552.493 345.636C549.724 346.928 547.139 348.036 544.739 349.605L536.155 355.328L530.433 359.944L526.555 362.805L518.339 370.467C516.401 372.313 515.016 373.513 514.739 376.559L511.971 377.113L504.955 377.852C504.493 371.852 508.463 369.452 511.325 365.39L522.679 349.421L532.001 339.544C533.385 338.067 534.033 336.682 535.694 335.667L544.647 330.221C548.616 327.821 552.032 325.051 555.539 321.913L562.094 316.005C565.879 312.59 563.109 300.774 574.647 293.851L587.663 286.097C588.033 281.297 595.509 280.097 593.293 277.513C592.739 276.867 591.355 276.682 590.063 276.405C584.155 275.39 579.079 271.42 573.448 269.113C569.202 269.944 564.31 271.697 559.602 270.774C555.171 269.944 549.632 267.728 546.216 264.497L538.647 257.574C534.401 253.697 530.063 251.851 524.34 251.205L516.678 250.374L505.785 248.436L493.416 246.22L486.586 243.913C486.125 243.728 485.109 242.528 485.294 242.067C485.479 241.513 486.494 240.774 487.417 240.313H519.355L526.185 238.928C531.17 237.913 535.878 236.897 540.955 237.543L546.955 238.282C552.124 238.928 556.462 241.605 560.893 244.19L565.694 246.959C571.14 248.99 576.678 246.959 581.939 245.851L591.355 243.82C594.032 243.267 596.893 244.097 599.94 244.19L606.402 244.467C605.664 241.236 605.11 239.113 605.294 236.528L606.216 222.682C606.493 219.174 608.986 216.036 611.109 213.082L616.002 206.159L619.693 199.882C624.678 193.236 627.17 186.774 628.278 178.651L631.693 164.62H639.079L638.71 192.036L637.694 201.543L636.678 208.282L633.355 221.666L630.955 231.913C630.401 234.313 632.709 238.743 633.355 241.328C634.555 246.682 636.771 251.02 640.648 254.805H650.618L656.709 256.097C660.124 256.743 664.187 258.867 667.787 257.574C674.341 255.174 678.956 250.19 684.587 246.22C687.633 244.097 691.972 242.99 695.202 241.513L697.141 242.343C699.725 240.036 702.587 240.22 705.725 240.497L711.724 241.051L718.74 242.067C728.432 243.451 739.878 240.59 747.448 234.497C749.109 233.205 751.602 230.713 753.726 232.559L756.864 235.328C753.264 240.405 747.633 242.343 742.556 245.482C735.818 249.636 729.449 252.59 721.51 253.974C716.802 254.805 712.001 256.19 707.755 258.405L699.449 262.559C697.141 263.667 696.125 267.82 691.879 270.405L685.325 273.728L674.433 279.082L662.063 282.959C657.447 284.344 652.741 283.79 649.048 287.851V297.359C649.048 301.051 650.617 305.298 652.37 308.528C654.032 311.574 657.171 312.867 659.941 314.713L664.371 317.759L675.171 328.374C675.909 329.944 677.11 332.898 677.387 334.559L678.679 341.667C677.572 345.728 676.832 349.051 679.509 352.836C680.34 353.944 681.818 356.436 682.925 357.359C687.172 360.775 692.248 364.836 694.187 370.282L696.495 376.929L703.418 391.605L706.925 399.175C708.033 401.575 708.309 404.344 708.771 407.113C709.048 408.59 709.51 410.436 708.956 411.452C708.218 412.652 705.078 412.929 704.801 411.821C704.063 408.406 702.587 405.452 700.741 402.682L696.125 395.575C693.448 394.929 691.787 393.729 691.141 390.867L688.094 388.559C688.094 385.79 687.448 384.775 686.156 383.113C683.571 379.79 681.171 377.113 676.832 375.821C674.709 375.175 672.495 373.79 670.464 372.682C661.879 367.975 657.541 359.482 656.618 349.975C656.248 346.19 654.586 340.928 652.094 338.528L648.31 334.928L648.587 335.021Z" fill="white"/>
</g>
</g>
<defs>
<clipPath id="clip0_2001_5848">
<rect width="720.002" height="470.771" fill="white" transform="translate(40 164.62)"/>
</clipPath>
</defs>
</svg>
