<svg width="800" height="800" viewBox="0 0 800 800" fill="none" xmlns="http://www.w3.org/2000/svg">
<path d="M463.464 729.815C459.391 734.173 460.906 746.963 451.622 756.531C450.201 758.047 448.212 759.184 446.033 757.857C445.843 755.678 445.275 752.173 446.033 749.994L448.022 742.984C448.875 739.952 449.159 738.247 448.969 735.121L448.117 718.352C447.927 715.32 446.601 713.142 446.317 710.205L445.559 700.257L443.096 695.9C441.012 692.3 440.727 688.226 438.548 684.815C436.369 681.405 434.38 677.047 431.443 674.394L425.854 669.373L417.801 660.563C410.033 652.036 402.454 643.415 399.517 631.763L398.285 626.741V610.826C398.285 609.689 399.611 607.131 399.517 605.805C397.717 591.878 405.959 577.194 405.864 572.268L405.39 559.573L404.348 554.362C403.685 550.857 401.885 547.257 399.706 544.51L394.401 537.689L385.59 526.794L378.864 515.236L373.18 513.436C368.917 512.11 364.464 511.92 360.58 509.741L350.632 504.152L348.832 510.12C348.264 511.068 347.317 513.057 347.601 514.194C350.822 524.425 347.222 534.752 342.769 544.32L340.117 550.004C336.517 553.889 332.064 557.489 327.706 560.52L321.359 563.362L303.738 571.32L294.548 576.626L284.696 585.057L281.474 588.183C275.98 593.678 273.232 604.194 272.569 612.72L271.906 621.152C271.527 625.889 271.717 630.341 269.917 634.794L267.453 640.668C267.169 641.426 266.79 643.415 266.695 644.362L256.559 661.036L250.022 670.036L243.39 677.142L239.601 681.31C238.464 682.542 237.043 683.394 235.527 684.247L230.222 687.278L222.643 692.299C220.938 693.436 219.99 695.142 217.906 695.142C216.58 695.142 213.927 693.057 214.211 691.636C215.159 686.899 219.327 684.626 222.359 681.499L227.095 675.72L232.685 667.194L235.716 661.889C237.801 658.194 238.843 655.731 238.085 651.278C237.706 649.194 239.885 645.215 239.885 643.131V637.447L239.127 628.92L237.516 620.678L236.19 615.752L234.864 609.973C233.632 604.762 233.064 599.836 234.58 594.341L238.18 586.573C239.601 583.447 239.98 580.889 242.253 578.426L245.664 574.731L249.832 569.899C252.201 567.152 255.801 564.878 259.022 563.078L273.327 554.836L279.769 550.478C282.138 548.868 284.506 545.647 286.306 543.373L289.148 539.773L292.748 536.078C294.643 534.089 296.727 530.394 297.864 527.552C299.759 523.099 300.232 518.078 301.653 513.72C303.548 508.415 303.169 504.152 302.032 498.941L300.611 492.404C300.232 490.794 299.664 487.194 298.053 486.72L291.99 484.92C289.811 484.257 285.359 483.878 282.99 484.352L272.38 486.246C269.727 486.72 265.369 489.562 263.474 491.552L259.401 495.815L255.706 500.078L251.917 503.868L247.843 508.415C243.959 512.773 239.316 517.036 233.348 518.457L224.159 520.541C219.706 521.583 214.306 521.11 209.759 520.541L201.895 519.499C191.664 519.31 182.38 521.015 172.716 524.141C163.053 527.268 155.19 532.004 147.706 538.541L144.011 542.236L138.326 549.341L131.979 557.678L128.474 561.278C126.769 564.973 125.253 569.236 122.695 572.268C121.179 574.162 121.084 575.394 119.947 577.573L110.947 594.341L109.716 598.32C109.432 599.268 106.969 599.931 105.832 599.457C104.505 598.889 102.421 596.141 102.326 594.72C102.137 590.552 101.474 586.099 102.611 582.594L104.695 576.247L110.379 556.352L112.747 549.815L117.2 540.531C118.147 538.541 119 537.12 120.705 535.415C122.695 534.278 123.832 532.573 124.021 530.299C126.295 528.025 128.095 525.373 129.326 522.341C130.369 519.025 132.832 516.847 136.053 515.615C137.474 512.299 139.842 509.836 142.969 507.846L152.632 500.173L162.958 492.215C166.18 489.752 168.548 487.952 173.001 487.762L177.832 487.573L185.98 486.246C189.011 485.773 191.001 485.678 194.127 485.678C197.064 485.678 200.664 484.162 203.885 483.973C212.127 483.404 220.085 480.089 226.243 474.689L229.748 470.425C236.664 461.994 237.138 453.373 241.59 448.636C243.674 446.457 243.959 444.846 245.285 442.194L249.738 433.194L245.285 432.531L211.085 412.636L206.727 412.257L191.095 416.52L185.98 419.078C161.916 431.11 151.59 431.204 127.811 415.762L117.105 408.846L113.032 405.909L105.737 403.446L100.242 401.931C97.5896 401.173 93.9895 401.931 91.2422 402.215L85.8422 402.878C81.4843 403.446 76.8421 405.625 72.3895 405.815C68.6948 405.91 65.8527 406.099 62.7263 407.425C53.8211 411.12 49.7474 416.141 47 413.488C47.6632 411.025 49.0842 407.899 50.979 406.383L55.7158 402.783C59.979 400.794 63.2 398.52 66.8 395.488C70.9685 391.983 77.3158 390.846 82.5264 389.425L90.2001 387.246C94.8422 385.92 99.3896 384.783 104.126 386.015C106.779 386.678 109.432 386.962 112.274 386.488L117.105 385.73C120.326 387.909 123.832 388.857 127.905 387.625C130.463 386.867 140.979 393.499 156.516 390.562C168.169 388.288 171.58 379.194 181.622 375.309L185.506 374.836L198.58 373.225L204.927 374.362C208.053 374.93 212.032 375.309 214.78 376.352C218.19 377.583 220.274 378.341 223.874 378.815C226.432 379.194 229.938 380.804 232.685 380.331L241.306 378.909L246.232 376.162C247.464 375.499 248.885 372.657 249.548 371.425L254.664 362.046C252.58 358.446 247.085 361.194 241.306 356.836C237.327 356.552 233.727 355.604 230.601 353.52C227.095 353.046 224.064 351.436 221.222 349.446C218.569 349.067 217.243 347.836 215.064 346.415L204.453 339.594L193.937 330.309L190.432 326.994C185.316 320.457 181.053 313.541 174.99 308.046L170.727 304.257C169.211 302.93 165.99 301.036 163.906 299.994C159.832 299.709 155.001 299.33 151.211 300.372C147.895 301.225 145.811 302.93 142.116 301.225L135.105 303.783L131.032 302.551C128 303.688 125.158 303.499 122.505 301.888C119.569 302.836 116.726 302.646 113.979 301.415C110.095 300.278 106.779 298.667 103.274 296.678L97.4001 293.362C94.4632 291.657 92.0948 289.762 89.7264 287.678L85.2737 283.699L79.6843 278.867C76.9369 276.499 75.6106 275.836 75.1369 271.667L66.7053 260.867L63.3895 256.036C62.3474 254.52 61.6842 250.92 61.0211 248.741C60.4526 247.036 61.5895 245.141 63.2948 244.762C68.5053 247.414 72.0106 251.204 74.7579 256.036C81.1053 259.541 86.979 263.615 93.7053 266.551L104.032 271.004C105.926 271.857 110 271.857 112.558 272.33C119.569 273.562 125.916 272.33 132.263 270.246C140.6 267.499 148.937 265.225 157.653 263.425C162.39 262.478 167.98 263.046 172.811 263.425C180.295 264.088 189.011 268.636 195.169 273.278C197.159 274.793 198.769 276.688 201.043 277.92C203.032 278.962 205.495 280.288 207.011 281.615L211.938 286.067L217.432 291.751C219.99 294.404 222.453 297.909 225.58 299.615L236.664 305.488L241.969 307.194C245.095 308.236 248.98 308.52 252.485 308.046L261.011 306.909L271.527 305.299L277.969 304.067L292.559 303.309C297.864 302.172 302.032 300.088 306.39 297.436L312.643 293.646L307.243 291.088C300.611 288.057 294.169 283.509 290.19 277.257L286.211 271.004C285.169 269.299 284.601 268.067 283.085 266.741L281.285 255.183C280.527 250.351 281.759 245.709 282.327 241.067L283.843 230.362L284.696 223.541L284.885 213.878C284.98 209.614 284.127 204.878 282.99 200.614L281.569 195.025C280.811 191.993 278.632 188.393 276.643 185.93C273.517 182.046 269.348 178.541 265.559 175.509L259.59 170.772L254.474 167.741C251.443 164.993 248.506 161.488 246.232 158.551L242.443 153.72C239.885 150.404 238.18 145.856 235.906 142.067C233.916 138.751 232.874 135.72 231.738 131.931C231.169 130.036 228.99 127.004 228.611 125.204L227.759 120.752L226.148 114.594L224.348 108.815C225.58 102.752 225.58 94.7937 224.538 87.9726C224.253 86.2673 226.053 84.2779 227.853 84.0884C230.79 83.7094 232.78 87.9726 233.538 92.7095L234.201 96.8779L237.138 105.12C238.938 110.046 241.685 114.594 244.243 119.046C245.474 122.741 248.222 124.92 251.822 126.246C255.895 131.078 260.822 134.867 266.601 137.52L272.38 140.172L278.253 142.351L282.517 143.772C289.053 145.099 298.811 149.456 302.506 154.288C303.927 156.088 305.159 159.214 306.485 160.73C308.38 162.72 309.801 164.141 310.559 166.604L312.738 174.183L314.443 179.583C317.19 188.393 314.443 197.299 314.822 206.204L315.201 215.962C315.201 218.046 316.717 221.551 317.38 223.73L319.18 229.13L320.506 234.151C321.264 236.993 323.253 241.162 325.148 243.151L338.601 257.267C340.401 259.162 343.432 259.92 345.706 260.772L357.454 265.415C358.78 265.888 360.675 263.236 361.622 262.478C370.432 255.278 376.401 240.688 372.99 230.078L371.285 224.583L369.39 216.436L367.496 210.562C364.938 202.414 365.317 196.541 367.875 188.867C368.917 185.835 369.675 182.899 371.475 180.435L381.422 167.078C389.096 156.751 392.033 146.899 395.064 134.488C396.864 127.099 396.485 113.457 394.117 105.688L392.601 100.762L388.622 90.5305L385.685 80.8673C382.654 76.4147 379.906 72.1515 378.485 67.0357C373.748 63.1515 372.327 55.8568 367.211 48.8462C365.885 47.0462 363.706 46.1936 364.654 43.8251C365.411 41.8357 367.685 40.5093 370.054 41.1725C378.106 43.3515 382.748 49.6988 387.959 55.4778L400.275 69.2147L404.917 75.2779L409.938 83.52C411.075 85.4147 412.117 85.8884 412.022 88.4463C411.927 90.6252 412.78 92.52 414.58 93.5621C415.243 96.8779 416.569 99.9095 418.748 102.657C420.548 105.594 421.212 108.815 421.022 112.131C423.106 115.825 423.864 119.331 423.769 123.499L424.622 127.952L425.001 133.067L425.759 143.583C426.327 151.067 428.696 151.067 423.58 160.825L421.306 165.088L417.896 173.614L414.675 178.541L411.548 186.783C408.706 194.172 406.433 202.225 407.664 210.088L409.654 215.962C410.79 219.278 412.875 223.067 414.864 225.909L418.748 231.309C420.927 234.341 422.348 238.036 423.012 241.73C423.58 242.204 425.285 243.341 425.664 244.099L429.833 251.962C430.212 252.72 432.485 250.73 432.391 249.593L468.012 230.646L470.948 227.236C472.559 221.646 474.738 216.246 475.496 210.846L477.675 193.604C478.717 185.551 482.98 177.025 488.759 171.341L492.738 167.456L514.717 155.614L520.875 153.056L526.275 150.783L531.58 146.425L535.843 142.541C537.833 140.741 539.349 137.52 540.391 135.152L543.138 128.899L547.401 116.583L550.812 110.52L552.138 102.657V93.2779C552.043 88.2568 560.57 91.3831 558.58 108.72C558.296 111.373 558.864 113.836 559.243 116.394C560.191 122.836 557.443 129.278 555.738 135.246L552.422 146.52C551.949 148.13 549.864 151.067 548.917 152.393L542.854 160.73C542.001 161.867 541.433 163.572 540.959 165.088C537.264 166.888 534.991 169.541 533.285 173.709C532.717 175.13 529.97 176.835 528.833 178.067L522.485 184.983L519.643 188.867C517.654 191.52 514.527 199.004 514.527 201.657V207.435L515.191 212.362C515.759 216.246 516.801 221.172 515.664 224.772L514.243 229.225L511.496 233.678L509.412 238.888C508.654 240.783 507.612 241.92 506.191 243.436L501.549 248.551C498.991 251.393 497.001 254.52 493.117 255.562L490.085 260.204C486.106 262.383 483.17 265.888 483.075 270.72C479.57 274.32 479.664 279.53 482.127 284.078L488.191 294.309C491.791 295.446 492.454 289.004 499.464 286.067L505.149 280.383C507.233 278.299 508.654 277.351 511.022 275.93L517.749 271.762C519.738 270.53 520.117 269.678 522.485 269.109C526.085 268.351 529.591 265.036 533.191 263.993L547.97 259.636C551.854 258.215 555.738 257.741 559.528 258.309L576.201 255.467L581.033 254.236C583.686 253.572 587.854 251.772 589.749 249.404C597.233 240.12 594.58 235.193 599.033 231.593C601.307 229.793 598.464 225.341 603.865 221.362C604.812 218.236 606.612 215.583 609.359 214.257C609.833 212.551 610.97 209.993 612.391 208.857L617.033 204.972L626.317 199.572L635.601 195.025L641.191 193.604L648.107 191.33L655.591 188.867C663.075 191.899 668.759 188.109 677.096 188.678C677.949 188.678 679.749 188.299 680.601 188.678L686.286 190.383C687.328 190.667 689.222 192.372 689.412 193.32C685.433 198.72 679.18 197.109 673.78 198.72C666.959 200.709 660.612 205.067 654.359 208.572L648.865 212.741C645.454 213.972 644.317 215.962 642.328 218.425C638.538 222.972 635.033 227.236 632.759 232.825L630.675 239.93L622.717 265.509C620.822 271.667 616.18 276.972 611.633 281.046L608.128 284.172L597.991 290.046C595.907 291.278 594.107 291.751 591.549 292.32C588.328 292.983 584.917 296.109 581.791 296.962L574.685 298.951L565.401 300.941L560.949 301.983C559.433 302.362 557.159 302.551 555.643 303.404L545.412 309.372C544.085 310.13 542.001 312.12 540.864 313.257C537.17 316.857 534.233 321.688 532.338 326.33L528.454 335.899L521.633 348.783C519.643 352.573 516.896 355.225 513.391 357.309C512.727 359.015 513.391 362.899 514.717 363.278C516.328 362.804 517.749 362.709 519.643 362.33L525.233 361.383C528.833 361.194 529.97 360.53 532.433 358.162C536.601 354.183 542.664 351.436 548.349 350.394L556.117 348.973C557.822 348.688 560.38 348.783 561.991 349.067C565.212 347.836 566.822 348.688 569.949 349.636C576.77 351.815 582.359 354.373 587.854 359.299L594.865 364.13L598.18 366.594C609.643 375.215 628.496 383.362 641.286 380.046C647.633 378.436 653.033 376.257 658.433 373.32L666.201 369.057L670.18 368.015L676.338 366.594L683.538 365.362C689.886 364.32 697.086 364.604 703.528 365.362L715.654 366.688L721.054 367.92L726.359 369.246L732.517 370.383L733.275 372.278C733.465 372.846 735.454 372.657 736.023 372.941C739.623 375.025 744.17 377.962 748.338 379.288C750.138 379.857 752.128 380.52 752.507 381.752C753.075 383.646 752.507 386.299 750.802 386.773C746.065 388.383 742.275 385.446 738.012 384.783L729.581 383.457L709.78 383.173C708.17 383.173 705.423 385.731 703.907 386.299C698.696 387.909 693.675 389.899 689.033 393.215L684.959 395.394L677.286 402.499L674.159 405.625C672.17 407.615 670.844 409.225 668.57 410.836C664.686 413.773 660.517 417.562 655.401 418.036L647.633 418.699C646.022 418.794 643.559 420.12 641.949 419.741L628.401 416.804C619.307 414.815 612.201 408.467 603.865 404.488L595.717 400.604C593.064 399.373 589.275 398.804 586.338 398.425L582.454 397.857L576.012 396.436C573.454 395.867 568.338 395.773 565.875 396.436L552.612 400.131L544.938 402.688L539.064 408.183L535.559 411.12C534.328 412.162 530.917 414.341 531.296 415.952L532.906 422.204C533.664 425.141 535.559 429.025 537.454 431.299L542.949 437.931C545.033 440.488 549.77 442.478 552.991 443.899C554.222 444.467 557.064 444.846 558.391 445.225L569.096 447.973L575.349 449.015C581.791 450.057 587.949 452.615 592.307 457.446L598.843 464.741C601.78 469.289 603.865 473.646 605.854 478.668C613.054 496.952 635.033 517.415 653.791 521.299L660.801 522.72L670.18 523.762C672.17 523.952 674.065 524.236 675.959 524.71L681.075 526.036C684.959 525.562 689.886 524.615 693.865 525.562C696.138 526.036 696.707 525.562 699.075 525.562L718.212 524.804C719.728 524.804 722.002 523.383 723.423 524.047C724.559 524.615 726.075 527.268 725.412 528.31L722.665 532.668C717.265 536.457 711.77 538.541 705.233 539.489L691.591 542.994L686.191 544.225L679.086 545.457L670.086 546.026C668.475 546.12 667.338 546.31 665.633 546.973L660.517 545.173C659.57 544.794 657.486 545.173 656.538 545.457C653.507 544.699 650.475 544.32 647.254 545.078C639.865 546.689 636.454 540.057 634.749 543.373L628.401 540.91L618.738 537.215L614.286 535.32L603.58 530.773C601.496 529.92 597.991 529.162 596.664 527.362L591.643 520.068L587.759 514.952L581.507 506.425L574.307 497.615C569.759 492.12 564.17 487.478 557.349 485.204L550.717 483.878C546.738 483.12 542.285 484.068 538.212 484.257L524.57 484.825C522.959 483.215 521.064 483.404 519.833 485.015H508.938C509.222 486.057 509.791 487.289 510.454 488.615V529.636L512.538 533.425L523.812 544.32L533.759 551.047L538.212 554.268C547.685 561.183 551.759 569.141 554.601 580.51V609.594C554.601 610.541 553.085 612.341 554.033 613.289C555.075 614.426 554.507 616.131 553.464 617.268L556.685 630.626C557.254 633.089 559.812 636.31 561.233 638.299L564.643 642.941L573.928 653.078L577.907 658.952L584.159 664.068L592.307 668.426C592.307 668.426 593.633 669.563 593.917 670.036C595.812 672.784 585.107 674.963 575.917 667.384C572.791 664.826 567.77 666.626 557.538 656.11L544.938 643.226C543.612 641.899 542.475 638.773 541.528 637.068L534.517 624.184C533.57 622.289 534.043 618.026 532.149 616.131C529.306 613.289 529.212 610.068 527.98 606.752L524.475 596.994L520.875 590.836C514.054 579.089 503.727 580.32 492.833 573.783L490.18 570.089L481.748 559.099C481.37 557.204 480.706 555.12 479.664 553.226L478.622 549.247C476.727 546.026 475.97 543.278 476.538 539.394L473.885 534.941C473.885 530.204 471.991 526.036 468.201 523.099L465.264 519.12C463.748 517.131 459.391 515.615 455.412 515.804L446.127 516.278C439.591 516.562 447.454 521.204 446.317 529.636L448.875 537.783L450.012 545.078L450.675 553.226C450.864 555.31 450.959 556.541 450.675 558.626C449.917 562.889 450.864 567.91 450.012 571.889L447.833 581.552L446.791 587.331C446.222 590.647 444.327 593.394 443.285 596.426L437.506 612.531L436.464 618.499C435.991 621.152 436.275 625.036 436.654 627.499L440.727 634.984L446.98 641.899C449.254 644.457 450.106 648.626 453.327 650.236C454.938 650.994 455.696 654.594 455.885 656.015C458.822 658.478 460.527 661.226 459.485 665.299C462.991 667.194 464.033 670.794 464.317 674.489C465.643 676.857 465.927 679.131 466.022 681.878L466.496 691.826C466.685 695.236 467.348 699.594 466.875 702.72L465.833 710.678L465.359 719.015L464.601 724.605C464.222 727.163 464.317 728.205 462.612 730.005L463.464 729.815ZM461.191 454.983L463.275 452.52L469.717 441.625L473.222 434.804C475.591 430.162 476.443 426.088 479.57 421.731L481.938 413.015L483.454 406.194C484.401 401.741 483.643 397.099 485.064 392.836C486.485 388.573 486.675 383.931 486.391 379.573C490.37 376.067 487.622 364.699 485.064 360.815C482.885 357.499 480.991 355.036 479.759 351.246C478.906 348.783 477.012 346.604 475.591 344.425L469.338 335.141L465.643 330.215C460.527 324.72 455.506 319.32 449.064 315.246L437.885 308.141L411.454 301.983L401.033 301.32L388.622 300.941L382.085 300.657L370.054 301.225C366.738 301.415 364.559 302.078 361.717 303.594L353.001 308.236C342.769 313.73 332.632 319.13 324.864 328.036C316.338 337.699 310.369 349.257 307.717 361.667L305.064 373.699L303.643 384.12C302.601 391.699 303.074 399.278 302.411 406.762C301.748 414.246 301.369 420.594 304.875 427.699C306.769 431.488 308.664 434.994 311.885 438.31L319.843 446.552C330.927 458.015 331.306 461.994 348.454 469.762L366.454 477.91C376.59 482.457 385.022 483.499 396.012 482.741L406.622 482.078L422.822 480.657C426.801 480.278 431.917 480.183 435.517 478.668C443.191 475.446 449.822 469.952 454.748 463.51L461.38 454.888L461.191 454.983Z" fill="white"/>
</svg>
