<svg width="800" height="800" viewBox="0 0 800 800" fill="none" xmlns="http://www.w3.org/2000/svg">
<mask id="mask0_2001_5844" style="mask-type:luminance" maskUnits="userSpaceOnUse" x="40" y="184" width="712" height="427">
<path d="M751.581 184.94H40V610.112H751.581V184.94Z" fill="white"/>
</mask>
<g mask="url(#mask0_2001_5844)">
<path d="M312.663 386.725C309.017 385.229 306.585 383.546 307.24 379.151L308.082 373.26L313.411 367.369L318.835 365.686C324.352 365.405 328.185 370.268 329.494 374.662L331.271 377.655C331.645 378.216 330.149 379.712 329.962 380.553C329.214 384.574 326.035 387.005 321.92 388.127C318.648 388.969 315.936 388.221 312.57 386.818L312.663 386.725Z" fill="white"/>
<path d="M707.633 401.032L702.958 401.406L696.786 401.874L697.534 393.178L703.145 392.991L707.633 401.032Z" fill="white"/>
<path d="M556.154 468.542C556.154 468.542 554.19 469.851 553.91 469.383L552.601 467.326C551.853 466.204 550.544 464.054 550.824 462.931L551.292 461.435C551.292 461.435 553.068 460.594 553.068 461.061L553.349 463.305L556.154 468.635V468.542Z" fill="white"/>
<path d="M489.858 490.33L484.248 496.595C479.292 502.112 473.308 507.068 466.201 509.125C463.864 511.837 460.965 514.174 457.318 514.081C455.916 516.606 454.045 517.167 451.614 518.289L442.077 522.496L436.092 525.489L429.547 528.855C426.274 531.005 423.001 532.128 418.887 532.128C415.24 534.652 411.126 538.018 406.918 539.234L401.869 540.637L394.763 543.816L385.132 548.117L375.22 552.044L356.799 557.374L351.656 558.964L336.041 562.798L329.215 564.481L321.454 566.912C318.649 567.847 316.872 568.595 314.16 569.436L301.631 573.644C297.049 575.14 293.309 576.636 288.259 576.356C285.735 576.169 279.189 579.909 270.961 579.909H260.207L246.93 579.442L232.717 578.507L224.208 578.132C212.8 577.665 199.522 570.278 191.574 562.236L187.74 558.403C183.439 554.101 181.101 548.772 178.39 543.442C172.031 530.725 169.974 517.728 174.182 503.234L166.795 506.6L167.45 513.333H166.421L164.738 508.19L157.351 511.276L146.691 516.699L136.78 522.216L127.709 526.985L116.208 532.876L105.829 540.263C105.174 541.946 104.146 543.722 103.117 545.218L100.779 551.203C99.7508 553.914 97.4132 555.691 94.608 555.504L93.7664 551.857L91.1483 546.714C90.2132 544.844 89.8392 541.946 90.2132 539.795L92.6444 525.489C93.4859 520.346 90.5872 515.483 86.1924 513.052L82.0782 510.715C79.5535 509.312 76.0938 509.593 73.3821 508.564L43.2731 497.717C41.9641 497.25 40.655 496.969 40.1875 496.221C39.7199 495.473 40.1875 492.668 41.029 492.761H45.6108C47.5744 492.761 48.416 492.762 50.2861 492.294C53.1848 491.452 56.9251 492.107 60.0108 492.294C61.5069 492.294 62.8159 492.294 64.125 492.855C66.3692 493.697 67.4912 493.136 69.8289 492.481C72.26 491.733 76.4678 492.013 79.273 492.294L82.4522 493.977C84.5093 493.603 86.847 493.416 88.8106 493.79L95.7301 495.006L102.743 495.66C106.203 495.941 109.849 496.034 113.496 497.063C114.899 497.437 117.61 496.128 119.107 496.034C123.875 495.754 127.055 493.884 133.039 493.603C136.032 493.416 137.902 492.761 140.613 492.107L147.813 490.33C150.151 489.769 151.554 489.489 153.611 488.367C154.92 487.712 158.005 486.871 159.408 486.964C162.4 486.964 164.644 486.497 167.637 485.749L172.686 484.626L179.418 482.008L184.935 474.06L194.473 463.307L200.27 458.071L212.145 450.684L216.821 447.598C227.667 441.707 238.14 435.723 249.735 431.328L265.911 425.25L277.413 420.668L292.748 414.029L303.968 409.261L308.831 406.829L315.657 404.305L320.238 401.313L356.799 388.035L385.132 378.31C391.77 376.066 397.568 373.541 404.113 370.83L412.342 367.463C419.355 364.565 426.461 363.162 433.287 359.796L457.318 348.201L469.193 340.721L481.63 331.09C485.089 328.471 487.147 323.89 489.484 320.243L493.505 313.698C496.123 309.396 497.526 304.814 499.302 300.046L503.604 288.451C505.474 283.495 503.978 277.978 506.596 277.136C507.344 276.856 509.12 277.697 509.868 278.258L520.622 286.394L525.391 291.163L535.676 299.859L540.725 305.282L546.803 312.295L551.011 317.812L555.78 324.731L559.614 331.464L563.915 338.477L570.834 352.315L572.611 356.056L574.668 361.012C576.164 365.313 577.473 369.708 578.221 374.009C579.998 378.404 580.933 382.518 581.775 387.193C582.149 389.344 583.551 393.084 583.364 395.141L581.027 417.302L576.258 423.287C573.64 426.559 568.123 422.071 568.31 421.697L567.562 423.287L567.001 424.502C567.001 424.502 566.253 423.848 565.879 423.474C566.346 420.762 565.785 418.331 563.354 416.554C559.427 413.749 555.873 409.448 551.385 407.858L534.367 401.967L522.959 400.565L507.905 398.414C502.762 397.666 496.871 396.918 491.728 397.666L473.121 400.378L465.36 400.939L452.83 402.715L445.536 403.744L421.692 408.887L392.425 415.9L363.999 422.726L358.95 424.783L348.758 427.681L336.508 431.609L327.064 434.601L322.669 436.284L284.893 449.655L267.875 456.855L256.654 461.718L247.117 466.86L233.839 473.78L226.265 479.203C219.345 484.159 214.296 490.798 209.434 497.717L206.068 503.421C203.449 507.91 201.486 512.398 200.177 517.634C199.335 521 200.27 525.302 199.896 528.574C199.055 536.616 200.177 542.881 203.917 549.613L207.657 556.346L211.023 562.049L229.912 569.623L239.636 570.652L251.605 570.839H257.683H262.545L271.241 569.623L288.914 565.416L300.976 561.301L315.283 556.252L329.215 552.044L343.054 547.93L362.971 540.076L376.248 534.185L382.233 531.379L402.243 522.683L409.256 519.224L445.443 500.71L455.355 493.323L462.555 487.245C465.921 484.346 468.165 480.886 470.596 477.146C472.84 473.686 474.43 470.133 473.869 465.738C472.747 456.855 466.669 449.749 458.814 446.102L447.874 441.053C444.695 439.557 440.768 439.65 437.121 439.183L421.505 437.125L413.838 436.284H407.479H389.62L381.017 436.845L366.524 439.183L356.425 440.679C355.21 440.866 353.339 440.679 352.03 440.398C351.095 440.211 350.441 438.248 350.628 436.845L363.064 432.544L370.545 430.299L387.376 426.279L395.23 424.502L402.337 423.287L412.809 421.136L427.209 418.05C432.259 417.022 437.214 414.684 442.544 414.31C452.175 413.749 460.871 415.058 469.848 418.331C471.438 418.892 472.747 419.453 474.149 420.294C479.105 423.38 484.435 425.905 488.362 430.393C493.318 436.097 497.432 442.923 498.554 450.497L499.863 459.099C500.331 462.092 500.611 465.551 499.863 468.637L498.087 475.089C497.245 478.081 496.31 480.606 494.814 483.037L490.139 490.798L489.858 490.33Z" fill="white"/>
<path d="M716.518 309.583L709.598 317.718C709.598 317.718 708.102 318.84 708.196 319.308L708.757 321.646C705.484 326.601 700.996 330.061 696.04 333.24C693.796 335.858 689.775 335.484 686.783 336.606C683.791 337.729 681.733 338.196 678.928 338.29L664.341 338.851L659.479 339.786C640.591 343.432 642.928 349.791 639.843 351.848L634.7 355.308C632.082 357.084 628.248 357.552 625.069 358.206L619.178 359.422C618.897 360.17 619.552 362.508 620.393 363.162C621.235 363.817 623.199 363.723 624.601 363.817L634.606 364.284C639.749 364.565 640.965 367.183 643.677 371.017L648.258 377.375C654.43 385.978 665.183 388.596 675.468 386.445C680.237 385.417 685.1 384.482 689.12 382.05L696.133 377.843C697.349 378.03 698.003 380.928 697.442 381.957C694.731 387.006 690.149 388.97 685.941 391.962C679.115 396.824 671.074 398.975 662.939 398.414C654.991 402.061 643.583 395.889 636.102 390.279C631.427 386.726 622.731 385.043 619.739 387.287C616.56 389.718 621.329 399.069 614.129 404.959L609.173 408.045C604.871 410.757 599.168 410.009 594.399 408.232C593.183 407.765 592.529 405.053 592.061 403.744C590.846 399.817 589.162 395.983 588.975 392.056L588.788 386.445C588.601 379.152 588.321 372.793 586.17 365.967L577.007 337.168L574.669 330.435L570.742 320.523C569.246 316.783 567.282 313.698 564.757 310.518C560.363 305.001 554.565 301.729 548.768 297.895L542.035 293.5C541.007 292.846 539.043 291.35 538.295 290.415C533.9 285.459 534.274 277.604 538.669 272.462L543.532 266.758C545.776 265.729 549.89 263.859 552.508 263.859L565.225 263.672C567.937 263.672 571.49 262.737 573.266 260.773C576.352 257.127 575.791 252.638 575.043 248.431C573.36 238.706 578.877 229.916 588.04 226.924L596.923 224.025C608.612 218.415 614.222 205.792 614.97 193.168L615.344 190.457C615.531 188.961 614.97 185.875 617.495 185.127C620.768 190.363 621.609 199.433 621.703 206.446C622.264 208.784 621.983 211.122 620.955 213.085C620.955 217.2 620.019 221.033 618.991 224.961C618.243 227.766 617.588 228.701 615.438 230.851L612.071 234.124C609.453 236.649 607.209 238.612 604.123 240.389L599.168 244.503L597.11 250.955L598.7 258.903V270.591C598.607 272.929 597.11 273.958 595.521 275.267L591.033 279.194C588.601 281.344 586.264 283.495 582.617 284.056C581.495 284.243 581.495 287.89 582.617 288.17C588.321 289.573 594.679 289.479 599.542 286.02C602.253 284.15 605.339 281.157 606.555 277.885C608.799 271.62 613.942 264.888 621.329 265.075C627.78 265.262 633.297 265.075 639.375 262.83L648.071 259.558C657.983 254.789 666.492 247.028 672.009 237.116C676.31 229.449 677.806 214.768 680.705 215.61C685.006 216.825 682.855 227.298 681.92 234.405L680.892 242.166C680.237 246.841 679.583 250.768 677.526 255.069C676.591 256.94 675.936 259.277 674.346 260.867C672.102 263.111 670.98 265.168 669.204 267.786C665.837 272.742 659.76 277.23 653.962 279.1C650.689 280.222 648.258 281.157 645.36 282.56L639.656 285.272C636.103 283.589 633.671 284.898 631.24 287.329L625.443 290.508C624.508 293.687 623.573 297.614 623.853 300.794C624.321 305.937 622.544 309.116 618.804 313.043C615.344 316.69 612.165 312.762 608.425 320.243C609.921 322.674 613.006 322.207 615.064 322.394C623.76 323.235 625.817 317.718 634.98 314.633C637.505 313.791 641.993 314.165 644.799 314.352C650.409 318.56 656.58 320.43 663.406 319.588C668.923 318.84 673.879 317.812 679.115 315.755C682.481 314.446 686.783 313.417 689.307 310.799L693.422 306.404C697.816 301.635 702.024 295.931 708.85 294.248C716.611 292.285 724.84 292.659 732.881 292.378L747.094 292.004L751.395 294.716C751.956 295.09 751.676 297.147 751.115 297.521C750.46 297.989 748.964 298.176 747.842 298.456L739.053 300.607L728.112 303.692C726.055 304.253 724.185 304.347 722.409 305.656L716.611 309.864L716.518 309.583Z" fill="white"/>
<path d="M290.783 532.781C291.531 535.961 291.438 539.14 289.754 541.571C288.445 543.441 285.36 546.62 282.461 545.498L275.916 543.067L267.5 527.171L264.788 518.942L261.89 507.909L260.487 501.644L258.71 494.911L254.316 476.958C253.942 475.275 253.755 473.031 254.783 472.002C256.279 470.413 262.357 469.478 266.658 471.535C270.212 473.218 273.297 475.743 274.7 479.763L279.469 493.696L283.209 503.42C284.331 506.226 284.238 508.189 286.108 510.901L284.799 515.015C287.417 516.698 287.417 518.662 288.165 521.187C288.913 523.711 289.661 525.768 289.754 528.2L290.783 532.781Z" fill="white"/>
<path d="M301.816 597.674L295.926 600.386C289.1 603.565 282.74 605.342 275.447 606.557L264.226 608.334L258.43 608.708C257.121 608.708 254.97 609.362 253.755 609.737C250.388 608.988 247.022 608.614 243.469 608.895C240.57 609.082 238.045 607.586 235.333 607.118L221.307 604.781C218.408 604.313 215.977 600.479 213.64 598.983L203.354 592.251C201.577 591.129 198.305 589.259 197.37 587.669L194.097 582.246C193.723 581.591 193.443 580.189 193.63 579.534C193.817 578.786 195.967 577.944 196.621 578.505C198.024 579.908 200.737 581.03 202.981 581.778L230.564 591.503C236.455 593.56 242.626 594.589 248.704 595.056L258.243 595.804C273.204 596.926 294.148 592.812 307.8 585.612L316.683 580.937L322.388 581.872C322.481 582.994 321.92 585.518 320.892 586.079L307.987 593.84L301.909 597.394L301.816 597.674Z" fill="white"/>
<path d="M489.203 519.598C483.499 522.123 477.14 521.842 471.062 520.626C469.005 522.216 465.359 521 465.265 518.569C465.359 517.447 468.351 516.793 469.286 516.232L475.083 513.146L484.901 507.629C497.244 500.71 509.213 482.663 511.551 468.263L512.673 461.063L513.982 442.268V436.845C516.226 436.004 519.966 437.406 520.714 440.211L525.483 456.949C525.951 458.632 526.512 461.905 526.512 463.775L526.044 476.866L524.641 482.57C524.174 484.346 523.519 488.273 522.491 489.769L513.047 503.889C510.055 508.377 505.66 511.182 501.358 514.362C496.403 518.102 494.626 517.073 489.203 519.504V519.598Z" fill="white"/>
<path d="M438.992 478.079L441.516 473.217C442.452 471.347 443.574 469.29 443.106 467.232C442.732 465.736 440.768 463.866 439.179 463.118L433.381 460.407C430.202 458.91 427.21 457.04 423.563 456.386L411.969 454.422L402.899 452.739L396.634 452.365L391.117 451.71L379.99 450.962C378.4 450.869 376.343 450.588 375.314 449.84C374.286 449.092 373.257 445.82 374.379 445.352C381.205 442.547 388.218 443.295 395.231 442.921L403.179 442.547L421.413 444.698L431.324 446.1C440.207 447.316 448.81 451.243 455.542 456.853C456.197 459.004 457.319 461.155 458.535 463.025C459.657 468.916 457.693 476.116 453.392 480.51L449.277 484.812C447.127 485.653 444.976 486.775 443.013 488.178L437.309 491.731C436.187 492.386 432.633 492.853 432.446 491.451C431.698 486.027 434.971 481.819 438.898 478.266L438.992 478.079Z" fill="white"/>
<path d="M299.76 553.074C292.466 556.253 285.827 557.936 278.066 556.627L277.318 554.383C277.131 553.916 278.814 553.168 279.375 553.168C281.619 553.168 284.144 550.83 286.014 550.082C294.056 546.716 302.658 544.658 310.139 539.609C314.534 536.617 317.245 530.446 324.445 526.144L339.687 523.059C340.902 522.778 343.24 521.282 344.549 520.44C346.606 519.225 348.663 519.505 351.001 519.692C358.014 520.253 365.12 518.196 371.572 515.672C379.427 512.586 379.988 508.285 383.073 508.285C384.195 508.285 386.533 509.687 386.346 510.622L382.98 516.233C382.138 517.542 380.549 520.253 379.146 521.282L369.983 528.108C367.551 529.885 365.494 530.82 362.596 531.848C358.855 533.251 355.115 535.401 351.001 532.316C348.289 533.438 344.362 534.653 342.305 536.804C336.414 543.069 330.149 545.313 321.733 545.687L316.684 547.277C310.606 548.212 305.089 549.708 299.76 552.981V553.074Z" fill="white"/>
<path d="M324.727 500.523C329.308 506.695 329.402 519.131 326.784 520.721C324.633 522.03 316.217 522.965 313.038 518.944C311.729 517.261 309.205 514.549 308.456 512.866L303.688 502.674L297.61 488.835L293.308 471.63C292.56 468.638 294.244 465.739 295.085 463.121C295.553 461.625 295.927 459.474 296.675 458.539C297.423 457.698 299.76 457.791 301.069 457.978C304.529 458.352 305.464 460.129 307.147 462.747L313.225 471.911L315.75 477.053L323.137 493.884C324.072 495.942 324.539 498.186 324.82 500.523H324.727Z" fill="white"/>
<path d="M365.121 499.868C365.682 502.954 365.589 507.068 365.308 510.153C362.597 513.613 357.08 512.959 353.994 509.779L348.945 504.637C342.399 498.091 339.127 489.302 336.415 480.512L334.451 474.247L331.085 462.839L330.711 454.985C330.617 452.647 330.15 450.31 330.337 448.44C337.724 444.325 344.269 450.497 347.449 458.351C348.571 461.156 350.16 463.4 351.843 465.738C352.872 467.047 353.994 470.133 354.649 471.629L359.23 482.663L364.373 495.847L365.121 499.961V499.868Z" fill="white"/>
<path d="M223.741 555.597C221.123 560.272 210.463 552.418 209.435 547.742L205.414 531.192C204.198 526.049 209.622 506.506 214.016 500.522L215.419 497.342L221.403 489.768L232.157 480.979L242.442 475.93C243.938 475.182 246.182 475.556 247.211 476.865C248.053 477.987 248.146 480.044 247.211 481.166C243.845 482.101 241.414 483.13 239.824 485.748C234.494 488.366 231.689 492.948 229.071 497.903L222.245 510.433L218.224 520.532C217.289 522.963 217.57 525.207 217.476 527.825C217.196 537.363 215.419 548.397 223.834 555.597H223.741Z" fill="white"/>
<path d="M350.253 607.494C349.598 608.99 345.765 610.393 344.175 610.112C341.183 609.645 339.593 606.653 339.032 604.128L336.414 593.468L334.824 584.585C333.889 579.162 334.357 574.58 336.414 569.25L342.118 568.409C344.175 568.128 348.196 567.941 349.318 570.092C352.31 575.796 352.31 581.78 352.403 588.139L353.432 592.907V600.668L350.346 607.494H350.253Z" fill="white"/>
<path d="M378.305 596.181L373.91 592.815C371.105 588.233 372.227 582.623 371.479 577.667C369.796 567.381 368.393 558.592 377.463 556.815C378.492 556.628 380.642 555.88 381.671 556.067C382.793 556.254 383.634 558.592 383.915 559.994L386.346 574.955C387.375 581.126 387.749 587.111 385.972 593.095C385.037 596.274 381.577 598.425 378.492 596.181H378.305Z" fill="white"/>
<path d="M257.683 404.865C256.748 408.044 253.943 411.504 251.044 413.374C248.893 414.776 244.685 415.337 242.348 415.244C236.363 415.057 233.839 411.13 232.904 406.267C231.314 397.945 235.335 390.745 244.124 388.875C248.613 387.94 253.007 390.371 256.093 394.673C257.683 396.917 258.524 401.686 257.589 404.958L257.683 404.865Z" fill="white"/>
<path d="M391.583 496.783C385.786 497.064 379.708 493.324 377.09 488.368C375.033 484.347 376.716 479.765 379.334 476.025C388.404 472.939 391.022 473.687 397.194 479.204C400.654 482.29 402.711 486.498 401.121 491.734C400.093 494.82 395.698 496.596 391.583 496.783Z" fill="white"/>
<path d="M294.244 389.907L292.373 394.302C291.064 397.294 289.101 399.351 285.548 400.286C281.433 401.315 276.664 398.977 273.953 395.985C270.867 392.525 269.838 386.541 272.27 382.801C276.664 376.068 278.815 376.816 288.166 377.471L293.963 383.268L294.244 390V389.907Z" fill="white"/>
<path d="M236.27 532.224C230.005 532.224 228.228 521.657 232.623 511.465L234.961 506.042C236.457 502.582 240.665 498 243.844 496.972C247.491 495.85 251.044 494.541 254.504 497.159C247.584 501.18 244.311 506.884 243.563 514.083C243.283 516.608 243.096 520.068 243.75 522.406L245.621 529.044C242.628 530.447 239.449 532.224 236.27 532.224Z" fill="white"/>
<path d="M241.974 557.843C238.42 558.03 235.802 555.692 233.932 552.98C230.846 548.586 232.81 541.292 238.42 538.58C241.6 536.991 246.649 534.747 250.015 536.897C254.41 539.609 255.345 547.089 252.914 550.923C250.296 555.037 246.462 557.562 241.974 557.936V557.843Z" fill="white"/>
<path d="M419.541 504.355C415.801 505.57 413.369 504.635 411.312 501.736C409.91 499.773 409.068 497.435 409.536 495.004C410.097 491.918 412.154 490.609 415.146 491.077C417.671 491.451 419.728 492.292 420.943 494.069C423.375 497.622 422.159 503.513 419.541 504.355Z" fill="white"/>
<path d="M398.877 501.082C401.028 499.96 406.357 504.168 405.609 507.721C405.235 509.31 403.646 511.087 402.243 510.9C398.409 510.526 396.82 509.03 396.539 505.383C396.539 503.793 397.194 502.017 398.877 501.082Z" fill="white"/>
</g>
</svg>
