<svg width="800" height="800" viewBox="0 0 800 800" fill="none" xmlns="http://www.w3.org/2000/svg">
<mask id="mask0_2001_5841" style="mask-type:luminance" maskUnits="userSpaceOnUse" x="40" y="100" width="715" height="600">
<path d="M754.7 100H40V699.5H754.7V100Z" fill="white"/>
</mask>
<g mask="url(#mask0_2001_5841)">
<path d="M213.301 388.898C213.501 390.398 213.701 392.598 213.501 393.598C213.201 394.698 210.801 395.698 209.501 395.898C202.601 390.298 201.101 379.298 196.901 375.098L186.101 364.298L181.701 360.698C176.801 357.998 171.601 356.098 166.201 354.698L149.301 350.098C144.401 348.798 140.701 344.798 139.301 340.098L135.201 327.098C132.501 318.398 130.701 309.398 125.901 301.398L120.501 292.498L113.101 284.698C111.701 283.198 109.201 281.598 107.801 280.398C101.901 274.998 96.0009 270.998 88.1009 268.798C85.6009 268.098 83.1009 266.398 81.1009 264.898L75.9009 263.998C75.9009 259.098 80.2009 257.798 84.1009 257.798H91.6009C112.701 257.798 114.501 261.098 128.701 270.098C131.101 271.598 133.101 275.098 135.301 277.298C137.501 279.498 138.101 282.598 139.601 284.898C142.401 289.498 144.301 293.698 145.901 298.798L148.701 307.798C150.001 312.098 151.901 316.298 152.501 320.998C152.801 323.498 151.801 327.698 153.401 329.598C156.501 333.298 161.301 333.598 165.601 334.698L172.501 336.398L181.101 338.398C184.101 339.098 187.001 340.698 189.201 342.898L201.201 354.798L205.701 361.998C207.101 364.198 207.701 366.598 208.601 368.898C210.101 372.598 211.701 376.098 212.201 380.098L213.501 388.998L213.301 388.898Z" fill="white"/>
<path d="M234.7 330.699L237.1 336.999C238.3 340.199 238.5 343.399 238.9 346.599L240 354.199C240.2 355.899 240.9 359.399 239.5 360.599C238.4 361.499 234.8 361.099 233.8 360.499C231.5 350.799 231.4 345.699 223.4 339.499C218.5 335.699 213.3 331.799 207 330.799C201.2 329.899 194.6 330.099 189.7 326.499C187.8 325.099 184.9 322.899 183.3 320.999C173.3 308.999 169.8 292.199 173.8 277.199C175.7 269.999 178.2 263.499 179.6 256.499C183.4 238.199 181.3 218.999 168.2 205.599L163.6 199.899L161.7 197.499C161.2 196.799 162.5 193.999 163.5 193.999C172.1 197.999 182.3 204.099 187.2 211.999L190.6 217.499L194 224.599C195.1 226.799 197.3 229.099 197.7 231.799C199 240.199 203.5 244.799 199 258.099L193.6 274.299C192.2 278.599 191.6 286.699 193.4 290.799C195.2 294.899 196.8 298.399 200.2 301.099L212.4 311.099L218.5 315.499L232.1 324.899C233.4 325.799 234 329.099 234.7 330.699ZM197.1 323.699L185.8 314.099C185.8 314.099 184.5 315.699 184.8 315.999L186 317.199L194.3 325.399C194.3 325.399 196.5 325.999 197 325.999C197.4 325.999 197.5 323.999 197.2 323.699H197.1Z" fill="white"/>
<path d="M208.099 444.102C201.699 446.202 193.099 444.502 187.899 440.402L178.899 431.502L173.399 423.702C170.399 419.402 171.699 403.802 161.899 399.002L155.699 395.902C154.599 395.402 155.199 391.902 156.099 391.302C160.699 388.102 171.699 391.802 177.899 397.702C182.099 401.602 183.899 407.102 186.299 412.402L191.399 423.602C193.699 428.602 208.899 437.102 217.499 436.102C218.799 437.002 217.899 440.802 216.499 441.302L208.099 444.102Z" fill="white"/>
<path d="M526.5 569.8C525 575 518.5 577.5 513.9 575.6C510.5 574.2 504.7 565.9 506.1 561.3C506.9 558.6 513.8 555.1 520.3 557.3C523.1 558.2 526 559.7 526.6 563.1C526.9 564.6 527 568 526.5 569.9V569.8Z" fill="white"/>
<path d="M545.399 551L541.299 553.9C537.499 554.3 531.399 549.5 532.499 545.3C534.099 540.2 542.299 539.8 545.799 542.7C547.099 543.8 548.199 545.5 548.099 546.6C547.999 548 546.499 550.1 545.399 550.9V551Z" fill="white"/>
<path d="M565.499 529.699C568.599 531.199 566.599 536.199 563.799 536.699C560.399 537.399 556.899 534.499 557.399 530.899C558.999 529.699 563.299 528.599 565.599 529.599L565.499 529.699Z" fill="white"/>
<path d="M262.8 645.3L250.1 644.8C246.2 644.6 241.6 646.7 237.8 648.3L230.5 651.5C226.1 653.5 221.3 654.1 218.3 649.6L222.1 643.8C223.8 635.9 224.5 628 223.8 620L223.1 611.6L222.2 603.6C221.8 599.9 220.4 595.4 218.8 592.3L214.2 582.8L209.7 573.9C205.9 566.4 201.2 559 193.7 554.4C189.9 552.1 185.2 549.5 185.6 544.3C188.7 541.7 194.5 540.1 196.1 542.9C197.7 545.5 199.6 546 202.3 546.7L214.9 550.3L220.9 552.9L236.3 557.1C238.6 557.7 243 557.7 245.3 557.1L256.9 554.4C261.6 553.3 265.2 552.6 270.1 553.2H277.6C282.9 553 288.6 554.4 293.7 556L305.2 561.5L309.3 564.7L315 568L332.3 576.5C338.4 579.5 345 579.6 351.3 578.6L374.8 574.7L381 573.3L392.5 571.7C392.5 571.7 403 574.5 405.7 576L416.8 581.8L427.5 587.6C428.9 588.4 431.4 590.4 432.9 591L443.3 594.9C447.5 596.5 452.3 596.5 456.8 597C463.2 597.8 469.3 597.7 475.4 595.8L487.8 591.9L495 590.4C501.2 589.1 508.2 589.6 514.2 591.6L521.2 594.9L527.8 599.4L537.4 580.5L545.7 567.4L549 562.4L553.3 557L560.8 548.9L569.4 541.2L575.5 536.1L590.7 523.2C594 520.4 600.4 509.5 601.9 504.5L604.6 495.2L606.6 485.9C607.9 479.7 611.6 473.8 613.9 467.8C615.7 463.2 618.6 459.9 621.9 456.5C624.2 454.2 626.1 451.7 628.9 450.1L639.7 443.8L649.1 438.5L664.6 428.8L670.3 424.8L675.6 419.6L690 402.2C695.2 395.9 698.6 388.9 701.6 381.2C704.3 379.9 707.4 381.2 709.7 382.4L715.5 385.6C713.5 393 718.9 393.9 721.2 400.7L725.8 414.3L727.9 424.8C729 430.2 730.2 435.1 732.1 440L734.8 447L742 464.4C745.4 472.7 746.2 480.6 742 478.3L734 473.9C729.2 471.2 724.5 469.4 719.2 468.5C710.5 467.1 710 473 703.7 477.4C701.6 478.9 700.3 479.6 699.1 482C698.5 483.2 696.1 484.6 695.5 485.7L690.6 494L686.5 505.6C684.8 510.5 682.7 514.7 681.5 519.9C680.5 524.1 680.7 529.3 678.5 533.3C675.8 538.3 675.8 543.7 672.5 548C670.8 550.3 669.2 551.6 668.2 554.3L665.7 556.8C664.9 560 662.6 561.3 660.5 563.6L650.9 574.6C648.9 576.9 647.4 578.3 644.6 579.7C637.1 583.4 634.3 588.5 626.7 591.6L622.3 595.9L618.1 600.6L613.4 607.8L611.6 613.5C609.8 619.3 608.4 624.6 607.7 630.5C605 633.5 607.3 635.3 603.3 639.9C596.8 647.4 589.2 654.6 580.1 658.3C574.7 660.5 570.8 665 568 669.9L559.3 684.9C557.9 687.4 556.7 688.1 557.1 691.8C557.3 693.2 556.5 695.9 555.7 697.2C555 698.4 551.8 699.9 550.5 699L531.3 685.6L519.5 680.2C516.6 678.9 513.8 677.6 510.7 677.1L503.7 675.9C489.4 673.5 477.5 680 469.6 678.9L456.3 677.1L448.4 674.9L431 666.1L420.8 660.2C416.3 657.6 412.1 654.9 407 653.9L397.7 652L394.4 651.1C390.8 651.1 385.7 650.3 382.2 651.2C375.3 653 368.8 655.4 362.3 658.3C357.7 660.4 353.7 663.2 348.5 664.4L340.6 666.2L332.2 667.4L326.6 668L315 664.4L293.5 655.6L279.6 649.4C276.5 648 273.5 647.8 269.9 647L262.7 645.3H262.8Z" fill="white"/>
<path d="M234.7 540.8L219.7 526.3C213.2 520 207.6 519.4 198.2 519.8C192.4 520 187.3 518.7 181.6 517.9L176.4 517.2C167.8 516 158.8 515.2 152 509.4L147.3 505.3L140.4 496.6C136.3 491.5 133.9 485.5 132.4 479.2L129.5 466.4L126.6 453.8C124.9 446.4 122.1 439.1 118.3 432.5L113.5 424L103 410.7C99.5 406.3 94.8 402.7 90.4 398.8C88.1 396.7 84 394.9 81 393.6L75.3 391.1L65.6 387.4C53.6 382.9 40.5 386.1 40 381.4C40 380.5 41 378.6 42 378.3L49.5 376C54.7 374.4 59.3 371.2 64.7 370.7L73.4 370L83.8 370.9L97.1 374.7L103.8 377.4C112.6 381 115.4 384.4 119.4 385.6C120.5 385.9 121.9 387.9 122.8 388.6C128.4 393.3 132.8 398.3 136.6 404.6L140 410.1L143.9 416.7C144.8 418.2 145.4 420.3 145.9 422.1L150.2 438.7C151.7 444.6 153.7 450.2 154.3 456.3L156.2 477.4C157.2 480.4 160.8 485 163.7 486.3L170.4 489.4C175 491.5 180.6 489.9 185.5 490.9L193.5 492.6L203.7 497.2C206 498.2 209 499.9 210.9 501.7C218.7 508.9 225.5 516.3 231.7 524.7L240 535.9C240.6 536.8 240.1 539.3 239.7 540.2C239.2 541.3 235.8 541.9 234.7 540.8ZM122.7 420.2C119.6 415.6 116.8 411.1 112.2 407.9L120.3 421.3C120.3 421.3 121.7 421.9 121.9 421.5L122.8 420.2H122.7ZM166.9 509L158.1 505.3C159.9 508.8 163.1 511.7 166.9 509ZM200 514.1L194.6 512.3C194.1 512.1 192.4 514 192.9 514.2L195.2 515.3C197 516.1 199 516.8 200 514V514.1Z" fill="white"/>
<path d="M678.3 370.598C675.9 373.698 673.6 376.098 670.9 378.398L666.2 382.498C663.5 384.798 661.5 386.898 658.2 388.598L654.8 385.598L667.3 371.098C673.4 363.998 677 354.198 677.3 344.898L677.6 337.098C678.1 323.198 655.1 298.998 656.1 281.098C656.5 272.498 661.4 260.898 666.9 254.998L678.4 242.598C680.6 240.198 682.2 237.898 683.7 235.098L690.2 223.098L693.1 216.398L697.2 204.198L698.7 197.298C699.5 193.798 699.8 190.598 699.1 186.898C700.1 184.098 700.5 181.098 699.1 178.298C700.2 169.798 698.7 161.498 694.8 153.698C694.8 147.898 692.8 143.298 688.4 138.798C688.7 137.198 690.1 135.998 691.8 135.198C693.3 134.498 695.6 135.198 697.4 136.298C702 139.198 704.3 144.198 707.3 148.798L712.6 156.698L720.3 174.398C721.7 177.598 721.7 182.398 722.3 186.298C722.9 189.698 720.7 193.298 720.1 196.598L717.9 207.998L715.3 216.198C714.5 218.798 713.3 220.398 711.7 222.198C706.5 228.198 704.9 235.998 700.8 242.598L695.5 251.198L687 265.198C684.4 269.498 680.7 275.198 683 280.598L687.7 291.998L694.9 303.298C697.7 307.698 700.8 311.698 702.1 316.898C702.8 319.598 702.4 322.698 702.5 325.298C702.7 332.698 702.3 338.998 698.4 346.098C697.4 347.798 695.8 348.798 694.1 350.098C691.2 352.298 689.3 356.398 687.1 359.298L678.4 370.298L678.3 370.598ZM665.5 281.098C667.9 281.098 668.4 279.498 668.4 277.598C668.4 275.698 667.9 274.298 665.4 274.098V281.098H665.5Z" fill="white"/>
<path d="M628.301 258.9C623.001 272.1 608.501 271.1 601.201 289.6C599.901 293 596.701 296.1 594.001 299.4C592.501 291.2 593.301 283.2 596.601 276L606.901 253.6C612.001 242.5 611.301 228 606.701 216.6C603.301 208.1 597.901 201.4 597.301 191.8L598.301 184.6C598.601 182.1 600.201 178.4 601.701 176.5L611.101 164.2L621.501 149.4C626.001 143 628.301 135.3 629.301 127.5C629.601 124.6 628.401 121.9 627.701 119.5C626.001 113.5 624.701 108.6 621.501 102.7C623.001 101.5 625.401 100.4 627.601 100C632.601 104.2 637.501 108.7 640.901 114.2L643.601 118.5L645.201 128.9L644.801 135.5C644.801 136.4 642.801 138.1 642.101 138.8L635.301 151.8C633.401 155.4 630.601 158.6 627.701 161.5L625.401 167.2L623.001 175.9C620.901 183.6 624.501 190.3 626.601 197.5L632.801 218.8C633.201 220.3 632.401 223.1 633.501 224.5C637.001 229.2 636.201 234.5 634.901 239.6L632.601 248.6L628.501 258.9H628.301Z" fill="white"/>
<path d="M719.099 283.799L719.599 289.299C719.599 290.399 718.099 292.199 716.999 292.199C715.699 292.199 714.399 291.099 713.899 289.899L709.799 280.299C708.599 277.599 709.199 272.899 709.899 269.999C715.199 249.499 727.799 246.799 730.999 240.599L739.199 224.899C740.999 221.399 741.699 216.799 741.099 212.599L738.699 195.799C738.599 194.999 737.299 193.299 736.599 192.199C737.199 191.599 738.699 190.299 739.599 189.899C740.999 189.199 745.899 190.999 748.099 195.099L751.599 201.799C751.799 206.499 752.599 210.399 753.899 215.199C754.699 218.299 754.999 224.599 753.699 227.799C752.399 231.199 751.399 235.999 749.699 238.399L738.799 254.399C736.199 258.299 730.899 260.499 727.599 263.699L724.599 267.499C722.299 270.299 721.299 273.099 720.099 276.599C719.299 278.999 718.699 280.899 718.899 283.699L719.099 283.799Z" fill="white"/>
<path d="M253.799 375.999C254.899 374.499 258.399 372.599 260.099 371.899L269.899 367.599C276.699 364.599 282.499 360.799 287.599 355.599C289.299 353.799 290.899 352.499 291.699 350.099C293.899 343.999 297.399 338.899 301.099 333.599C302.999 330.999 305.499 328.999 308.199 327.299C314.999 322.799 323.199 318.799 326.299 325.099C328.799 330.299 327.199 338.599 329.999 345.699C334.699 357.499 334.499 368.499 329.499 379.799L325.399 388.999C324.899 390.099 323.299 391.799 322.499 392.699L315.699 405.099L306.799 409.699C302.099 412.199 296.999 413.099 291.999 411.299C289.299 410.299 285.799 409.599 283.799 407.599C281.299 405.199 277.599 403.199 274.699 406.699C273.499 408.199 271.599 411.899 268.899 411.499L258.199 409.699C257.299 408.399 255.099 407.299 253.699 407.999C252.599 408.599 252.499 411.099 252.999 412.399L256.699 422.399L257.799 428.599C259.199 436.699 257.199 443.599 253.899 450.799L250.199 458.999L247.099 464.599L244.699 475.099C244.099 477.499 243.999 482.199 244.499 484.699C248.199 490.899 251.799 497.299 257.499 501.399L266.199 507.699C267.999 508.999 270.199 508.899 271.899 507.399L281.799 498.799C285.199 495.799 288.299 493.999 293.499 494.799L301.099 495.899L310.099 498.199L314.999 499.399L320.499 491.199C322.199 488.699 327.199 487.099 330.099 487.599L340.099 489.199L347.399 490.499C352.099 491.299 356.699 490.899 361.099 489.099L365.599 479.199C366.799 476.499 376.599 477.299 376.599 475.199V472.299L375.399 463.899C374.499 457.299 381.999 452.699 388.099 453.099C390.399 453.199 392.699 452.199 393.599 450.799C394.499 449.199 395.399 445.899 393.799 444.799C384.599 438.499 377.799 436.499 377.399 422.399C377.199 416.499 379.699 410.799 382.399 405.299C381.799 403.599 379.299 401.399 377.699 400.799C375.299 399.899 372.899 400.799 370.699 402.199C367.099 404.399 358.999 402.999 356.099 398.899L359.699 388.999L362.199 379.499L367.299 357.399C367.999 354.299 367.799 352.099 370.099 349.499C371.199 348.299 372.199 345.099 372.599 343.399L375.999 327.899L380.799 314.299L382.799 306.499C383.999 301.899 390.299 300.299 394.299 299.199C397.299 298.399 399.499 298.899 402.299 298.699L420.899 297.399C426.299 296.999 432.599 296.599 437.599 294.799L464.599 285.299L475.799 281.699C482.399 279.599 489.299 276.499 496.299 278.299L510.899 282.099L517.799 284.399C521.399 285.599 525.699 287.299 528.899 289.299L538.099 294.999L546.699 300.399C552.899 304.299 558.899 308.199 566.299 309.899L589.999 315.199C593.699 315.999 597.899 318.899 600.899 321.199L604.799 326.399C605.899 327.899 604.999 331.799 604.799 333.799C606.699 338.799 610.799 343.199 614.999 346.299L620.199 350.099C623.099 352.199 625.699 354.299 627.899 357.299L634.899 366.699C637.399 370.099 637.599 373.599 637.699 377.599C637.799 380.999 638.299 384.599 637.399 388.099L634.099 400.599L631.599 407.999C627.999 418.599 619.699 425.899 615.599 436.299L609.499 441.199C606.799 443.399 604.099 445.099 602.199 448.099C600.299 451.099 597.299 453.599 594.499 455.899L593.199 459.699L589.299 464.899L581.999 476.199L577.599 487.399C575.299 493.399 572.599 499.299 569.099 504.599L564.899 510.799C562.099 514.999 558.299 517.899 554.399 521.099L547.499 526.799C539.499 533.399 514.499 529.499 501.499 549.899C498.299 554.999 493.599 558.599 488.199 560.999L481.999 563.799L475.899 565.899C472.799 566.899 470.099 568.199 466.899 568.699C461.899 569.299 454.999 568.099 450.099 565.999L444.799 565.199L432.499 560.299L426.899 557.899C417.599 554.799 408.699 551.999 399.899 547.699C393.699 544.599 387.399 544.699 380.699 544.499C373.999 544.299 369.399 545.299 363.799 548.599L357.199 552.399C352.499 555.099 344.399 555.899 340.999 554.799L330.999 551.399C327.999 550.399 325.499 547.899 323.599 545.499L316.399 536.199C314.999 534.399 311.099 531.599 308.999 530.799L300.299 527.399L292.699 524.699L279.699 520.599L272.899 518.499C261.299 514.899 248.599 507.699 240.899 498.499C240.099 497.499 239.099 496.099 238.499 494.799L236.299 489.599C233.999 485.699 233.299 482.399 234.399 477.799C238.499 460.699 248.599 448.699 248.299 434.899C248.199 429.099 247.199 423.999 244.799 418.899C240.999 410.999 242.299 392.499 248.099 384.499L253.999 376.499L253.799 375.999ZM485.699 435.299C490.299 432.699 494.699 431.199 499.399 429.899C503.699 428.699 507.699 426.699 512.299 429.099C514.899 430.499 518.499 433.099 519.899 435.899C521.699 439.299 523.599 443.699 527.599 443.799C531.599 443.899 533.699 441.299 536.399 438.899L541.099 434.699C546.699 429.799 551.999 424.699 560.199 424.199C561.799 424.199 564.999 425.699 566.599 426.399L575.799 430.099C578.299 431.099 580.599 432.499 583.599 430.499L597.199 421.799C601.699 418.999 611.299 424.399 621.599 408.299L624.699 400.599C629.999 391.399 631.199 382.699 627.999 372.599C627.199 369.899 626.799 366.899 625.099 364.399L622.399 360.399C619.099 355.399 615.699 351.499 610.799 348.199C605.199 344.499 600.699 340.499 595.499 335.299L586.899 342.599C578.599 349.699 572.199 339.999 567.499 346.899L563.599 352.599C559.599 358.599 553.199 362.399 545.799 360.899L532.399 358.199C528.699 357.499 525.699 362.899 523.899 365.399L519.699 371.599C516.299 376.699 511.399 376.999 506.099 375.299L492.399 370.999C491.499 370.699 488.799 370.899 488.099 371.499C486.299 373.299 485.499 381.599 478.099 391.699C476.499 393.799 477.999 396.699 478.499 398.899C479.699 403.899 478.799 409.499 478.499 414.699C478.299 417.299 477.599 418.999 476.699 421.199L472.499 431.199C471.799 432.899 467.499 434.899 467.499 436.799C467.799 441.299 476.299 440.199 479.999 438.099L485.599 434.899L485.699 435.299ZM415.899 441.699L423.699 441.999C433.199 441.099 442.099 438.999 450.899 435.699L455.899 431.899C460.899 428.099 463.599 422.599 466.799 417.599C471.499 410.299 471.399 403.099 466.599 395.799L463.199 390.599C461.499 387.999 460.099 385.799 457.799 383.999C449.899 377.899 437.099 379.499 428.199 383.999L419.599 388.299C414.999 390.599 411.399 396.199 405.899 396.799C403.899 396.999 401.799 396.799 400.099 398.199C389.499 406.399 385.799 411.899 386.699 427.199C386.999 432.899 392.199 437.799 397.599 438.999C399.099 438.599 401.999 437.899 403.099 438.599C406.999 440.999 411.299 441.499 415.899 441.599V441.699ZM523.999 449.299L518.399 446.199C516.999 448.399 521.199 451.999 521.799 451.399L523.999 449.199V449.299ZM530.799 473.299C527.399 472.899 524.399 475.099 524.399 478.499C526.999 477.599 529.199 475.999 530.799 473.299ZM489.499 496.499L483.899 499.199C483.399 499.399 482.599 501.099 483.099 501.399C484.699 502.399 491.399 499.899 489.499 496.499ZM415.799 508.599L406.899 507.999C403.199 507.799 399.099 506.799 395.499 508.799C403.999 511.099 419.799 511.199 417.799 509.599C417.499 509.399 416.299 508.599 415.799 508.499V508.599ZM358.299 511.399L351.699 509.399V510.899L359.599 514.099C359.999 514.299 360.899 512.299 360.399 512.199L358.199 511.399H358.299Z" fill="white"/>
<path d="M335.999 453.4C337.399 458 339.099 461.9 341.899 465.7C343.199 467.5 343.099 470.7 342.899 472.9L342.699 475.5C342.699 476.2 340.199 476.3 339.599 476L334.099 472.9L329.299 461.1C328.399 459 325.999 457.1 323.799 456.5C320.499 455.5 319.899 453.5 318.599 451.2C315.399 445.5 316.099 440.6 316.799 434.6C317.899 424.4 321.099 415.8 326.499 407C329.799 401.8 331.599 395.5 334.499 389.8C337.999 382.9 338.999 375.3 340.799 367.7C341.399 365.2 342.799 361.4 342.399 359.1L339.999 347.9C338.399 340.4 336.399 333.6 338.199 326L341.799 311.1C343.999 302.3 353.999 292.5 360.899 285.4C361.899 283.1 360.699 278.2 359.499 275.7C355.599 267.9 348.199 254.9 350.099 250.1C350.899 248.1 352.599 247.1 354.499 245.8C357.899 243.4 361.399 242.6 365.399 241.6C373.899 239.5 388.299 233.6 391.899 241.7C392.899 243.9 393.699 245.9 395.099 247.5C398.999 252 399.199 257.6 400.499 263.1C401.799 268.6 405.899 273.9 405.399 279.8C404.999 284.6 399.999 287.3 396.099 288.7L384.899 292.5L375.799 294.7C372.599 295.5 371.199 301 370.499 303.9L367.599 316.8C365.999 319.7 365.599 323.1 365.999 326.8C363.499 330.9 361.899 335.4 361.699 340.3C361.499 346 359.999 350.4 357.599 355.7L355.299 365.8C353.599 369.4 353.099 371.6 352.999 375.8C352.999 378.8 351.499 382.7 350.599 385.7L344.599 404.3L343.099 411.9L340.799 420.7L335.599 437.2C333.499 443.7 330.899 448.3 335.899 453.3L335.999 453.4Z" fill="white"/>
<path d="M436.8 417.399C434.9 421.699 429 422.199 425.1 419.799C420.5 416.899 418.1 412.399 418.6 411.299C419.5 408.899 426.7 404.799 429.9 406.699L436.7 410.699C437.2 412.099 437.5 415.899 436.8 417.499V417.399Z" fill="white"/>
</g>
</svg>
