<?xml version="1.0" encoding="UTF-8" standalone="no"?>
<!DOCTYPE svg PUBLIC "-//W3C//DTD SVG 1.1//EN" "http://www.w3.org/Graphics/SVG/1.1/DTD/svg11.dtd">
<svg width="100%" height="100%" viewBox="0 0 4185 1750" version="1.1" xmlns="http://www.w3.org/2000/svg" xmlns:xlink="http://www.w3.org/1999/xlink" xml:space="preserve" xmlns:serif="http://www.serif.com/" style="fill-rule:evenodd;clip-rule:evenodd;stroke-linejoin:round;stroke-miterlimit:2;">
    <g transform="matrix(0.955705,0,0,0.955705,28.466498,3.747673)">
        <g transform="matrix(4.235855,0,0,4.235855,-35.86029,-14.681783)">
            <path d="M64.473,207.322C64.829,207.203 65.067,206.965 65.185,206.609C65.304,206.253 65.245,206.016 65.007,205.897C64.295,205.422 63.464,205.659 62.514,206.609C62.158,206.965 62.098,207.262 62.336,207.5C62.811,207.975 63.523,207.915 64.473,207.322ZM81.393,184.703C81.393,184.465 81.274,184.346 81.037,184.346C80.68,184.346 80.502,184.465 80.502,184.703C80.502,185.059 80.68,185.237 81.037,185.237C81.274,185.237 81.393,185.059 81.393,184.703ZM71.597,177.044C71.953,177.163 72.309,177.163 72.666,177.044C73.378,176.926 73.497,176.807 73.022,176.688C72.903,176.569 72.606,176.51 72.131,176.51L71.241,176.866C71.241,176.985 71.36,177.044 71.597,177.044ZM35.798,171.523C35.798,170.692 35.502,170.276 34.908,170.276C34.314,170.276 34.017,170.692 34.017,171.523C34.017,172.473 34.314,172.948 34.908,172.948C35.502,172.948 35.798,172.473 35.798,171.523ZM90.654,171.167C91.485,171.167 91.901,170.276 91.901,168.495C91.901,166.714 91.485,165.824 90.654,165.824C89.823,165.824 89.407,166.714 89.407,168.495C89.407,170.276 89.823,171.167 90.654,171.167ZM92.791,149.617C92.791,149.379 92.672,149.26 92.435,149.26C92.079,149.26 91.901,149.379 91.901,149.617C91.901,149.973 92.079,150.151 92.435,150.151C92.672,150.151 92.791,149.973 92.791,149.617ZM90.12,142.136C90.713,142.136 91.01,141.839 91.01,141.246C91.01,140.652 90.713,140.355 90.12,140.355C89.645,140.355 89.407,140.652 89.407,141.246C89.407,141.839 89.645,142.136 90.12,142.136ZM97.066,134.834C97.184,133.884 96.709,133.409 95.641,133.409C94.335,133.409 93.682,134.003 93.682,135.19C93.682,135.903 93.919,136.378 94.394,136.615C94.988,136.853 95.522,136.793 95.997,136.437C96.591,136.081 96.947,135.546 97.066,134.834ZM73.022,132.519C73.972,132.519 74.447,132.222 74.447,131.628C74.447,131.035 73.972,130.738 73.022,130.738C72.191,130.738 71.775,131.035 71.775,131.628C71.775,132.222 72.191,132.519 73.022,132.519ZM79.433,116.49C79.671,116.015 79.433,115.777 78.721,115.777C78.127,115.777 77.949,116.015 78.187,116.49C78.543,116.727 78.959,116.727 79.433,116.49ZM76.228,106.694L76.406,107.584C76.762,107.11 76.881,106.456 76.762,105.625C76.643,105.388 76.525,105.507 76.406,105.982L76.228,106.694ZM55.924,40.44C57.705,39.846 62.395,39.549 69.994,39.549C76.762,39.549 81.927,39.846 85.489,40.44C89.288,41.152 91.723,42.043 92.791,43.111C93.979,44.18 96.71,45.011 100.984,45.605C103.596,46.08 105.436,46.555 106.505,47.03C107.574,47.505 108.702,48.395 109.889,49.701C111.67,51.72 112.917,52.729 113.629,52.729C114.579,52.729 115.173,53.204 115.41,54.154C116.123,56.054 117.132,57.953 118.438,59.853C120.1,62.584 120.931,65.552 120.931,68.758C120.931,72.083 121.228,74.517 121.822,76.06C122.178,76.773 122.356,77.545 122.356,78.376C122.356,78.969 122.119,80.097 121.644,81.76C121.169,83.184 120.635,84.134 120.041,84.609C119.566,85.084 118.557,85.381 117.013,85.5C113.095,85.856 110.423,86.034 108.999,86.034L102.053,86.034C96.591,86.034 93.622,85.737 93.147,85.144C92.791,84.55 91.96,84.253 90.654,84.253C89.467,84.253 88.22,82.947 86.914,80.335C85.608,77.723 84.658,76.417 84.064,76.417C83.589,76.417 82.877,75.585 81.927,73.923C80.858,72.142 79.255,70.955 77.118,70.361C75.1,69.649 71.716,69.293 66.966,69.293C57.824,69.293 51.234,70.717 47.197,73.567C45.179,74.992 43.813,76.535 43.101,78.198C42.388,79.741 41.913,82.591 41.676,86.746C41.676,86.984 41.617,87.4 41.498,87.993L41.498,89.418C41.498,95.592 43.338,99.985 47.019,102.598C48.325,103.547 50.284,104.141 52.896,104.379C55.627,104.497 62.811,104.616 74.447,104.735C90.832,104.735 99.262,105.091 99.737,105.803C100.093,106.278 101.34,107.05 103.477,108.119C105.733,109.187 107.217,109.722 107.93,109.722C108.998,109.722 110.839,111.325 113.451,114.53C116.182,117.618 117.666,119.933 117.904,121.476C118.379,123.614 118.794,124.682 119.15,124.682C121.05,124.682 122,133.053 122,149.795L122,157.453C122,163.271 121.881,166.952 121.644,168.495C121.525,170.039 121.05,171.404 120.219,172.592C118.913,174.491 118.26,176.51 118.26,178.647C118.26,180.903 117.547,183.575 116.123,186.662L113.807,191.649C113.807,192.005 112.976,193.073 111.314,194.854C109.652,196.636 108.702,197.526 108.464,197.526C108.108,197.526 107.158,198.179 105.615,199.485C103.952,200.91 101.815,202.038 99.203,202.869C96.353,203.581 94.632,204.413 94.038,205.363C93.326,206.431 90.951,207.144 86.914,207.5C75.515,208.331 69.4,209.103 68.569,209.815C67.738,210.409 65.482,210.884 61.801,211.24C60.733,211.359 59.486,211.418 58.061,211.418C56.399,211.418 55.152,210.943 54.321,209.993C53.371,208.925 50.462,208.212 45.594,207.856C41.082,207.5 37.995,206.787 36.333,205.719C34.908,204.888 32.83,203.938 30.099,202.869C27.487,201.919 25.706,201.444 24.756,201.444L24.4,201.444C24.044,201.682 22.619,200.316 20.125,197.348C17.751,194.498 16.445,193.073 16.207,193.073C15.257,192.955 14.307,192.005 13.358,190.224C12.408,188.443 11.814,186.365 11.577,183.99C11.339,181.734 10.745,179.597 9.796,177.579C8.964,175.441 8.49,172.651 8.371,169.208C8.252,167.783 8.193,166.18 8.193,164.399C8.193,162.143 8.786,160.421 9.974,159.234C11.161,157.809 12.586,157.097 14.248,157.097C15.198,157.097 16.267,156.859 17.454,156.384C18.76,155.791 19.769,155.494 20.482,155.494C21.075,155.494 21.907,155.672 22.975,156.028C24.994,156.741 26.478,157.097 27.428,157.097C28.259,157.097 28.793,156.8 29.031,156.206C29.149,155.731 30.04,155.731 31.702,156.206C33.246,156.8 35.502,157.097 38.47,157.097C40.37,157.097 41.557,157.216 42.032,157.453C42.626,157.691 43.041,158.284 43.279,159.234C43.635,160.54 44.229,161.193 45.06,161.193C45.654,161.074 45.891,160.6 45.772,159.768C45.535,159.175 45.654,158.878 46.128,158.878C46.722,158.878 47.316,159.353 47.91,160.303C48.622,161.134 48.978,162.024 48.978,162.974C48.978,164.28 49.275,164.933 49.869,164.933C50.462,164.933 50.759,166.002 50.759,168.139C50.759,169.445 50.937,170.395 51.293,170.989C51.65,171.464 52.54,171.998 53.965,172.592C55.983,173.66 57.23,173.779 57.705,172.948C58.299,172.236 58.714,172.176 58.952,172.77C59.308,173.363 63.167,173.66 70.528,173.66C77.89,173.66 81.689,173.363 81.927,172.77C82.639,171.939 83.471,171.404 84.42,171.167C85.727,170.692 86.558,169.386 86.914,167.249C87.389,164.993 87.626,160.837 87.626,154.782C87.626,145.52 85.964,139.405 82.639,136.437C81.689,135.487 80.621,134.893 79.433,134.656C78.365,134.419 75.931,134.3 72.131,134.3C66.67,134.3 63.939,134.597 63.939,135.19C63.939,135.784 62.751,136.081 60.377,136.081C58.002,136.081 56.815,135.784 56.815,135.19C56.815,134.597 56.102,134.3 54.677,134.3C53.252,134.3 52.54,134.597 52.54,135.19C52.54,135.784 51.471,136.081 49.334,136.081C47.316,136.081 46.307,135.784 46.307,135.19C46.307,134.597 45.416,134.3 43.635,134.3C41.379,134.3 40.192,134.656 40.073,135.368C39.954,135.962 38.589,136.259 35.977,136.259C33.364,136.259 31.88,135.962 31.524,135.368C31.168,134.893 29.743,134.3 27.25,133.587C24.756,132.875 22.856,132.519 21.55,132.519C20.363,132.519 18.582,131.391 16.207,129.135C13.951,126.76 12.348,124.445 11.399,122.189C10.33,120.052 9.618,118.686 9.261,118.092C8.668,117.024 8.252,111.918 8.015,102.776C8.015,99.451 7.955,96.008 7.836,92.446L7.48,86.925C7.48,85.262 7.718,82.947 8.193,79.979C8.668,76.891 9.083,75.229 9.439,74.992C9.796,74.873 10.271,72.973 10.864,69.293C11.458,65.612 11.873,63.712 12.111,63.593C12.705,63.356 13.298,62.168 13.892,60.031C14.486,58.013 16.267,55.519 19.235,52.551C22.322,49.583 25.409,47.861 28.496,47.386C31.94,46.792 34.314,46.02 35.62,45.071C36.689,44.358 37.758,44.002 38.826,44.002C39.539,44.002 40.073,43.705 40.429,43.111C40.785,42.518 43.041,42.102 47.197,41.865C51.234,41.627 54.143,41.152 55.924,40.44ZM241.776,201.622C242.014,201.147 241.776,200.91 241.064,200.91C240.47,200.91 240.292,201.147 240.53,201.622C241.005,201.86 241.42,201.86 241.776,201.622ZM136.696,200.554C136.696,199.604 136.399,199.129 135.806,199.129C135.449,199.248 135.271,199.485 135.271,199.841C135.39,200.198 135.568,200.613 135.806,201.088C136.043,201.563 136.221,201.8 136.34,201.8C136.577,201.8 136.696,201.385 136.696,200.554ZM153.794,179.538L153.794,175.441C153.319,175.441 152.903,175.976 152.547,177.044C152.31,178.113 152.25,179.241 152.369,180.428C152.607,182.447 152.903,183.456 153.26,183.456C153.616,183.456 153.794,182.15 153.794,179.538ZM233.762,164.755C233.999,164.28 233.999,163.865 233.762,163.509C233.406,163.39 233.227,163.568 233.227,164.043C233.346,164.518 233.524,164.755 233.762,164.755ZM225.213,146.055C225.213,145.817 225.094,145.698 224.857,145.698C224.619,145.698 224.5,145.817 224.5,146.055C224.5,146.411 224.619,146.589 224.857,146.589C225.094,146.589 225.213,146.411 225.213,146.055ZM182.825,148.192C182.587,147.717 182.231,146.767 181.756,145.342C181.4,143.917 180.984,142.73 180.509,141.78C180.034,140.83 179.559,140.118 179.084,139.643C178.253,138.812 177.838,138.752 177.838,139.465L178.194,141.78C178.55,143.442 179.144,144.867 179.975,146.055C180.925,147.123 181.578,148.192 181.934,149.26C182.528,150.685 182.943,151.398 183.181,151.398C183.418,151.398 183.537,151.16 183.537,150.685C183.537,149.854 183.3,149.023 182.825,148.192ZM172.317,126.998C172.554,126.523 172.554,126.107 172.317,125.751C172.198,125.632 172.079,125.691 171.96,125.929C171.842,126.048 171.782,126.226 171.782,126.463C171.782,127.057 171.96,127.235 172.317,126.998ZM213.636,72.676C213.874,71.727 213.874,70.658 213.636,69.471C213.518,68.758 213.399,68.402 213.28,68.402C213.161,68.402 212.924,68.758 212.568,69.471C212.093,70.658 212.093,71.727 212.568,72.676C212.924,73.389 213.161,73.745 213.28,73.745C213.399,73.745 213.518,73.389 213.636,72.676ZM253.353,45.249C253.353,44.892 253.234,44.714 252.997,44.714C252.641,44.714 252.463,44.892 252.463,45.249C252.463,45.486 252.641,45.605 252.997,45.605C253.234,45.605 253.353,45.486 253.353,45.249ZM177.838,149.973C177.838,149.142 177.541,148.37 176.947,147.657C176.472,146.945 176.235,146.233 176.235,145.52C176.235,144.452 175.76,143.917 174.81,143.917C173.979,143.917 173.563,145.639 173.563,149.082C173.563,152.526 173.86,154.366 174.454,154.603C175.047,154.841 175.463,162.737 175.701,178.291L176.235,201.622L173.385,204.472C171.723,206.016 170.179,206.787 168.755,206.787C167.805,206.787 167.033,206.728 166.439,206.609C163.115,206.372 157.059,206.134 148.273,205.897C138.774,205.778 133.609,205.303 132.778,204.472C132.065,203.878 131.709,195.745 131.709,180.072C131.709,179.835 131.947,150.27 132.422,91.377C132.422,89.359 132.303,80.394 132.065,64.484L131.887,42.577L138.655,42.577C143.167,42.577 145.779,42.221 146.492,41.509C147.085,40.915 150.707,40.618 157.356,40.618L167.33,40.618L170.001,43.29C171.782,45.071 172.673,46.317 172.673,47.03C172.673,47.861 173.029,48.633 173.741,49.345C175.879,51.482 177.422,54.866 178.372,59.497C178.847,61.397 179.322,62.346 179.797,62.346C180.509,62.346 180.984,62.821 181.222,63.771C181.815,65.315 182.528,66.562 183.359,67.511C184.428,68.818 184.962,70.064 184.962,71.252C184.962,72.32 185.199,72.855 185.674,72.855C185.912,72.855 186.624,74.339 187.811,77.307C188.524,79.326 189.771,81.819 191.552,84.787L193.511,87.815L194.579,84.609C195.292,82.235 196.479,80.335 198.141,78.91C199.922,77.248 201.05,74.873 201.525,71.786C202.119,68.461 203.188,65.968 204.731,64.306C206.393,62.406 207.284,60.803 207.403,59.497C207.64,57.835 208.056,57.003 208.649,57.003C209.006,57.003 209.421,56.172 209.896,54.51C210.015,53.204 210.787,51.839 212.211,50.414C213.28,49.583 213.814,48.811 213.814,48.098C213.814,47.623 213.992,47.148 214.349,46.673C214.705,46.08 215.12,45.545 215.595,45.071C216.189,44.477 216.605,44.002 216.842,43.646C217.317,43.052 219.098,42.458 222.185,41.865C225.272,41.271 228.122,40.974 230.734,40.974C232.515,40.974 233.881,41.152 234.83,41.509C236.255,42.102 237.621,42.102 238.927,41.509C240.47,40.796 243.439,40.44 247.832,40.44C251.513,40.44 253.353,40.737 253.353,41.331C253.353,41.924 254.065,42.221 255.49,42.221C256.915,42.221 257.746,42.755 257.984,43.824L257.984,44.714C258.102,45.189 258.162,45.664 258.162,46.139C258.162,49.583 257.924,54.629 257.449,61.278C256.974,67.927 256.618,71.489 256.381,71.964C256.262,72.083 256.203,72.498 256.203,73.211C256.203,74.279 256.44,77.307 256.915,82.294C257.271,85.618 257.449,88.29 257.449,90.308C257.449,92.208 257.271,93.811 256.915,95.117C256.678,95.948 256.559,98.917 256.559,104.022C256.559,111.74 256.678,118.686 256.915,124.86C257.153,136.971 257.271,143.799 257.271,145.342C257.271,150.566 257.093,154.247 256.737,156.384C256.381,158.403 256.203,160.125 256.203,161.549C256.203,162.855 256.381,164.399 256.737,166.18C257.449,169.98 257.806,175.56 257.806,182.922L257.806,189.155C257.806,193.786 257.924,196.576 258.162,197.526C258.399,198.595 258.34,199.901 257.984,201.444C257.627,202.75 257.093,203.581 256.381,203.938C255.787,204.294 254.303,204.591 251.928,204.828C243.736,205.778 233.584,206.253 221.473,206.253C219.573,206.253 217.792,205.363 216.13,203.581L213.458,200.554L213.102,184.881C213.102,183.693 213.043,182.091 212.924,180.072L212.924,175.798C212.924,172.948 212.983,169.386 213.102,165.111C213.221,160.837 213.28,157.572 213.28,155.316C213.28,151.279 213.221,147.954 213.102,145.342L212.746,134.834L211.143,138.574C210.074,140.83 209.243,142.136 208.649,142.492C208.056,143.086 207.462,145.342 206.868,149.26C206.275,153.179 205.087,156.266 203.306,158.522C201.644,160.54 200.635,162.855 200.279,165.468C199.922,167.605 198.794,169.92 196.895,172.414C195.114,174.788 193.57,175.976 192.264,175.976L191.73,175.976C191.136,175.738 190.186,173.838 188.88,170.276C187.693,166.596 186.862,164.636 186.387,164.399C185.912,164.043 184.665,162.084 182.646,158.522C180.747,154.96 179.559,153 179.084,152.644C178.253,152.051 177.838,151.16 177.838,149.973ZM38.47,367.114C38.708,366.639 38.47,366.402 37.758,366.402C37.164,366.402 36.986,366.639 37.223,367.114C37.58,367.352 37.995,367.352 38.47,367.114ZM19.947,340.755C20.185,340.28 20.007,340.043 19.413,340.043C18.701,340.043 18.463,340.28 18.701,340.755C19.057,340.993 19.473,340.993 19.947,340.755ZM104.546,304.066C104.546,303.591 103.18,303.354 100.45,303.354C96.65,303.354 94.75,304.126 94.75,305.669C94.75,306.619 96.175,306.856 99.025,306.382C102.706,305.788 104.546,305.016 104.546,304.066ZM10.152,219.111C11.102,218.043 13.002,217.39 15.851,217.152C18.701,216.915 25.706,216.796 36.867,216.796C48.266,216.796 54.084,217.212 54.321,218.043C54.44,218.637 55.33,218.933 56.993,218.933C58.774,218.933 59.724,218.637 59.842,218.043C59.961,217.449 62.158,217.152 66.432,217.152C72.369,217.152 75.871,217.568 76.94,218.399C77.89,219.111 78.602,219.052 79.077,218.221C79.671,217.271 82.877,216.796 88.695,216.796C92.969,216.796 95.225,217.152 95.463,217.865C95.938,218.696 96.769,219.111 97.956,219.111C99.144,219.111 100.093,218.755 100.806,218.043C101.518,217.33 103.596,216.974 107.039,216.974C109.414,216.974 111.017,217.152 111.848,217.509C112.798,217.865 113.867,218.637 115.054,219.824C116.123,221.011 116.776,222.08 117.013,223.03C117.369,223.98 117.547,225.701 117.547,228.195L117.547,233.182C117.547,236.506 118.022,239.237 118.972,241.374C119.922,243.511 120.1,244.818 119.507,245.292C118.675,245.767 118.141,247.964 117.904,251.882C117.666,255.682 117.251,257.582 116.657,257.582C116.182,257.582 115.944,257.997 115.944,258.828C115.944,260.134 111.967,260.787 104.012,260.787L101.518,260.787C100.331,260.669 99.44,260.609 98.847,260.609C90.06,260.253 79.315,260.075 66.61,260.075C60.555,260.075 57.23,260.134 56.636,260.253L55.034,260.253C53.727,260.253 51.65,260.134 48.8,259.897L43.457,259.363L42.032,262.747C40.964,265.24 40.429,267.674 40.429,270.049C40.429,271.592 40.607,273.314 40.964,275.214L41.498,278.598L46.841,278.954L49.334,278.954C52.54,278.954 55.034,278.776 56.815,278.419C58.477,278.182 59.664,278.063 60.377,278.063C61.92,278.063 63.998,278.419 66.61,279.132C68.51,279.726 70.647,280.022 73.022,280.022C74.565,280.022 75.753,279.963 76.584,279.844C79.077,279.488 85.43,279.31 95.641,279.31C98.016,279.31 100.45,279.369 102.943,279.488L112.561,279.488C113.748,279.488 114.46,279.785 114.698,280.379C114.935,280.854 115.054,282.397 115.054,285.009C115.054,293.796 114.698,298.545 113.985,299.257C113.51,299.732 113.273,300.979 113.273,302.998C113.273,304.897 113.51,305.907 113.985,306.025C114.46,306.025 114.935,307.213 115.41,309.587C115.885,311.725 115.41,313.149 113.985,313.862C112.798,314.455 111.67,315.405 110.601,316.711C109.77,317.899 104.605,318.492 95.106,318.492C93.682,318.492 82.758,318.374 62.336,318.136L57.527,318.136C54.677,318.136 52.599,318.018 51.293,317.78C48.681,317.305 47.256,317.602 47.019,318.671C46.782,319.383 46.663,323.182 46.663,330.069C46.663,338.974 46.782,345.98 47.019,351.085C47.494,362.246 47.731,368.183 47.731,368.895C47.731,372.457 47.375,374.713 46.663,375.663C46.069,376.613 44.704,377.326 42.566,377.8C39.836,378.513 37.995,379.344 37.045,380.294C36.452,380.888 35.086,381.184 32.949,381.184C29.624,381.184 27.784,380.709 27.428,379.76C27.19,379.047 26.656,379.047 25.825,379.76C25.231,380.353 23.569,380.65 20.838,380.65C16.801,380.65 14.486,380.175 13.892,379.225C13.773,378.988 13.417,378.513 12.823,377.8C12.348,377.207 12.052,376.851 11.933,376.732C11.339,376.138 10.805,374.891 10.33,372.992C9.618,369.548 9.024,342.061 8.549,290.53C8.311,278.182 7.955,269.989 7.48,265.952C7.362,265.121 7.302,263.934 7.302,262.39C7.302,259.897 7.658,256.869 8.371,253.307C9.083,249.864 9.439,247.192 9.439,245.292C9.439,244.58 9.202,242.087 8.727,237.812C8.252,233.063 8.015,229.976 8.015,228.551C8.015,223.683 8.727,220.536 10.152,219.111ZM239.689,377.622C239.927,377.147 239.689,376.91 238.977,376.91C238.383,376.91 238.205,377.147 238.443,377.622C238.917,377.86 239.333,377.86 239.689,377.622ZM134.609,376.554C134.609,375.604 134.312,375.129 133.719,375.129C133.362,375.248 133.184,375.485 133.184,375.841C133.303,376.198 133.481,376.613 133.719,377.088C133.956,377.563 134.134,377.8 134.253,377.8C134.49,377.8 134.609,377.385 134.609,376.554ZM151.707,355.538L151.707,351.441C151.232,351.441 150.816,351.976 150.46,353.044C150.223,354.113 150.163,355.241 150.282,356.428C150.519,358.447 150.816,359.456 151.173,359.456C151.529,359.456 151.707,358.15 151.707,355.538ZM231.675,340.755C231.912,340.28 231.912,339.865 231.675,339.509C231.318,339.39 231.14,339.568 231.14,340.043C231.259,340.518 231.437,340.755 231.675,340.755ZM223.126,322.055C223.126,321.817 223.007,321.698 222.77,321.698C222.532,321.698 222.413,321.817 222.413,322.055C222.413,322.411 222.532,322.589 222.77,322.589C223.007,322.589 223.126,322.411 223.126,322.055ZM180.737,324.192C180.5,323.717 180.144,322.767 179.669,321.342C179.313,319.917 178.897,318.73 178.422,317.78C177.947,316.83 177.472,316.118 176.997,315.643C176.166,314.812 175.751,314.752 175.751,315.465L176.107,317.78C176.463,319.442 177.057,320.867 177.888,322.055C178.838,323.123 179.491,324.192 179.847,325.26C180.441,326.685 180.856,327.398 181.094,327.398C181.331,327.398 181.45,327.16 181.45,326.685C181.45,325.854 181.212,325.023 180.737,324.192ZM170.229,302.998C170.467,302.523 170.467,302.107 170.229,301.751C170.111,301.632 169.992,301.691 169.873,301.929C169.755,302.048 169.695,302.226 169.695,302.463C169.695,303.057 169.873,303.235 170.229,302.998ZM211.549,248.676C211.787,247.727 211.787,246.658 211.549,245.471C211.43,244.758 211.312,244.402 211.193,244.402C211.074,244.402 210.837,244.758 210.481,245.471C210.006,246.658 210.006,247.727 210.481,248.676C210.837,249.389 211.074,249.745 211.193,249.745C211.312,249.745 211.43,249.389 211.549,248.676ZM251.266,221.249C251.266,220.893 251.147,220.714 250.91,220.714C250.554,220.714 250.375,220.893 250.375,221.249C250.375,221.486 250.554,221.605 250.91,221.605C251.147,221.605 251.266,221.486 251.266,221.249ZM175.751,325.973C175.751,325.142 175.454,324.37 174.86,323.657C174.385,322.945 174.148,322.233 174.148,321.52C174.148,320.452 173.673,319.917 172.723,319.917C171.892,319.917 171.476,321.639 171.476,325.082C171.476,328.526 171.773,330.366 172.367,330.603C172.96,330.841 173.376,338.737 173.613,354.291L174.148,377.622L171.298,380.472C169.636,382.016 168.092,382.787 166.667,382.787C165.718,382.787 164.946,382.728 164.352,382.609C161.028,382.372 154.972,382.134 146.186,381.897C136.687,381.778 131.522,381.303 130.691,380.472C129.978,379.878 129.622,371.745 129.622,356.072C129.622,355.835 129.86,326.27 130.335,267.377C130.335,265.359 130.216,256.394 129.978,240.484L129.8,218.577L136.568,218.577C141.08,218.577 143.692,218.221 144.405,217.509C144.998,216.915 148.62,216.618 155.269,216.618L165.243,216.618L167.914,219.29C169.695,221.071 170.586,222.317 170.586,223.03C170.586,223.861 170.942,224.633 171.654,225.345C173.791,227.482 175.335,230.866 176.285,235.497C176.76,237.397 177.235,238.347 177.71,238.347C178.422,238.347 178.897,238.821 179.135,239.771C179.728,241.315 180.441,242.562 181.272,243.511C182.34,244.818 182.875,246.064 182.875,247.252C182.875,248.32 183.112,248.855 183.587,248.855C183.825,248.855 184.537,250.339 185.724,253.307C186.437,255.326 187.683,257.819 189.464,260.787L191.424,263.815L192.492,260.609C193.205,258.235 194.392,256.335 196.054,254.91C197.835,253.248 198.963,250.873 199.438,247.786C200.032,244.461 201.1,241.968 202.644,240.306C204.306,238.406 205.197,236.803 205.316,235.497C205.553,233.835 205.969,233.003 206.562,233.003C206.918,233.003 207.334,232.172 207.809,230.51C207.928,229.204 208.7,227.838 210.124,226.414C211.193,225.583 211.727,224.811 211.727,224.098C211.727,223.623 211.905,223.148 212.262,222.674C212.618,222.08 213.033,221.546 213.508,221.071C214.102,220.477 214.518,220.002 214.755,219.646C215.23,219.052 217.011,218.458 220.098,217.865C223.185,217.271 226.035,216.974 228.647,216.974C230.428,216.974 231.793,217.152 232.743,217.509C234.168,218.102 235.534,218.102 236.84,217.509C238.383,216.796 241.352,216.44 245.745,216.44C249.426,216.44 251.266,216.737 251.266,217.33C251.266,217.924 251.978,218.221 253.403,218.221C254.828,218.221 255.659,218.755 255.897,219.824L255.897,220.714C256.015,221.189 256.075,221.664 256.075,222.139C256.075,225.583 255.837,230.629 255.362,237.278C254.887,243.927 254.531,247.489 254.294,247.964C254.175,248.083 254.116,248.498 254.116,249.211C254.116,250.279 254.353,253.307 254.828,258.294C255.184,261.619 255.362,264.29 255.362,266.309C255.362,268.208 255.184,269.811 254.828,271.117C254.59,271.948 254.472,274.917 254.472,280.022C254.472,287.74 254.59,294.686 254.828,300.86C255.065,312.971 255.184,319.799 255.184,321.342C255.184,326.566 255.006,330.247 254.65,332.384C254.294,334.403 254.116,336.125 254.116,337.549C254.116,338.855 254.294,340.399 254.65,342.18C255.362,345.98 255.718,351.56 255.718,358.922L255.718,365.155C255.718,369.786 255.837,372.576 256.075,373.526C256.312,374.595 256.253,375.901 255.897,377.444C255.54,378.75 255.006,379.581 254.294,379.938C253.7,380.294 252.216,380.591 249.841,380.828C241.648,381.778 231.497,382.253 219.386,382.253C217.486,382.253 215.705,381.363 214.043,379.581L211.371,376.554L211.015,360.881C211.015,359.693 210.955,358.091 210.837,356.072L210.837,351.798C210.837,348.948 210.896,345.386 211.015,341.111C211.134,336.837 211.193,333.572 211.193,331.316C211.193,327.279 211.134,323.954 211.015,321.342L210.659,310.834L209.056,314.574C207.987,316.83 207.156,318.136 206.562,318.492C205.969,319.086 205.375,321.342 204.781,325.26C204.188,329.179 203,332.266 201.219,334.522C199.557,336.54 198.548,338.855 198.191,341.468C197.835,343.605 196.707,345.92 194.808,348.414C193.027,350.788 191.483,351.976 190.177,351.976L189.643,351.976C189.049,351.738 188.099,349.838 186.793,346.276C185.606,342.596 184.774,340.636 184.3,340.399C183.825,340.043 182.578,338.084 180.559,334.522C178.66,330.96 177.472,329 176.997,328.644C176.166,328.051 175.751,327.16 175.751,325.973Z" style="fill:rgb(44,38,53);fill-rule:nonzero;"/>
        </g>
        <g transform="matrix(4.235855,0,0,4.235855,-35.86029,-14.681783)">
            <g>
                <path d="M761.731,54.264C761.952,55.22 761.731,56.47 760.996,56.838C759.82,57.5 758.717,56.691 758.202,55.441L756.29,53.603C755.702,53.088 755.996,50.735 756.584,50.294C758.717,49.926 761.143,51.912 761.731,54.264Z" style="fill:rgb(44,38,53);fill-rule:nonzero;"/>
                <path d="M844.891,242.417C842.611,247.49 840.406,245.873 836.215,248.52C834.303,249.696 830.847,249.034 828.862,248.152C826.656,249.623 820.186,248.373 818.054,247.123L808.569,241.314L801.216,237.197L799.599,234.55C797.466,233.079 796.069,231.241 794.305,229.403L790.261,225.286C788.423,223.447 787.467,221.903 786.732,219.477C785.776,216.462 784.967,213.595 784.893,210.433C783.57,207.786 783.423,204.845 785.261,202.345L786.805,196.463L788.717,190.214C790.261,185.067 796.437,176.391 800.481,173.45C802.76,171.832 804.966,170.656 807.613,169.7L817.098,166.318L822.392,164.553C823.715,164.112 824.965,163.597 826.583,163.45L834.45,162.715C836.288,163.377 837.685,163.744 839.67,164.185L847.464,165.95L850.185,168.67L854.964,169.994C857.243,170.582 859.008,172.126 859.89,174.405C861.36,178.229 864.963,176.905 869.963,183.376L872.978,187.273C872.463,188.081 872.022,188.964 872.022,189.331C874.522,191.905 875.992,195.581 875.33,198.89L874.301,204.478L874.007,212.86C869.669,215.58 873.566,218.815 870.257,221.095C868.566,222.271 868.272,223.668 869.228,225.727L866.066,228.006L860.625,235.138C859.596,237.564 857.831,238.447 855.184,238.373L844.891,242.344L844.891,242.417Z" style="fill:rgb(44,38,53);fill-rule:nonzero;"/>
                <path d="M829.377,157.718C827.612,159.703 826.877,160.806 824.304,160.879C820.554,160.879 817.98,158.968 817.319,154.924C817.466,152.424 816.951,149.63 814.672,148.012C812.172,140.439 806.51,135.292 801.437,129.557C799.746,127.646 798.496,126.175 796.437,124.557C794.084,122.793 791.658,120.514 789.893,118.087L786.732,113.823L782.247,105.441L779.82,99.706C778.791,97.353 778.717,94.559 777.909,92.133L776.512,88.089C775.85,86.177 775.482,84.118 775.629,82.06L776.07,73.31C775.482,71.987 775.262,70.369 775.629,68.972C774.968,66.325 775.262,64.487 776.365,61.913C777.394,59.561 777.541,55.958 779.232,53.899C783.644,48.458 788.276,46.105 794.011,43.458C795.555,42.723 796.805,41.988 798.422,41.767L803.054,41.032L807.613,39.047L812.76,41.694L821.51,44.047C822.392,45.37 823.201,46.767 825.259,46.988C825.995,47.061 826.73,48.458 827.245,49.193L832.759,57.943C834.377,58.678 836.068,60.737 834.891,62.502L833.568,64.34C833.274,64.781 834.082,66.104 834.45,66.472L838.347,70.663L839.376,76.619C839.67,78.53 840.038,80.295 840.847,81.839C842.685,85.368 841.582,92.721 838.788,96.397C841.582,101.912 836.509,102.426 835.479,105.882L836.435,108.97C836.656,109.779 835.259,111.102 834.597,111.911C834.082,112.573 834.597,114.411 834.597,115.293L834.891,125.587C834.965,128.748 837.024,132.131 836.876,135.366L836.582,141.321C836.582,142.351 835.479,144.483 835.921,145.439C837.318,148.674 835.553,150.733 833.568,152.939L829.45,157.571L829.377,157.718Z" style="fill:rgb(44,38,53);fill-rule:nonzero;"/>
                <path d="M917.535,193.01C913.638,191.392 908.711,192.201 904.962,193.966C904.079,195.583 902.903,197.201 901.065,197.716L896.8,198.966C888.418,201.318 886.507,205.362 882.169,202.495C881.58,202.127 880.551,201.318 880.257,200.804C879.889,200.215 880.257,198.745 880.477,197.936L882.757,191.392C883.565,189.04 884.154,186.834 887.389,187.054C888.051,184.26 889.889,182.349 892.756,181.687L899.888,174.555L902.756,171.981C905.182,169.776 907.976,168.452 911.579,168.893L912.682,166.835C915.549,166.835 918.196,166.467 920.843,165.879L925.696,166.688L937.681,172.57L942.607,173.673C949.445,176.393 962.238,174.114 968.341,169.555L973.12,165.952C975.253,164.335 978.561,164.261 980.988,163.452C982.605,162.938 983.929,162.276 985.693,162.35C990.546,162.57 991.649,158.82 998.193,158.82L1002.6,158.82C1008.93,158.82 1010.1,162.497 1015.69,163.967L1018.63,166.394C1021.94,169.114 1026.35,171.834 1026.94,176.099C1027.75,182.202 1030.84,184.701 1028.34,191.76C1026.79,196.172 1023.93,193.525 1021.28,198.451L1019.44,201.98L1016.87,205.509C1015.25,207.789 1012.16,210.142 1010.1,209.333C1008.78,212.641 1005.55,214.7 1001.72,213.744C998.413,214.994 994.81,214.553 991.208,214.48L986.723,214.332L979.591,213.377C976.944,213.009 974.885,212.421 972.679,210.73C969.37,208.23 964.812,207.642 961.209,205.803C955.915,203.083 949.518,203.451 943.563,205.142L939.519,204.112C935.916,203.157 933.563,199.554 930.402,198.304L917.608,193.01L917.535,193.01Z" style="fill:rgb(44,38,53);fill-rule:nonzero;"/>
                <path d="M729.234,250.799C726.292,252.931 723.572,253.814 720.41,254.475L712.617,256.02L708.573,256.755C707.617,256.902 706.44,254.917 705.558,254.475L698.5,252.27L692.471,250.579C688.353,249.402 684.456,249.77 680.78,251.534L674.015,254.623L667.766,258.225L658.649,262.784L654.678,264.622C653.575,265.137 650.708,265.284 649.458,265.063C647.178,264.622 643.429,263.005 642.105,261.387L638.576,256.975L634.973,249.99L634.973,242.05L636.664,239.697C636.444,234.991 637.326,230.653 639.017,226.094C642.62,225.653 644.752,223.447 645.855,219.992C646.517,218.007 647.62,216.389 649.678,215.727C650.634,213.007 652.987,211.536 655.634,211.242L658.501,209.772L662.251,207.345L664.089,208.228C666.736,207.492 670.045,205.434 672.692,205.434L678.059,205.434L680.78,206.831C682.618,205.287 683.868,205.654 685.706,206.242L690.412,207.713C691.368,208.007 692.691,209.183 693.353,210.139C698.059,211.83 702.323,213.816 706.735,216.389C709.087,217.786 712.543,217.492 715.043,218.08C716.808,218.448 717.616,218.815 719.234,218.08C722.69,216.315 725.704,214.624 728.278,211.683C729.675,211.389 732.322,210.507 733.645,210.727L739.16,211.463L742.836,212.566L750.409,214.771L753.35,216.61C759.159,213.595 769.673,218.227 770.335,222.418C770.482,223.3 769.158,224.992 768.276,225.506L760.629,229.33C759.306,229.991 756.659,230.138 755.703,231.315C754.453,232.712 753.35,233.226 752.1,234.476L743.939,242.05C740.115,244.476 736.071,246.314 732.322,249.035L729.307,251.24L729.234,250.799Z" style="fill:rgb(44,38,53);fill-rule:nonzero;"/>
                <path d="M982.164,304.037L979.958,308.228L976.576,313.154C974.517,316.169 970.473,317.786 967.459,319.698C966.062,320.58 964.959,320.874 963.415,321.168C958.562,322.124 955.033,320.801 950.621,318.889L946.136,316.904C944.666,316.242 943.71,315.286 943.195,313.669C940.254,312.051 937.534,309.992 936.21,306.537C931.137,302.787 925.549,298.816 919.079,297.861C914.814,297.199 910.403,297.419 906.726,295.361C903.344,293.449 900.697,291.243 898.418,288.302L894.889,283.67C893.124,281.391 892.462,278.891 892.021,275.729L890.183,270.803C890.55,260.509 882.61,254.113 872.684,253.157C871.801,253.083 869.816,252.421 869.081,251.907L863.566,247.789C862.022,246.613 861.655,243.304 863.566,242.863L871.654,241.098L879.301,240.216C882.977,238.819 887.021,238.746 890.698,240.216C894.08,240.069 897.168,240.878 900.182,242.128L905.035,243.819C908.197,244.922 907.903,248.157 911.432,252.716L914.814,257.127C915.99,258.671 917.755,260.509 919.299,261.98C921.211,261.612 923.343,262.2 925.034,263.009L926.578,262.274C926.578,262.274 927.681,262.715 928.122,262.789L934.593,264.48C936.872,265.068 938.71,264.259 940.842,263.671L945.548,262.274C947.018,261.833 950.033,261.98 951.651,262.421C952.606,262.862 954.518,264.553 955.474,264.259C958.342,263.377 959.665,265.877 961.43,266.465L966.356,268.156C969.444,269.185 971.429,270.729 972.385,273.965L980.326,280.067L983.267,283.523C985.546,291.611 986.281,296.317 982.237,304.037L982.164,304.037Z" style="fill:rgb(44,38,53);fill-rule:nonzero;"/>
                <path d="M761.512,359.988C758.791,360.649 756.953,361.164 754.6,362.708C752.615,363.149 748.865,363.149 746.586,362.708L739.748,361.238C736.733,357.708 732.689,356.826 729.895,352.856L727.616,347.856C726.807,346.091 727.101,341.9 727.542,339.915L729.013,333.298C729.16,332.562 730.557,331.754 730.851,331.239L734.527,325.357C736.071,323.96 736.513,322.93 737.689,321.092L742.468,313.666C744.38,310.652 746.218,308.005 749.159,305.946L750.63,304.255L755.262,299.549L760.703,294.696C762.247,293.299 763.938,292.564 765.703,291.388C769.967,288.447 774.599,285.285 777.908,281.682C780.702,278.741 781.364,274.55 782.466,271.242C784.158,266.021 783.569,261.904 786.069,255.654L788.937,248.449C789.598,246.684 791.363,243.743 792.613,242.125C794.892,239.037 801.73,241.537 804.157,248.154C805.627,251.978 805.186,257.86 802.76,261.095C804.451,263.595 804.451,266.242 802.686,268.595L801.657,274.33L801.289,278.447C797.613,282.05 801.436,285.212 801.289,287.491C801.289,288.079 799.892,288.741 799.23,289.255C799.083,291.02 798.863,294.255 799.377,295.799C800.039,297.858 800.333,298.667 799.966,300.579L799.083,305.064L797.686,309.843C797.833,312.784 798.201,315.651 797.686,318.519L796.657,324.107L796.216,329.621L789.525,333.077L788.937,337.121C786.143,337.121 785.702,339.106 785.26,341.165L781.731,344.694L777.173,349.547L773.349,353.591L765.261,357.561L761.585,360.135L761.512,359.988Z" style="fill:rgb(44,38,53);fill-rule:nonzero;"/>
                <path d="M904.887,138.011L899.373,139.188C893.197,140.511 889.667,137.717 884.815,143.82C883.638,145.291 880.697,146.099 878.859,146.467L877.168,150.879C876.286,153.158 875.697,156.025 873.418,157.569L869.668,157.055C868.198,159.113 864.595,160.143 862.83,158.452C859.963,155.731 860.478,152.423 862.169,149.702C862.169,148.232 862.169,146.761 862.61,145.217L863.786,141.026L864.007,130.732C865.551,128.232 866.213,125.659 865.551,122.497L873.418,108.969L877.389,106.101L885.182,102.278L894.299,98.234C900.329,95.587 906.431,92.793 910.696,87.426L915.843,73.015C917.754,70.441 919.887,68.529 922.313,66.765C923.195,65.882 924.592,63.53 925.842,63.309L931.651,62.28C933.562,61.912 936.871,61.25 938.415,62.721C939.959,64.191 941.65,64.412 943.268,63.603C943.856,63.309 944.812,64.927 945.327,65.368C949.518,68.677 954.37,68.529 950.032,71.25L954.076,74.338C954.076,74.338 955.032,76.176 954.738,76.47L953.194,78.235C952.017,79.558 956.797,82.352 955.767,83.382L954.003,85.073L953.488,83.529C953.488,83.529 952.312,83.161 952.312,83.529C952.679,86.47 955.4,87.72 954.591,91.323L951.797,103.822L949.812,104.484C949.444,104.631 949.812,105.881 949.959,106.395L950.179,108.454C950.179,108.969 949.003,109.483 948.194,109.778C948.415,113.086 947.165,115.439 944.959,117.865L942.165,120.88L934.592,129.85L933.489,131.1C933.489,131.1 932.018,130.291 931.651,130.071L927.68,131.688L923.122,133.232L918.49,135.438C914.96,134.262 911.652,135.585 908.637,137.644C907.461,137.644 905.99,137.864 904.887,138.085L904.887,138.011Z" style="fill:rgb(44,38,53);fill-rule:nonzero;"/>
                <path d="M864.374,376.31C863.933,378.442 862.977,380.207 861.212,380.869C858.933,381.751 857.756,382.927 856.58,385.354L847.389,385.354C845.33,382.927 843.86,381.898 840.772,381.31C838.787,380.942 837.243,377.928 835.772,376.825C832.463,374.251 830.405,371.457 829.964,367.046C829.816,365.575 827.17,363.958 826.581,362.708L824.817,359.031L823.493,353.738L822.464,347.635L822.243,336.9C820.92,334.18 820.993,331.386 822.243,328.739L822.464,313.519L823.346,309.181C823.052,306.166 825.037,304.549 826.287,302.196L829.081,296.755C830.037,294.917 832.096,293.152 832.463,291.093L833.493,286.167L833.713,269.844C831.875,266.683 830.846,262.786 831.802,259.183C834.596,256.168 833.346,252.933 840.11,252.492C844.963,254.183 847.977,258.595 849.816,263.08C850.992,263.815 853.418,264.992 853.639,266.168L854.742,271.682L856.433,277.27L858.05,283.005C858.492,284.476 859.521,287.344 859.3,288.814C858.565,290.873 858.271,292.27 858.786,294.476L855.918,299.328C857.462,302.416 856.433,305.284 853.565,307.49C855.698,310.137 855.551,313.225 854.08,315.945C853.271,317.563 853.786,318.886 854.595,320.357C855.551,322.048 856.433,323.518 857.83,324.842C860.256,327.048 861.947,329.474 863.786,332.121L866.947,336.606C868.271,338.518 869.594,341.091 869.888,343.37L870.55,347.561L871.065,353.738L871.065,359.031L869.594,363.222L868.712,371.825C868.491,374.251 867.315,375.869 864.668,376.457L864.374,376.31Z" style="fill:rgb(44,38,53);fill-rule:nonzero;"/>
                <path d="M768.57,172.644L757.835,166.689C754.306,164.777 750.556,163.895 746.659,163.748L742.836,163.601L730.63,163.233C729.748,163.233 727.689,162.498 726.881,162.13L724.307,160.954C721.587,160.366 718.425,159.777 716.146,158.233L710.558,154.41L705.999,148.748L702.911,145.44L699.455,139.484L696.955,135.514L692.764,128.749C689.97,124.264 689.676,118.529 689.676,113.235C689.676,111.986 691.073,111.103 691.661,110.148L695.558,103.971L700.631,100.736L704.749,97.722C713.866,95.957 718.057,99.633 722.175,100.148L726.807,100.736L738.718,110.148C742.174,112.868 744.086,116.838 745.85,120.882L749.159,128.455L751.144,133.455C751.291,145.807 763.055,146.69 766.952,150.807C768.423,152.351 769.085,153.234 770.923,154.263C773.276,155.513 774.525,158.307 775.849,160.733C776.952,162.718 779.305,163.821 780.849,165.586L783.79,169.115C784.378,169.777 784.084,175.732 780.113,176.982L778.422,178.968C777.981,179.556 775.775,179.115 775.187,178.674C773.055,177.129 771.07,173.968 768.643,172.644L768.57,172.644Z" style="fill:rgb(44,38,53);fill-rule:nonzero;"/>
            </g>
        </g>
        <g transform="matrix(4.235855,0,0,4.235855,-35.86029,-14.681783)">
            <g>
                <path d="M555.532,217.26L553.852,221.23L551.409,226.321L549.321,229.324C548.303,230.851 547.845,232.378 546.98,233.956L544.842,237.774C544.537,237.978 543.722,238.588 543.569,238.945C543.06,240.065 541.788,241.744 540.821,242.864L538.581,245.562C536.952,246.529 536.036,247.598 534.865,249.176L533.033,251.721L530.335,255.183L526.873,259.204C525.55,260.782 524.888,262.513 524.277,264.549L523.412,267.348C522.852,269.181 523.106,271.675 523.412,273.559L524.074,277.122C524.226,277.784 524.634,279.26 524.99,279.871L527.128,283.688L528.96,286.335L534.916,295.243C535.425,296.007 535.934,297.126 536.189,297.992C538.123,300.079 538.937,302.522 540.159,305.068L542.704,310.412C543.468,312.041 544.74,313.721 544.231,315.554C544.078,316.215 544.791,317.437 544.944,317.997L544.944,325.53C544.944,325.836 544.129,326.498 544.282,326.701L544.944,327.77L544.028,330.265L543.213,333.624L542.551,336.78C542.093,338.765 540.872,340.903 539.955,342.787L538.734,345.332L536.901,349.404L535.73,352.102L534.356,355.512C534.814,359.839 532.88,363.351 533.847,367.983L534.611,371.547C534.814,372.616 535.781,374.55 536.392,375.517L539.65,380.557C539.344,381.269 538.53,382.186 537.97,382.186C537.207,382.186 536.443,381.626 535.985,380.76L533.185,380.404C532.676,379.233 532.116,377.961 531.455,377.146L528.095,372.921L525.804,369.867L524.175,367.475L521.732,363.453L519.798,359.636C518.881,357.854 518.322,355.869 517.813,353.731L517.711,349.353C516.642,347.215 516.947,345.383 517.558,343.092L518.271,340.496C518.678,339.02 518.882,337.696 519.594,336.373C520.307,335.049 520.663,333.573 521.121,332.148L522.597,327.567L523.768,324.462L524.328,320.746C524.939,316.775 524.735,312.855 522.445,309.445L518.932,304.1L511.093,295.446L505.545,289.644L502.542,285.114C499.844,281.092 498.418,276.766 498.164,271.879L498.011,268.468C497.808,264.447 500.2,262.513 501.218,260.12C502.084,258.135 503,256.659 504.12,254.928L507.123,250.448L509.159,247.14L512.671,242.813L515.267,238.537L518.118,232.684L520.358,227.288L520.918,224.794L521.681,221.739L522.445,218.736C522.699,217.718 522.801,216.7 522.954,215.631L523.565,211.304C523.768,209.675 523.87,207.181 523.565,205.552L522.801,201.633L522.241,198.63C522.088,197.662 521.732,196.899 520.714,196.695L520.714,208.403L519.849,209.981C521.376,214.104 516.387,215.122 514.86,219.092C514.351,220.415 514.351,221.078 513.028,222.198L514.3,224.285C512.977,225.761 511.246,226.524 509.261,226.168L506.105,225.659C504.018,225.303 502.847,223.979 501.167,222.91L496.739,220.111C495.873,219.551 494.092,218.787 493.023,218.685C485.591,217.922 482.74,218.99 476.988,222.808L473.578,225.048C472.102,226.015 471.236,227.084 470.167,228.56C469.455,229.273 467.826,230.597 466.859,231.055L457.645,235.585L455.253,236.4L452.199,237.214L448.686,237.519L447.617,238.13C447.617,238.13 446.752,237.418 446.447,237.367C444.614,237.214 441.204,237.672 439.32,237.163L436.571,236.4L433.924,235.635L431.176,234.923L428.936,234.363C425.475,233.498 422.573,234.821 419.366,235.635C417.177,236.145 415.345,237.468 413.36,238.436L406.488,241.643L400.379,244.34C398.343,245.257 396.358,246.58 394.627,247.802C393.202,246.224 389.893,245.562 389.69,243.119C389.486,240.675 391.013,239.199 391.879,237.367L396.409,228L399.361,219.652L400.125,216.242C400.481,214.715 399.819,213.086 401.754,212.322L401.652,202.447L400.837,200.004C400.278,198.222 399.769,196.084 398.954,194.506L397.682,191.961C396.867,190.994 396.053,189.772 395.493,188.5L394.526,188.5C394.22,188.5 394.169,189.569 394.271,189.874L395.136,193.59L395.849,198.12C396.205,200.411 394.882,202.447 394.373,204.687L393.762,207.385L391.471,212.322L390.097,214.816C389.333,216.241 388.061,218.176 387.705,219.703C387.297,221.587 387.094,223.419 386.025,224.997L386.636,226.015C386.636,226.015 386.33,226.778 386.228,227.084L384.599,231.106L383.887,234.058L382.563,236.705L381.24,239.708L384.04,245.257L384.803,246.835L386.992,252.485C388.621,254.216 389.741,256.303 389.893,258.695C390.402,259.509 390.199,259.967 389.893,260.985L389.588,264.396L388.926,266.839L387.297,271.981L384.04,278.547L382.36,280.94L380.273,283.79L378.695,286.08L375.793,289.39C374.724,290.611 374.215,291.426 372.841,292.342L370.652,295.243C369.787,296.414 369.023,297.585 367.903,298.603C366.173,300.181 364.747,302.013 364.391,304.609C363.882,307.918 363.984,311.736 364.391,315.146L365.358,318.302C365.969,320.237 366.631,321.866 368.056,323.24L370.194,325.276L374.419,328.992L375.895,330.162L379.967,332.606L381.902,333.98C384.803,336.067 386.89,338.765 388.264,341.972L390.708,347.47L393.558,353.273L393.711,356.886L394.526,360.806L395.238,363.352L396.053,366.355C396.256,367.017 397.071,368.289 397.58,368.849L401.805,373.328C402.517,374.041 401.703,375.365 400.736,375.416C398.649,375.568 398.75,373.023 396.714,375.416C392.744,372.31 389.588,368.289 387.195,363.861L384.905,359.585L383.429,357.344C382.716,356.225 381.647,355.207 381.189,353.985C380.629,352.509 379.611,352.153 378.542,351.237C375.539,348.59 372.79,346.095 368.718,344.823C368.005,344.619 366.987,343.499 366.376,343.194L361.337,340.649L358.741,339.427L355.534,337.696L349.782,333.675C347.338,331.944 345.455,329.959 343.877,327.414L339.449,320.44L338.023,317.284L337.158,314.891L336.852,311.074C336.038,308.478 336.547,306.086 336.903,303.591L337.616,298.857L338.43,295.651L340.517,289.848L342.706,284.299L344.081,281.194C345.71,277.631 347.44,274.475 348.713,270.708C349.273,269.079 350.698,267.247 351.054,265.618L351.818,262.207L352.734,258.898C353.04,257.727 352.531,255.895 352.123,254.674L351.054,251.314C350.494,249.532 349.324,247.547 348.255,245.918L343.826,239.351L340.823,235.534C338.838,232.989 337.82,229.986 336.547,226.881C336.191,226.015 336.242,224.743 336.293,223.623C336.343,222.503 335.885,221.434 335.682,220.314C334.613,214.257 336.394,210.541 336.191,207.792C335.987,204.687 338.583,199.24 340.059,195.932L343.266,188.551L345.099,185.497L351.156,176.029C351.156,176.029 351.36,174.909 351.156,174.807C350.851,174.654 349.884,174.501 349.527,174.603L342.452,176.792L339.296,177.403L324.483,177.912L321.021,178.625C319.647,178.93 318.985,179.439 317.56,178.625L314.964,178.217L312.572,177.607L307.634,176.232C302.493,174.807 297.912,172.211 293.585,169.106C292.007,167.986 290.429,166.51 289.462,164.881L287.018,160.809C285.949,159.027 283.659,157.551 282.437,155.769L281.164,153.886C279.332,151.239 279.739,148.795 278.11,147.777C277.245,148.185 277.296,148.185 278.212,147.727L277.754,145.69L276.94,142.127L276.227,138.36L275.514,133.932C275.311,132.557 275.514,131.692 275.871,130.267C276.176,129.147 275.769,126.805 276.125,125.736L277.805,120.85L279.586,116.778C279.994,115.861 280.248,115.25 280.757,114.487C281.673,113.113 282.335,111.229 283.302,109.906L285.593,106.851L287.731,104.001C290.378,100.489 293.788,97.994 297.657,95.958L299.897,94.736C301.678,93.769 303.511,92.649 305.394,91.987L309.874,90.46L313.386,89.9C317.662,89.239 322.09,89.544 326.468,89.9C327.944,90.002 329.522,90.664 331.1,90.46C331.711,90.359 332.882,90.919 333.442,91.122C335.733,91.275 338.481,91.377 340.772,91.02C341.892,90.868 343.012,90.409 344.233,90.46C350.036,90.664 357.01,85.981 359.402,80.636L360.37,78.447L362.406,73.917L363.526,71.423L365.053,67.91C366.274,65.162 368.209,62.26 370.703,60.631C372.077,59.715 373.401,57.781 374.775,57.017C376.709,56.203 378.135,55.49 379.815,54.37C381.138,53.505 382.716,52.843 384.09,52.181C386.839,50.756 389.486,49.891 392.439,48.72L395.187,47.6L398.75,46.989L401.805,46.226L405.113,45.462C408.117,44.75 411.374,45.106 414.429,45.462L417.381,46.226L420.384,46.938C422.471,47.447 424.762,48.364 426.34,49.585L430.158,52.589L433.466,55.541C434.484,56.457 435.197,56.712 435.808,57.883L437.437,59.868L438.862,62.006C439.778,63.38 440.695,65.365 441.204,67.045L442.782,72.186L443.596,75.597L443.952,84.454L444.767,88.068C446.039,89.646 447.77,91.071 449.399,92.191L452.097,94.024L454.642,95.5C456.474,96.569 460.343,96.874 462.888,96.365L466.808,95.602L469.709,94.838C472.305,94.126 473.68,91.428 475.716,90.053C478.21,89.646 480.806,86.643 481.57,84.047L483.809,81.603C483.504,80.331 483.708,79.262 484.318,78.804C485.591,77.938 486.456,78.702 487.373,79.415C488.034,79.924 489.663,80.993 489.46,81.756L488.645,85.217C487.373,86.795 486.1,88.323 485.54,90.359L484.573,91.631L482.689,94.227C481.213,96.518 479.686,98.351 476.887,99.267C475.97,100.03 474.647,101.049 473.476,101.659L466.553,105.324C464.313,106.495 461.514,106.75 459.02,107.666C457.951,108.022 455.609,108.022 454.591,107.768L451.588,106.902L449.246,106.292L440.542,103.186L437.64,101.659L433.568,99.267C431.227,97.892 425.933,89.697 425.525,88.17L424.864,85.676L423.54,81.552L422.98,78.091C422.675,74.222 421.402,71.27 418.755,68.47C416.312,65.874 415.345,64.907 411.273,63.838C410.153,63.533 408.677,62.973 407.709,63.787C406.844,64.5 406.437,64.449 405.266,64.296C403.23,64.093 400.328,63.889 398.445,64.347C396.46,65.009 394.831,65.976 392.693,65.722C391.675,67.401 390.504,68.878 389.232,70.201L386.839,75.699L385.21,79.72C384.905,80.484 384.599,82.163 384.447,82.927L383.683,87.559L382.971,91.071L381.393,95.602C380.884,97.078 380.273,98.809 379.356,100.081L377.168,103.186L374.113,106.037C373.655,106.444 372.485,107.157 371.925,107.36L362.66,110.771L349.527,110.873C348.306,110.109 347.084,110.16 345.659,110.058L340.059,109.702L337.26,109.702C335.58,109.702 333.544,109.346 331.915,109.549C326.875,110.16 322.243,112.145 319.393,116.269L315.829,119.832L312.063,125.024C311.91,127.162 311.91,129.86 312.164,132.099C312.215,132.659 312.775,133.728 312.724,134.288C312.622,136.172 313.793,138.157 314.455,138.615C314.862,138.869 316.033,138.717 316.746,138.615C317.56,140.193 318.629,141.465 320.054,142.687L321.836,144.265C323.21,145.487 324.127,146.658 325.755,147.676L327.792,149.661L330.031,150.73C332.118,150.628 334.104,150.73 336.038,151.697L337.209,153.784L341.383,153.784L354.159,148.388C355.127,148.388 356.196,148.388 356.908,147.981L360.93,145.436L370.805,141.058L372.637,140.346L374.673,140.091L377.269,139.175L379.102,138.666L384.396,137.088L387.501,136.222C389.588,135.612 391.115,134.695 393.507,134.95C394.271,135.052 395.34,134.594 396.154,134.543L401.906,134.034C404.095,133.83 406.131,132.761 411.324,134.085L416.923,135.561L420.384,136.324L422.319,136.986L424.915,137.8L427.969,138.615L430.158,139.328L432.448,140.04L436.368,140.855L439.727,141.669C440.949,141.975 442.934,141.72 444.105,142.178C446.65,143.145 449.043,142.331 451.486,141.924C453.217,141.669 454.998,141.873 456.729,141.109L460.954,139.226L463.601,137.75L470.982,133.066L474.29,130.929L479.075,127.874L483.402,125.635L487.678,123.293C489.205,122.479 490.579,122.479 492.208,122.021L496.433,120.799C498.724,120.137 501.065,121.817 503.051,122.733L505.901,124.057C510.228,126.093 512.773,126.144 517.558,125.838L520.816,124.667L524.888,122.479C525.499,122.122 527.128,121.613 527.84,121.512C532.574,120.901 537.003,121.613 540.668,124.515C541.788,125.38 543.468,125.94 544.791,126.398L546.267,127.467L549.525,126.551C550.849,126.195 548.863,124.464 548.202,120.646L547.591,117.032L546.776,113.723L546.267,110.975L537.919,94.38L532.931,86.795L530.742,83.843L526.11,78.702C525.092,77.582 524.226,76.513 523.463,75.189L525.55,73.255L528.808,73.255L533.949,75.851L536.647,78.346L540.973,80.484C542.45,82.163 544.18,83.436 546.115,84.25L551.714,89.646L553.954,91.224L561.64,98.707L563.829,100.692L567.494,103.848C568.003,104.255 569.123,104.764 569.632,105.426C572.177,108.938 575.282,103.186 582.103,102.067L586.023,101.405L589.077,101.049C590.96,100.234 592.182,100.336 594.014,101.049L599.003,101.354L602.566,102.067C603.279,102.219 604.704,102.627 605.315,102.881L608.878,104.561L610.71,107.819C611.067,108.429 612.747,107.462 613.306,107.004L616.055,104.866L620.433,101.812C622.52,100.336 623.894,99.114 625.93,97.689L629.646,95.093L632.904,92.7L640.489,88.577L643.288,86.439L648.124,83.283C649.855,82.163 652.349,82.01 653.927,82.927L655.861,82.927C656.269,82.927 656.218,84.657 655.861,85.065C654.894,86.134 654.283,87.305 653.622,88.526L650.975,93.26C650.211,94.635 649.6,96.009 648.837,97.282L646.088,101.71C645.833,102.117 645.019,102.881 644.663,103.237L641.456,109.04L638.351,114.996L637.435,117.236L637.435,135.866C636.773,136.782 635.958,138.717 636.925,139.531L639.725,138.564L642.779,137.902L644.51,137.342L651.077,137.139C652.756,137.139 655.607,135.764 657.236,134.39C657.796,133.016 658.814,132.456 660.137,132.71C661.257,132.914 662.224,134.899 660.901,135.815C659.985,136.426 658.457,137.037 657.796,137.902C657.032,138.869 656.167,140.142 654.843,140.142L649.142,140.346C648.226,140.804 647.106,141.109 645.986,141.058C644.714,140.804 643.696,140.956 642.83,141.669C636.875,141.975 638.198,145.64 634.686,147.981L633.26,150.221C631.682,152.715 630.104,153.428 630.664,153.58L631.682,153.886L633.566,154.598L641.15,158.772L644.205,159.841L647.361,158.365C651.331,156.482 651.331,153.58 654.385,151.646L655.709,150.781C656.472,150.272 657.032,150.068 658.05,149.814C658.865,149.61 660.29,148.897 661.003,149.406C662.682,150.628 663.293,149.559 665.94,149.406L669.707,149.203L669.809,151.85C668.587,152.562 666.449,152.664 665.228,153.173L663.751,153.733C663.395,153.886 662.937,153.326 662.428,152.817L658.916,154.802C657.592,155.566 656.625,156.533 655.912,157.856C654.894,159.791 652.858,160.3 651.178,161.521L649.091,163.048C646.953,164.626 645.019,164.525 642.779,163.659C642.067,163.405 640.998,163.048 640.336,162.641L636.518,160.249C635.144,159.383 633.108,157.704 631.377,157.907L628.272,158.263L628.679,161.623L628.476,162.387L629.29,164.932C630.817,165.95 632.293,167.121 633.668,168.393L636.416,170.938C636.62,171.804 637.18,172.974 637.842,173.127L640.845,173.738C642.627,174.094 645.426,174.196 647.31,173.738L651.077,172.924C653.164,172.465 654.64,172.109 656.676,172.924L659.272,173.992L661.97,175.265L662.937,176.029C663.242,176.283 662.937,177.607 662.479,177.759C661.003,178.217 658.508,177.607 656.879,177.047C655.607,176.741 653.418,176.894 652.247,177.047L649.244,177.607C648.582,177.708 647.87,178.065 647.31,178.523C645.63,179.846 643.543,178.879 641.761,178.421C641.049,178.217 639.369,178.421 638.758,177.81L635.704,174.909L632.955,172.313C631.937,171.346 631.428,169.971 629.595,169.411C628.73,169.157 628.577,170.582 628.323,171.447L626.134,178.625L625.32,181.73L624.302,185.293L622.673,189.772C621.706,192.368 619.975,196.39 616.615,196.135C613.714,195.932 610.761,193.946 607.911,193.387C600.428,191.91 594.32,184.937 588.822,183.155L581.085,180.61L578.998,179.999C576.86,179.846 574.875,179.286 573.093,177.963L570.192,175.825L561.895,168.088L559.807,166.612C559.248,166.204 557.619,166.052 557.059,166.561C555.481,167.935 555.277,170.022 555.379,171.804C552.936,173.992 550.899,176.996 551.765,180.457C550.34,182.137 550.696,184.224 551.51,185.904L552.274,188.958C552.274,190.434 552.681,191.809 553.546,192.979L555.175,198.426L556.651,203.211C557.262,205.196 557.059,208.453 556.651,210.643L555.99,214.257C555.888,214.918 555.481,216.395 555.175,217.107L555.532,217.26ZM300.253,106.037C301.475,105.019 302.187,104.459 303.002,103.237C300.609,103.746 299.235,105.223 298.115,107.055L300.253,106.037ZM294.705,125.584C295.163,124.667 295.366,123.751 294.857,122.682L293.483,125.533C293.483,125.533 293.687,126.449 293.737,126.602C293.788,126.755 294.247,126.602 294.297,126.398L294.705,125.584ZM613.866,142.636C615.343,141.669 616.259,140.702 617.481,139.175L617.481,134.492L616.004,132.303C614.121,131.132 611.728,132.303 611.474,134.339C611.372,135.001 611.169,135.561 610.965,136.172C610.049,138.666 611.729,141.262 613.917,142.636L613.866,142.636ZM282.488,133.219C282.488,133.219 281.623,133.016 281.673,133.219C281.572,135.204 280.91,136.121 282.284,137.648L282.488,133.168L282.488,133.219ZM573.704,144.723C575.486,144.418 576.911,143.043 577.827,141.72C578.743,140.397 578.743,138.869 577.216,138.004C576.809,136.273 575.282,134.848 573.144,134.95C571.871,134.95 570.65,136.986 570.701,138.259C569.835,139.48 569.835,140.6 570.701,141.72C570.701,143.196 571.719,145.029 573.653,144.723L573.704,144.723ZM609.031,171.244L609.234,167.579C610.71,165.441 609.998,162.896 608.114,161.318L605.62,161.216C604.348,160.605 602.973,160.35 601.853,160.605C601.09,163.048 601.853,164.932 602.82,166.815L604.398,169.818L606.689,174.043L607.351,174.858C607.351,174.858 608.42,174.756 608.318,174.705L609.082,171.295L609.031,171.244ZM344.182,223.826L344.895,223.674L344.895,219.856C344.946,218.94 344.437,217.922 343.673,217.26C342.961,218.583 343.317,219.398 343.775,220.62L344.182,223.776L344.182,223.826ZM367.954,330.417L364.442,328.381C364.238,329.959 367.7,331.792 369.023,331.334C369.176,331.283 368.82,330.825 368.667,330.723L367.954,330.417Z" style="fill:rgb(44,38,53);fill-rule:nonzero;"/>
                <path d="M467.164,369.003C462.481,369.817 461.361,368.799 458.561,367.068L456.424,365.745L451.078,360.604L449.246,358.975C446.243,356.379 442.324,350.932 440.338,347.063C439.371,345.18 437.895,343.042 437.64,340.853C437.386,338.664 437.691,336.577 437.029,334.49L436.571,327.517L435.197,323.037L434.28,319.881L432.906,316.725L424.914,308.53C423.947,307.563 422.827,306.799 421.758,306.086L419.468,304.559L416.668,302.472L412.698,298.858C411.629,297.891 410.102,296.262 409.44,295.142L406.844,290.866L406.131,287.863L405.317,285.114L405.011,280.126C404.96,279.006 404.197,277.734 404.4,276.614L405.215,272.083C404.859,270.098 404.909,268.418 405.826,266.688L406.029,264.906L408.065,260.579L408.676,257.932L409.949,254.624L413.105,246.734C413.41,246.021 415.141,245.665 415.701,245.207L417.839,243.527C418.501,243.018 419.315,242.407 420.028,242.356C422.369,242.305 425.169,246.326 424.711,248.159C424.253,249.991 422.878,251.926 421.809,253.504C421.809,255.591 420.995,257.271 420.435,259.307L419.671,262.157L418.959,265.262C419.315,266.637 419.417,267.96 419.468,269.538L419.62,274.934L420.435,277.428L421.249,280.126C421.809,281.958 422.929,284.045 423.845,285.623L427.256,291.426L432.397,298.706C434.637,299.571 436.469,300.945 438.149,302.778C439.829,304.61 443.596,306.697 444.971,308.784L448.941,314.994L451.13,317.794L452.606,319.678C452.504,320.95 453.522,322.172 453.827,323.241L455.456,328.535C456.118,330.622 455.812,334.083 455.456,336.272C455.252,337.646 455.049,337.85 455.456,339.123C455.914,340.548 455.558,342.737 455.711,344.264C456.83,345.74 456.017,346.554 457.238,349.456L460.954,358.415C461.361,359.382 462.277,360.553 463.193,361.316C464.364,362.232 464.313,364.116 464.975,365.185L467.266,368.901L467.164,369.003Z" style="fill:rgb(44,38,53);fill-rule:nonzero;"/>
                <path d="M609.743,336.63L607.656,336.783C607.198,336.783 606.893,335.714 606.638,335.307L604.195,335.103L602.006,331.947L600.479,329.758C600.123,328.639 599.766,327.468 599.054,326.552C595.796,322.479 593.454,318.203 592.182,312.96C591.52,310.364 591.978,307.208 591.927,304.307C593.76,301.66 593.251,299.318 595.44,296.468L597.119,294.279L601.955,287.051L604.5,282.877C605.62,281.044 606.129,278.652 606.791,276.616L607.555,274.274L607.555,267.3C607.555,266.282 605.977,264.857 605.417,264.043C604.602,262.77 603.889,262.159 602.77,261.294L599.257,258.749C597.221,257.273 595.032,256.458 592.64,255.949L589.738,255.338L586.735,254.626L581.95,253.048L575.333,249.892C574.773,249.637 573.602,248.823 573.144,248.415L568.207,243.936L565.967,241.645C564.032,239.304 562.454,236.402 560.978,233.755L560.978,221.691L562.404,219.757C562.556,218.434 562.607,217.416 563.014,216.296L564.032,213.394C564.643,211.613 565.152,210.136 564.134,208.609L564.796,207.54C564.796,207.54 564.083,206.573 564.083,206.268L564.083,200.618C564.083,199.396 564.389,198.531 564.134,197.462L563.473,194.357L562.709,191.659L561.895,189.063C561.691,188.503 561.742,187.128 562.2,186.772C562.658,186.416 563.625,186.212 564.338,185.958C566.832,185.092 568.359,186.008 570.497,187.637C572.431,189.113 574.366,190.59 575.74,192.677C577.725,195.833 578.387,197.36 578.336,201.127L578.183,213.089C578.183,214.412 577.318,215.176 578.387,216.397L578.54,219.553L579.303,222.302L580.067,225.306L582.358,231.719L584.546,234.315C585.615,235.639 586.684,236.708 587.957,237.726L589.637,239.1L595.032,241.9L599.868,243.885L603.839,245.514L606.893,246.227L609.998,246.99L612.696,247.703L616.208,249.128L619.72,250.808C622.011,251.877 623.284,253.2 624.658,255.186C625.778,256.764 626.949,257.985 627.458,260.021L629.545,264.908L630.105,268.42L629.595,272.645C629.188,275.954 627.152,277.786 627.254,280.535L625.32,284.455C623.385,288.273 621.146,291.479 618.346,294.584L613.307,300.133L611.067,302.729C609.082,305.07 607.605,307.616 606.18,310.364C604.958,312.757 606.282,314.029 604.958,316.015C604.806,318.967 604.653,322.021 605.06,324.872C605.722,329.86 611.118,332.66 609.947,336.681L609.743,336.63Z" style="fill:rgb(44,38,53);fill-rule:nonzero;"/>
            </g>
        </g>
    </g>
</svg>
